G04 #@! TF.GenerationSoftware,KiCad,Pcbnew,(5.0.0-rc3-dev-14-g1a2291879)*
G04 #@! TF.CreationDate,2019-01-08T02:03:16-05:00*
G04 #@! TF.ProjectId,LoadCellShield,4C6F616443656C6C536869656C642E6B,rev?*
G04 #@! TF.SameCoordinates,Original*
G04 #@! TF.FileFunction,Copper,L2,Bot,Signal*
G04 #@! TF.FilePolarity,Positive*
%FSLAX46Y46*%
G04 Gerber Fmt 4.6, Leading zero omitted, Abs format (unit mm)*
G04 Created by KiCad (PCBNEW (5.0.0-rc3-dev-14-g1a2291879)) date 01/08/19 02:03:16*
%MOMM*%
%LPD*%
G01*
G04 APERTURE LIST*
G04 #@! TA.AperFunction,ComponentPad*
%ADD10C,2.499360*%
G04 #@! TD*
G04 #@! TA.AperFunction,ComponentPad*
%ADD11R,3.500000X3.500000*%
G04 #@! TD*
G04 #@! TA.AperFunction,ComponentPad*
%ADD12O,1.998980X1.998980*%
G04 #@! TD*
G04 #@! TA.AperFunction,ComponentPad*
%ADD13R,1.998980X1.998980*%
G04 #@! TD*
G04 #@! TA.AperFunction,ComponentPad*
%ADD14O,1.727200X2.032000*%
G04 #@! TD*
G04 #@! TA.AperFunction,ComponentPad*
%ADD15C,4.064000*%
G04 #@! TD*
G04 #@! TA.AperFunction,ComponentPad*
%ADD16C,1.440000*%
G04 #@! TD*
G04 #@! TA.AperFunction,ComponentPad*
%ADD17O,1.700000X1.700000*%
G04 #@! TD*
G04 #@! TA.AperFunction,ComponentPad*
%ADD18R,1.700000X1.700000*%
G04 #@! TD*
G04 #@! TA.AperFunction,ComponentPad*
%ADD19O,1.800000X1.800000*%
G04 #@! TD*
G04 #@! TA.AperFunction,ComponentPad*
%ADD20R,1.800000X1.800000*%
G04 #@! TD*
G04 #@! TA.AperFunction,ViaPad*
%ADD21C,0.600000*%
G04 #@! TD*
G04 #@! TA.AperFunction,Conductor*
%ADD22C,0.250000*%
G04 #@! TD*
G04 #@! TA.AperFunction,Conductor*
%ADD23C,0.254000*%
G04 #@! TD*
G04 APERTURE END LIST*
D10*
G04 #@! TO.P,TP11,1*
G04 #@! TO.N,Net-(IC2-Pad8)*
X135001000Y-92456000D03*
G04 #@! TD*
G04 #@! TO.P,TP12,1*
G04 #@! TO.N,Net-(IC2-Pad9)*
X139446000Y-92456000D03*
G04 #@! TD*
G04 #@! TO.P,TP10,1*
G04 #@! TO.N,Net-(IC1-Pad9)*
X139573000Y-108585000D03*
G04 #@! TD*
G04 #@! TO.P,TP9,1*
G04 #@! TO.N,Net-(IC1-Pad8)*
X135128000Y-108585000D03*
G04 #@! TD*
D11*
G04 #@! TO.P,J7,1*
G04 #@! TO.N,Analog_Vin*
X132334000Y-112491000D03*
G04 #@! TO.P,J7,2*
G04 #@! TO.N,GND*
X132334000Y-118491000D03*
G04 #@! TO.P,J7,3*
G04 #@! TO.N,Net-(J7-Pad3)*
X137034000Y-115491000D03*
G04 #@! TD*
D12*
G04 #@! TO.P,J2,3*
G04 #@! TO.N,Net-(IC2-Pad6)*
X126492000Y-83947000D03*
G04 #@! TO.P,J2,2*
G04 #@! TO.N,Net-(IC2-Pad7)*
X126492000Y-86487000D03*
D13*
G04 #@! TO.P,J2,1*
G04 #@! TO.N,GND*
X126492000Y-89027000D03*
D12*
G04 #@! TO.P,J2,4*
G04 #@! TO.N,V_Bridge1*
X126492000Y-81407000D03*
G04 #@! TD*
D14*
G04 #@! TO.P,P1,1*
G04 #@! TO.N,Net-(P1-Pad1)*
X138938000Y-123825000D03*
G04 #@! TO.P,P1,2*
G04 #@! TO.N,/IOREF*
X141478000Y-123825000D03*
G04 #@! TO.P,P1,3*
G04 #@! TO.N,/Reset*
X144018000Y-123825000D03*
G04 #@! TO.P,P1,4*
G04 #@! TO.N,+3V3*
X146558000Y-123825000D03*
G04 #@! TO.P,P1,5*
G04 #@! TO.N,+5V*
X149098000Y-123825000D03*
G04 #@! TO.P,P1,6*
G04 #@! TO.N,GND*
X151638000Y-123825000D03*
G04 #@! TO.P,P1,7*
X154178000Y-123825000D03*
G04 #@! TO.P,P1,8*
G04 #@! TO.N,Vin*
X156718000Y-123825000D03*
G04 #@! TD*
G04 #@! TO.P,P2,1*
G04 #@! TO.N,Channel0*
X161798000Y-123825000D03*
G04 #@! TO.P,P2,2*
G04 #@! TO.N,Channel1*
X164338000Y-123825000D03*
G04 #@! TO.P,P2,3*
G04 #@! TO.N,/A2*
X166878000Y-123825000D03*
G04 #@! TO.P,P2,4*
G04 #@! TO.N,/A3*
X169418000Y-123825000D03*
G04 #@! TO.P,P2,5*
G04 #@! TO.N,/A4(SDA)*
X171958000Y-123825000D03*
G04 #@! TO.P,P2,6*
G04 #@! TO.N,/A5(SCL)*
X174498000Y-123825000D03*
G04 #@! TD*
G04 #@! TO.P,P3,1*
G04 #@! TO.N,/A5(SCL)*
X129794000Y-75565000D03*
G04 #@! TO.P,P3,2*
G04 #@! TO.N,/A4(SDA)*
X132334000Y-75565000D03*
G04 #@! TO.P,P3,3*
G04 #@! TO.N,/AREF*
X134874000Y-75565000D03*
G04 #@! TO.P,P3,4*
G04 #@! TO.N,GND*
X137414000Y-75565000D03*
G04 #@! TO.P,P3,5*
G04 #@! TO.N,/13(SCK)*
X139954000Y-75565000D03*
G04 #@! TO.P,P3,6*
G04 #@! TO.N,/12(MISO)*
X142494000Y-75565000D03*
G04 #@! TO.P,P3,7*
G04 #@! TO.N,/11(\002A\002A/MOSI)*
X145034000Y-75565000D03*
G04 #@! TO.P,P3,8*
G04 #@! TO.N,/10(\002A\002A/SS)*
X147574000Y-75565000D03*
G04 #@! TO.P,P3,9*
G04 #@! TO.N,/9(\002A\002A)*
X150114000Y-75565000D03*
G04 #@! TO.P,P3,10*
G04 #@! TO.N,/8*
X152654000Y-75565000D03*
G04 #@! TD*
G04 #@! TO.P,P4,1*
G04 #@! TO.N,/7*
X156718000Y-75565000D03*
G04 #@! TO.P,P4,2*
G04 #@! TO.N,/6(\002A\002A)*
X159258000Y-75565000D03*
G04 #@! TO.P,P4,3*
G04 #@! TO.N,/5(\002A\002A)*
X161798000Y-75565000D03*
G04 #@! TO.P,P4,4*
G04 #@! TO.N,Sleep1*
X164338000Y-75565000D03*
G04 #@! TO.P,P4,5*
G04 #@! TO.N,/3(\002A\002A)*
X166878000Y-75565000D03*
G04 #@! TO.P,P4,6*
G04 #@! TO.N,Sleep0*
X169418000Y-75565000D03*
G04 #@! TO.P,P4,7*
G04 #@! TO.N,/1(Tx)*
X171958000Y-75565000D03*
G04 #@! TO.P,P4,8*
G04 #@! TO.N,/0(Rx)*
X174498000Y-75565000D03*
G04 #@! TD*
D15*
G04 #@! TO.P,P5,1*
G04 #@! TO.N,Net-(P5-Pad1)*
X124968000Y-123825000D03*
G04 #@! TD*
G04 #@! TO.P,P6,1*
G04 #@! TO.N,Net-(P6-Pad1)*
X177038000Y-118745000D03*
G04 #@! TD*
G04 #@! TO.P,P7,1*
G04 #@! TO.N,Net-(P7-Pad1)*
X126238000Y-75565000D03*
G04 #@! TD*
G04 #@! TO.P,P8,1*
G04 #@! TO.N,Net-(P8-Pad1)*
X177038000Y-90805000D03*
G04 #@! TD*
D12*
G04 #@! TO.P,J1,4*
G04 #@! TO.N,V_Bridge0*
X126492000Y-97409000D03*
D13*
G04 #@! TO.P,J1,1*
G04 #@! TO.N,GND*
X126492000Y-105029000D03*
D12*
G04 #@! TO.P,J1,2*
G04 #@! TO.N,Net-(IC1-Pad7)*
X126492000Y-102489000D03*
G04 #@! TO.P,J1,3*
G04 #@! TO.N,Net-(IC1-Pad6)*
X126492000Y-99949000D03*
G04 #@! TD*
D16*
G04 #@! TO.P,RV1,3*
G04 #@! TO.N,Net-(IC1-Pad9)*
X142494000Y-104013000D03*
G04 #@! TO.P,RV1,2*
G04 #@! TO.N,Net-(IC1-Pad8)*
X145034000Y-101473000D03*
G04 #@! TO.P,RV1,1*
G04 #@! TO.N,Net-(RV1-Pad1)*
X142494000Y-98933000D03*
G04 #@! TD*
G04 #@! TO.P,RV2,1*
G04 #@! TO.N,Net-(RV2-Pad1)*
X142748000Y-82931000D03*
G04 #@! TO.P,RV2,2*
G04 #@! TO.N,Net-(IC2-Pad8)*
X145288000Y-85471000D03*
G04 #@! TO.P,RV2,3*
G04 #@! TO.N,Net-(IC2-Pad9)*
X142748000Y-88011000D03*
G04 #@! TD*
D17*
G04 #@! TO.P,TP1,2*
G04 #@! TO.N,V_Bridge1*
X154775232Y-91527945D03*
D18*
G04 #@! TO.P,TP1,1*
G04 #@! TO.N,Net-(IC2-Pad13)*
X152235232Y-91527945D03*
G04 #@! TD*
G04 #@! TO.P,TP2,1*
G04 #@! TO.N,Net-(IC2-Pad14)*
X152235232Y-87927945D03*
D17*
G04 #@! TO.P,TP2,2*
G04 #@! TO.N,V_Bridge1*
X154775232Y-87927945D03*
G04 #@! TD*
G04 #@! TO.P,TP3,2*
G04 #@! TO.N,V_Bridge1*
X154775232Y-84327945D03*
D18*
G04 #@! TO.P,TP3,1*
G04 #@! TO.N,Net-(IC2-Pad15)*
X152235232Y-84327945D03*
G04 #@! TD*
G04 #@! TO.P,TP4,1*
G04 #@! TO.N,Net-(IC2-Pad16)*
X152235232Y-80727945D03*
D17*
G04 #@! TO.P,TP4,2*
G04 #@! TO.N,V_Bridge1*
X154775232Y-80727945D03*
G04 #@! TD*
G04 #@! TO.P,TP5,2*
G04 #@! TO.N,V_Bridge0*
X154742641Y-107386568D03*
D18*
G04 #@! TO.P,TP5,1*
G04 #@! TO.N,Net-(IC1-Pad13)*
X152202641Y-107386568D03*
G04 #@! TD*
G04 #@! TO.P,TP6,1*
G04 #@! TO.N,Net-(IC1-Pad14)*
X152202641Y-103786568D03*
D17*
G04 #@! TO.P,TP6,2*
G04 #@! TO.N,V_Bridge0*
X154742641Y-103786568D03*
G04 #@! TD*
G04 #@! TO.P,TP7,2*
G04 #@! TO.N,V_Bridge0*
X154742641Y-100186568D03*
D18*
G04 #@! TO.P,TP7,1*
G04 #@! TO.N,Net-(IC1-Pad15)*
X152202641Y-100186568D03*
G04 #@! TD*
G04 #@! TO.P,TP8,1*
G04 #@! TO.N,Net-(IC1-Pad16)*
X152202641Y-96586568D03*
D17*
G04 #@! TO.P,TP8,2*
G04 #@! TO.N,V_Bridge0*
X154742641Y-96586568D03*
G04 #@! TD*
D19*
G04 #@! TO.P,U1,3*
G04 #@! TO.N,Vin*
X149606000Y-118999000D03*
G04 #@! TO.P,U1,2*
G04 #@! TO.N,GND*
X147066000Y-118999000D03*
D20*
G04 #@! TO.P,U1,1*
G04 #@! TO.N,Analog_Vin*
X144526000Y-118999000D03*
G04 #@! TD*
D18*
G04 #@! TO.P,REF\002A\002A,1*
G04 #@! TO.N,Analog_Vin*
X146050000Y-114554000D03*
D17*
G04 #@! TO.P,REF\002A\002A,2*
G04 #@! TO.N,Vin*
X148590000Y-114554000D03*
G04 #@! TD*
D21*
G04 #@! TO.N,GND*
X131191000Y-99949260D03*
X131191000Y-83693000D03*
X132887640Y-101949260D03*
X138287640Y-102149260D03*
X138100685Y-86029096D03*
X128016000Y-102743000D03*
X128016000Y-100203000D03*
X128016000Y-86741000D03*
X128016000Y-84201000D03*
X150622000Y-87630000D03*
X146939000Y-85852000D03*
X146939000Y-85090000D03*
X144145000Y-83439000D03*
X144145000Y-82423000D03*
X140970000Y-82550000D03*
X138049000Y-81915000D03*
X129921000Y-89535000D03*
X131191000Y-89535000D03*
X129921000Y-94615000D03*
X131191000Y-94615000D03*
X129921000Y-106045000D03*
X131191000Y-106045000D03*
X129921000Y-109855000D03*
X131191000Y-109855000D03*
X129921000Y-83693000D03*
X129921000Y-99949000D03*
X156718000Y-117475000D03*
X160528000Y-121285000D03*
X163068000Y-121285000D03*
X165608000Y-121285000D03*
X160528000Y-116205000D03*
X163068000Y-116205000D03*
X165608000Y-116205000D03*
X163068000Y-111125000D03*
X165608000Y-111125000D03*
X165608000Y-106045000D03*
X163068000Y-106045000D03*
X165608000Y-100965000D03*
X163068000Y-100965000D03*
X154686000Y-75565000D03*
X154686000Y-78740000D03*
X147828000Y-98425000D03*
X147828000Y-101981000D03*
X147828000Y-105410000D03*
X147828000Y-109220000D03*
X145288000Y-112395000D03*
X148463000Y-92075000D03*
X148463000Y-88265000D03*
X148463000Y-83058000D03*
X140970000Y-81280000D03*
X147066000Y-81280000D03*
X150622000Y-82423000D03*
X135255000Y-85979000D03*
X132715000Y-85979000D03*
X135509000Y-99441000D03*
X135382000Y-101981000D03*
X135255000Y-83439000D03*
X136661990Y-81915000D03*
X168148000Y-76708000D03*
X165608000Y-76708000D03*
X165608000Y-78994000D03*
X168148000Y-78994000D03*
X157988000Y-112395000D03*
X157988000Y-111125000D03*
X154178000Y-112395000D03*
X154178000Y-111125000D03*
X150368000Y-112395000D03*
X150368000Y-111125000D03*
G04 #@! TO.N,Net-(IC1-Pad8)*
X135763000Y-105791000D03*
G04 #@! TO.N,Channel0*
X160147000Y-112014000D03*
X140843004Y-104521000D03*
G04 #@! TO.N,Channel1*
X164338000Y-95885000D03*
X140716000Y-88392020D03*
G04 #@! TO.N,Net-(IC2-Pad8)*
X134874000Y-89662000D03*
G04 #@! TO.N,V_Bridge0*
X135987640Y-100649260D03*
G04 #@! TO.N,V_Bridge1*
X135011000Y-84582000D03*
G04 #@! TO.N,Analog_Vin*
X130556000Y-80899000D03*
X130556000Y-96901000D03*
G04 #@! TD*
D22*
G04 #@! TO.N,Vin*
X156718000Y-123825000D02*
X156718000Y-123672600D01*
G04 #@! TO.N,Net-(IC1-Pad8)*
X135128000Y-106426000D02*
X135763000Y-105791000D01*
X135128000Y-108585000D02*
X135128000Y-106426000D01*
X137541000Y-105791000D02*
X135763000Y-105791000D01*
X140970000Y-102362000D02*
X137541000Y-105791000D01*
X145034000Y-101473000D02*
X144145000Y-102362000D01*
X144145000Y-102362000D02*
X140970000Y-102362000D01*
G04 #@! TO.N,Channel0*
X161798000Y-123825000D02*
X161798000Y-123672600D01*
X141143003Y-104820999D02*
X140843004Y-104521000D01*
X148082004Y-111760000D02*
X141143003Y-104820999D01*
X160147000Y-112014000D02*
X159893000Y-111760000D01*
X159893000Y-111760000D02*
X148082004Y-111760000D01*
G04 #@! TO.N,Channel1*
X142112980Y-89789000D02*
X141015999Y-88692019D01*
X141015999Y-88692019D02*
X140716000Y-88392020D01*
X158242000Y-89789000D02*
X142112980Y-89789000D01*
X164338000Y-95885000D02*
X158242000Y-89789000D01*
G04 #@! TO.N,Net-(IC2-Pad8)*
X135763000Y-89662000D02*
X134874000Y-89662000D01*
X145288000Y-85471000D02*
X139954000Y-85471000D01*
X139954000Y-85471000D02*
X135763000Y-89662000D01*
X135001000Y-89789000D02*
X134874000Y-89662000D01*
X135001000Y-92456000D02*
X135001000Y-89789000D01*
G04 #@! TO.N,V_Bridge0*
X154742641Y-103786568D02*
X154742641Y-102108000D01*
X154742641Y-102108000D02*
X154742641Y-100186568D01*
X154615641Y-101981000D02*
X154742641Y-102108000D01*
X150622000Y-101981000D02*
X154615641Y-101981000D01*
X148990261Y-100349261D02*
X150622000Y-101981000D01*
X135987640Y-100649260D02*
X136287639Y-100349261D01*
X136287639Y-100349261D02*
X148990261Y-100349261D01*
G04 #@! TO.N,V_Bridge1*
X154775232Y-86725864D02*
X154775232Y-87927945D01*
X154775232Y-84327945D02*
X154775232Y-86106000D01*
X154775232Y-86106000D02*
X154775232Y-86725864D01*
X135167001Y-84425999D02*
X135011000Y-84582000D01*
X148687999Y-84425999D02*
X135167001Y-84425999D01*
X154775232Y-86106000D02*
X150368000Y-86106000D01*
X150368000Y-86106000D02*
X148687999Y-84425999D01*
G04 #@! TO.N,Analog_Vin*
X130556000Y-110713000D02*
X132334000Y-112491000D01*
X130556000Y-80899000D02*
X130556000Y-96901000D01*
X130556000Y-96901000D02*
X130556000Y-110713000D01*
G04 #@! TD*
D23*
G04 #@! TO.N,GND*
G36*
X124901734Y-73565136D02*
X124238136Y-74228734D01*
X123879000Y-75095766D01*
X123879000Y-76034234D01*
X124238136Y-76901266D01*
X124901734Y-77564864D01*
X125768766Y-77924000D01*
X126707234Y-77924000D01*
X127574266Y-77564864D01*
X128237864Y-76901266D01*
X128597000Y-76034234D01*
X128597000Y-75295339D01*
X128603400Y-75295339D01*
X128603400Y-75834662D01*
X128672480Y-76181949D01*
X128935626Y-76575775D01*
X129329452Y-76838920D01*
X129794000Y-76931325D01*
X130258549Y-76838920D01*
X130652375Y-76575775D01*
X130915520Y-76181948D01*
X130984600Y-75834661D01*
X130984600Y-75295339D01*
X131143400Y-75295339D01*
X131143400Y-75834662D01*
X131212480Y-76181949D01*
X131475626Y-76575775D01*
X131869452Y-76838920D01*
X132334000Y-76931325D01*
X132798549Y-76838920D01*
X133192375Y-76575775D01*
X133455520Y-76181948D01*
X133524600Y-75834661D01*
X133524600Y-75295339D01*
X133683400Y-75295339D01*
X133683400Y-75834662D01*
X133752480Y-76181949D01*
X134015626Y-76575775D01*
X134409452Y-76838920D01*
X134874000Y-76931325D01*
X135338549Y-76838920D01*
X135732375Y-76575775D01*
X135995520Y-76181948D01*
X136003679Y-76140932D01*
X136122046Y-76479320D01*
X136511964Y-76915732D01*
X137039209Y-77169709D01*
X137054974Y-77172358D01*
X137287000Y-77051217D01*
X137287000Y-75692000D01*
X137267000Y-75692000D01*
X137267000Y-75438000D01*
X137287000Y-75438000D01*
X137287000Y-74078783D01*
X137541000Y-74078783D01*
X137541000Y-75438000D01*
X137561000Y-75438000D01*
X137561000Y-75692000D01*
X137541000Y-75692000D01*
X137541000Y-77051217D01*
X137773026Y-77172358D01*
X137788791Y-77169709D01*
X138316036Y-76915732D01*
X138705954Y-76479320D01*
X138824321Y-76140932D01*
X138832480Y-76181949D01*
X139095626Y-76575775D01*
X139489452Y-76838920D01*
X139954000Y-76931325D01*
X140418549Y-76838920D01*
X140812375Y-76575775D01*
X141075520Y-76181948D01*
X141144600Y-75834661D01*
X141144600Y-75295339D01*
X141303400Y-75295339D01*
X141303400Y-75834662D01*
X141372480Y-76181949D01*
X141635626Y-76575775D01*
X142029452Y-76838920D01*
X142494000Y-76931325D01*
X142958549Y-76838920D01*
X143352375Y-76575775D01*
X143615520Y-76181948D01*
X143684600Y-75834661D01*
X143684600Y-75295339D01*
X143843400Y-75295339D01*
X143843400Y-75834662D01*
X143912480Y-76181949D01*
X144175626Y-76575775D01*
X144569452Y-76838920D01*
X145034000Y-76931325D01*
X145498549Y-76838920D01*
X145892375Y-76575775D01*
X146155520Y-76181948D01*
X146224600Y-75834661D01*
X146224600Y-75295339D01*
X146383400Y-75295339D01*
X146383400Y-75834662D01*
X146452480Y-76181949D01*
X146715626Y-76575775D01*
X147109452Y-76838920D01*
X147574000Y-76931325D01*
X148038549Y-76838920D01*
X148432375Y-76575775D01*
X148695520Y-76181948D01*
X148764600Y-75834661D01*
X148764600Y-75295339D01*
X148923400Y-75295339D01*
X148923400Y-75834662D01*
X148992480Y-76181949D01*
X149255626Y-76575775D01*
X149649452Y-76838920D01*
X150114000Y-76931325D01*
X150578549Y-76838920D01*
X150972375Y-76575775D01*
X151235520Y-76181948D01*
X151304600Y-75834661D01*
X151304600Y-75295339D01*
X151463400Y-75295339D01*
X151463400Y-75834662D01*
X151532480Y-76181949D01*
X151795626Y-76575775D01*
X152189452Y-76838920D01*
X152654000Y-76931325D01*
X153118549Y-76838920D01*
X153512375Y-76575775D01*
X153775520Y-76181948D01*
X153844600Y-75834661D01*
X153844600Y-75295339D01*
X155527400Y-75295339D01*
X155527400Y-75834662D01*
X155596480Y-76181949D01*
X155859626Y-76575775D01*
X156253452Y-76838920D01*
X156718000Y-76931325D01*
X157182549Y-76838920D01*
X157576375Y-76575775D01*
X157839520Y-76181948D01*
X157908600Y-75834661D01*
X157908600Y-75295339D01*
X158067400Y-75295339D01*
X158067400Y-75834662D01*
X158136480Y-76181949D01*
X158399626Y-76575775D01*
X158793452Y-76838920D01*
X159258000Y-76931325D01*
X159722549Y-76838920D01*
X160116375Y-76575775D01*
X160379520Y-76181948D01*
X160448600Y-75834661D01*
X160448600Y-75295339D01*
X160607400Y-75295339D01*
X160607400Y-75834662D01*
X160676480Y-76181949D01*
X160939626Y-76575775D01*
X161333452Y-76838920D01*
X161798000Y-76931325D01*
X162262549Y-76838920D01*
X162656375Y-76575775D01*
X162919520Y-76181948D01*
X162988600Y-75834661D01*
X162988600Y-75295339D01*
X163147400Y-75295339D01*
X163147400Y-75834662D01*
X163216480Y-76181949D01*
X163479626Y-76575775D01*
X163873452Y-76838920D01*
X164338000Y-76931325D01*
X164802549Y-76838920D01*
X165196375Y-76575775D01*
X165459520Y-76181948D01*
X165528600Y-75834661D01*
X165528600Y-75295339D01*
X165687400Y-75295339D01*
X165687400Y-75834662D01*
X165756480Y-76181949D01*
X166019626Y-76575775D01*
X166413452Y-76838920D01*
X166878000Y-76931325D01*
X167342549Y-76838920D01*
X167736375Y-76575775D01*
X167999520Y-76181948D01*
X168068600Y-75834661D01*
X168068600Y-75295339D01*
X168227400Y-75295339D01*
X168227400Y-75834662D01*
X168296480Y-76181949D01*
X168559626Y-76575775D01*
X168953452Y-76838920D01*
X169418000Y-76931325D01*
X169882549Y-76838920D01*
X170276375Y-76575775D01*
X170539520Y-76181948D01*
X170608600Y-75834661D01*
X170608600Y-75295339D01*
X170767400Y-75295339D01*
X170767400Y-75834662D01*
X170836480Y-76181949D01*
X171099626Y-76575775D01*
X171493452Y-76838920D01*
X171958000Y-76931325D01*
X172422549Y-76838920D01*
X172816375Y-76575775D01*
X173079520Y-76181948D01*
X173148600Y-75834661D01*
X173148600Y-75295339D01*
X173307400Y-75295339D01*
X173307400Y-75834662D01*
X173376480Y-76181949D01*
X173639626Y-76575775D01*
X174033452Y-76838920D01*
X174498000Y-76931325D01*
X174962549Y-76838920D01*
X175356375Y-76575775D01*
X175619520Y-76181948D01*
X175688600Y-75834661D01*
X175688600Y-75295338D01*
X175619520Y-74948051D01*
X175356375Y-74554225D01*
X174962548Y-74291080D01*
X174498000Y-74198675D01*
X174033451Y-74291080D01*
X173639625Y-74554225D01*
X173376480Y-74948052D01*
X173307400Y-75295339D01*
X173148600Y-75295339D01*
X173148600Y-75295338D01*
X173079520Y-74948051D01*
X172816375Y-74554225D01*
X172422548Y-74291080D01*
X171958000Y-74198675D01*
X171493451Y-74291080D01*
X171099625Y-74554225D01*
X170836480Y-74948052D01*
X170767400Y-75295339D01*
X170608600Y-75295339D01*
X170608600Y-75295338D01*
X170539520Y-74948051D01*
X170276375Y-74554225D01*
X169882548Y-74291080D01*
X169418000Y-74198675D01*
X168953451Y-74291080D01*
X168559625Y-74554225D01*
X168296480Y-74948052D01*
X168227400Y-75295339D01*
X168068600Y-75295339D01*
X168068600Y-75295338D01*
X167999520Y-74948051D01*
X167736375Y-74554225D01*
X167342548Y-74291080D01*
X166878000Y-74198675D01*
X166413451Y-74291080D01*
X166019625Y-74554225D01*
X165756480Y-74948052D01*
X165687400Y-75295339D01*
X165528600Y-75295339D01*
X165528600Y-75295338D01*
X165459520Y-74948051D01*
X165196375Y-74554225D01*
X164802548Y-74291080D01*
X164338000Y-74198675D01*
X163873451Y-74291080D01*
X163479625Y-74554225D01*
X163216480Y-74948052D01*
X163147400Y-75295339D01*
X162988600Y-75295339D01*
X162988600Y-75295338D01*
X162919520Y-74948051D01*
X162656375Y-74554225D01*
X162262548Y-74291080D01*
X161798000Y-74198675D01*
X161333451Y-74291080D01*
X160939625Y-74554225D01*
X160676480Y-74948052D01*
X160607400Y-75295339D01*
X160448600Y-75295339D01*
X160448600Y-75295338D01*
X160379520Y-74948051D01*
X160116375Y-74554225D01*
X159722548Y-74291080D01*
X159258000Y-74198675D01*
X158793451Y-74291080D01*
X158399625Y-74554225D01*
X158136480Y-74948052D01*
X158067400Y-75295339D01*
X157908600Y-75295339D01*
X157908600Y-75295338D01*
X157839520Y-74948051D01*
X157576375Y-74554225D01*
X157182548Y-74291080D01*
X156718000Y-74198675D01*
X156253451Y-74291080D01*
X155859625Y-74554225D01*
X155596480Y-74948052D01*
X155527400Y-75295339D01*
X153844600Y-75295339D01*
X153844600Y-75295338D01*
X153775520Y-74948051D01*
X153512375Y-74554225D01*
X153118548Y-74291080D01*
X152654000Y-74198675D01*
X152189451Y-74291080D01*
X151795625Y-74554225D01*
X151532480Y-74948052D01*
X151463400Y-75295339D01*
X151304600Y-75295339D01*
X151304600Y-75295338D01*
X151235520Y-74948051D01*
X150972375Y-74554225D01*
X150578548Y-74291080D01*
X150114000Y-74198675D01*
X149649451Y-74291080D01*
X149255625Y-74554225D01*
X148992480Y-74948052D01*
X148923400Y-75295339D01*
X148764600Y-75295339D01*
X148764600Y-75295338D01*
X148695520Y-74948051D01*
X148432375Y-74554225D01*
X148038548Y-74291080D01*
X147574000Y-74198675D01*
X147109451Y-74291080D01*
X146715625Y-74554225D01*
X146452480Y-74948052D01*
X146383400Y-75295339D01*
X146224600Y-75295339D01*
X146224600Y-75295338D01*
X146155520Y-74948051D01*
X145892375Y-74554225D01*
X145498548Y-74291080D01*
X145034000Y-74198675D01*
X144569451Y-74291080D01*
X144175625Y-74554225D01*
X143912480Y-74948052D01*
X143843400Y-75295339D01*
X143684600Y-75295339D01*
X143684600Y-75295338D01*
X143615520Y-74948051D01*
X143352375Y-74554225D01*
X142958548Y-74291080D01*
X142494000Y-74198675D01*
X142029451Y-74291080D01*
X141635625Y-74554225D01*
X141372480Y-74948052D01*
X141303400Y-75295339D01*
X141144600Y-75295339D01*
X141144600Y-75295338D01*
X141075520Y-74948051D01*
X140812375Y-74554225D01*
X140418548Y-74291080D01*
X139954000Y-74198675D01*
X139489451Y-74291080D01*
X139095625Y-74554225D01*
X138832480Y-74948052D01*
X138824321Y-74989068D01*
X138705954Y-74650680D01*
X138316036Y-74214268D01*
X137788791Y-73960291D01*
X137773026Y-73957642D01*
X137541000Y-74078783D01*
X137287000Y-74078783D01*
X137054974Y-73957642D01*
X137039209Y-73960291D01*
X136511964Y-74214268D01*
X136122046Y-74650680D01*
X136003679Y-74989068D01*
X135995520Y-74948051D01*
X135732375Y-74554225D01*
X135338548Y-74291080D01*
X134874000Y-74198675D01*
X134409451Y-74291080D01*
X134015625Y-74554225D01*
X133752480Y-74948052D01*
X133683400Y-75295339D01*
X133524600Y-75295339D01*
X133524600Y-75295338D01*
X133455520Y-74948051D01*
X133192375Y-74554225D01*
X132798548Y-74291080D01*
X132334000Y-74198675D01*
X131869451Y-74291080D01*
X131475625Y-74554225D01*
X131212480Y-74948052D01*
X131143400Y-75295339D01*
X130984600Y-75295339D01*
X130984600Y-75295338D01*
X130915520Y-74948051D01*
X130652375Y-74554225D01*
X130258548Y-74291080D01*
X129794000Y-74198675D01*
X129329451Y-74291080D01*
X128935625Y-74554225D01*
X128672480Y-74948052D01*
X128603400Y-75295339D01*
X128597000Y-75295339D01*
X128597000Y-75095766D01*
X128237864Y-74228734D01*
X127574266Y-73565136D01*
X127064538Y-73354000D01*
X175377724Y-73354000D01*
X176709001Y-74685277D01*
X176709000Y-85946604D01*
X176702556Y-85979000D01*
X176709000Y-86011396D01*
X176709000Y-86011400D01*
X176728089Y-86107368D01*
X176800805Y-86216195D01*
X176828272Y-86234548D01*
X179249001Y-88655277D01*
X179249001Y-89978464D01*
X179037864Y-89468734D01*
X178374266Y-88805136D01*
X177507234Y-88446000D01*
X176568766Y-88446000D01*
X175701734Y-88805136D01*
X175038136Y-89468734D01*
X174679000Y-90335766D01*
X174679000Y-91274234D01*
X175038136Y-92141266D01*
X175701734Y-92804864D01*
X176568766Y-93164000D01*
X177507234Y-93164000D01*
X178374266Y-92804864D01*
X179037864Y-92141266D01*
X179249001Y-91631536D01*
X179249000Y-117918462D01*
X179037864Y-117408734D01*
X178374266Y-116745136D01*
X177507234Y-116386000D01*
X176568766Y-116386000D01*
X175701734Y-116745136D01*
X175038136Y-117408734D01*
X174679000Y-118275766D01*
X174679000Y-119214234D01*
X175038136Y-120081266D01*
X175701734Y-120744864D01*
X176568766Y-121104000D01*
X177507234Y-121104000D01*
X178374266Y-120744864D01*
X179037864Y-120081266D01*
X179249000Y-119571538D01*
X179249000Y-121148724D01*
X176828270Y-123569454D01*
X176800806Y-123587805D01*
X176782455Y-123615269D01*
X176782451Y-123615273D01*
X176728090Y-123696631D01*
X176702556Y-123825000D01*
X176709001Y-123857401D01*
X176709000Y-126036000D01*
X125794538Y-126036000D01*
X126304266Y-125824864D01*
X126967864Y-125161266D01*
X127327000Y-124294234D01*
X127327000Y-123555339D01*
X137747400Y-123555339D01*
X137747400Y-124094662D01*
X137816480Y-124441949D01*
X138079626Y-124835775D01*
X138473452Y-125098920D01*
X138938000Y-125191325D01*
X139402549Y-125098920D01*
X139796375Y-124835775D01*
X140059520Y-124441948D01*
X140128600Y-124094661D01*
X140128600Y-123555339D01*
X140287400Y-123555339D01*
X140287400Y-124094662D01*
X140356480Y-124441949D01*
X140619626Y-124835775D01*
X141013452Y-125098920D01*
X141478000Y-125191325D01*
X141942549Y-125098920D01*
X142336375Y-124835775D01*
X142599520Y-124441948D01*
X142668600Y-124094661D01*
X142668600Y-123555339D01*
X142827400Y-123555339D01*
X142827400Y-124094662D01*
X142896480Y-124441949D01*
X143159626Y-124835775D01*
X143553452Y-125098920D01*
X144018000Y-125191325D01*
X144482549Y-125098920D01*
X144876375Y-124835775D01*
X145139520Y-124441948D01*
X145208600Y-124094661D01*
X145208600Y-123555339D01*
X145367400Y-123555339D01*
X145367400Y-124094662D01*
X145436480Y-124441949D01*
X145699626Y-124835775D01*
X146093452Y-125098920D01*
X146558000Y-125191325D01*
X147022549Y-125098920D01*
X147416375Y-124835775D01*
X147679520Y-124441948D01*
X147748600Y-124094661D01*
X147748600Y-123555339D01*
X147907400Y-123555339D01*
X147907400Y-124094662D01*
X147976480Y-124441949D01*
X148239626Y-124835775D01*
X148633452Y-125098920D01*
X149098000Y-125191325D01*
X149562549Y-125098920D01*
X149956375Y-124835775D01*
X150219520Y-124441948D01*
X150227679Y-124400932D01*
X150346046Y-124739320D01*
X150735964Y-125175732D01*
X151263209Y-125429709D01*
X151278974Y-125432358D01*
X151511000Y-125311217D01*
X151511000Y-123952000D01*
X151765000Y-123952000D01*
X151765000Y-125311217D01*
X151997026Y-125432358D01*
X152012791Y-125429709D01*
X152540036Y-125175732D01*
X152908000Y-124763892D01*
X153275964Y-125175732D01*
X153803209Y-125429709D01*
X153818974Y-125432358D01*
X154051000Y-125311217D01*
X154051000Y-123952000D01*
X151765000Y-123952000D01*
X151511000Y-123952000D01*
X151491000Y-123952000D01*
X151491000Y-123698000D01*
X151511000Y-123698000D01*
X151511000Y-122338783D01*
X151765000Y-122338783D01*
X151765000Y-123698000D01*
X154051000Y-123698000D01*
X154051000Y-122338783D01*
X154305000Y-122338783D01*
X154305000Y-123698000D01*
X154325000Y-123698000D01*
X154325000Y-123952000D01*
X154305000Y-123952000D01*
X154305000Y-125311217D01*
X154537026Y-125432358D01*
X154552791Y-125429709D01*
X155080036Y-125175732D01*
X155469954Y-124739320D01*
X155588321Y-124400932D01*
X155596480Y-124441949D01*
X155859626Y-124835775D01*
X156253452Y-125098920D01*
X156718000Y-125191325D01*
X157182549Y-125098920D01*
X157576375Y-124835775D01*
X157839520Y-124441948D01*
X157908600Y-124094661D01*
X157908600Y-123555339D01*
X160607400Y-123555339D01*
X160607400Y-124094662D01*
X160676480Y-124441949D01*
X160939626Y-124835775D01*
X161333452Y-125098920D01*
X161798000Y-125191325D01*
X162262549Y-125098920D01*
X162656375Y-124835775D01*
X162919520Y-124441948D01*
X162988600Y-124094661D01*
X162988600Y-123555339D01*
X163147400Y-123555339D01*
X163147400Y-124094662D01*
X163216480Y-124441949D01*
X163479626Y-124835775D01*
X163873452Y-125098920D01*
X164338000Y-125191325D01*
X164802549Y-125098920D01*
X165196375Y-124835775D01*
X165459520Y-124441948D01*
X165528600Y-124094661D01*
X165528600Y-123555339D01*
X165687400Y-123555339D01*
X165687400Y-124094662D01*
X165756480Y-124441949D01*
X166019626Y-124835775D01*
X166413452Y-125098920D01*
X166878000Y-125191325D01*
X167342549Y-125098920D01*
X167736375Y-124835775D01*
X167999520Y-124441948D01*
X168068600Y-124094661D01*
X168068600Y-123555339D01*
X168227400Y-123555339D01*
X168227400Y-124094662D01*
X168296480Y-124441949D01*
X168559626Y-124835775D01*
X168953452Y-125098920D01*
X169418000Y-125191325D01*
X169882549Y-125098920D01*
X170276375Y-124835775D01*
X170539520Y-124441948D01*
X170608600Y-124094661D01*
X170608600Y-123555339D01*
X170767400Y-123555339D01*
X170767400Y-124094662D01*
X170836480Y-124441949D01*
X171099626Y-124835775D01*
X171493452Y-125098920D01*
X171958000Y-125191325D01*
X172422549Y-125098920D01*
X172816375Y-124835775D01*
X173079520Y-124441948D01*
X173148600Y-124094661D01*
X173148600Y-123555339D01*
X173307400Y-123555339D01*
X173307400Y-124094662D01*
X173376480Y-124441949D01*
X173639626Y-124835775D01*
X174033452Y-125098920D01*
X174498000Y-125191325D01*
X174962549Y-125098920D01*
X175356375Y-124835775D01*
X175619520Y-124441948D01*
X175688600Y-124094661D01*
X175688600Y-123555338D01*
X175619520Y-123208051D01*
X175356375Y-122814225D01*
X174962548Y-122551080D01*
X174498000Y-122458675D01*
X174033451Y-122551080D01*
X173639625Y-122814225D01*
X173376480Y-123208052D01*
X173307400Y-123555339D01*
X173148600Y-123555339D01*
X173148600Y-123555338D01*
X173079520Y-123208051D01*
X172816375Y-122814225D01*
X172422548Y-122551080D01*
X171958000Y-122458675D01*
X171493451Y-122551080D01*
X171099625Y-122814225D01*
X170836480Y-123208052D01*
X170767400Y-123555339D01*
X170608600Y-123555339D01*
X170608600Y-123555338D01*
X170539520Y-123208051D01*
X170276375Y-122814225D01*
X169882548Y-122551080D01*
X169418000Y-122458675D01*
X168953451Y-122551080D01*
X168559625Y-122814225D01*
X168296480Y-123208052D01*
X168227400Y-123555339D01*
X168068600Y-123555339D01*
X168068600Y-123555338D01*
X167999520Y-123208051D01*
X167736375Y-122814225D01*
X167342548Y-122551080D01*
X166878000Y-122458675D01*
X166413451Y-122551080D01*
X166019625Y-122814225D01*
X165756480Y-123208052D01*
X165687400Y-123555339D01*
X165528600Y-123555339D01*
X165528600Y-123555338D01*
X165459520Y-123208051D01*
X165196375Y-122814225D01*
X164802548Y-122551080D01*
X164338000Y-122458675D01*
X163873451Y-122551080D01*
X163479625Y-122814225D01*
X163216480Y-123208052D01*
X163147400Y-123555339D01*
X162988600Y-123555339D01*
X162988600Y-123555338D01*
X162919520Y-123208051D01*
X162656375Y-122814225D01*
X162262548Y-122551080D01*
X161798000Y-122458675D01*
X161333451Y-122551080D01*
X160939625Y-122814225D01*
X160676480Y-123208052D01*
X160607400Y-123555339D01*
X157908600Y-123555339D01*
X157908600Y-123555338D01*
X157839520Y-123208051D01*
X157576375Y-122814225D01*
X157182548Y-122551080D01*
X156718000Y-122458675D01*
X156253451Y-122551080D01*
X155859625Y-122814225D01*
X155596480Y-123208052D01*
X155588321Y-123249068D01*
X155469954Y-122910680D01*
X155080036Y-122474268D01*
X154552791Y-122220291D01*
X154537026Y-122217642D01*
X154305000Y-122338783D01*
X154051000Y-122338783D01*
X153818974Y-122217642D01*
X153803209Y-122220291D01*
X153275964Y-122474268D01*
X152908000Y-122886108D01*
X152540036Y-122474268D01*
X152012791Y-122220291D01*
X151997026Y-122217642D01*
X151765000Y-122338783D01*
X151511000Y-122338783D01*
X151278974Y-122217642D01*
X151263209Y-122220291D01*
X150735964Y-122474268D01*
X150346046Y-122910680D01*
X150227679Y-123249068D01*
X150219520Y-123208051D01*
X149956375Y-122814225D01*
X149562548Y-122551080D01*
X149098000Y-122458675D01*
X148633451Y-122551080D01*
X148239625Y-122814225D01*
X147976480Y-123208052D01*
X147907400Y-123555339D01*
X147748600Y-123555339D01*
X147748600Y-123555338D01*
X147679520Y-123208051D01*
X147416375Y-122814225D01*
X147022548Y-122551080D01*
X146558000Y-122458675D01*
X146093451Y-122551080D01*
X145699625Y-122814225D01*
X145436480Y-123208052D01*
X145367400Y-123555339D01*
X145208600Y-123555339D01*
X145208600Y-123555338D01*
X145139520Y-123208051D01*
X144876375Y-122814225D01*
X144482548Y-122551080D01*
X144018000Y-122458675D01*
X143553451Y-122551080D01*
X143159625Y-122814225D01*
X142896480Y-123208052D01*
X142827400Y-123555339D01*
X142668600Y-123555339D01*
X142668600Y-123555338D01*
X142599520Y-123208051D01*
X142336375Y-122814225D01*
X141942548Y-122551080D01*
X141478000Y-122458675D01*
X141013451Y-122551080D01*
X140619625Y-122814225D01*
X140356480Y-123208052D01*
X140287400Y-123555339D01*
X140128600Y-123555339D01*
X140128600Y-123555338D01*
X140059520Y-123208051D01*
X139796375Y-122814225D01*
X139402548Y-122551080D01*
X138938000Y-122458675D01*
X138473451Y-122551080D01*
X138079625Y-122814225D01*
X137816480Y-123208052D01*
X137747400Y-123555339D01*
X127327000Y-123555339D01*
X127327000Y-123355766D01*
X126967864Y-122488734D01*
X126304266Y-121825136D01*
X125437234Y-121466000D01*
X124498766Y-121466000D01*
X123631734Y-121825136D01*
X122968136Y-122488734D01*
X122609000Y-123355766D01*
X122609000Y-124294234D01*
X122968136Y-125161266D01*
X123631734Y-125824864D01*
X124141462Y-126036000D01*
X111327000Y-126036000D01*
X111327000Y-118776750D01*
X129949000Y-118776750D01*
X129949000Y-120367309D01*
X130045673Y-120600698D01*
X130224301Y-120779327D01*
X130457690Y-120876000D01*
X132048250Y-120876000D01*
X132207000Y-120717250D01*
X132207000Y-118618000D01*
X132461000Y-118618000D01*
X132461000Y-120717250D01*
X132619750Y-120876000D01*
X134210310Y-120876000D01*
X134443699Y-120779327D01*
X134622327Y-120600698D01*
X134719000Y-120367309D01*
X134719000Y-118776750D01*
X134560250Y-118618000D01*
X132461000Y-118618000D01*
X132207000Y-118618000D01*
X130107750Y-118618000D01*
X129949000Y-118776750D01*
X111327000Y-118776750D01*
X111327000Y-116614691D01*
X129949000Y-116614691D01*
X129949000Y-118205250D01*
X130107750Y-118364000D01*
X132207000Y-118364000D01*
X132207000Y-116264750D01*
X132461000Y-116264750D01*
X132461000Y-118364000D01*
X134560250Y-118364000D01*
X134719000Y-118205250D01*
X134719000Y-118099000D01*
X143292594Y-118099000D01*
X143292594Y-119899000D01*
X143317973Y-120026589D01*
X143390246Y-120134754D01*
X143498411Y-120207027D01*
X143626000Y-120232406D01*
X145426000Y-120232406D01*
X145553589Y-120207027D01*
X145661754Y-120134754D01*
X145734027Y-120026589D01*
X145759406Y-119899000D01*
X145759406Y-119801578D01*
X146158424Y-120236966D01*
X146701258Y-120490046D01*
X146939000Y-120369997D01*
X146939000Y-119126000D01*
X146919000Y-119126000D01*
X146919000Y-118872000D01*
X146939000Y-118872000D01*
X146939000Y-117628003D01*
X147193000Y-117628003D01*
X147193000Y-118872000D01*
X147213000Y-118872000D01*
X147213000Y-119126000D01*
X147193000Y-119126000D01*
X147193000Y-120369997D01*
X147430742Y-120490046D01*
X147973576Y-120236966D01*
X148378240Y-119795417D01*
X148486998Y-119532836D01*
X148721383Y-119883617D01*
X149127248Y-120154808D01*
X149485153Y-120226000D01*
X149726847Y-120226000D01*
X150084752Y-120154808D01*
X150490617Y-119883617D01*
X150761808Y-119477752D01*
X150857038Y-118999000D01*
X150761808Y-118520248D01*
X150490617Y-118114383D01*
X150084752Y-117843192D01*
X149726847Y-117772000D01*
X149485153Y-117772000D01*
X149127248Y-117843192D01*
X148721383Y-118114383D01*
X148486998Y-118465164D01*
X148378240Y-118202583D01*
X147973576Y-117761034D01*
X147430742Y-117507954D01*
X147193000Y-117628003D01*
X146939000Y-117628003D01*
X146701258Y-117507954D01*
X146158424Y-117761034D01*
X145759406Y-118196422D01*
X145759406Y-118099000D01*
X145734027Y-117971411D01*
X145661754Y-117863246D01*
X145553589Y-117790973D01*
X145426000Y-117765594D01*
X143626000Y-117765594D01*
X143498411Y-117790973D01*
X143390246Y-117863246D01*
X143317973Y-117971411D01*
X143292594Y-118099000D01*
X134719000Y-118099000D01*
X134719000Y-116614691D01*
X134622327Y-116381302D01*
X134443699Y-116202673D01*
X134210310Y-116106000D01*
X132619750Y-116106000D01*
X132461000Y-116264750D01*
X132207000Y-116264750D01*
X132048250Y-116106000D01*
X130457690Y-116106000D01*
X130224301Y-116202673D01*
X130045673Y-116381302D01*
X129949000Y-116614691D01*
X111327000Y-116614691D01*
X111327000Y-105314750D01*
X124857510Y-105314750D01*
X124857510Y-106154799D01*
X124954183Y-106388188D01*
X125132811Y-106566817D01*
X125366200Y-106663490D01*
X126206250Y-106663490D01*
X126365000Y-106504740D01*
X126365000Y-105156000D01*
X126619000Y-105156000D01*
X126619000Y-106504740D01*
X126777750Y-106663490D01*
X127617800Y-106663490D01*
X127851189Y-106566817D01*
X128029817Y-106388188D01*
X128126490Y-106154799D01*
X128126490Y-105314750D01*
X127967740Y-105156000D01*
X126619000Y-105156000D01*
X126365000Y-105156000D01*
X125016260Y-105156000D01*
X124857510Y-105314750D01*
X111327000Y-105314750D01*
X111327000Y-103903201D01*
X124857510Y-103903201D01*
X124857510Y-104743250D01*
X125016260Y-104902000D01*
X126365000Y-104902000D01*
X126365000Y-104882000D01*
X126619000Y-104882000D01*
X126619000Y-104902000D01*
X127967740Y-104902000D01*
X128126490Y-104743250D01*
X128126490Y-103903201D01*
X128029817Y-103669812D01*
X127851189Y-103491183D01*
X127617800Y-103394510D01*
X127482314Y-103394510D01*
X127741526Y-103006571D01*
X127844477Y-102489000D01*
X127741526Y-101971429D01*
X127448346Y-101532654D01*
X127009571Y-101239474D01*
X126906641Y-101219000D01*
X127009571Y-101198526D01*
X127448346Y-100905346D01*
X127741526Y-100466571D01*
X127844477Y-99949000D01*
X127741526Y-99431429D01*
X127448346Y-98992654D01*
X127009571Y-98699474D01*
X126906641Y-98679000D01*
X127009571Y-98658526D01*
X127448346Y-98365346D01*
X127741526Y-97926571D01*
X127844477Y-97409000D01*
X127741526Y-96891429D01*
X127448346Y-96452654D01*
X127009571Y-96159474D01*
X126622646Y-96082510D01*
X126361354Y-96082510D01*
X125974429Y-96159474D01*
X125535654Y-96452654D01*
X125242474Y-96891429D01*
X125139523Y-97409000D01*
X125242474Y-97926571D01*
X125535654Y-98365346D01*
X125974429Y-98658526D01*
X126077359Y-98679000D01*
X125974429Y-98699474D01*
X125535654Y-98992654D01*
X125242474Y-99431429D01*
X125139523Y-99949000D01*
X125242474Y-100466571D01*
X125535654Y-100905346D01*
X125974429Y-101198526D01*
X126077359Y-101219000D01*
X125974429Y-101239474D01*
X125535654Y-101532654D01*
X125242474Y-101971429D01*
X125139523Y-102489000D01*
X125242474Y-103006571D01*
X125501686Y-103394510D01*
X125366200Y-103394510D01*
X125132811Y-103491183D01*
X124954183Y-103669812D01*
X124857510Y-103903201D01*
X111327000Y-103903201D01*
X111327000Y-89312750D01*
X124857510Y-89312750D01*
X124857510Y-90152799D01*
X124954183Y-90386188D01*
X125132811Y-90564817D01*
X125366200Y-90661490D01*
X126206250Y-90661490D01*
X126365000Y-90502740D01*
X126365000Y-89154000D01*
X126619000Y-89154000D01*
X126619000Y-90502740D01*
X126777750Y-90661490D01*
X127617800Y-90661490D01*
X127851189Y-90564817D01*
X128029817Y-90386188D01*
X128126490Y-90152799D01*
X128126490Y-89312750D01*
X127967740Y-89154000D01*
X126619000Y-89154000D01*
X126365000Y-89154000D01*
X125016260Y-89154000D01*
X124857510Y-89312750D01*
X111327000Y-89312750D01*
X111327000Y-87901201D01*
X124857510Y-87901201D01*
X124857510Y-88741250D01*
X125016260Y-88900000D01*
X126365000Y-88900000D01*
X126365000Y-88880000D01*
X126619000Y-88880000D01*
X126619000Y-88900000D01*
X127967740Y-88900000D01*
X128126490Y-88741250D01*
X128126490Y-87901201D01*
X128029817Y-87667812D01*
X127851189Y-87489183D01*
X127617800Y-87392510D01*
X127482314Y-87392510D01*
X127741526Y-87004571D01*
X127844477Y-86487000D01*
X127741526Y-85969429D01*
X127448346Y-85530654D01*
X127009571Y-85237474D01*
X126906641Y-85217000D01*
X127009571Y-85196526D01*
X127448346Y-84903346D01*
X127741526Y-84464571D01*
X127844477Y-83947000D01*
X127741526Y-83429429D01*
X127448346Y-82990654D01*
X127009571Y-82697474D01*
X126906641Y-82677000D01*
X127009571Y-82656526D01*
X127448346Y-82363346D01*
X127741526Y-81924571D01*
X127844477Y-81407000D01*
X127741526Y-80889429D01*
X127664588Y-80774282D01*
X129929000Y-80774282D01*
X129929000Y-81023718D01*
X130024455Y-81254167D01*
X130104000Y-81333712D01*
X130104001Y-96466287D01*
X130024455Y-96545833D01*
X129929000Y-96776282D01*
X129929000Y-97025718D01*
X130024455Y-97256167D01*
X130104000Y-97335712D01*
X130104001Y-110668477D01*
X130095145Y-110713000D01*
X130130225Y-110889361D01*
X130130226Y-110889362D01*
X130230127Y-111038874D01*
X130250594Y-111052550D01*
X130250594Y-114241000D01*
X130275973Y-114368589D01*
X130348246Y-114476754D01*
X130456411Y-114549027D01*
X130584000Y-114574406D01*
X134084000Y-114574406D01*
X134211589Y-114549027D01*
X134319754Y-114476754D01*
X134392027Y-114368589D01*
X134417406Y-114241000D01*
X134417406Y-113741000D01*
X134950594Y-113741000D01*
X134950594Y-117241000D01*
X134975973Y-117368589D01*
X135048246Y-117476754D01*
X135156411Y-117549027D01*
X135284000Y-117574406D01*
X138784000Y-117574406D01*
X138911589Y-117549027D01*
X139019754Y-117476754D01*
X139092027Y-117368589D01*
X139117406Y-117241000D01*
X139117406Y-113741000D01*
X139110047Y-113704000D01*
X144866594Y-113704000D01*
X144866594Y-115404000D01*
X144891973Y-115531589D01*
X144964246Y-115639754D01*
X145072411Y-115712027D01*
X145200000Y-115737406D01*
X146900000Y-115737406D01*
X147027589Y-115712027D01*
X147135754Y-115639754D01*
X147208027Y-115531589D01*
X147233406Y-115404000D01*
X147233406Y-114554000D01*
X147389942Y-114554000D01*
X147481291Y-115013242D01*
X147741431Y-115402569D01*
X148130758Y-115662709D01*
X148474080Y-115731000D01*
X148705920Y-115731000D01*
X149049242Y-115662709D01*
X149438569Y-115402569D01*
X149698709Y-115013242D01*
X149790058Y-114554000D01*
X149698709Y-114094758D01*
X149438569Y-113705431D01*
X149049242Y-113445291D01*
X148705920Y-113377000D01*
X148474080Y-113377000D01*
X148130758Y-113445291D01*
X147741431Y-113705431D01*
X147481291Y-114094758D01*
X147389942Y-114554000D01*
X147233406Y-114554000D01*
X147233406Y-113704000D01*
X147208027Y-113576411D01*
X147135754Y-113468246D01*
X147027589Y-113395973D01*
X146900000Y-113370594D01*
X145200000Y-113370594D01*
X145072411Y-113395973D01*
X144964246Y-113468246D01*
X144891973Y-113576411D01*
X144866594Y-113704000D01*
X139110047Y-113704000D01*
X139092027Y-113613411D01*
X139019754Y-113505246D01*
X138911589Y-113432973D01*
X138784000Y-113407594D01*
X135284000Y-113407594D01*
X135156411Y-113432973D01*
X135048246Y-113505246D01*
X134975973Y-113613411D01*
X134950594Y-113741000D01*
X134417406Y-113741000D01*
X134417406Y-110741000D01*
X134392027Y-110613411D01*
X134319754Y-110505246D01*
X134211589Y-110432973D01*
X134084000Y-110407594D01*
X131008000Y-110407594D01*
X131008000Y-108271379D01*
X133551320Y-108271379D01*
X133551320Y-108898621D01*
X133791355Y-109478117D01*
X134234883Y-109921645D01*
X134814379Y-110161680D01*
X135441621Y-110161680D01*
X136021117Y-109921645D01*
X136464645Y-109478117D01*
X136704680Y-108898621D01*
X136704680Y-108271379D01*
X137996320Y-108271379D01*
X137996320Y-108898621D01*
X138236355Y-109478117D01*
X138679883Y-109921645D01*
X139259379Y-110161680D01*
X139886621Y-110161680D01*
X140466117Y-109921645D01*
X140909645Y-109478117D01*
X141149680Y-108898621D01*
X141149680Y-108271379D01*
X140909645Y-107691883D01*
X140466117Y-107248355D01*
X139886621Y-107008320D01*
X139259379Y-107008320D01*
X138679883Y-107248355D01*
X138236355Y-107691883D01*
X137996320Y-108271379D01*
X136704680Y-108271379D01*
X136464645Y-107691883D01*
X136021117Y-107248355D01*
X135580000Y-107065638D01*
X135580000Y-106613224D01*
X135775225Y-106418000D01*
X135887718Y-106418000D01*
X136118167Y-106322545D01*
X136197712Y-106243000D01*
X137496482Y-106243000D01*
X137541000Y-106251855D01*
X137585518Y-106243000D01*
X137717362Y-106216775D01*
X137866874Y-106116874D01*
X137892093Y-106079131D01*
X139574942Y-104396282D01*
X140216004Y-104396282D01*
X140216004Y-104645718D01*
X140311459Y-104876167D01*
X140487837Y-105052545D01*
X140718286Y-105148000D01*
X140830779Y-105148000D01*
X140854869Y-105172090D01*
X140854872Y-105172092D01*
X147730912Y-112048133D01*
X147756130Y-112085874D01*
X147905642Y-112185775D01*
X148037486Y-112212000D01*
X148037487Y-112212000D01*
X148082003Y-112220855D01*
X148126520Y-112212000D01*
X159550354Y-112212000D01*
X159615455Y-112369167D01*
X159791833Y-112545545D01*
X160022282Y-112641000D01*
X160271718Y-112641000D01*
X160502167Y-112545545D01*
X160678545Y-112369167D01*
X160774000Y-112138718D01*
X160774000Y-111889282D01*
X160678545Y-111658833D01*
X160502167Y-111482455D01*
X160271718Y-111387000D01*
X160148345Y-111387000D01*
X160069362Y-111334225D01*
X159937518Y-111308000D01*
X159893000Y-111299145D01*
X159848482Y-111308000D01*
X148269229Y-111308000D01*
X143497797Y-106536568D01*
X151019235Y-106536568D01*
X151019235Y-108236568D01*
X151044614Y-108364157D01*
X151116887Y-108472322D01*
X151225052Y-108544595D01*
X151352641Y-108569974D01*
X153052641Y-108569974D01*
X153180230Y-108544595D01*
X153288395Y-108472322D01*
X153360668Y-108364157D01*
X153386047Y-108236568D01*
X153386047Y-107386568D01*
X153542583Y-107386568D01*
X153633932Y-107845810D01*
X153894072Y-108235137D01*
X154283399Y-108495277D01*
X154626721Y-108563568D01*
X154858561Y-108563568D01*
X155201883Y-108495277D01*
X155591210Y-108235137D01*
X155851350Y-107845810D01*
X155942699Y-107386568D01*
X155851350Y-106927326D01*
X155591210Y-106537999D01*
X155201883Y-106277859D01*
X154858561Y-106209568D01*
X154626721Y-106209568D01*
X154283399Y-106277859D01*
X153894072Y-106537999D01*
X153633932Y-106927326D01*
X153542583Y-107386568D01*
X153386047Y-107386568D01*
X153386047Y-106536568D01*
X153360668Y-106408979D01*
X153288395Y-106300814D01*
X153180230Y-106228541D01*
X153052641Y-106203162D01*
X151352641Y-106203162D01*
X151225052Y-106228541D01*
X151116887Y-106300814D01*
X151044614Y-106408979D01*
X151019235Y-106536568D01*
X143497797Y-106536568D01*
X141494096Y-104532868D01*
X141494094Y-104532865D01*
X141470004Y-104508775D01*
X141470004Y-104396282D01*
X141374549Y-104165833D01*
X141198171Y-103989455D01*
X140967722Y-103894000D01*
X140718286Y-103894000D01*
X140487837Y-103989455D01*
X140311459Y-104165833D01*
X140216004Y-104396282D01*
X139574942Y-104396282D01*
X140166485Y-103804739D01*
X141447000Y-103804739D01*
X141447000Y-104221261D01*
X141606396Y-104606078D01*
X141900922Y-104900604D01*
X142285739Y-105060000D01*
X142702261Y-105060000D01*
X143087078Y-104900604D01*
X143381604Y-104606078D01*
X143541000Y-104221261D01*
X143541000Y-103804739D01*
X143381604Y-103419922D01*
X143087078Y-103125396D01*
X142702261Y-102966000D01*
X142285739Y-102966000D01*
X141900922Y-103125396D01*
X141606396Y-103419922D01*
X141447000Y-103804739D01*
X140166485Y-103804739D01*
X141034656Y-102936568D01*
X151019235Y-102936568D01*
X151019235Y-104636568D01*
X151044614Y-104764157D01*
X151116887Y-104872322D01*
X151225052Y-104944595D01*
X151352641Y-104969974D01*
X153052641Y-104969974D01*
X153180230Y-104944595D01*
X153288395Y-104872322D01*
X153360668Y-104764157D01*
X153386047Y-104636568D01*
X153386047Y-102936568D01*
X153360668Y-102808979D01*
X153288395Y-102700814D01*
X153180230Y-102628541D01*
X153052641Y-102603162D01*
X151352641Y-102603162D01*
X151225052Y-102628541D01*
X151116887Y-102700814D01*
X151044614Y-102808979D01*
X151019235Y-102936568D01*
X141034656Y-102936568D01*
X141157225Y-102814000D01*
X144100482Y-102814000D01*
X144145000Y-102822855D01*
X144189518Y-102814000D01*
X144321362Y-102787775D01*
X144470874Y-102687874D01*
X144496093Y-102650131D01*
X144684661Y-102461564D01*
X144825739Y-102520000D01*
X145242261Y-102520000D01*
X145627078Y-102360604D01*
X145921604Y-102066078D01*
X146081000Y-101681261D01*
X146081000Y-101264739D01*
X145921604Y-100879922D01*
X145842943Y-100801261D01*
X148803037Y-100801261D01*
X150270907Y-102269131D01*
X150296126Y-102306874D01*
X150445638Y-102406775D01*
X150577482Y-102433000D01*
X150577483Y-102433000D01*
X150621999Y-102441855D01*
X150666516Y-102433000D01*
X154290642Y-102433000D01*
X154290642Y-102676418D01*
X154283399Y-102677859D01*
X153894072Y-102937999D01*
X153633932Y-103327326D01*
X153542583Y-103786568D01*
X153633932Y-104245810D01*
X153894072Y-104635137D01*
X154283399Y-104895277D01*
X154626721Y-104963568D01*
X154858561Y-104963568D01*
X155201883Y-104895277D01*
X155591210Y-104635137D01*
X155851350Y-104245810D01*
X155942699Y-103786568D01*
X155851350Y-103327326D01*
X155591210Y-102937999D01*
X155201883Y-102677859D01*
X155194641Y-102676418D01*
X155194641Y-102152517D01*
X155203496Y-102107999D01*
X155194641Y-102063482D01*
X155194641Y-101296718D01*
X155201883Y-101295277D01*
X155591210Y-101035137D01*
X155851350Y-100645810D01*
X155942699Y-100186568D01*
X155851350Y-99727326D01*
X155591210Y-99337999D01*
X155201883Y-99077859D01*
X154858561Y-99009568D01*
X154626721Y-99009568D01*
X154283399Y-99077859D01*
X153894072Y-99337999D01*
X153633932Y-99727326D01*
X153542583Y-100186568D01*
X153633932Y-100645810D01*
X153894072Y-101035137D01*
X154283399Y-101295277D01*
X154290641Y-101296718D01*
X154290641Y-101529000D01*
X150809224Y-101529000D01*
X149341354Y-100061130D01*
X149316135Y-100023387D01*
X149166623Y-99923486D01*
X149034779Y-99897261D01*
X148990261Y-99888406D01*
X148945743Y-99897261D01*
X142902011Y-99897261D01*
X143087078Y-99820604D01*
X143381604Y-99526078D01*
X143460101Y-99336568D01*
X151019235Y-99336568D01*
X151019235Y-101036568D01*
X151044614Y-101164157D01*
X151116887Y-101272322D01*
X151225052Y-101344595D01*
X151352641Y-101369974D01*
X153052641Y-101369974D01*
X153180230Y-101344595D01*
X153288395Y-101272322D01*
X153360668Y-101164157D01*
X153386047Y-101036568D01*
X153386047Y-99336568D01*
X153360668Y-99208979D01*
X153288395Y-99100814D01*
X153180230Y-99028541D01*
X153052641Y-99003162D01*
X151352641Y-99003162D01*
X151225052Y-99028541D01*
X151116887Y-99100814D01*
X151044614Y-99208979D01*
X151019235Y-99336568D01*
X143460101Y-99336568D01*
X143541000Y-99141261D01*
X143541000Y-98724739D01*
X143381604Y-98339922D01*
X143087078Y-98045396D01*
X142702261Y-97886000D01*
X142285739Y-97886000D01*
X141900922Y-98045396D01*
X141606396Y-98339922D01*
X141447000Y-98724739D01*
X141447000Y-99141261D01*
X141606396Y-99526078D01*
X141900922Y-99820604D01*
X142085989Y-99897261D01*
X136332157Y-99897261D01*
X136287639Y-99888406D01*
X136243121Y-99897261D01*
X136111277Y-99923486D01*
X135963452Y-100022260D01*
X135862922Y-100022260D01*
X135632473Y-100117715D01*
X135456095Y-100294093D01*
X135360640Y-100524542D01*
X135360640Y-100773978D01*
X135456095Y-101004427D01*
X135632473Y-101180805D01*
X135862922Y-101276260D01*
X136112358Y-101276260D01*
X136342807Y-101180805D01*
X136519185Y-101004427D01*
X136603339Y-100801261D01*
X144225057Y-100801261D01*
X144146396Y-100879922D01*
X143987000Y-101264739D01*
X143987000Y-101681261D01*
X144045436Y-101822339D01*
X143957776Y-101910000D01*
X141014516Y-101910000D01*
X140969999Y-101901145D01*
X140925483Y-101910000D01*
X140925482Y-101910000D01*
X140793638Y-101936225D01*
X140644126Y-102036126D01*
X140618909Y-102073866D01*
X137353776Y-105339000D01*
X136197712Y-105339000D01*
X136118167Y-105259455D01*
X135887718Y-105164000D01*
X135638282Y-105164000D01*
X135407833Y-105259455D01*
X135231455Y-105435833D01*
X135136000Y-105666282D01*
X135136000Y-105778775D01*
X134839867Y-106074909D01*
X134802127Y-106100126D01*
X134776910Y-106137866D01*
X134776909Y-106137867D01*
X134702225Y-106249639D01*
X134667145Y-106426000D01*
X134676001Y-106470522D01*
X134676001Y-107065638D01*
X134234883Y-107248355D01*
X133791355Y-107691883D01*
X133551320Y-108271379D01*
X131008000Y-108271379D01*
X131008000Y-97335712D01*
X131087545Y-97256167D01*
X131183000Y-97025718D01*
X131183000Y-96776282D01*
X131087545Y-96545833D01*
X131008000Y-96466288D01*
X131008000Y-95736568D01*
X151019235Y-95736568D01*
X151019235Y-97436568D01*
X151044614Y-97564157D01*
X151116887Y-97672322D01*
X151225052Y-97744595D01*
X151352641Y-97769974D01*
X153052641Y-97769974D01*
X153180230Y-97744595D01*
X153288395Y-97672322D01*
X153360668Y-97564157D01*
X153386047Y-97436568D01*
X153386047Y-96586568D01*
X153542583Y-96586568D01*
X153633932Y-97045810D01*
X153894072Y-97435137D01*
X154283399Y-97695277D01*
X154626721Y-97763568D01*
X154858561Y-97763568D01*
X155201883Y-97695277D01*
X155591210Y-97435137D01*
X155851350Y-97045810D01*
X155942699Y-96586568D01*
X155851350Y-96127326D01*
X155591210Y-95737999D01*
X155201883Y-95477859D01*
X154858561Y-95409568D01*
X154626721Y-95409568D01*
X154283399Y-95477859D01*
X153894072Y-95737999D01*
X153633932Y-96127326D01*
X153542583Y-96586568D01*
X153386047Y-96586568D01*
X153386047Y-95736568D01*
X153360668Y-95608979D01*
X153288395Y-95500814D01*
X153180230Y-95428541D01*
X153052641Y-95403162D01*
X151352641Y-95403162D01*
X151225052Y-95428541D01*
X151116887Y-95500814D01*
X151044614Y-95608979D01*
X151019235Y-95736568D01*
X131008000Y-95736568D01*
X131008000Y-92142379D01*
X133424320Y-92142379D01*
X133424320Y-92769621D01*
X133664355Y-93349117D01*
X134107883Y-93792645D01*
X134687379Y-94032680D01*
X135314621Y-94032680D01*
X135894117Y-93792645D01*
X136337645Y-93349117D01*
X136577680Y-92769621D01*
X136577680Y-92142379D01*
X137869320Y-92142379D01*
X137869320Y-92769621D01*
X138109355Y-93349117D01*
X138552883Y-93792645D01*
X139132379Y-94032680D01*
X139759621Y-94032680D01*
X140339117Y-93792645D01*
X140782645Y-93349117D01*
X141022680Y-92769621D01*
X141022680Y-92142379D01*
X140782645Y-91562883D01*
X140339117Y-91119355D01*
X139759621Y-90879320D01*
X139132379Y-90879320D01*
X138552883Y-91119355D01*
X138109355Y-91562883D01*
X137869320Y-92142379D01*
X136577680Y-92142379D01*
X136337645Y-91562883D01*
X135894117Y-91119355D01*
X135453000Y-90936638D01*
X135453000Y-90677945D01*
X151051826Y-90677945D01*
X151051826Y-92377945D01*
X151077205Y-92505534D01*
X151149478Y-92613699D01*
X151257643Y-92685972D01*
X151385232Y-92711351D01*
X153085232Y-92711351D01*
X153212821Y-92685972D01*
X153320986Y-92613699D01*
X153393259Y-92505534D01*
X153418638Y-92377945D01*
X153418638Y-91527945D01*
X153575174Y-91527945D01*
X153666523Y-91987187D01*
X153926663Y-92376514D01*
X154315990Y-92636654D01*
X154659312Y-92704945D01*
X154891152Y-92704945D01*
X155234474Y-92636654D01*
X155623801Y-92376514D01*
X155883941Y-91987187D01*
X155975290Y-91527945D01*
X155883941Y-91068703D01*
X155623801Y-90679376D01*
X155234474Y-90419236D01*
X154891152Y-90350945D01*
X154659312Y-90350945D01*
X154315990Y-90419236D01*
X153926663Y-90679376D01*
X153666523Y-91068703D01*
X153575174Y-91527945D01*
X153418638Y-91527945D01*
X153418638Y-90677945D01*
X153393259Y-90550356D01*
X153320986Y-90442191D01*
X153212821Y-90369918D01*
X153085232Y-90344539D01*
X151385232Y-90344539D01*
X151257643Y-90369918D01*
X151149478Y-90442191D01*
X151077205Y-90550356D01*
X151051826Y-90677945D01*
X135453000Y-90677945D01*
X135453000Y-90114000D01*
X135718482Y-90114000D01*
X135763000Y-90122855D01*
X135807518Y-90114000D01*
X135939362Y-90087775D01*
X136088874Y-89987874D01*
X136114093Y-89950131D01*
X137796922Y-88267302D01*
X140089000Y-88267302D01*
X140089000Y-88516738D01*
X140184455Y-88747187D01*
X140360833Y-88923565D01*
X140591282Y-89019020D01*
X140703775Y-89019020D01*
X140727865Y-89043110D01*
X140727868Y-89043112D01*
X141761887Y-90077131D01*
X141787106Y-90114874D01*
X141936618Y-90214775D01*
X142068462Y-90241000D01*
X142068463Y-90241000D01*
X142112979Y-90249855D01*
X142157496Y-90241000D01*
X158054776Y-90241000D01*
X163711000Y-95897225D01*
X163711000Y-96009718D01*
X163806455Y-96240167D01*
X163982833Y-96416545D01*
X164213282Y-96512000D01*
X164462718Y-96512000D01*
X164693167Y-96416545D01*
X164869545Y-96240167D01*
X164965000Y-96009718D01*
X164965000Y-95760282D01*
X164869545Y-95529833D01*
X164693167Y-95353455D01*
X164462718Y-95258000D01*
X164350225Y-95258000D01*
X158593093Y-89500869D01*
X158567874Y-89463126D01*
X158418362Y-89363225D01*
X158286518Y-89337000D01*
X158242000Y-89328145D01*
X158197482Y-89337000D01*
X142300204Y-89337000D01*
X141367092Y-88403888D01*
X141367090Y-88403885D01*
X141343000Y-88379795D01*
X141343000Y-88267302D01*
X141247545Y-88036853D01*
X141071167Y-87860475D01*
X140931780Y-87802739D01*
X141701000Y-87802739D01*
X141701000Y-88219261D01*
X141860396Y-88604078D01*
X142154922Y-88898604D01*
X142539739Y-89058000D01*
X142956261Y-89058000D01*
X143341078Y-88898604D01*
X143635604Y-88604078D01*
X143795000Y-88219261D01*
X143795000Y-87802739D01*
X143635604Y-87417922D01*
X143341078Y-87123396D01*
X143231350Y-87077945D01*
X151051826Y-87077945D01*
X151051826Y-88777945D01*
X151077205Y-88905534D01*
X151149478Y-89013699D01*
X151257643Y-89085972D01*
X151385232Y-89111351D01*
X153085232Y-89111351D01*
X153212821Y-89085972D01*
X153320986Y-89013699D01*
X153393259Y-88905534D01*
X153418638Y-88777945D01*
X153418638Y-87077945D01*
X153393259Y-86950356D01*
X153320986Y-86842191D01*
X153212821Y-86769918D01*
X153085232Y-86744539D01*
X151385232Y-86744539D01*
X151257643Y-86769918D01*
X151149478Y-86842191D01*
X151077205Y-86950356D01*
X151051826Y-87077945D01*
X143231350Y-87077945D01*
X142956261Y-86964000D01*
X142539739Y-86964000D01*
X142154922Y-87123396D01*
X141860396Y-87417922D01*
X141701000Y-87802739D01*
X140931780Y-87802739D01*
X140840718Y-87765020D01*
X140591282Y-87765020D01*
X140360833Y-87860475D01*
X140184455Y-88036853D01*
X140089000Y-88267302D01*
X137796922Y-88267302D01*
X140141225Y-85923000D01*
X144341960Y-85923000D01*
X144400396Y-86064078D01*
X144694922Y-86358604D01*
X145079739Y-86518000D01*
X145496261Y-86518000D01*
X145881078Y-86358604D01*
X146175604Y-86064078D01*
X146335000Y-85679261D01*
X146335000Y-85262739D01*
X146175636Y-84877999D01*
X148500775Y-84877999D01*
X150016909Y-86394133D01*
X150042126Y-86431874D01*
X150079866Y-86457091D01*
X150191638Y-86531775D01*
X150367999Y-86566855D01*
X150412517Y-86558000D01*
X154323233Y-86558000D01*
X154323233Y-86681343D01*
X154323232Y-86681347D01*
X154323232Y-86817795D01*
X154315990Y-86819236D01*
X153926663Y-87079376D01*
X153666523Y-87468703D01*
X153575174Y-87927945D01*
X153666523Y-88387187D01*
X153926663Y-88776514D01*
X154315990Y-89036654D01*
X154659312Y-89104945D01*
X154891152Y-89104945D01*
X155234474Y-89036654D01*
X155623801Y-88776514D01*
X155883941Y-88387187D01*
X155975290Y-87927945D01*
X155883941Y-87468703D01*
X155623801Y-87079376D01*
X155234474Y-86819236D01*
X155227232Y-86817795D01*
X155227232Y-86150518D01*
X155236087Y-86106000D01*
X155227232Y-86061482D01*
X155227232Y-85438095D01*
X155234474Y-85436654D01*
X155623801Y-85176514D01*
X155883941Y-84787187D01*
X155975290Y-84327945D01*
X155883941Y-83868703D01*
X155623801Y-83479376D01*
X155234474Y-83219236D01*
X154891152Y-83150945D01*
X154659312Y-83150945D01*
X154315990Y-83219236D01*
X153926663Y-83479376D01*
X153666523Y-83868703D01*
X153575174Y-84327945D01*
X153666523Y-84787187D01*
X153926663Y-85176514D01*
X154315990Y-85436654D01*
X154323233Y-85438095D01*
X154323233Y-85654000D01*
X150555225Y-85654000D01*
X149039092Y-84137868D01*
X149013873Y-84100125D01*
X148864361Y-84000224D01*
X148732517Y-83973999D01*
X148687999Y-83965144D01*
X148643481Y-83973999D01*
X142965920Y-83973999D01*
X143341078Y-83818604D01*
X143635604Y-83524078D01*
X143654712Y-83477945D01*
X151051826Y-83477945D01*
X151051826Y-85177945D01*
X151077205Y-85305534D01*
X151149478Y-85413699D01*
X151257643Y-85485972D01*
X151385232Y-85511351D01*
X153085232Y-85511351D01*
X153212821Y-85485972D01*
X153320986Y-85413699D01*
X153393259Y-85305534D01*
X153418638Y-85177945D01*
X153418638Y-83477945D01*
X153393259Y-83350356D01*
X153320986Y-83242191D01*
X153212821Y-83169918D01*
X153085232Y-83144539D01*
X151385232Y-83144539D01*
X151257643Y-83169918D01*
X151149478Y-83242191D01*
X151077205Y-83350356D01*
X151051826Y-83477945D01*
X143654712Y-83477945D01*
X143795000Y-83139261D01*
X143795000Y-82722739D01*
X143635604Y-82337922D01*
X143341078Y-82043396D01*
X142956261Y-81884000D01*
X142539739Y-81884000D01*
X142154922Y-82043396D01*
X141860396Y-82337922D01*
X141701000Y-82722739D01*
X141701000Y-83139261D01*
X141860396Y-83524078D01*
X142154922Y-83818604D01*
X142530080Y-83973999D01*
X135211519Y-83973999D01*
X135167001Y-83965144D01*
X135162412Y-83966057D01*
X135135718Y-83955000D01*
X134886282Y-83955000D01*
X134655833Y-84050455D01*
X134479455Y-84226833D01*
X134384000Y-84457282D01*
X134384000Y-84706718D01*
X134479455Y-84937167D01*
X134655833Y-85113545D01*
X134886282Y-85209000D01*
X135135718Y-85209000D01*
X135366167Y-85113545D01*
X135542545Y-84937167D01*
X135567053Y-84877999D01*
X144400364Y-84877999D01*
X144341960Y-85019000D01*
X139998517Y-85019000D01*
X139953999Y-85010145D01*
X139789553Y-85042855D01*
X139777638Y-85045225D01*
X139628126Y-85145126D01*
X139602909Y-85182866D01*
X135575776Y-89210000D01*
X135308712Y-89210000D01*
X135229167Y-89130455D01*
X134998718Y-89035000D01*
X134749282Y-89035000D01*
X134518833Y-89130455D01*
X134342455Y-89306833D01*
X134247000Y-89537282D01*
X134247000Y-89786718D01*
X134342455Y-90017167D01*
X134518833Y-90193545D01*
X134549001Y-90206041D01*
X134549001Y-90936638D01*
X134107883Y-91119355D01*
X133664355Y-91562883D01*
X133424320Y-92142379D01*
X131008000Y-92142379D01*
X131008000Y-81333712D01*
X131087545Y-81254167D01*
X131183000Y-81023718D01*
X131183000Y-80774282D01*
X131087545Y-80543833D01*
X130911167Y-80367455D01*
X130680718Y-80272000D01*
X130431282Y-80272000D01*
X130200833Y-80367455D01*
X130024455Y-80543833D01*
X129929000Y-80774282D01*
X127664588Y-80774282D01*
X127448346Y-80450654D01*
X127009571Y-80157474D01*
X126622646Y-80080510D01*
X126361354Y-80080510D01*
X125974429Y-80157474D01*
X125535654Y-80450654D01*
X125242474Y-80889429D01*
X125139523Y-81407000D01*
X125242474Y-81924571D01*
X125535654Y-82363346D01*
X125974429Y-82656526D01*
X126077359Y-82677000D01*
X125974429Y-82697474D01*
X125535654Y-82990654D01*
X125242474Y-83429429D01*
X125139523Y-83947000D01*
X125242474Y-84464571D01*
X125535654Y-84903346D01*
X125974429Y-85196526D01*
X126077359Y-85217000D01*
X125974429Y-85237474D01*
X125535654Y-85530654D01*
X125242474Y-85969429D01*
X125139523Y-86487000D01*
X125242474Y-87004571D01*
X125501686Y-87392510D01*
X125366200Y-87392510D01*
X125132811Y-87489183D01*
X124954183Y-87667812D01*
X124857510Y-87901201D01*
X111327000Y-87901201D01*
X111327000Y-79877945D01*
X151051826Y-79877945D01*
X151051826Y-81577945D01*
X151077205Y-81705534D01*
X151149478Y-81813699D01*
X151257643Y-81885972D01*
X151385232Y-81911351D01*
X153085232Y-81911351D01*
X153212821Y-81885972D01*
X153320986Y-81813699D01*
X153393259Y-81705534D01*
X153418638Y-81577945D01*
X153418638Y-80727945D01*
X153575174Y-80727945D01*
X153666523Y-81187187D01*
X153926663Y-81576514D01*
X154315990Y-81836654D01*
X154659312Y-81904945D01*
X154891152Y-81904945D01*
X155234474Y-81836654D01*
X155623801Y-81576514D01*
X155883941Y-81187187D01*
X155975290Y-80727945D01*
X155883941Y-80268703D01*
X155623801Y-79879376D01*
X155234474Y-79619236D01*
X154891152Y-79550945D01*
X154659312Y-79550945D01*
X154315990Y-79619236D01*
X153926663Y-79879376D01*
X153666523Y-80268703D01*
X153575174Y-80727945D01*
X153418638Y-80727945D01*
X153418638Y-79877945D01*
X153393259Y-79750356D01*
X153320986Y-79642191D01*
X153212821Y-79569918D01*
X153085232Y-79544539D01*
X151385232Y-79544539D01*
X151257643Y-79569918D01*
X151149478Y-79642191D01*
X151077205Y-79750356D01*
X151051826Y-79877945D01*
X111327000Y-79877945D01*
X111327000Y-73354000D01*
X125411462Y-73354000D01*
X124901734Y-73565136D01*
X124901734Y-73565136D01*
G37*
X124901734Y-73565136D02*
X124238136Y-74228734D01*
X123879000Y-75095766D01*
X123879000Y-76034234D01*
X124238136Y-76901266D01*
X124901734Y-77564864D01*
X125768766Y-77924000D01*
X126707234Y-77924000D01*
X127574266Y-77564864D01*
X128237864Y-76901266D01*
X128597000Y-76034234D01*
X128597000Y-75295339D01*
X128603400Y-75295339D01*
X128603400Y-75834662D01*
X128672480Y-76181949D01*
X128935626Y-76575775D01*
X129329452Y-76838920D01*
X129794000Y-76931325D01*
X130258549Y-76838920D01*
X130652375Y-76575775D01*
X130915520Y-76181948D01*
X130984600Y-75834661D01*
X130984600Y-75295339D01*
X131143400Y-75295339D01*
X131143400Y-75834662D01*
X131212480Y-76181949D01*
X131475626Y-76575775D01*
X131869452Y-76838920D01*
X132334000Y-76931325D01*
X132798549Y-76838920D01*
X133192375Y-76575775D01*
X133455520Y-76181948D01*
X133524600Y-75834661D01*
X133524600Y-75295339D01*
X133683400Y-75295339D01*
X133683400Y-75834662D01*
X133752480Y-76181949D01*
X134015626Y-76575775D01*
X134409452Y-76838920D01*
X134874000Y-76931325D01*
X135338549Y-76838920D01*
X135732375Y-76575775D01*
X135995520Y-76181948D01*
X136003679Y-76140932D01*
X136122046Y-76479320D01*
X136511964Y-76915732D01*
X137039209Y-77169709D01*
X137054974Y-77172358D01*
X137287000Y-77051217D01*
X137287000Y-75692000D01*
X137267000Y-75692000D01*
X137267000Y-75438000D01*
X137287000Y-75438000D01*
X137287000Y-74078783D01*
X137541000Y-74078783D01*
X137541000Y-75438000D01*
X137561000Y-75438000D01*
X137561000Y-75692000D01*
X137541000Y-75692000D01*
X137541000Y-77051217D01*
X137773026Y-77172358D01*
X137788791Y-77169709D01*
X138316036Y-76915732D01*
X138705954Y-76479320D01*
X138824321Y-76140932D01*
X138832480Y-76181949D01*
X139095626Y-76575775D01*
X139489452Y-76838920D01*
X139954000Y-76931325D01*
X140418549Y-76838920D01*
X140812375Y-76575775D01*
X141075520Y-76181948D01*
X141144600Y-75834661D01*
X141144600Y-75295339D01*
X141303400Y-75295339D01*
X141303400Y-75834662D01*
X141372480Y-76181949D01*
X141635626Y-76575775D01*
X142029452Y-76838920D01*
X142494000Y-76931325D01*
X142958549Y-76838920D01*
X143352375Y-76575775D01*
X143615520Y-76181948D01*
X143684600Y-75834661D01*
X143684600Y-75295339D01*
X143843400Y-75295339D01*
X143843400Y-75834662D01*
X143912480Y-76181949D01*
X144175626Y-76575775D01*
X144569452Y-76838920D01*
X145034000Y-76931325D01*
X145498549Y-76838920D01*
X145892375Y-76575775D01*
X146155520Y-76181948D01*
X146224600Y-75834661D01*
X146224600Y-75295339D01*
X146383400Y-75295339D01*
X146383400Y-75834662D01*
X146452480Y-76181949D01*
X146715626Y-76575775D01*
X147109452Y-76838920D01*
X147574000Y-76931325D01*
X148038549Y-76838920D01*
X148432375Y-76575775D01*
X148695520Y-76181948D01*
X148764600Y-75834661D01*
X148764600Y-75295339D01*
X148923400Y-75295339D01*
X148923400Y-75834662D01*
X148992480Y-76181949D01*
X149255626Y-76575775D01*
X149649452Y-76838920D01*
X150114000Y-76931325D01*
X150578549Y-76838920D01*
X150972375Y-76575775D01*
X151235520Y-76181948D01*
X151304600Y-75834661D01*
X151304600Y-75295339D01*
X151463400Y-75295339D01*
X151463400Y-75834662D01*
X151532480Y-76181949D01*
X151795626Y-76575775D01*
X152189452Y-76838920D01*
X152654000Y-76931325D01*
X153118549Y-76838920D01*
X153512375Y-76575775D01*
X153775520Y-76181948D01*
X153844600Y-75834661D01*
X153844600Y-75295339D01*
X155527400Y-75295339D01*
X155527400Y-75834662D01*
X155596480Y-76181949D01*
X155859626Y-76575775D01*
X156253452Y-76838920D01*
X156718000Y-76931325D01*
X157182549Y-76838920D01*
X157576375Y-76575775D01*
X157839520Y-76181948D01*
X157908600Y-75834661D01*
X157908600Y-75295339D01*
X158067400Y-75295339D01*
X158067400Y-75834662D01*
X158136480Y-76181949D01*
X158399626Y-76575775D01*
X158793452Y-76838920D01*
X159258000Y-76931325D01*
X159722549Y-76838920D01*
X160116375Y-76575775D01*
X160379520Y-76181948D01*
X160448600Y-75834661D01*
X160448600Y-75295339D01*
X160607400Y-75295339D01*
X160607400Y-75834662D01*
X160676480Y-76181949D01*
X160939626Y-76575775D01*
X161333452Y-76838920D01*
X161798000Y-76931325D01*
X162262549Y-76838920D01*
X162656375Y-76575775D01*
X162919520Y-76181948D01*
X162988600Y-75834661D01*
X162988600Y-75295339D01*
X163147400Y-75295339D01*
X163147400Y-75834662D01*
X163216480Y-76181949D01*
X163479626Y-76575775D01*
X163873452Y-76838920D01*
X164338000Y-76931325D01*
X164802549Y-76838920D01*
X165196375Y-76575775D01*
X165459520Y-76181948D01*
X165528600Y-75834661D01*
X165528600Y-75295339D01*
X165687400Y-75295339D01*
X165687400Y-75834662D01*
X165756480Y-76181949D01*
X166019626Y-76575775D01*
X166413452Y-76838920D01*
X166878000Y-76931325D01*
X167342549Y-76838920D01*
X167736375Y-76575775D01*
X167999520Y-76181948D01*
X168068600Y-75834661D01*
X168068600Y-75295339D01*
X168227400Y-75295339D01*
X168227400Y-75834662D01*
X168296480Y-76181949D01*
X168559626Y-76575775D01*
X168953452Y-76838920D01*
X169418000Y-76931325D01*
X169882549Y-76838920D01*
X170276375Y-76575775D01*
X170539520Y-76181948D01*
X170608600Y-75834661D01*
X170608600Y-75295339D01*
X170767400Y-75295339D01*
X170767400Y-75834662D01*
X170836480Y-76181949D01*
X171099626Y-76575775D01*
X171493452Y-76838920D01*
X171958000Y-76931325D01*
X172422549Y-76838920D01*
X172816375Y-76575775D01*
X173079520Y-76181948D01*
X173148600Y-75834661D01*
X173148600Y-75295339D01*
X173307400Y-75295339D01*
X173307400Y-75834662D01*
X173376480Y-76181949D01*
X173639626Y-76575775D01*
X174033452Y-76838920D01*
X174498000Y-76931325D01*
X174962549Y-76838920D01*
X175356375Y-76575775D01*
X175619520Y-76181948D01*
X175688600Y-75834661D01*
X175688600Y-75295338D01*
X175619520Y-74948051D01*
X175356375Y-74554225D01*
X174962548Y-74291080D01*
X174498000Y-74198675D01*
X174033451Y-74291080D01*
X173639625Y-74554225D01*
X173376480Y-74948052D01*
X173307400Y-75295339D01*
X173148600Y-75295339D01*
X173148600Y-75295338D01*
X173079520Y-74948051D01*
X172816375Y-74554225D01*
X172422548Y-74291080D01*
X171958000Y-74198675D01*
X171493451Y-74291080D01*
X171099625Y-74554225D01*
X170836480Y-74948052D01*
X170767400Y-75295339D01*
X170608600Y-75295339D01*
X170608600Y-75295338D01*
X170539520Y-74948051D01*
X170276375Y-74554225D01*
X169882548Y-74291080D01*
X169418000Y-74198675D01*
X168953451Y-74291080D01*
X168559625Y-74554225D01*
X168296480Y-74948052D01*
X168227400Y-75295339D01*
X168068600Y-75295339D01*
X168068600Y-75295338D01*
X167999520Y-74948051D01*
X167736375Y-74554225D01*
X167342548Y-74291080D01*
X166878000Y-74198675D01*
X166413451Y-74291080D01*
X166019625Y-74554225D01*
X165756480Y-74948052D01*
X165687400Y-75295339D01*
X165528600Y-75295339D01*
X165528600Y-75295338D01*
X165459520Y-74948051D01*
X165196375Y-74554225D01*
X164802548Y-74291080D01*
X164338000Y-74198675D01*
X163873451Y-74291080D01*
X163479625Y-74554225D01*
X163216480Y-74948052D01*
X163147400Y-75295339D01*
X162988600Y-75295339D01*
X162988600Y-75295338D01*
X162919520Y-74948051D01*
X162656375Y-74554225D01*
X162262548Y-74291080D01*
X161798000Y-74198675D01*
X161333451Y-74291080D01*
X160939625Y-74554225D01*
X160676480Y-74948052D01*
X160607400Y-75295339D01*
X160448600Y-75295339D01*
X160448600Y-75295338D01*
X160379520Y-74948051D01*
X160116375Y-74554225D01*
X159722548Y-74291080D01*
X159258000Y-74198675D01*
X158793451Y-74291080D01*
X158399625Y-74554225D01*
X158136480Y-74948052D01*
X158067400Y-75295339D01*
X157908600Y-75295339D01*
X157908600Y-75295338D01*
X157839520Y-74948051D01*
X157576375Y-74554225D01*
X157182548Y-74291080D01*
X156718000Y-74198675D01*
X156253451Y-74291080D01*
X155859625Y-74554225D01*
X155596480Y-74948052D01*
X155527400Y-75295339D01*
X153844600Y-75295339D01*
X153844600Y-75295338D01*
X153775520Y-74948051D01*
X153512375Y-74554225D01*
X153118548Y-74291080D01*
X152654000Y-74198675D01*
X152189451Y-74291080D01*
X151795625Y-74554225D01*
X151532480Y-74948052D01*
X151463400Y-75295339D01*
X151304600Y-75295339D01*
X151304600Y-75295338D01*
X151235520Y-74948051D01*
X150972375Y-74554225D01*
X150578548Y-74291080D01*
X150114000Y-74198675D01*
X149649451Y-74291080D01*
X149255625Y-74554225D01*
X148992480Y-74948052D01*
X148923400Y-75295339D01*
X148764600Y-75295339D01*
X148764600Y-75295338D01*
X148695520Y-74948051D01*
X148432375Y-74554225D01*
X148038548Y-74291080D01*
X147574000Y-74198675D01*
X147109451Y-74291080D01*
X146715625Y-74554225D01*
X146452480Y-74948052D01*
X146383400Y-75295339D01*
X146224600Y-75295339D01*
X146224600Y-75295338D01*
X146155520Y-74948051D01*
X145892375Y-74554225D01*
X145498548Y-74291080D01*
X145034000Y-74198675D01*
X144569451Y-74291080D01*
X144175625Y-74554225D01*
X143912480Y-74948052D01*
X143843400Y-75295339D01*
X143684600Y-75295339D01*
X143684600Y-75295338D01*
X143615520Y-74948051D01*
X143352375Y-74554225D01*
X142958548Y-74291080D01*
X142494000Y-74198675D01*
X142029451Y-74291080D01*
X141635625Y-74554225D01*
X141372480Y-74948052D01*
X141303400Y-75295339D01*
X141144600Y-75295339D01*
X141144600Y-75295338D01*
X141075520Y-74948051D01*
X140812375Y-74554225D01*
X140418548Y-74291080D01*
X139954000Y-74198675D01*
X139489451Y-74291080D01*
X139095625Y-74554225D01*
X138832480Y-74948052D01*
X138824321Y-74989068D01*
X138705954Y-74650680D01*
X138316036Y-74214268D01*
X137788791Y-73960291D01*
X137773026Y-73957642D01*
X137541000Y-74078783D01*
X137287000Y-74078783D01*
X137054974Y-73957642D01*
X137039209Y-73960291D01*
X136511964Y-74214268D01*
X136122046Y-74650680D01*
X136003679Y-74989068D01*
X135995520Y-74948051D01*
X135732375Y-74554225D01*
X135338548Y-74291080D01*
X134874000Y-74198675D01*
X134409451Y-74291080D01*
X134015625Y-74554225D01*
X133752480Y-74948052D01*
X133683400Y-75295339D01*
X133524600Y-75295339D01*
X133524600Y-75295338D01*
X133455520Y-74948051D01*
X133192375Y-74554225D01*
X132798548Y-74291080D01*
X132334000Y-74198675D01*
X131869451Y-74291080D01*
X131475625Y-74554225D01*
X131212480Y-74948052D01*
X131143400Y-75295339D01*
X130984600Y-75295339D01*
X130984600Y-75295338D01*
X130915520Y-74948051D01*
X130652375Y-74554225D01*
X130258548Y-74291080D01*
X129794000Y-74198675D01*
X129329451Y-74291080D01*
X128935625Y-74554225D01*
X128672480Y-74948052D01*
X128603400Y-75295339D01*
X128597000Y-75295339D01*
X128597000Y-75095766D01*
X128237864Y-74228734D01*
X127574266Y-73565136D01*
X127064538Y-73354000D01*
X175377724Y-73354000D01*
X176709001Y-74685277D01*
X176709000Y-85946604D01*
X176702556Y-85979000D01*
X176709000Y-86011396D01*
X176709000Y-86011400D01*
X176728089Y-86107368D01*
X176800805Y-86216195D01*
X176828272Y-86234548D01*
X179249001Y-88655277D01*
X179249001Y-89978464D01*
X179037864Y-89468734D01*
X178374266Y-88805136D01*
X177507234Y-88446000D01*
X176568766Y-88446000D01*
X175701734Y-88805136D01*
X175038136Y-89468734D01*
X174679000Y-90335766D01*
X174679000Y-91274234D01*
X175038136Y-92141266D01*
X175701734Y-92804864D01*
X176568766Y-93164000D01*
X177507234Y-93164000D01*
X178374266Y-92804864D01*
X179037864Y-92141266D01*
X179249001Y-91631536D01*
X179249000Y-117918462D01*
X179037864Y-117408734D01*
X178374266Y-116745136D01*
X177507234Y-116386000D01*
X176568766Y-116386000D01*
X175701734Y-116745136D01*
X175038136Y-117408734D01*
X174679000Y-118275766D01*
X174679000Y-119214234D01*
X175038136Y-120081266D01*
X175701734Y-120744864D01*
X176568766Y-121104000D01*
X177507234Y-121104000D01*
X178374266Y-120744864D01*
X179037864Y-120081266D01*
X179249000Y-119571538D01*
X179249000Y-121148724D01*
X176828270Y-123569454D01*
X176800806Y-123587805D01*
X176782455Y-123615269D01*
X176782451Y-123615273D01*
X176728090Y-123696631D01*
X176702556Y-123825000D01*
X176709001Y-123857401D01*
X176709000Y-126036000D01*
X125794538Y-126036000D01*
X126304266Y-125824864D01*
X126967864Y-125161266D01*
X127327000Y-124294234D01*
X127327000Y-123555339D01*
X137747400Y-123555339D01*
X137747400Y-124094662D01*
X137816480Y-124441949D01*
X138079626Y-124835775D01*
X138473452Y-125098920D01*
X138938000Y-125191325D01*
X139402549Y-125098920D01*
X139796375Y-124835775D01*
X140059520Y-124441948D01*
X140128600Y-124094661D01*
X140128600Y-123555339D01*
X140287400Y-123555339D01*
X140287400Y-124094662D01*
X140356480Y-124441949D01*
X140619626Y-124835775D01*
X141013452Y-125098920D01*
X141478000Y-125191325D01*
X141942549Y-125098920D01*
X142336375Y-124835775D01*
X142599520Y-124441948D01*
X142668600Y-124094661D01*
X142668600Y-123555339D01*
X142827400Y-123555339D01*
X142827400Y-124094662D01*
X142896480Y-124441949D01*
X143159626Y-124835775D01*
X143553452Y-125098920D01*
X144018000Y-125191325D01*
X144482549Y-125098920D01*
X144876375Y-124835775D01*
X145139520Y-124441948D01*
X145208600Y-124094661D01*
X145208600Y-123555339D01*
X145367400Y-123555339D01*
X145367400Y-124094662D01*
X145436480Y-124441949D01*
X145699626Y-124835775D01*
X146093452Y-125098920D01*
X146558000Y-125191325D01*
X147022549Y-125098920D01*
X147416375Y-124835775D01*
X147679520Y-124441948D01*
X147748600Y-124094661D01*
X147748600Y-123555339D01*
X147907400Y-123555339D01*
X147907400Y-124094662D01*
X147976480Y-124441949D01*
X148239626Y-124835775D01*
X148633452Y-125098920D01*
X149098000Y-125191325D01*
X149562549Y-125098920D01*
X149956375Y-124835775D01*
X150219520Y-124441948D01*
X150227679Y-124400932D01*
X150346046Y-124739320D01*
X150735964Y-125175732D01*
X151263209Y-125429709D01*
X151278974Y-125432358D01*
X151511000Y-125311217D01*
X151511000Y-123952000D01*
X151765000Y-123952000D01*
X151765000Y-125311217D01*
X151997026Y-125432358D01*
X152012791Y-125429709D01*
X152540036Y-125175732D01*
X152908000Y-124763892D01*
X153275964Y-125175732D01*
X153803209Y-125429709D01*
X153818974Y-125432358D01*
X154051000Y-125311217D01*
X154051000Y-123952000D01*
X151765000Y-123952000D01*
X151511000Y-123952000D01*
X151491000Y-123952000D01*
X151491000Y-123698000D01*
X151511000Y-123698000D01*
X151511000Y-122338783D01*
X151765000Y-122338783D01*
X151765000Y-123698000D01*
X154051000Y-123698000D01*
X154051000Y-122338783D01*
X154305000Y-122338783D01*
X154305000Y-123698000D01*
X154325000Y-123698000D01*
X154325000Y-123952000D01*
X154305000Y-123952000D01*
X154305000Y-125311217D01*
X154537026Y-125432358D01*
X154552791Y-125429709D01*
X155080036Y-125175732D01*
X155469954Y-124739320D01*
X155588321Y-124400932D01*
X155596480Y-124441949D01*
X155859626Y-124835775D01*
X156253452Y-125098920D01*
X156718000Y-125191325D01*
X157182549Y-125098920D01*
X157576375Y-124835775D01*
X157839520Y-124441948D01*
X157908600Y-124094661D01*
X157908600Y-123555339D01*
X160607400Y-123555339D01*
X160607400Y-124094662D01*
X160676480Y-124441949D01*
X160939626Y-124835775D01*
X161333452Y-125098920D01*
X161798000Y-125191325D01*
X162262549Y-125098920D01*
X162656375Y-124835775D01*
X162919520Y-124441948D01*
X162988600Y-124094661D01*
X162988600Y-123555339D01*
X163147400Y-123555339D01*
X163147400Y-124094662D01*
X163216480Y-124441949D01*
X163479626Y-124835775D01*
X163873452Y-125098920D01*
X164338000Y-125191325D01*
X164802549Y-125098920D01*
X165196375Y-124835775D01*
X165459520Y-124441948D01*
X165528600Y-124094661D01*
X165528600Y-123555339D01*
X165687400Y-123555339D01*
X165687400Y-124094662D01*
X165756480Y-124441949D01*
X166019626Y-124835775D01*
X166413452Y-125098920D01*
X166878000Y-125191325D01*
X167342549Y-125098920D01*
X167736375Y-124835775D01*
X167999520Y-124441948D01*
X168068600Y-124094661D01*
X168068600Y-123555339D01*
X168227400Y-123555339D01*
X168227400Y-124094662D01*
X168296480Y-124441949D01*
X168559626Y-124835775D01*
X168953452Y-125098920D01*
X169418000Y-125191325D01*
X169882549Y-125098920D01*
X170276375Y-124835775D01*
X170539520Y-124441948D01*
X170608600Y-124094661D01*
X170608600Y-123555339D01*
X170767400Y-123555339D01*
X170767400Y-124094662D01*
X170836480Y-124441949D01*
X171099626Y-124835775D01*
X171493452Y-125098920D01*
X171958000Y-125191325D01*
X172422549Y-125098920D01*
X172816375Y-124835775D01*
X173079520Y-124441948D01*
X173148600Y-124094661D01*
X173148600Y-123555339D01*
X173307400Y-123555339D01*
X173307400Y-124094662D01*
X173376480Y-124441949D01*
X173639626Y-124835775D01*
X174033452Y-125098920D01*
X174498000Y-125191325D01*
X174962549Y-125098920D01*
X175356375Y-124835775D01*
X175619520Y-124441948D01*
X175688600Y-124094661D01*
X175688600Y-123555338D01*
X175619520Y-123208051D01*
X175356375Y-122814225D01*
X174962548Y-122551080D01*
X174498000Y-122458675D01*
X174033451Y-122551080D01*
X173639625Y-122814225D01*
X173376480Y-123208052D01*
X173307400Y-123555339D01*
X173148600Y-123555339D01*
X173148600Y-123555338D01*
X173079520Y-123208051D01*
X172816375Y-122814225D01*
X172422548Y-122551080D01*
X171958000Y-122458675D01*
X171493451Y-122551080D01*
X171099625Y-122814225D01*
X170836480Y-123208052D01*
X170767400Y-123555339D01*
X170608600Y-123555339D01*
X170608600Y-123555338D01*
X170539520Y-123208051D01*
X170276375Y-122814225D01*
X169882548Y-122551080D01*
X169418000Y-122458675D01*
X168953451Y-122551080D01*
X168559625Y-122814225D01*
X168296480Y-123208052D01*
X168227400Y-123555339D01*
X168068600Y-123555339D01*
X168068600Y-123555338D01*
X167999520Y-123208051D01*
X167736375Y-122814225D01*
X167342548Y-122551080D01*
X166878000Y-122458675D01*
X166413451Y-122551080D01*
X166019625Y-122814225D01*
X165756480Y-123208052D01*
X165687400Y-123555339D01*
X165528600Y-123555339D01*
X165528600Y-123555338D01*
X165459520Y-123208051D01*
X165196375Y-122814225D01*
X164802548Y-122551080D01*
X164338000Y-122458675D01*
X163873451Y-122551080D01*
X163479625Y-122814225D01*
X163216480Y-123208052D01*
X163147400Y-123555339D01*
X162988600Y-123555339D01*
X162988600Y-123555338D01*
X162919520Y-123208051D01*
X162656375Y-122814225D01*
X162262548Y-122551080D01*
X161798000Y-122458675D01*
X161333451Y-122551080D01*
X160939625Y-122814225D01*
X160676480Y-123208052D01*
X160607400Y-123555339D01*
X157908600Y-123555339D01*
X157908600Y-123555338D01*
X157839520Y-123208051D01*
X157576375Y-122814225D01*
X157182548Y-122551080D01*
X156718000Y-122458675D01*
X156253451Y-122551080D01*
X155859625Y-122814225D01*
X155596480Y-123208052D01*
X155588321Y-123249068D01*
X155469954Y-122910680D01*
X155080036Y-122474268D01*
X154552791Y-122220291D01*
X154537026Y-122217642D01*
X154305000Y-122338783D01*
X154051000Y-122338783D01*
X153818974Y-122217642D01*
X153803209Y-122220291D01*
X153275964Y-122474268D01*
X152908000Y-122886108D01*
X152540036Y-122474268D01*
X152012791Y-122220291D01*
X151997026Y-122217642D01*
X151765000Y-122338783D01*
X151511000Y-122338783D01*
X151278974Y-122217642D01*
X151263209Y-122220291D01*
X150735964Y-122474268D01*
X150346046Y-122910680D01*
X150227679Y-123249068D01*
X150219520Y-123208051D01*
X149956375Y-122814225D01*
X149562548Y-122551080D01*
X149098000Y-122458675D01*
X148633451Y-122551080D01*
X148239625Y-122814225D01*
X147976480Y-123208052D01*
X147907400Y-123555339D01*
X147748600Y-123555339D01*
X147748600Y-123555338D01*
X147679520Y-123208051D01*
X147416375Y-122814225D01*
X147022548Y-122551080D01*
X146558000Y-122458675D01*
X146093451Y-122551080D01*
X145699625Y-122814225D01*
X145436480Y-123208052D01*
X145367400Y-123555339D01*
X145208600Y-123555339D01*
X145208600Y-123555338D01*
X145139520Y-123208051D01*
X144876375Y-122814225D01*
X144482548Y-122551080D01*
X144018000Y-122458675D01*
X143553451Y-122551080D01*
X143159625Y-122814225D01*
X142896480Y-123208052D01*
X142827400Y-123555339D01*
X142668600Y-123555339D01*
X142668600Y-123555338D01*
X142599520Y-123208051D01*
X142336375Y-122814225D01*
X141942548Y-122551080D01*
X141478000Y-122458675D01*
X141013451Y-122551080D01*
X140619625Y-122814225D01*
X140356480Y-123208052D01*
X140287400Y-123555339D01*
X140128600Y-123555339D01*
X140128600Y-123555338D01*
X140059520Y-123208051D01*
X139796375Y-122814225D01*
X139402548Y-122551080D01*
X138938000Y-122458675D01*
X138473451Y-122551080D01*
X138079625Y-122814225D01*
X137816480Y-123208052D01*
X137747400Y-123555339D01*
X127327000Y-123555339D01*
X127327000Y-123355766D01*
X126967864Y-122488734D01*
X126304266Y-121825136D01*
X125437234Y-121466000D01*
X124498766Y-121466000D01*
X123631734Y-121825136D01*
X122968136Y-122488734D01*
X122609000Y-123355766D01*
X122609000Y-124294234D01*
X122968136Y-125161266D01*
X123631734Y-125824864D01*
X124141462Y-126036000D01*
X111327000Y-126036000D01*
X111327000Y-118776750D01*
X129949000Y-118776750D01*
X129949000Y-120367309D01*
X130045673Y-120600698D01*
X130224301Y-120779327D01*
X130457690Y-120876000D01*
X132048250Y-120876000D01*
X132207000Y-120717250D01*
X132207000Y-118618000D01*
X132461000Y-118618000D01*
X132461000Y-120717250D01*
X132619750Y-120876000D01*
X134210310Y-120876000D01*
X134443699Y-120779327D01*
X134622327Y-120600698D01*
X134719000Y-120367309D01*
X134719000Y-118776750D01*
X134560250Y-118618000D01*
X132461000Y-118618000D01*
X132207000Y-118618000D01*
X130107750Y-118618000D01*
X129949000Y-118776750D01*
X111327000Y-118776750D01*
X111327000Y-116614691D01*
X129949000Y-116614691D01*
X129949000Y-118205250D01*
X130107750Y-118364000D01*
X132207000Y-118364000D01*
X132207000Y-116264750D01*
X132461000Y-116264750D01*
X132461000Y-118364000D01*
X134560250Y-118364000D01*
X134719000Y-118205250D01*
X134719000Y-118099000D01*
X143292594Y-118099000D01*
X143292594Y-119899000D01*
X143317973Y-120026589D01*
X143390246Y-120134754D01*
X143498411Y-120207027D01*
X143626000Y-120232406D01*
X145426000Y-120232406D01*
X145553589Y-120207027D01*
X145661754Y-120134754D01*
X145734027Y-120026589D01*
X145759406Y-119899000D01*
X145759406Y-119801578D01*
X146158424Y-120236966D01*
X146701258Y-120490046D01*
X146939000Y-120369997D01*
X146939000Y-119126000D01*
X146919000Y-119126000D01*
X146919000Y-118872000D01*
X146939000Y-118872000D01*
X146939000Y-117628003D01*
X147193000Y-117628003D01*
X147193000Y-118872000D01*
X147213000Y-118872000D01*
X147213000Y-119126000D01*
X147193000Y-119126000D01*
X147193000Y-120369997D01*
X147430742Y-120490046D01*
X147973576Y-120236966D01*
X148378240Y-119795417D01*
X148486998Y-119532836D01*
X148721383Y-119883617D01*
X149127248Y-120154808D01*
X149485153Y-120226000D01*
X149726847Y-120226000D01*
X150084752Y-120154808D01*
X150490617Y-119883617D01*
X150761808Y-119477752D01*
X150857038Y-118999000D01*
X150761808Y-118520248D01*
X150490617Y-118114383D01*
X150084752Y-117843192D01*
X149726847Y-117772000D01*
X149485153Y-117772000D01*
X149127248Y-117843192D01*
X148721383Y-118114383D01*
X148486998Y-118465164D01*
X148378240Y-118202583D01*
X147973576Y-117761034D01*
X147430742Y-117507954D01*
X147193000Y-117628003D01*
X146939000Y-117628003D01*
X146701258Y-117507954D01*
X146158424Y-117761034D01*
X145759406Y-118196422D01*
X145759406Y-118099000D01*
X145734027Y-117971411D01*
X145661754Y-117863246D01*
X145553589Y-117790973D01*
X145426000Y-117765594D01*
X143626000Y-117765594D01*
X143498411Y-117790973D01*
X143390246Y-117863246D01*
X143317973Y-117971411D01*
X143292594Y-118099000D01*
X134719000Y-118099000D01*
X134719000Y-116614691D01*
X134622327Y-116381302D01*
X134443699Y-116202673D01*
X134210310Y-116106000D01*
X132619750Y-116106000D01*
X132461000Y-116264750D01*
X132207000Y-116264750D01*
X132048250Y-116106000D01*
X130457690Y-116106000D01*
X130224301Y-116202673D01*
X130045673Y-116381302D01*
X129949000Y-116614691D01*
X111327000Y-116614691D01*
X111327000Y-105314750D01*
X124857510Y-105314750D01*
X124857510Y-106154799D01*
X124954183Y-106388188D01*
X125132811Y-106566817D01*
X125366200Y-106663490D01*
X126206250Y-106663490D01*
X126365000Y-106504740D01*
X126365000Y-105156000D01*
X126619000Y-105156000D01*
X126619000Y-106504740D01*
X126777750Y-106663490D01*
X127617800Y-106663490D01*
X127851189Y-106566817D01*
X128029817Y-106388188D01*
X128126490Y-106154799D01*
X128126490Y-105314750D01*
X127967740Y-105156000D01*
X126619000Y-105156000D01*
X126365000Y-105156000D01*
X125016260Y-105156000D01*
X124857510Y-105314750D01*
X111327000Y-105314750D01*
X111327000Y-103903201D01*
X124857510Y-103903201D01*
X124857510Y-104743250D01*
X125016260Y-104902000D01*
X126365000Y-104902000D01*
X126365000Y-104882000D01*
X126619000Y-104882000D01*
X126619000Y-104902000D01*
X127967740Y-104902000D01*
X128126490Y-104743250D01*
X128126490Y-103903201D01*
X128029817Y-103669812D01*
X127851189Y-103491183D01*
X127617800Y-103394510D01*
X127482314Y-103394510D01*
X127741526Y-103006571D01*
X127844477Y-102489000D01*
X127741526Y-101971429D01*
X127448346Y-101532654D01*
X127009571Y-101239474D01*
X126906641Y-101219000D01*
X127009571Y-101198526D01*
X127448346Y-100905346D01*
X127741526Y-100466571D01*
X127844477Y-99949000D01*
X127741526Y-99431429D01*
X127448346Y-98992654D01*
X127009571Y-98699474D01*
X126906641Y-98679000D01*
X127009571Y-98658526D01*
X127448346Y-98365346D01*
X127741526Y-97926571D01*
X127844477Y-97409000D01*
X127741526Y-96891429D01*
X127448346Y-96452654D01*
X127009571Y-96159474D01*
X126622646Y-96082510D01*
X126361354Y-96082510D01*
X125974429Y-96159474D01*
X125535654Y-96452654D01*
X125242474Y-96891429D01*
X125139523Y-97409000D01*
X125242474Y-97926571D01*
X125535654Y-98365346D01*
X125974429Y-98658526D01*
X126077359Y-98679000D01*
X125974429Y-98699474D01*
X125535654Y-98992654D01*
X125242474Y-99431429D01*
X125139523Y-99949000D01*
X125242474Y-100466571D01*
X125535654Y-100905346D01*
X125974429Y-101198526D01*
X126077359Y-101219000D01*
X125974429Y-101239474D01*
X125535654Y-101532654D01*
X125242474Y-101971429D01*
X125139523Y-102489000D01*
X125242474Y-103006571D01*
X125501686Y-103394510D01*
X125366200Y-103394510D01*
X125132811Y-103491183D01*
X124954183Y-103669812D01*
X124857510Y-103903201D01*
X111327000Y-103903201D01*
X111327000Y-89312750D01*
X124857510Y-89312750D01*
X124857510Y-90152799D01*
X124954183Y-90386188D01*
X125132811Y-90564817D01*
X125366200Y-90661490D01*
X126206250Y-90661490D01*
X126365000Y-90502740D01*
X126365000Y-89154000D01*
X126619000Y-89154000D01*
X126619000Y-90502740D01*
X126777750Y-90661490D01*
X127617800Y-90661490D01*
X127851189Y-90564817D01*
X128029817Y-90386188D01*
X128126490Y-90152799D01*
X128126490Y-89312750D01*
X127967740Y-89154000D01*
X126619000Y-89154000D01*
X126365000Y-89154000D01*
X125016260Y-89154000D01*
X124857510Y-89312750D01*
X111327000Y-89312750D01*
X111327000Y-87901201D01*
X124857510Y-87901201D01*
X124857510Y-88741250D01*
X125016260Y-88900000D01*
X126365000Y-88900000D01*
X126365000Y-88880000D01*
X126619000Y-88880000D01*
X126619000Y-88900000D01*
X127967740Y-88900000D01*
X128126490Y-88741250D01*
X128126490Y-87901201D01*
X128029817Y-87667812D01*
X127851189Y-87489183D01*
X127617800Y-87392510D01*
X127482314Y-87392510D01*
X127741526Y-87004571D01*
X127844477Y-86487000D01*
X127741526Y-85969429D01*
X127448346Y-85530654D01*
X127009571Y-85237474D01*
X126906641Y-85217000D01*
X127009571Y-85196526D01*
X127448346Y-84903346D01*
X127741526Y-84464571D01*
X127844477Y-83947000D01*
X127741526Y-83429429D01*
X127448346Y-82990654D01*
X127009571Y-82697474D01*
X126906641Y-82677000D01*
X127009571Y-82656526D01*
X127448346Y-82363346D01*
X127741526Y-81924571D01*
X127844477Y-81407000D01*
X127741526Y-80889429D01*
X127664588Y-80774282D01*
X129929000Y-80774282D01*
X129929000Y-81023718D01*
X130024455Y-81254167D01*
X130104000Y-81333712D01*
X130104001Y-96466287D01*
X130024455Y-96545833D01*
X129929000Y-96776282D01*
X129929000Y-97025718D01*
X130024455Y-97256167D01*
X130104000Y-97335712D01*
X130104001Y-110668477D01*
X130095145Y-110713000D01*
X130130225Y-110889361D01*
X130130226Y-110889362D01*
X130230127Y-111038874D01*
X130250594Y-111052550D01*
X130250594Y-114241000D01*
X130275973Y-114368589D01*
X130348246Y-114476754D01*
X130456411Y-114549027D01*
X130584000Y-114574406D01*
X134084000Y-114574406D01*
X134211589Y-114549027D01*
X134319754Y-114476754D01*
X134392027Y-114368589D01*
X134417406Y-114241000D01*
X134417406Y-113741000D01*
X134950594Y-113741000D01*
X134950594Y-117241000D01*
X134975973Y-117368589D01*
X135048246Y-117476754D01*
X135156411Y-117549027D01*
X135284000Y-117574406D01*
X138784000Y-117574406D01*
X138911589Y-117549027D01*
X139019754Y-117476754D01*
X139092027Y-117368589D01*
X139117406Y-117241000D01*
X139117406Y-113741000D01*
X139110047Y-113704000D01*
X144866594Y-113704000D01*
X144866594Y-115404000D01*
X144891973Y-115531589D01*
X144964246Y-115639754D01*
X145072411Y-115712027D01*
X145200000Y-115737406D01*
X146900000Y-115737406D01*
X147027589Y-115712027D01*
X147135754Y-115639754D01*
X147208027Y-115531589D01*
X147233406Y-115404000D01*
X147233406Y-114554000D01*
X147389942Y-114554000D01*
X147481291Y-115013242D01*
X147741431Y-115402569D01*
X148130758Y-115662709D01*
X148474080Y-115731000D01*
X148705920Y-115731000D01*
X149049242Y-115662709D01*
X149438569Y-115402569D01*
X149698709Y-115013242D01*
X149790058Y-114554000D01*
X149698709Y-114094758D01*
X149438569Y-113705431D01*
X149049242Y-113445291D01*
X148705920Y-113377000D01*
X148474080Y-113377000D01*
X148130758Y-113445291D01*
X147741431Y-113705431D01*
X147481291Y-114094758D01*
X147389942Y-114554000D01*
X147233406Y-114554000D01*
X147233406Y-113704000D01*
X147208027Y-113576411D01*
X147135754Y-113468246D01*
X147027589Y-113395973D01*
X146900000Y-113370594D01*
X145200000Y-113370594D01*
X145072411Y-113395973D01*
X144964246Y-113468246D01*
X144891973Y-113576411D01*
X144866594Y-113704000D01*
X139110047Y-113704000D01*
X139092027Y-113613411D01*
X139019754Y-113505246D01*
X138911589Y-113432973D01*
X138784000Y-113407594D01*
X135284000Y-113407594D01*
X135156411Y-113432973D01*
X135048246Y-113505246D01*
X134975973Y-113613411D01*
X134950594Y-113741000D01*
X134417406Y-113741000D01*
X134417406Y-110741000D01*
X134392027Y-110613411D01*
X134319754Y-110505246D01*
X134211589Y-110432973D01*
X134084000Y-110407594D01*
X131008000Y-110407594D01*
X131008000Y-108271379D01*
X133551320Y-108271379D01*
X133551320Y-108898621D01*
X133791355Y-109478117D01*
X134234883Y-109921645D01*
X134814379Y-110161680D01*
X135441621Y-110161680D01*
X136021117Y-109921645D01*
X136464645Y-109478117D01*
X136704680Y-108898621D01*
X136704680Y-108271379D01*
X137996320Y-108271379D01*
X137996320Y-108898621D01*
X138236355Y-109478117D01*
X138679883Y-109921645D01*
X139259379Y-110161680D01*
X139886621Y-110161680D01*
X140466117Y-109921645D01*
X140909645Y-109478117D01*
X141149680Y-108898621D01*
X141149680Y-108271379D01*
X140909645Y-107691883D01*
X140466117Y-107248355D01*
X139886621Y-107008320D01*
X139259379Y-107008320D01*
X138679883Y-107248355D01*
X138236355Y-107691883D01*
X137996320Y-108271379D01*
X136704680Y-108271379D01*
X136464645Y-107691883D01*
X136021117Y-107248355D01*
X135580000Y-107065638D01*
X135580000Y-106613224D01*
X135775225Y-106418000D01*
X135887718Y-106418000D01*
X136118167Y-106322545D01*
X136197712Y-106243000D01*
X137496482Y-106243000D01*
X137541000Y-106251855D01*
X137585518Y-106243000D01*
X137717362Y-106216775D01*
X137866874Y-106116874D01*
X137892093Y-106079131D01*
X139574942Y-104396282D01*
X140216004Y-104396282D01*
X140216004Y-104645718D01*
X140311459Y-104876167D01*
X140487837Y-105052545D01*
X140718286Y-105148000D01*
X140830779Y-105148000D01*
X140854869Y-105172090D01*
X140854872Y-105172092D01*
X147730912Y-112048133D01*
X147756130Y-112085874D01*
X147905642Y-112185775D01*
X148037486Y-112212000D01*
X148037487Y-112212000D01*
X148082003Y-112220855D01*
X148126520Y-112212000D01*
X159550354Y-112212000D01*
X159615455Y-112369167D01*
X159791833Y-112545545D01*
X160022282Y-112641000D01*
X160271718Y-112641000D01*
X160502167Y-112545545D01*
X160678545Y-112369167D01*
X160774000Y-112138718D01*
X160774000Y-111889282D01*
X160678545Y-111658833D01*
X160502167Y-111482455D01*
X160271718Y-111387000D01*
X160148345Y-111387000D01*
X160069362Y-111334225D01*
X159937518Y-111308000D01*
X159893000Y-111299145D01*
X159848482Y-111308000D01*
X148269229Y-111308000D01*
X143497797Y-106536568D01*
X151019235Y-106536568D01*
X151019235Y-108236568D01*
X151044614Y-108364157D01*
X151116887Y-108472322D01*
X151225052Y-108544595D01*
X151352641Y-108569974D01*
X153052641Y-108569974D01*
X153180230Y-108544595D01*
X153288395Y-108472322D01*
X153360668Y-108364157D01*
X153386047Y-108236568D01*
X153386047Y-107386568D01*
X153542583Y-107386568D01*
X153633932Y-107845810D01*
X153894072Y-108235137D01*
X154283399Y-108495277D01*
X154626721Y-108563568D01*
X154858561Y-108563568D01*
X155201883Y-108495277D01*
X155591210Y-108235137D01*
X155851350Y-107845810D01*
X155942699Y-107386568D01*
X155851350Y-106927326D01*
X155591210Y-106537999D01*
X155201883Y-106277859D01*
X154858561Y-106209568D01*
X154626721Y-106209568D01*
X154283399Y-106277859D01*
X153894072Y-106537999D01*
X153633932Y-106927326D01*
X153542583Y-107386568D01*
X153386047Y-107386568D01*
X153386047Y-106536568D01*
X153360668Y-106408979D01*
X153288395Y-106300814D01*
X153180230Y-106228541D01*
X153052641Y-106203162D01*
X151352641Y-106203162D01*
X151225052Y-106228541D01*
X151116887Y-106300814D01*
X151044614Y-106408979D01*
X151019235Y-106536568D01*
X143497797Y-106536568D01*
X141494096Y-104532868D01*
X141494094Y-104532865D01*
X141470004Y-104508775D01*
X141470004Y-104396282D01*
X141374549Y-104165833D01*
X141198171Y-103989455D01*
X140967722Y-103894000D01*
X140718286Y-103894000D01*
X140487837Y-103989455D01*
X140311459Y-104165833D01*
X140216004Y-104396282D01*
X139574942Y-104396282D01*
X140166485Y-103804739D01*
X141447000Y-103804739D01*
X141447000Y-104221261D01*
X141606396Y-104606078D01*
X141900922Y-104900604D01*
X142285739Y-105060000D01*
X142702261Y-105060000D01*
X143087078Y-104900604D01*
X143381604Y-104606078D01*
X143541000Y-104221261D01*
X143541000Y-103804739D01*
X143381604Y-103419922D01*
X143087078Y-103125396D01*
X142702261Y-102966000D01*
X142285739Y-102966000D01*
X141900922Y-103125396D01*
X141606396Y-103419922D01*
X141447000Y-103804739D01*
X140166485Y-103804739D01*
X141034656Y-102936568D01*
X151019235Y-102936568D01*
X151019235Y-104636568D01*
X151044614Y-104764157D01*
X151116887Y-104872322D01*
X151225052Y-104944595D01*
X151352641Y-104969974D01*
X153052641Y-104969974D01*
X153180230Y-104944595D01*
X153288395Y-104872322D01*
X153360668Y-104764157D01*
X153386047Y-104636568D01*
X153386047Y-102936568D01*
X153360668Y-102808979D01*
X153288395Y-102700814D01*
X153180230Y-102628541D01*
X153052641Y-102603162D01*
X151352641Y-102603162D01*
X151225052Y-102628541D01*
X151116887Y-102700814D01*
X151044614Y-102808979D01*
X151019235Y-102936568D01*
X141034656Y-102936568D01*
X141157225Y-102814000D01*
X144100482Y-102814000D01*
X144145000Y-102822855D01*
X144189518Y-102814000D01*
X144321362Y-102787775D01*
X144470874Y-102687874D01*
X144496093Y-102650131D01*
X144684661Y-102461564D01*
X144825739Y-102520000D01*
X145242261Y-102520000D01*
X145627078Y-102360604D01*
X145921604Y-102066078D01*
X146081000Y-101681261D01*
X146081000Y-101264739D01*
X145921604Y-100879922D01*
X145842943Y-100801261D01*
X148803037Y-100801261D01*
X150270907Y-102269131D01*
X150296126Y-102306874D01*
X150445638Y-102406775D01*
X150577482Y-102433000D01*
X150577483Y-102433000D01*
X150621999Y-102441855D01*
X150666516Y-102433000D01*
X154290642Y-102433000D01*
X154290642Y-102676418D01*
X154283399Y-102677859D01*
X153894072Y-102937999D01*
X153633932Y-103327326D01*
X153542583Y-103786568D01*
X153633932Y-104245810D01*
X153894072Y-104635137D01*
X154283399Y-104895277D01*
X154626721Y-104963568D01*
X154858561Y-104963568D01*
X155201883Y-104895277D01*
X155591210Y-104635137D01*
X155851350Y-104245810D01*
X155942699Y-103786568D01*
X155851350Y-103327326D01*
X155591210Y-102937999D01*
X155201883Y-102677859D01*
X155194641Y-102676418D01*
X155194641Y-102152517D01*
X155203496Y-102107999D01*
X155194641Y-102063482D01*
X155194641Y-101296718D01*
X155201883Y-101295277D01*
X155591210Y-101035137D01*
X155851350Y-100645810D01*
X155942699Y-100186568D01*
X155851350Y-99727326D01*
X155591210Y-99337999D01*
X155201883Y-99077859D01*
X154858561Y-99009568D01*
X154626721Y-99009568D01*
X154283399Y-99077859D01*
X153894072Y-99337999D01*
X153633932Y-99727326D01*
X153542583Y-100186568D01*
X153633932Y-100645810D01*
X153894072Y-101035137D01*
X154283399Y-101295277D01*
X154290641Y-101296718D01*
X154290641Y-101529000D01*
X150809224Y-101529000D01*
X149341354Y-100061130D01*
X149316135Y-100023387D01*
X149166623Y-99923486D01*
X149034779Y-99897261D01*
X148990261Y-99888406D01*
X148945743Y-99897261D01*
X142902011Y-99897261D01*
X143087078Y-99820604D01*
X143381604Y-99526078D01*
X143460101Y-99336568D01*
X151019235Y-99336568D01*
X151019235Y-101036568D01*
X151044614Y-101164157D01*
X151116887Y-101272322D01*
X151225052Y-101344595D01*
X151352641Y-101369974D01*
X153052641Y-101369974D01*
X153180230Y-101344595D01*
X153288395Y-101272322D01*
X153360668Y-101164157D01*
X153386047Y-101036568D01*
X153386047Y-99336568D01*
X153360668Y-99208979D01*
X153288395Y-99100814D01*
X153180230Y-99028541D01*
X153052641Y-99003162D01*
X151352641Y-99003162D01*
X151225052Y-99028541D01*
X151116887Y-99100814D01*
X151044614Y-99208979D01*
X151019235Y-99336568D01*
X143460101Y-99336568D01*
X143541000Y-99141261D01*
X143541000Y-98724739D01*
X143381604Y-98339922D01*
X143087078Y-98045396D01*
X142702261Y-97886000D01*
X142285739Y-97886000D01*
X141900922Y-98045396D01*
X141606396Y-98339922D01*
X141447000Y-98724739D01*
X141447000Y-99141261D01*
X141606396Y-99526078D01*
X141900922Y-99820604D01*
X142085989Y-99897261D01*
X136332157Y-99897261D01*
X136287639Y-99888406D01*
X136243121Y-99897261D01*
X136111277Y-99923486D01*
X135963452Y-100022260D01*
X135862922Y-100022260D01*
X135632473Y-100117715D01*
X135456095Y-100294093D01*
X135360640Y-100524542D01*
X135360640Y-100773978D01*
X135456095Y-101004427D01*
X135632473Y-101180805D01*
X135862922Y-101276260D01*
X136112358Y-101276260D01*
X136342807Y-101180805D01*
X136519185Y-101004427D01*
X136603339Y-100801261D01*
X144225057Y-100801261D01*
X144146396Y-100879922D01*
X143987000Y-101264739D01*
X143987000Y-101681261D01*
X144045436Y-101822339D01*
X143957776Y-101910000D01*
X141014516Y-101910000D01*
X140969999Y-101901145D01*
X140925483Y-101910000D01*
X140925482Y-101910000D01*
X140793638Y-101936225D01*
X140644126Y-102036126D01*
X140618909Y-102073866D01*
X137353776Y-105339000D01*
X136197712Y-105339000D01*
X136118167Y-105259455D01*
X135887718Y-105164000D01*
X135638282Y-105164000D01*
X135407833Y-105259455D01*
X135231455Y-105435833D01*
X135136000Y-105666282D01*
X135136000Y-105778775D01*
X134839867Y-106074909D01*
X134802127Y-106100126D01*
X134776910Y-106137866D01*
X134776909Y-106137867D01*
X134702225Y-106249639D01*
X134667145Y-106426000D01*
X134676001Y-106470522D01*
X134676001Y-107065638D01*
X134234883Y-107248355D01*
X133791355Y-107691883D01*
X133551320Y-108271379D01*
X131008000Y-108271379D01*
X131008000Y-97335712D01*
X131087545Y-97256167D01*
X131183000Y-97025718D01*
X131183000Y-96776282D01*
X131087545Y-96545833D01*
X131008000Y-96466288D01*
X131008000Y-95736568D01*
X151019235Y-95736568D01*
X151019235Y-97436568D01*
X151044614Y-97564157D01*
X151116887Y-97672322D01*
X151225052Y-97744595D01*
X151352641Y-97769974D01*
X153052641Y-97769974D01*
X153180230Y-97744595D01*
X153288395Y-97672322D01*
X153360668Y-97564157D01*
X153386047Y-97436568D01*
X153386047Y-96586568D01*
X153542583Y-96586568D01*
X153633932Y-97045810D01*
X153894072Y-97435137D01*
X154283399Y-97695277D01*
X154626721Y-97763568D01*
X154858561Y-97763568D01*
X155201883Y-97695277D01*
X155591210Y-97435137D01*
X155851350Y-97045810D01*
X155942699Y-96586568D01*
X155851350Y-96127326D01*
X155591210Y-95737999D01*
X155201883Y-95477859D01*
X154858561Y-95409568D01*
X154626721Y-95409568D01*
X154283399Y-95477859D01*
X153894072Y-95737999D01*
X153633932Y-96127326D01*
X153542583Y-96586568D01*
X153386047Y-96586568D01*
X153386047Y-95736568D01*
X153360668Y-95608979D01*
X153288395Y-95500814D01*
X153180230Y-95428541D01*
X153052641Y-95403162D01*
X151352641Y-95403162D01*
X151225052Y-95428541D01*
X151116887Y-95500814D01*
X151044614Y-95608979D01*
X151019235Y-95736568D01*
X131008000Y-95736568D01*
X131008000Y-92142379D01*
X133424320Y-92142379D01*
X133424320Y-92769621D01*
X133664355Y-93349117D01*
X134107883Y-93792645D01*
X134687379Y-94032680D01*
X135314621Y-94032680D01*
X135894117Y-93792645D01*
X136337645Y-93349117D01*
X136577680Y-92769621D01*
X136577680Y-92142379D01*
X137869320Y-92142379D01*
X137869320Y-92769621D01*
X138109355Y-93349117D01*
X138552883Y-93792645D01*
X139132379Y-94032680D01*
X139759621Y-94032680D01*
X140339117Y-93792645D01*
X140782645Y-93349117D01*
X141022680Y-92769621D01*
X141022680Y-92142379D01*
X140782645Y-91562883D01*
X140339117Y-91119355D01*
X139759621Y-90879320D01*
X139132379Y-90879320D01*
X138552883Y-91119355D01*
X138109355Y-91562883D01*
X137869320Y-92142379D01*
X136577680Y-92142379D01*
X136337645Y-91562883D01*
X135894117Y-91119355D01*
X135453000Y-90936638D01*
X135453000Y-90677945D01*
X151051826Y-90677945D01*
X151051826Y-92377945D01*
X151077205Y-92505534D01*
X151149478Y-92613699D01*
X151257643Y-92685972D01*
X151385232Y-92711351D01*
X153085232Y-92711351D01*
X153212821Y-92685972D01*
X153320986Y-92613699D01*
X153393259Y-92505534D01*
X153418638Y-92377945D01*
X153418638Y-91527945D01*
X153575174Y-91527945D01*
X153666523Y-91987187D01*
X153926663Y-92376514D01*
X154315990Y-92636654D01*
X154659312Y-92704945D01*
X154891152Y-92704945D01*
X155234474Y-92636654D01*
X155623801Y-92376514D01*
X155883941Y-91987187D01*
X155975290Y-91527945D01*
X155883941Y-91068703D01*
X155623801Y-90679376D01*
X155234474Y-90419236D01*
X154891152Y-90350945D01*
X154659312Y-90350945D01*
X154315990Y-90419236D01*
X153926663Y-90679376D01*
X153666523Y-91068703D01*
X153575174Y-91527945D01*
X153418638Y-91527945D01*
X153418638Y-90677945D01*
X153393259Y-90550356D01*
X153320986Y-90442191D01*
X153212821Y-90369918D01*
X153085232Y-90344539D01*
X151385232Y-90344539D01*
X151257643Y-90369918D01*
X151149478Y-90442191D01*
X151077205Y-90550356D01*
X151051826Y-90677945D01*
X135453000Y-90677945D01*
X135453000Y-90114000D01*
X135718482Y-90114000D01*
X135763000Y-90122855D01*
X135807518Y-90114000D01*
X135939362Y-90087775D01*
X136088874Y-89987874D01*
X136114093Y-89950131D01*
X137796922Y-88267302D01*
X140089000Y-88267302D01*
X140089000Y-88516738D01*
X140184455Y-88747187D01*
X140360833Y-88923565D01*
X140591282Y-89019020D01*
X140703775Y-89019020D01*
X140727865Y-89043110D01*
X140727868Y-89043112D01*
X141761887Y-90077131D01*
X141787106Y-90114874D01*
X141936618Y-90214775D01*
X142068462Y-90241000D01*
X142068463Y-90241000D01*
X142112979Y-90249855D01*
X142157496Y-90241000D01*
X158054776Y-90241000D01*
X163711000Y-95897225D01*
X163711000Y-96009718D01*
X163806455Y-96240167D01*
X163982833Y-96416545D01*
X164213282Y-96512000D01*
X164462718Y-96512000D01*
X164693167Y-96416545D01*
X164869545Y-96240167D01*
X164965000Y-96009718D01*
X164965000Y-95760282D01*
X164869545Y-95529833D01*
X164693167Y-95353455D01*
X164462718Y-95258000D01*
X164350225Y-95258000D01*
X158593093Y-89500869D01*
X158567874Y-89463126D01*
X158418362Y-89363225D01*
X158286518Y-89337000D01*
X158242000Y-89328145D01*
X158197482Y-89337000D01*
X142300204Y-89337000D01*
X141367092Y-88403888D01*
X141367090Y-88403885D01*
X141343000Y-88379795D01*
X141343000Y-88267302D01*
X141247545Y-88036853D01*
X141071167Y-87860475D01*
X140931780Y-87802739D01*
X141701000Y-87802739D01*
X141701000Y-88219261D01*
X141860396Y-88604078D01*
X142154922Y-88898604D01*
X142539739Y-89058000D01*
X142956261Y-89058000D01*
X143341078Y-88898604D01*
X143635604Y-88604078D01*
X143795000Y-88219261D01*
X143795000Y-87802739D01*
X143635604Y-87417922D01*
X143341078Y-87123396D01*
X143231350Y-87077945D01*
X151051826Y-87077945D01*
X151051826Y-88777945D01*
X151077205Y-88905534D01*
X151149478Y-89013699D01*
X151257643Y-89085972D01*
X151385232Y-89111351D01*
X153085232Y-89111351D01*
X153212821Y-89085972D01*
X153320986Y-89013699D01*
X153393259Y-88905534D01*
X153418638Y-88777945D01*
X153418638Y-87077945D01*
X153393259Y-86950356D01*
X153320986Y-86842191D01*
X153212821Y-86769918D01*
X153085232Y-86744539D01*
X151385232Y-86744539D01*
X151257643Y-86769918D01*
X151149478Y-86842191D01*
X151077205Y-86950356D01*
X151051826Y-87077945D01*
X143231350Y-87077945D01*
X142956261Y-86964000D01*
X142539739Y-86964000D01*
X142154922Y-87123396D01*
X141860396Y-87417922D01*
X141701000Y-87802739D01*
X140931780Y-87802739D01*
X140840718Y-87765020D01*
X140591282Y-87765020D01*
X140360833Y-87860475D01*
X140184455Y-88036853D01*
X140089000Y-88267302D01*
X137796922Y-88267302D01*
X140141225Y-85923000D01*
X144341960Y-85923000D01*
X144400396Y-86064078D01*
X144694922Y-86358604D01*
X145079739Y-86518000D01*
X145496261Y-86518000D01*
X145881078Y-86358604D01*
X146175604Y-86064078D01*
X146335000Y-85679261D01*
X146335000Y-85262739D01*
X146175636Y-84877999D01*
X148500775Y-84877999D01*
X150016909Y-86394133D01*
X150042126Y-86431874D01*
X150079866Y-86457091D01*
X150191638Y-86531775D01*
X150367999Y-86566855D01*
X150412517Y-86558000D01*
X154323233Y-86558000D01*
X154323233Y-86681343D01*
X154323232Y-86681347D01*
X154323232Y-86817795D01*
X154315990Y-86819236D01*
X153926663Y-87079376D01*
X153666523Y-87468703D01*
X153575174Y-87927945D01*
X153666523Y-88387187D01*
X153926663Y-88776514D01*
X154315990Y-89036654D01*
X154659312Y-89104945D01*
X154891152Y-89104945D01*
X155234474Y-89036654D01*
X155623801Y-88776514D01*
X155883941Y-88387187D01*
X155975290Y-87927945D01*
X155883941Y-87468703D01*
X155623801Y-87079376D01*
X155234474Y-86819236D01*
X155227232Y-86817795D01*
X155227232Y-86150518D01*
X155236087Y-86106000D01*
X155227232Y-86061482D01*
X155227232Y-85438095D01*
X155234474Y-85436654D01*
X155623801Y-85176514D01*
X155883941Y-84787187D01*
X155975290Y-84327945D01*
X155883941Y-83868703D01*
X155623801Y-83479376D01*
X155234474Y-83219236D01*
X154891152Y-83150945D01*
X154659312Y-83150945D01*
X154315990Y-83219236D01*
X153926663Y-83479376D01*
X153666523Y-83868703D01*
X153575174Y-84327945D01*
X153666523Y-84787187D01*
X153926663Y-85176514D01*
X154315990Y-85436654D01*
X154323233Y-85438095D01*
X154323233Y-85654000D01*
X150555225Y-85654000D01*
X149039092Y-84137868D01*
X149013873Y-84100125D01*
X148864361Y-84000224D01*
X148732517Y-83973999D01*
X148687999Y-83965144D01*
X148643481Y-83973999D01*
X142965920Y-83973999D01*
X143341078Y-83818604D01*
X143635604Y-83524078D01*
X143654712Y-83477945D01*
X151051826Y-83477945D01*
X151051826Y-85177945D01*
X151077205Y-85305534D01*
X151149478Y-85413699D01*
X151257643Y-85485972D01*
X151385232Y-85511351D01*
X153085232Y-85511351D01*
X153212821Y-85485972D01*
X153320986Y-85413699D01*
X153393259Y-85305534D01*
X153418638Y-85177945D01*
X153418638Y-83477945D01*
X153393259Y-83350356D01*
X153320986Y-83242191D01*
X153212821Y-83169918D01*
X153085232Y-83144539D01*
X151385232Y-83144539D01*
X151257643Y-83169918D01*
X151149478Y-83242191D01*
X151077205Y-83350356D01*
X151051826Y-83477945D01*
X143654712Y-83477945D01*
X143795000Y-83139261D01*
X143795000Y-82722739D01*
X143635604Y-82337922D01*
X143341078Y-82043396D01*
X142956261Y-81884000D01*
X142539739Y-81884000D01*
X142154922Y-82043396D01*
X141860396Y-82337922D01*
X141701000Y-82722739D01*
X141701000Y-83139261D01*
X141860396Y-83524078D01*
X142154922Y-83818604D01*
X142530080Y-83973999D01*
X135211519Y-83973999D01*
X135167001Y-83965144D01*
X135162412Y-83966057D01*
X135135718Y-83955000D01*
X134886282Y-83955000D01*
X134655833Y-84050455D01*
X134479455Y-84226833D01*
X134384000Y-84457282D01*
X134384000Y-84706718D01*
X134479455Y-84937167D01*
X134655833Y-85113545D01*
X134886282Y-85209000D01*
X135135718Y-85209000D01*
X135366167Y-85113545D01*
X135542545Y-84937167D01*
X135567053Y-84877999D01*
X144400364Y-84877999D01*
X144341960Y-85019000D01*
X139998517Y-85019000D01*
X139953999Y-85010145D01*
X139789553Y-85042855D01*
X139777638Y-85045225D01*
X139628126Y-85145126D01*
X139602909Y-85182866D01*
X135575776Y-89210000D01*
X135308712Y-89210000D01*
X135229167Y-89130455D01*
X134998718Y-89035000D01*
X134749282Y-89035000D01*
X134518833Y-89130455D01*
X134342455Y-89306833D01*
X134247000Y-89537282D01*
X134247000Y-89786718D01*
X134342455Y-90017167D01*
X134518833Y-90193545D01*
X134549001Y-90206041D01*
X134549001Y-90936638D01*
X134107883Y-91119355D01*
X133664355Y-91562883D01*
X133424320Y-92142379D01*
X131008000Y-92142379D01*
X131008000Y-81333712D01*
X131087545Y-81254167D01*
X131183000Y-81023718D01*
X131183000Y-80774282D01*
X131087545Y-80543833D01*
X130911167Y-80367455D01*
X130680718Y-80272000D01*
X130431282Y-80272000D01*
X130200833Y-80367455D01*
X130024455Y-80543833D01*
X129929000Y-80774282D01*
X127664588Y-80774282D01*
X127448346Y-80450654D01*
X127009571Y-80157474D01*
X126622646Y-80080510D01*
X126361354Y-80080510D01*
X125974429Y-80157474D01*
X125535654Y-80450654D01*
X125242474Y-80889429D01*
X125139523Y-81407000D01*
X125242474Y-81924571D01*
X125535654Y-82363346D01*
X125974429Y-82656526D01*
X126077359Y-82677000D01*
X125974429Y-82697474D01*
X125535654Y-82990654D01*
X125242474Y-83429429D01*
X125139523Y-83947000D01*
X125242474Y-84464571D01*
X125535654Y-84903346D01*
X125974429Y-85196526D01*
X126077359Y-85217000D01*
X125974429Y-85237474D01*
X125535654Y-85530654D01*
X125242474Y-85969429D01*
X125139523Y-86487000D01*
X125242474Y-87004571D01*
X125501686Y-87392510D01*
X125366200Y-87392510D01*
X125132811Y-87489183D01*
X124954183Y-87667812D01*
X124857510Y-87901201D01*
X111327000Y-87901201D01*
X111327000Y-79877945D01*
X151051826Y-79877945D01*
X151051826Y-81577945D01*
X151077205Y-81705534D01*
X151149478Y-81813699D01*
X151257643Y-81885972D01*
X151385232Y-81911351D01*
X153085232Y-81911351D01*
X153212821Y-81885972D01*
X153320986Y-81813699D01*
X153393259Y-81705534D01*
X153418638Y-81577945D01*
X153418638Y-80727945D01*
X153575174Y-80727945D01*
X153666523Y-81187187D01*
X153926663Y-81576514D01*
X154315990Y-81836654D01*
X154659312Y-81904945D01*
X154891152Y-81904945D01*
X155234474Y-81836654D01*
X155623801Y-81576514D01*
X155883941Y-81187187D01*
X155975290Y-80727945D01*
X155883941Y-80268703D01*
X155623801Y-79879376D01*
X155234474Y-79619236D01*
X154891152Y-79550945D01*
X154659312Y-79550945D01*
X154315990Y-79619236D01*
X153926663Y-79879376D01*
X153666523Y-80268703D01*
X153575174Y-80727945D01*
X153418638Y-80727945D01*
X153418638Y-79877945D01*
X153393259Y-79750356D01*
X153320986Y-79642191D01*
X153212821Y-79569918D01*
X153085232Y-79544539D01*
X151385232Y-79544539D01*
X151257643Y-79569918D01*
X151149478Y-79642191D01*
X151077205Y-79750356D01*
X151051826Y-79877945D01*
X111327000Y-79877945D01*
X111327000Y-73354000D01*
X125411462Y-73354000D01*
X124901734Y-73565136D01*
G04 #@! TD*
M02*
