G04 #@! TF.GenerationSoftware,KiCad,Pcbnew,(5.0.0-rc3-dev-14-g1a2291879)*
G04 #@! TF.CreationDate,2019-01-08T02:03:16-05:00*
G04 #@! TF.ProjectId,LoadCellShield,4C6F616443656C6C536869656C642E6B,rev?*
G04 #@! TF.SameCoordinates,Original*
G04 #@! TF.FileFunction,Legend,Top*
G04 #@! TF.FilePolarity,Positive*
%FSLAX46Y46*%
G04 Gerber Fmt 4.6, Leading zero omitted, Abs format (unit mm)*
G04 Created by KiCad (PCBNEW (5.0.0-rc3-dev-14-g1a2291879)) date 01/08/19 02:03:16*
%MOMM*%
%LPD*%
G01*
G04 APERTURE LIST*
%ADD10C,0.150000*%
%ADD11C,0.300000*%
%ADD12C,0.100000*%
%ADD13C,0.200000*%
%ADD14C,0.120000*%
%ADD15C,0.500000*%
%ADD16C,0.010000*%
G04 APERTURE END LIST*
D10*
X118872000Y-110617000D02*
X118491000Y-111125000D01*
X118745000Y-111506000D02*
X118491000Y-111887000D01*
X118491000Y-111125000D02*
X118745000Y-111506000D01*
X118745000Y-110490000D02*
X118491000Y-111125000D01*
X115443000Y-114046000D02*
X116332000Y-114935000D01*
D11*
X177589571Y-108346428D02*
X176089571Y-108346428D01*
X177589571Y-107632142D02*
X176089571Y-107632142D01*
X177589571Y-106775000D01*
X176089571Y-106775000D01*
X177161000Y-106132142D02*
X177161000Y-105417857D01*
X177589571Y-106275000D02*
X176089571Y-105775000D01*
X177589571Y-105275000D01*
X177589571Y-103989285D02*
X177589571Y-104846428D01*
X177589571Y-104417857D02*
X176089571Y-104417857D01*
X176303857Y-104560714D01*
X176446714Y-104703571D01*
X176518142Y-104846428D01*
X176232428Y-103417857D02*
X176161000Y-103346428D01*
X176089571Y-103203571D01*
X176089571Y-102846428D01*
X176161000Y-102703571D01*
X176232428Y-102632142D01*
X176375285Y-102560714D01*
X176518142Y-102560714D01*
X176732428Y-102632142D01*
X177589571Y-103489285D01*
X177589571Y-102560714D01*
X176089571Y-101203571D02*
X176089571Y-101917857D01*
X176803857Y-101989285D01*
X176732428Y-101917857D01*
X176661000Y-101775000D01*
X176661000Y-101417857D01*
X176732428Y-101275000D01*
X176803857Y-101203571D01*
X176946714Y-101132142D01*
X177303857Y-101132142D01*
X177446714Y-101203571D01*
X177518142Y-101275000D01*
X177589571Y-101417857D01*
X177589571Y-101775000D01*
X177518142Y-101917857D01*
X177446714Y-101989285D01*
D12*
X114636809Y-117402857D02*
X114903476Y-117402857D01*
X115017761Y-117821904D02*
X114636809Y-117821904D01*
X114636809Y-117021904D01*
X115017761Y-117021904D01*
X115474904Y-117821904D02*
X115398714Y-117783809D01*
X115360619Y-117707619D01*
X115360619Y-117021904D01*
X116084428Y-117783809D02*
X116008238Y-117821904D01*
X115855857Y-117821904D01*
X115779666Y-117783809D01*
X115741571Y-117707619D01*
X115741571Y-117402857D01*
X115779666Y-117326666D01*
X115855857Y-117288571D01*
X116008238Y-117288571D01*
X116084428Y-117326666D01*
X116122523Y-117402857D01*
X116122523Y-117479047D01*
X115741571Y-117555238D01*
X116808238Y-117783809D02*
X116732047Y-117821904D01*
X116579666Y-117821904D01*
X116503476Y-117783809D01*
X116465380Y-117745714D01*
X116427285Y-117669523D01*
X116427285Y-117440952D01*
X116465380Y-117364761D01*
X116503476Y-117326666D01*
X116579666Y-117288571D01*
X116732047Y-117288571D01*
X116808238Y-117326666D01*
X117036809Y-117288571D02*
X117341571Y-117288571D01*
X117151095Y-117021904D02*
X117151095Y-117707619D01*
X117189190Y-117783809D01*
X117265380Y-117821904D01*
X117341571Y-117821904D01*
X117608238Y-117821904D02*
X117608238Y-117288571D01*
X117608238Y-117440952D02*
X117646333Y-117364761D01*
X117684428Y-117326666D01*
X117760619Y-117288571D01*
X117836809Y-117288571D01*
X118103476Y-117821904D02*
X118103476Y-117288571D01*
X118103476Y-117021904D02*
X118065380Y-117060000D01*
X118103476Y-117098095D01*
X118141571Y-117060000D01*
X118103476Y-117021904D01*
X118103476Y-117098095D01*
X118827285Y-117783809D02*
X118751095Y-117821904D01*
X118598714Y-117821904D01*
X118522523Y-117783809D01*
X118484428Y-117745714D01*
X118446333Y-117669523D01*
X118446333Y-117440952D01*
X118484428Y-117364761D01*
X118522523Y-117326666D01*
X118598714Y-117288571D01*
X118751095Y-117288571D01*
X118827285Y-117326666D01*
X114389190Y-118360000D02*
X114313000Y-118321904D01*
X114198714Y-118321904D01*
X114084428Y-118360000D01*
X114008238Y-118436190D01*
X113970142Y-118512380D01*
X113932047Y-118664761D01*
X113932047Y-118779047D01*
X113970142Y-118931428D01*
X114008238Y-119007619D01*
X114084428Y-119083809D01*
X114198714Y-119121904D01*
X114274904Y-119121904D01*
X114389190Y-119083809D01*
X114427285Y-119045714D01*
X114427285Y-118779047D01*
X114274904Y-118779047D01*
X114770142Y-119121904D02*
X114770142Y-118588571D01*
X114770142Y-118740952D02*
X114808238Y-118664761D01*
X114846333Y-118626666D01*
X114922523Y-118588571D01*
X114998714Y-118588571D01*
X115608238Y-119121904D02*
X115608238Y-118702857D01*
X115570142Y-118626666D01*
X115493952Y-118588571D01*
X115341571Y-118588571D01*
X115265380Y-118626666D01*
X115608238Y-119083809D02*
X115532047Y-119121904D01*
X115341571Y-119121904D01*
X115265380Y-119083809D01*
X115227285Y-119007619D01*
X115227285Y-118931428D01*
X115265380Y-118855238D01*
X115341571Y-118817142D01*
X115532047Y-118817142D01*
X115608238Y-118779047D01*
X115913000Y-118588571D02*
X116103476Y-119121904D01*
X116293952Y-118588571D01*
X116903476Y-119083809D02*
X116827285Y-119121904D01*
X116674904Y-119121904D01*
X116598714Y-119083809D01*
X116560619Y-119007619D01*
X116560619Y-118702857D01*
X116598714Y-118626666D01*
X116674904Y-118588571D01*
X116827285Y-118588571D01*
X116903476Y-118626666D01*
X116941571Y-118702857D01*
X116941571Y-118779047D01*
X116560619Y-118855238D01*
X117208238Y-118588571D02*
X117398714Y-119121904D01*
X117589190Y-118588571D02*
X117398714Y-119121904D01*
X117322523Y-119312380D01*
X117284428Y-119350476D01*
X117208238Y-119388571D01*
X118236809Y-119121904D02*
X118236809Y-118702857D01*
X118198714Y-118626666D01*
X118122523Y-118588571D01*
X117970142Y-118588571D01*
X117893952Y-118626666D01*
X118236809Y-119083809D02*
X118160619Y-119121904D01*
X117970142Y-119121904D01*
X117893952Y-119083809D01*
X117855857Y-119007619D01*
X117855857Y-118931428D01*
X117893952Y-118855238D01*
X117970142Y-118817142D01*
X118160619Y-118817142D01*
X118236809Y-118779047D01*
X118617761Y-119121904D02*
X118617761Y-118588571D01*
X118617761Y-118740952D02*
X118655857Y-118664761D01*
X118693952Y-118626666D01*
X118770142Y-118588571D01*
X118846333Y-118588571D01*
X119455857Y-119121904D02*
X119455857Y-118321904D01*
X119455857Y-119083809D02*
X119379666Y-119121904D01*
X119227285Y-119121904D01*
X119151095Y-119083809D01*
X119113000Y-119045714D01*
X119074904Y-118969523D01*
X119074904Y-118740952D01*
X119113000Y-118664761D01*
X119151095Y-118626666D01*
X119227285Y-118588571D01*
X119379666Y-118588571D01*
X119455857Y-118626666D01*
D10*
X117094000Y-114935000D02*
X117094000Y-116078000D01*
X117983000Y-114046000D02*
X117094000Y-114935000D01*
X117983000Y-113284000D02*
X117983000Y-114046000D01*
X116713000Y-113919000D02*
X116713000Y-116078000D01*
X116332000Y-114935000D02*
X116332000Y-116078000D01*
X115443000Y-112649000D02*
X115443000Y-114046000D01*
X118237000Y-113030000D02*
G75*
G03X118237000Y-113030000I-254000J0D01*
G01*
X116967000Y-113665000D02*
G75*
G03X116967000Y-113665000I-254000J0D01*
G01*
X115697000Y-112395000D02*
G75*
G03X115697000Y-112395000I-254000J0D01*
G01*
X112903000Y-120015000D02*
X112903000Y-118745000D01*
X120523000Y-120015000D02*
X120523000Y-118745000D01*
D13*
X113994590Y-124307843D02*
X113232685Y-124307843D01*
X120090590Y-124307843D02*
X119328685Y-124307843D01*
X119709638Y-123926891D02*
X119709638Y-124688795D01*
D10*
X120523000Y-118745000D02*
X120523000Y-113665000D01*
X112903000Y-120015000D02*
X120523000Y-120015000D01*
X112903000Y-113665000D02*
X112903000Y-118745000D01*
X112903000Y-113665000D02*
G75*
G02X120523000Y-113665000I3810000J0D01*
G01*
D11*
X173144571Y-117822000D02*
X171644571Y-117822000D01*
X172144571Y-117107714D02*
X173144571Y-117107714D01*
X172287428Y-117107714D02*
X172216000Y-117036285D01*
X172144571Y-116893428D01*
X172144571Y-116679142D01*
X172216000Y-116536285D01*
X172358857Y-116464857D01*
X173144571Y-116464857D01*
X173073142Y-115822000D02*
X173144571Y-115679142D01*
X173144571Y-115393428D01*
X173073142Y-115250571D01*
X172930285Y-115179142D01*
X172858857Y-115179142D01*
X172716000Y-115250571D01*
X172644571Y-115393428D01*
X172644571Y-115607714D01*
X172573142Y-115750571D01*
X172430285Y-115822000D01*
X172358857Y-115822000D01*
X172216000Y-115750571D01*
X172144571Y-115607714D01*
X172144571Y-115393428D01*
X172216000Y-115250571D01*
X172144571Y-114750571D02*
X172144571Y-114179142D01*
X171644571Y-114536285D02*
X172930285Y-114536285D01*
X173073142Y-114464857D01*
X173144571Y-114322000D01*
X173144571Y-114179142D01*
X173144571Y-113679142D02*
X172144571Y-113679142D01*
X172430285Y-113679142D02*
X172287428Y-113607714D01*
X172216000Y-113536285D01*
X172144571Y-113393428D01*
X172144571Y-113250571D01*
X172144571Y-112107714D02*
X173144571Y-112107714D01*
X172144571Y-112750571D02*
X172930285Y-112750571D01*
X173073142Y-112679142D01*
X173144571Y-112536285D01*
X173144571Y-112322000D01*
X173073142Y-112179142D01*
X173001714Y-112107714D01*
X173144571Y-111393428D02*
X172144571Y-111393428D01*
X172287428Y-111393428D02*
X172216000Y-111322000D01*
X172144571Y-111179142D01*
X172144571Y-110964857D01*
X172216000Y-110822000D01*
X172358857Y-110750571D01*
X173144571Y-110750571D01*
X172358857Y-110750571D02*
X172216000Y-110679142D01*
X172144571Y-110536285D01*
X172144571Y-110322000D01*
X172216000Y-110179142D01*
X172358857Y-110107714D01*
X173144571Y-110107714D01*
X173073142Y-108822000D02*
X173144571Y-108964857D01*
X173144571Y-109250571D01*
X173073142Y-109393428D01*
X172930285Y-109464857D01*
X172358857Y-109464857D01*
X172216000Y-109393428D01*
X172144571Y-109250571D01*
X172144571Y-108964857D01*
X172216000Y-108822000D01*
X172358857Y-108750571D01*
X172501714Y-108750571D01*
X172644571Y-109464857D01*
X172144571Y-108107714D02*
X173144571Y-108107714D01*
X172287428Y-108107714D02*
X172216000Y-108036285D01*
X172144571Y-107893428D01*
X172144571Y-107679142D01*
X172216000Y-107536285D01*
X172358857Y-107464857D01*
X173144571Y-107464857D01*
X172144571Y-106964857D02*
X172144571Y-106393428D01*
X171644571Y-106750571D02*
X172930285Y-106750571D01*
X173073142Y-106679142D01*
X173144571Y-106536285D01*
X173144571Y-106393428D01*
X173144571Y-105250571D02*
X172358857Y-105250571D01*
X172216000Y-105322000D01*
X172144571Y-105464857D01*
X172144571Y-105750571D01*
X172216000Y-105893428D01*
X173073142Y-105250571D02*
X173144571Y-105393428D01*
X173144571Y-105750571D01*
X173073142Y-105893428D01*
X172930285Y-105964857D01*
X172787428Y-105964857D01*
X172644571Y-105893428D01*
X172573142Y-105750571D01*
X172573142Y-105393428D01*
X172501714Y-105250571D01*
X172144571Y-104750571D02*
X172144571Y-104179142D01*
X171644571Y-104536285D02*
X172930285Y-104536285D01*
X173073142Y-104464857D01*
X173144571Y-104322000D01*
X173144571Y-104179142D01*
X173144571Y-103679142D02*
X172144571Y-103679142D01*
X171644571Y-103679142D02*
X171716000Y-103750571D01*
X171787428Y-103679142D01*
X171716000Y-103607714D01*
X171644571Y-103679142D01*
X171787428Y-103679142D01*
X173144571Y-102750571D02*
X173073142Y-102893428D01*
X173001714Y-102964857D01*
X172858857Y-103036285D01*
X172430285Y-103036285D01*
X172287428Y-102964857D01*
X172216000Y-102893428D01*
X172144571Y-102750571D01*
X172144571Y-102536285D01*
X172216000Y-102393428D01*
X172287428Y-102322000D01*
X172430285Y-102250571D01*
X172858857Y-102250571D01*
X173001714Y-102322000D01*
X173073142Y-102393428D01*
X173144571Y-102536285D01*
X173144571Y-102750571D01*
X172144571Y-101607714D02*
X173144571Y-101607714D01*
X172287428Y-101607714D02*
X172216000Y-101536285D01*
X172144571Y-101393428D01*
X172144571Y-101179142D01*
X172216000Y-101036285D01*
X172358857Y-100964857D01*
X173144571Y-100964857D01*
X172716000Y-99179142D02*
X172716000Y-98464857D01*
X173144571Y-99322000D02*
X171644571Y-98822000D01*
X173144571Y-98322000D01*
X173144571Y-97822000D02*
X172144571Y-97822000D01*
X172287428Y-97822000D02*
X172216000Y-97750571D01*
X172144571Y-97607714D01*
X172144571Y-97393428D01*
X172216000Y-97250571D01*
X172358857Y-97179142D01*
X173144571Y-97179142D01*
X172358857Y-97179142D02*
X172216000Y-97107714D01*
X172144571Y-96964857D01*
X172144571Y-96750571D01*
X172216000Y-96607714D01*
X172358857Y-96536285D01*
X173144571Y-96536285D01*
X172144571Y-95822000D02*
X173644571Y-95822000D01*
X172216000Y-95822000D02*
X172144571Y-95679142D01*
X172144571Y-95393428D01*
X172216000Y-95250571D01*
X172287428Y-95179142D01*
X172430285Y-95107714D01*
X172858857Y-95107714D01*
X173001714Y-95179142D01*
X173073142Y-95250571D01*
X173144571Y-95393428D01*
X173144571Y-95679142D01*
X173073142Y-95822000D01*
X173144571Y-94250571D02*
X173073142Y-94393428D01*
X172930285Y-94464857D01*
X171644571Y-94464857D01*
X173144571Y-93679142D02*
X172144571Y-93679142D01*
X171644571Y-93679142D02*
X171716000Y-93750571D01*
X171787428Y-93679142D01*
X171716000Y-93607714D01*
X171644571Y-93679142D01*
X171787428Y-93679142D01*
X172144571Y-93179142D02*
X172144571Y-92607714D01*
X173144571Y-92964857D02*
X171858857Y-92964857D01*
X171716000Y-92893428D01*
X171644571Y-92750571D01*
X171644571Y-92607714D01*
X173144571Y-92107714D02*
X172144571Y-92107714D01*
X171644571Y-92107714D02*
X171716000Y-92179142D01*
X171787428Y-92107714D01*
X171716000Y-92036285D01*
X171644571Y-92107714D01*
X171787428Y-92107714D01*
X173073142Y-90822000D02*
X173144571Y-90964857D01*
X173144571Y-91250571D01*
X173073142Y-91393428D01*
X172930285Y-91464857D01*
X172358857Y-91464857D01*
X172216000Y-91393428D01*
X172144571Y-91250571D01*
X172144571Y-90964857D01*
X172216000Y-90822000D01*
X172358857Y-90750571D01*
X172501714Y-90750571D01*
X172644571Y-91464857D01*
X173144571Y-90107714D02*
X172144571Y-90107714D01*
X172430285Y-90107714D02*
X172287428Y-90036285D01*
X172216000Y-89964857D01*
X172144571Y-89822000D01*
X172144571Y-89679142D01*
X173073142Y-88107714D02*
X173144571Y-87893428D01*
X173144571Y-87536285D01*
X173073142Y-87393428D01*
X173001714Y-87322000D01*
X172858857Y-87250571D01*
X172716000Y-87250571D01*
X172573142Y-87322000D01*
X172501714Y-87393428D01*
X172430285Y-87536285D01*
X172358857Y-87822000D01*
X172287428Y-87964857D01*
X172216000Y-88036285D01*
X172073142Y-88107714D01*
X171930285Y-88107714D01*
X171787428Y-88036285D01*
X171716000Y-87964857D01*
X171644571Y-87822000D01*
X171644571Y-87464857D01*
X171716000Y-87250571D01*
X173144571Y-86607714D02*
X171644571Y-86607714D01*
X173144571Y-85964857D02*
X172358857Y-85964857D01*
X172216000Y-86036285D01*
X172144571Y-86179142D01*
X172144571Y-86393428D01*
X172216000Y-86536285D01*
X172287428Y-86607714D01*
X173144571Y-85250571D02*
X172144571Y-85250571D01*
X171644571Y-85250571D02*
X171716000Y-85322000D01*
X171787428Y-85250571D01*
X171716000Y-85179142D01*
X171644571Y-85250571D01*
X171787428Y-85250571D01*
X173073142Y-83964857D02*
X173144571Y-84107714D01*
X173144571Y-84393428D01*
X173073142Y-84536285D01*
X172930285Y-84607714D01*
X172358857Y-84607714D01*
X172216000Y-84536285D01*
X172144571Y-84393428D01*
X172144571Y-84107714D01*
X172216000Y-83964857D01*
X172358857Y-83893428D01*
X172501714Y-83893428D01*
X172644571Y-84607714D01*
X173144571Y-83036285D02*
X173073142Y-83179142D01*
X172930285Y-83250571D01*
X171644571Y-83250571D01*
X173144571Y-81822000D02*
X171644571Y-81822000D01*
X173073142Y-81822000D02*
X173144571Y-81964857D01*
X173144571Y-82250571D01*
X173073142Y-82393428D01*
X173001714Y-82464857D01*
X172858857Y-82536285D01*
X172430285Y-82536285D01*
X172287428Y-82464857D01*
X172216000Y-82393428D01*
X172144571Y-82250571D01*
X172144571Y-81964857D01*
X172216000Y-81822000D01*
D13*
X156789857Y-103338380D02*
X157123190Y-104338380D01*
X157456523Y-103338380D01*
X157789857Y-104338380D02*
X157789857Y-103671714D01*
X157789857Y-103862190D02*
X157837476Y-103766952D01*
X157885095Y-103719333D01*
X157980333Y-103671714D01*
X158075571Y-103671714D01*
X158789857Y-104290761D02*
X158694619Y-104338380D01*
X158504142Y-104338380D01*
X158408904Y-104290761D01*
X158361285Y-104195523D01*
X158361285Y-103814571D01*
X158408904Y-103719333D01*
X158504142Y-103671714D01*
X158694619Y-103671714D01*
X158789857Y-103719333D01*
X158837476Y-103814571D01*
X158837476Y-103909809D01*
X158361285Y-104005047D01*
X159123190Y-103671714D02*
X159504142Y-103671714D01*
X159266047Y-104338380D02*
X159266047Y-103481238D01*
X159313666Y-103386000D01*
X159408904Y-103338380D01*
X159504142Y-103338380D01*
X160551761Y-103433619D02*
X160599380Y-103386000D01*
X160694619Y-103338380D01*
X160932714Y-103338380D01*
X161027952Y-103386000D01*
X161075571Y-103433619D01*
X161123190Y-103528857D01*
X161123190Y-103624095D01*
X161075571Y-103766952D01*
X160504142Y-104338380D01*
X161123190Y-104338380D01*
X161551761Y-104243142D02*
X161599380Y-104290761D01*
X161551761Y-104338380D01*
X161504142Y-104290761D01*
X161551761Y-104243142D01*
X161551761Y-104338380D01*
X162504142Y-103338380D02*
X162027952Y-103338380D01*
X161980333Y-103814571D01*
X162027952Y-103766952D01*
X162123190Y-103719333D01*
X162361285Y-103719333D01*
X162456523Y-103766952D01*
X162504142Y-103814571D01*
X162551761Y-103909809D01*
X162551761Y-104147904D01*
X162504142Y-104243142D01*
X162456523Y-104290761D01*
X162361285Y-104338380D01*
X162123190Y-104338380D01*
X162027952Y-104290761D01*
X161980333Y-104243142D01*
X162837476Y-103338380D02*
X163170809Y-104338380D01*
X163504142Y-103338380D01*
X156773952Y-96099380D02*
X157107285Y-97099380D01*
X157440619Y-96099380D01*
X157773952Y-97099380D02*
X157773952Y-96432714D01*
X157773952Y-96623190D02*
X157821571Y-96527952D01*
X157869190Y-96480333D01*
X157964428Y-96432714D01*
X158059666Y-96432714D01*
X158773952Y-97051761D02*
X158678714Y-97099380D01*
X158488238Y-97099380D01*
X158393000Y-97051761D01*
X158345380Y-96956523D01*
X158345380Y-96575571D01*
X158393000Y-96480333D01*
X158488238Y-96432714D01*
X158678714Y-96432714D01*
X158773952Y-96480333D01*
X158821571Y-96575571D01*
X158821571Y-96670809D01*
X158345380Y-96766047D01*
X159107285Y-96432714D02*
X159488238Y-96432714D01*
X159250142Y-97099380D02*
X159250142Y-96242238D01*
X159297761Y-96147000D01*
X159393000Y-96099380D01*
X159488238Y-96099380D01*
X161107285Y-97099380D02*
X160535857Y-97099380D01*
X160821571Y-97099380D02*
X160821571Y-96099380D01*
X160726333Y-96242238D01*
X160631095Y-96337476D01*
X160535857Y-96385095D01*
X161726333Y-96099380D02*
X161821571Y-96099380D01*
X161916809Y-96147000D01*
X161964428Y-96194619D01*
X162012047Y-96289857D01*
X162059666Y-96480333D01*
X162059666Y-96718428D01*
X162012047Y-96908904D01*
X161964428Y-97004142D01*
X161916809Y-97051761D01*
X161821571Y-97099380D01*
X161726333Y-97099380D01*
X161631095Y-97051761D01*
X161583476Y-97004142D01*
X161535857Y-96908904D01*
X161488238Y-96718428D01*
X161488238Y-96480333D01*
X161535857Y-96289857D01*
X161583476Y-96194619D01*
X161631095Y-96147000D01*
X161726333Y-96099380D01*
X162345380Y-96099380D02*
X162678714Y-97099380D01*
X163012047Y-96099380D01*
X156488142Y-99782380D02*
X156821476Y-100782380D01*
X157154809Y-99782380D01*
X157488142Y-100782380D02*
X157488142Y-100115714D01*
X157488142Y-100306190D02*
X157535761Y-100210952D01*
X157583380Y-100163333D01*
X157678619Y-100115714D01*
X157773857Y-100115714D01*
X158488142Y-100734761D02*
X158392904Y-100782380D01*
X158202428Y-100782380D01*
X158107190Y-100734761D01*
X158059571Y-100639523D01*
X158059571Y-100258571D01*
X158107190Y-100163333D01*
X158202428Y-100115714D01*
X158392904Y-100115714D01*
X158488142Y-100163333D01*
X158535761Y-100258571D01*
X158535761Y-100353809D01*
X158059571Y-100449047D01*
X158821476Y-100115714D02*
X159202428Y-100115714D01*
X158964333Y-100782380D02*
X158964333Y-99925238D01*
X159011952Y-99830000D01*
X159107190Y-99782380D01*
X159202428Y-99782380D01*
X160773857Y-99782380D02*
X160297666Y-99782380D01*
X160250047Y-100258571D01*
X160297666Y-100210952D01*
X160392904Y-100163333D01*
X160631000Y-100163333D01*
X160726238Y-100210952D01*
X160773857Y-100258571D01*
X160821476Y-100353809D01*
X160821476Y-100591904D01*
X160773857Y-100687142D01*
X160726238Y-100734761D01*
X160631000Y-100782380D01*
X160392904Y-100782380D01*
X160297666Y-100734761D01*
X160250047Y-100687142D01*
X161107190Y-99782380D02*
X161440523Y-100782380D01*
X161773857Y-99782380D01*
X157154904Y-107021380D02*
X157488238Y-108021380D01*
X157821571Y-107021380D01*
X158154904Y-108021380D02*
X158154904Y-107354714D01*
X158154904Y-107545190D02*
X158202523Y-107449952D01*
X158250142Y-107402333D01*
X158345380Y-107354714D01*
X158440619Y-107354714D01*
X159154904Y-107973761D02*
X159059666Y-108021380D01*
X158869190Y-108021380D01*
X158773952Y-107973761D01*
X158726333Y-107878523D01*
X158726333Y-107497571D01*
X158773952Y-107402333D01*
X158869190Y-107354714D01*
X159059666Y-107354714D01*
X159154904Y-107402333D01*
X159202523Y-107497571D01*
X159202523Y-107592809D01*
X158726333Y-107688047D01*
X159488238Y-107354714D02*
X159869190Y-107354714D01*
X159631095Y-108021380D02*
X159631095Y-107164238D01*
X159678714Y-107069000D01*
X159773952Y-107021380D01*
X159869190Y-107021380D01*
X161297761Y-107497571D02*
X161440619Y-107545190D01*
X161488238Y-107592809D01*
X161535857Y-107688047D01*
X161535857Y-107830904D01*
X161488238Y-107926142D01*
X161440619Y-107973761D01*
X161345380Y-108021380D01*
X160964428Y-108021380D01*
X160964428Y-107021380D01*
X161297761Y-107021380D01*
X161393000Y-107069000D01*
X161440619Y-107116619D01*
X161488238Y-107211857D01*
X161488238Y-107307095D01*
X161440619Y-107402333D01*
X161393000Y-107449952D01*
X161297761Y-107497571D01*
X160964428Y-107497571D01*
X162488238Y-107069000D02*
X162393000Y-107021380D01*
X162250142Y-107021380D01*
X162107285Y-107069000D01*
X162012047Y-107164238D01*
X161964428Y-107259476D01*
X161916809Y-107449952D01*
X161916809Y-107592809D01*
X161964428Y-107783285D01*
X162012047Y-107878523D01*
X162107285Y-107973761D01*
X162250142Y-108021380D01*
X162345380Y-108021380D01*
X162488238Y-107973761D01*
X162535857Y-107926142D01*
X162535857Y-107592809D01*
X162345380Y-107592809D01*
D10*
X116078000Y-106553000D02*
X123444000Y-106553000D01*
X116078000Y-95885000D02*
X116078000Y-106553000D01*
X123444000Y-95885000D02*
X116078000Y-95885000D01*
X116078000Y-79883000D02*
X123444000Y-79883000D01*
X116078000Y-90551000D02*
X116078000Y-79883000D01*
X123444000Y-90551000D02*
X116078000Y-90551000D01*
D13*
X118880190Y-101814380D02*
X119213523Y-102814380D01*
X119546857Y-101814380D01*
X119880190Y-102433428D02*
X120642095Y-102433428D01*
X121880190Y-102814380D02*
X121880190Y-102147714D01*
X121880190Y-101814380D02*
X121832571Y-101862000D01*
X121880190Y-101909619D01*
X121927809Y-101862000D01*
X121880190Y-101814380D01*
X121880190Y-101909619D01*
X122356380Y-102147714D02*
X122356380Y-102814380D01*
X122356380Y-102242952D02*
X122404000Y-102195333D01*
X122499238Y-102147714D01*
X122642095Y-102147714D01*
X122737333Y-102195333D01*
X122784952Y-102290571D01*
X122784952Y-102814380D01*
X118880190Y-85812380D02*
X119213523Y-86812380D01*
X119546857Y-85812380D01*
X119880190Y-86431428D02*
X120642095Y-86431428D01*
X121880190Y-86812380D02*
X121880190Y-86145714D01*
X121880190Y-85812380D02*
X121832571Y-85860000D01*
X121880190Y-85907619D01*
X121927809Y-85860000D01*
X121880190Y-85812380D01*
X121880190Y-85907619D01*
X122356380Y-86145714D02*
X122356380Y-86812380D01*
X122356380Y-86240952D02*
X122404000Y-86193333D01*
X122499238Y-86145714D01*
X122642095Y-86145714D01*
X122737333Y-86193333D01*
X122784952Y-86288571D01*
X122784952Y-86812380D01*
X118880190Y-83272380D02*
X119213523Y-84272380D01*
X119546857Y-83272380D01*
X119880190Y-83891428D02*
X120642095Y-83891428D01*
X120261142Y-84272380D02*
X120261142Y-83510476D01*
X121880190Y-84272380D02*
X121880190Y-83605714D01*
X121880190Y-83272380D02*
X121832571Y-83320000D01*
X121880190Y-83367619D01*
X121927809Y-83320000D01*
X121880190Y-83272380D01*
X121880190Y-83367619D01*
X122356380Y-83605714D02*
X122356380Y-84272380D01*
X122356380Y-83700952D02*
X122404000Y-83653333D01*
X122499238Y-83605714D01*
X122642095Y-83605714D01*
X122737333Y-83653333D01*
X122784952Y-83748571D01*
X122784952Y-84272380D01*
X118880190Y-99401380D02*
X119213523Y-100401380D01*
X119546857Y-99401380D01*
X119880190Y-100020428D02*
X120642095Y-100020428D01*
X120261142Y-100401380D02*
X120261142Y-99639476D01*
X121880190Y-100401380D02*
X121880190Y-99734714D01*
X121880190Y-99401380D02*
X121832571Y-99449000D01*
X121880190Y-99496619D01*
X121927809Y-99449000D01*
X121880190Y-99401380D01*
X121880190Y-99496619D01*
X122356380Y-99734714D02*
X122356380Y-100401380D01*
X122356380Y-99829952D02*
X122404000Y-99782333D01*
X122499238Y-99734714D01*
X122642095Y-99734714D01*
X122737333Y-99782333D01*
X122784952Y-99877571D01*
X122784952Y-100401380D01*
X116792761Y-96861380D02*
X117126095Y-97861380D01*
X117459428Y-96861380D01*
X118888000Y-97337571D02*
X119030857Y-97385190D01*
X119078476Y-97432809D01*
X119126095Y-97528047D01*
X119126095Y-97670904D01*
X119078476Y-97766142D01*
X119030857Y-97813761D01*
X118935619Y-97861380D01*
X118554666Y-97861380D01*
X118554666Y-96861380D01*
X118888000Y-96861380D01*
X118983238Y-96909000D01*
X119030857Y-96956619D01*
X119078476Y-97051857D01*
X119078476Y-97147095D01*
X119030857Y-97242333D01*
X118983238Y-97289952D01*
X118888000Y-97337571D01*
X118554666Y-97337571D01*
X119554666Y-97861380D02*
X119554666Y-97194714D01*
X119554666Y-97385190D02*
X119602285Y-97289952D01*
X119649904Y-97242333D01*
X119745142Y-97194714D01*
X119840380Y-97194714D01*
X120173714Y-97861380D02*
X120173714Y-97194714D01*
X120173714Y-96861380D02*
X120126095Y-96909000D01*
X120173714Y-96956619D01*
X120221333Y-96909000D01*
X120173714Y-96861380D01*
X120173714Y-96956619D01*
X121078476Y-97861380D02*
X121078476Y-96861380D01*
X121078476Y-97813761D02*
X120983238Y-97861380D01*
X120792761Y-97861380D01*
X120697523Y-97813761D01*
X120649904Y-97766142D01*
X120602285Y-97670904D01*
X120602285Y-97385190D01*
X120649904Y-97289952D01*
X120697523Y-97242333D01*
X120792761Y-97194714D01*
X120983238Y-97194714D01*
X121078476Y-97242333D01*
X121983238Y-97194714D02*
X121983238Y-98004238D01*
X121935619Y-98099476D01*
X121888000Y-98147095D01*
X121792761Y-98194714D01*
X121649904Y-98194714D01*
X121554666Y-98147095D01*
X121983238Y-97813761D02*
X121888000Y-97861380D01*
X121697523Y-97861380D01*
X121602285Y-97813761D01*
X121554666Y-97766142D01*
X121507047Y-97670904D01*
X121507047Y-97385190D01*
X121554666Y-97289952D01*
X121602285Y-97242333D01*
X121697523Y-97194714D01*
X121888000Y-97194714D01*
X121983238Y-97242333D01*
X122840380Y-97813761D02*
X122745142Y-97861380D01*
X122554666Y-97861380D01*
X122459428Y-97813761D01*
X122411809Y-97718523D01*
X122411809Y-97337571D01*
X122459428Y-97242333D01*
X122554666Y-97194714D01*
X122745142Y-97194714D01*
X122840380Y-97242333D01*
X122888000Y-97337571D01*
X122888000Y-97432809D01*
X122411809Y-97528047D01*
X116792761Y-80732380D02*
X117126095Y-81732380D01*
X117459428Y-80732380D01*
X118888000Y-81208571D02*
X119030857Y-81256190D01*
X119078476Y-81303809D01*
X119126095Y-81399047D01*
X119126095Y-81541904D01*
X119078476Y-81637142D01*
X119030857Y-81684761D01*
X118935619Y-81732380D01*
X118554666Y-81732380D01*
X118554666Y-80732380D01*
X118888000Y-80732380D01*
X118983238Y-80780000D01*
X119030857Y-80827619D01*
X119078476Y-80922857D01*
X119078476Y-81018095D01*
X119030857Y-81113333D01*
X118983238Y-81160952D01*
X118888000Y-81208571D01*
X118554666Y-81208571D01*
X119554666Y-81732380D02*
X119554666Y-81065714D01*
X119554666Y-81256190D02*
X119602285Y-81160952D01*
X119649904Y-81113333D01*
X119745142Y-81065714D01*
X119840380Y-81065714D01*
X120173714Y-81732380D02*
X120173714Y-81065714D01*
X120173714Y-80732380D02*
X120126095Y-80780000D01*
X120173714Y-80827619D01*
X120221333Y-80780000D01*
X120173714Y-80732380D01*
X120173714Y-80827619D01*
X121078476Y-81732380D02*
X121078476Y-80732380D01*
X121078476Y-81684761D02*
X120983238Y-81732380D01*
X120792761Y-81732380D01*
X120697523Y-81684761D01*
X120649904Y-81637142D01*
X120602285Y-81541904D01*
X120602285Y-81256190D01*
X120649904Y-81160952D01*
X120697523Y-81113333D01*
X120792761Y-81065714D01*
X120983238Y-81065714D01*
X121078476Y-81113333D01*
X121983238Y-81065714D02*
X121983238Y-81875238D01*
X121935619Y-81970476D01*
X121888000Y-82018095D01*
X121792761Y-82065714D01*
X121649904Y-82065714D01*
X121554666Y-82018095D01*
X121983238Y-81684761D02*
X121888000Y-81732380D01*
X121697523Y-81732380D01*
X121602285Y-81684761D01*
X121554666Y-81637142D01*
X121507047Y-81541904D01*
X121507047Y-81256190D01*
X121554666Y-81160952D01*
X121602285Y-81113333D01*
X121697523Y-81065714D01*
X121888000Y-81065714D01*
X121983238Y-81113333D01*
X122840380Y-81684761D02*
X122745142Y-81732380D01*
X122554666Y-81732380D01*
X122459428Y-81684761D01*
X122411809Y-81589523D01*
X122411809Y-81208571D01*
X122459428Y-81113333D01*
X122554666Y-81065714D01*
X122745142Y-81065714D01*
X122840380Y-81113333D01*
X122888000Y-81208571D01*
X122888000Y-81303809D01*
X122411809Y-81399047D01*
X120777095Y-88654000D02*
X120681857Y-88606380D01*
X120539000Y-88606380D01*
X120396142Y-88654000D01*
X120300904Y-88749238D01*
X120253285Y-88844476D01*
X120205666Y-89034952D01*
X120205666Y-89177809D01*
X120253285Y-89368285D01*
X120300904Y-89463523D01*
X120396142Y-89558761D01*
X120539000Y-89606380D01*
X120634238Y-89606380D01*
X120777095Y-89558761D01*
X120824714Y-89511142D01*
X120824714Y-89177809D01*
X120634238Y-89177809D01*
X121253285Y-89606380D02*
X121253285Y-88606380D01*
X121824714Y-89606380D01*
X121824714Y-88606380D01*
X122300904Y-89606380D02*
X122300904Y-88606380D01*
X122539000Y-88606380D01*
X122681857Y-88654000D01*
X122777095Y-88749238D01*
X122824714Y-88844476D01*
X122872333Y-89034952D01*
X122872333Y-89177809D01*
X122824714Y-89368285D01*
X122777095Y-89463523D01*
X122681857Y-89558761D01*
X122539000Y-89606380D01*
X122300904Y-89606380D01*
X120777095Y-104656000D02*
X120681857Y-104608380D01*
X120539000Y-104608380D01*
X120396142Y-104656000D01*
X120300904Y-104751238D01*
X120253285Y-104846476D01*
X120205666Y-105036952D01*
X120205666Y-105179809D01*
X120253285Y-105370285D01*
X120300904Y-105465523D01*
X120396142Y-105560761D01*
X120539000Y-105608380D01*
X120634238Y-105608380D01*
X120777095Y-105560761D01*
X120824714Y-105513142D01*
X120824714Y-105179809D01*
X120634238Y-105179809D01*
X121253285Y-105608380D02*
X121253285Y-104608380D01*
X121824714Y-105608380D01*
X121824714Y-104608380D01*
X122300904Y-105608380D02*
X122300904Y-104608380D01*
X122539000Y-104608380D01*
X122681857Y-104656000D01*
X122777095Y-104751238D01*
X122824714Y-104846476D01*
X122872333Y-105036952D01*
X122872333Y-105179809D01*
X122824714Y-105370285D01*
X122777095Y-105465523D01*
X122681857Y-105560761D01*
X122539000Y-105608380D01*
X122300904Y-105608380D01*
X156773952Y-80097380D02*
X157107285Y-81097380D01*
X157440619Y-80097380D01*
X157773952Y-81097380D02*
X157773952Y-80430714D01*
X157773952Y-80621190D02*
X157821571Y-80525952D01*
X157869190Y-80478333D01*
X157964428Y-80430714D01*
X158059666Y-80430714D01*
X158773952Y-81049761D02*
X158678714Y-81097380D01*
X158488238Y-81097380D01*
X158393000Y-81049761D01*
X158345380Y-80954523D01*
X158345380Y-80573571D01*
X158393000Y-80478333D01*
X158488238Y-80430714D01*
X158678714Y-80430714D01*
X158773952Y-80478333D01*
X158821571Y-80573571D01*
X158821571Y-80668809D01*
X158345380Y-80764047D01*
X159107285Y-80430714D02*
X159488238Y-80430714D01*
X159250142Y-81097380D02*
X159250142Y-80240238D01*
X159297761Y-80145000D01*
X159393000Y-80097380D01*
X159488238Y-80097380D01*
X161107285Y-81097380D02*
X160535857Y-81097380D01*
X160821571Y-81097380D02*
X160821571Y-80097380D01*
X160726333Y-80240238D01*
X160631095Y-80335476D01*
X160535857Y-80383095D01*
X161726333Y-80097380D02*
X161821571Y-80097380D01*
X161916809Y-80145000D01*
X161964428Y-80192619D01*
X162012047Y-80287857D01*
X162059666Y-80478333D01*
X162059666Y-80716428D01*
X162012047Y-80906904D01*
X161964428Y-81002142D01*
X161916809Y-81049761D01*
X161821571Y-81097380D01*
X161726333Y-81097380D01*
X161631095Y-81049761D01*
X161583476Y-81002142D01*
X161535857Y-80906904D01*
X161488238Y-80716428D01*
X161488238Y-80478333D01*
X161535857Y-80287857D01*
X161583476Y-80192619D01*
X161631095Y-80145000D01*
X161726333Y-80097380D01*
X162345380Y-80097380D02*
X162678714Y-81097380D01*
X163012047Y-80097380D01*
X156488142Y-83780380D02*
X156821476Y-84780380D01*
X157154809Y-83780380D01*
X157488142Y-84780380D02*
X157488142Y-84113714D01*
X157488142Y-84304190D02*
X157535761Y-84208952D01*
X157583380Y-84161333D01*
X157678619Y-84113714D01*
X157773857Y-84113714D01*
X158488142Y-84732761D02*
X158392904Y-84780380D01*
X158202428Y-84780380D01*
X158107190Y-84732761D01*
X158059571Y-84637523D01*
X158059571Y-84256571D01*
X158107190Y-84161333D01*
X158202428Y-84113714D01*
X158392904Y-84113714D01*
X158488142Y-84161333D01*
X158535761Y-84256571D01*
X158535761Y-84351809D01*
X158059571Y-84447047D01*
X158821476Y-84113714D02*
X159202428Y-84113714D01*
X158964333Y-84780380D02*
X158964333Y-83923238D01*
X159011952Y-83828000D01*
X159107190Y-83780380D01*
X159202428Y-83780380D01*
X160773857Y-83780380D02*
X160297666Y-83780380D01*
X160250047Y-84256571D01*
X160297666Y-84208952D01*
X160392904Y-84161333D01*
X160631000Y-84161333D01*
X160726238Y-84208952D01*
X160773857Y-84256571D01*
X160821476Y-84351809D01*
X160821476Y-84589904D01*
X160773857Y-84685142D01*
X160726238Y-84732761D01*
X160631000Y-84780380D01*
X160392904Y-84780380D01*
X160297666Y-84732761D01*
X160250047Y-84685142D01*
X161107190Y-83780380D02*
X161440523Y-84780380D01*
X161773857Y-83780380D01*
X156789857Y-87336380D02*
X157123190Y-88336380D01*
X157456523Y-87336380D01*
X157789857Y-88336380D02*
X157789857Y-87669714D01*
X157789857Y-87860190D02*
X157837476Y-87764952D01*
X157885095Y-87717333D01*
X157980333Y-87669714D01*
X158075571Y-87669714D01*
X158789857Y-88288761D02*
X158694619Y-88336380D01*
X158504142Y-88336380D01*
X158408904Y-88288761D01*
X158361285Y-88193523D01*
X158361285Y-87812571D01*
X158408904Y-87717333D01*
X158504142Y-87669714D01*
X158694619Y-87669714D01*
X158789857Y-87717333D01*
X158837476Y-87812571D01*
X158837476Y-87907809D01*
X158361285Y-88003047D01*
X159123190Y-87669714D02*
X159504142Y-87669714D01*
X159266047Y-88336380D02*
X159266047Y-87479238D01*
X159313666Y-87384000D01*
X159408904Y-87336380D01*
X159504142Y-87336380D01*
X160551761Y-87431619D02*
X160599380Y-87384000D01*
X160694619Y-87336380D01*
X160932714Y-87336380D01*
X161027952Y-87384000D01*
X161075571Y-87431619D01*
X161123190Y-87526857D01*
X161123190Y-87622095D01*
X161075571Y-87764952D01*
X160504142Y-88336380D01*
X161123190Y-88336380D01*
X161551761Y-88241142D02*
X161599380Y-88288761D01*
X161551761Y-88336380D01*
X161504142Y-88288761D01*
X161551761Y-88241142D01*
X161551761Y-88336380D01*
X162504142Y-87336380D02*
X162027952Y-87336380D01*
X161980333Y-87812571D01*
X162027952Y-87764952D01*
X162123190Y-87717333D01*
X162361285Y-87717333D01*
X162456523Y-87764952D01*
X162504142Y-87812571D01*
X162551761Y-87907809D01*
X162551761Y-88145904D01*
X162504142Y-88241142D01*
X162456523Y-88288761D01*
X162361285Y-88336380D01*
X162123190Y-88336380D01*
X162027952Y-88288761D01*
X161980333Y-88241142D01*
X162837476Y-87336380D02*
X163170809Y-88336380D01*
X163504142Y-87336380D01*
X157154904Y-91019380D02*
X157488238Y-92019380D01*
X157821571Y-91019380D01*
X158154904Y-92019380D02*
X158154904Y-91352714D01*
X158154904Y-91543190D02*
X158202523Y-91447952D01*
X158250142Y-91400333D01*
X158345380Y-91352714D01*
X158440619Y-91352714D01*
X159154904Y-91971761D02*
X159059666Y-92019380D01*
X158869190Y-92019380D01*
X158773952Y-91971761D01*
X158726333Y-91876523D01*
X158726333Y-91495571D01*
X158773952Y-91400333D01*
X158869190Y-91352714D01*
X159059666Y-91352714D01*
X159154904Y-91400333D01*
X159202523Y-91495571D01*
X159202523Y-91590809D01*
X158726333Y-91686047D01*
X159488238Y-91352714D02*
X159869190Y-91352714D01*
X159631095Y-92019380D02*
X159631095Y-91162238D01*
X159678714Y-91067000D01*
X159773952Y-91019380D01*
X159869190Y-91019380D01*
X161297761Y-91495571D02*
X161440619Y-91543190D01*
X161488238Y-91590809D01*
X161535857Y-91686047D01*
X161535857Y-91828904D01*
X161488238Y-91924142D01*
X161440619Y-91971761D01*
X161345380Y-92019380D01*
X160964428Y-92019380D01*
X160964428Y-91019380D01*
X161297761Y-91019380D01*
X161393000Y-91067000D01*
X161440619Y-91114619D01*
X161488238Y-91209857D01*
X161488238Y-91305095D01*
X161440619Y-91400333D01*
X161393000Y-91447952D01*
X161297761Y-91495571D01*
X160964428Y-91495571D01*
X162488238Y-91067000D02*
X162393000Y-91019380D01*
X162250142Y-91019380D01*
X162107285Y-91067000D01*
X162012047Y-91162238D01*
X161964428Y-91257476D01*
X161916809Y-91447952D01*
X161916809Y-91590809D01*
X161964428Y-91781285D01*
X162012047Y-91876523D01*
X162107285Y-91971761D01*
X162250142Y-92019380D01*
X162345380Y-92019380D01*
X162488238Y-91971761D01*
X162535857Y-91924142D01*
X162535857Y-91590809D01*
X162345380Y-91590809D01*
D10*
X154686000Y-111379000D02*
X139446000Y-111379000D01*
X154686000Y-121539000D02*
X154686000Y-111379000D01*
X139446000Y-121539000D02*
X154686000Y-121539000D01*
X139446000Y-111379000D02*
X139446000Y-121539000D01*
D11*
X113764285Y-83927285D02*
X113692857Y-83855857D01*
X113621428Y-83641571D01*
X113621428Y-83498714D01*
X113692857Y-83284428D01*
X113835714Y-83141571D01*
X113978571Y-83070142D01*
X114264285Y-82998714D01*
X114478571Y-82998714D01*
X114764285Y-83070142D01*
X114907142Y-83141571D01*
X115050000Y-83284428D01*
X115121428Y-83498714D01*
X115121428Y-83641571D01*
X115050000Y-83855857D01*
X114978571Y-83927285D01*
X113621428Y-84570142D02*
X115121428Y-84570142D01*
X114407142Y-84570142D02*
X114407142Y-85427285D01*
X113621428Y-85427285D02*
X115121428Y-85427285D01*
X113621428Y-86927285D02*
X113621428Y-86070142D01*
X113621428Y-86498714D02*
X115121428Y-86498714D01*
X114907142Y-86355857D01*
X114764285Y-86213000D01*
X114692857Y-86070142D01*
X113891285Y-100183285D02*
X113819857Y-100111857D01*
X113748428Y-99897571D01*
X113748428Y-99754714D01*
X113819857Y-99540428D01*
X113962714Y-99397571D01*
X114105571Y-99326142D01*
X114391285Y-99254714D01*
X114605571Y-99254714D01*
X114891285Y-99326142D01*
X115034142Y-99397571D01*
X115177000Y-99540428D01*
X115248428Y-99754714D01*
X115248428Y-99897571D01*
X115177000Y-100111857D01*
X115105571Y-100183285D01*
X113748428Y-100826142D02*
X115248428Y-100826142D01*
X114534142Y-100826142D02*
X114534142Y-101683285D01*
X113748428Y-101683285D02*
X115248428Y-101683285D01*
X115248428Y-102683285D02*
X115248428Y-102826142D01*
X115177000Y-102969000D01*
X115105571Y-103040428D01*
X114962714Y-103111857D01*
X114677000Y-103183285D01*
X114319857Y-103183285D01*
X114034142Y-103111857D01*
X113891285Y-103040428D01*
X113819857Y-102969000D01*
X113748428Y-102826142D01*
X113748428Y-102683285D01*
X113819857Y-102540428D01*
X113891285Y-102469000D01*
X114034142Y-102397571D01*
X114319857Y-102326142D01*
X114677000Y-102326142D01*
X114962714Y-102397571D01*
X115105571Y-102469000D01*
X115177000Y-102540428D01*
X115248428Y-102683285D01*
D10*
X139390380Y-120999285D02*
X139390380Y-121570714D01*
X139390380Y-121285000D02*
X138390380Y-121285000D01*
X138533238Y-121380238D01*
X138628476Y-121475476D01*
X138676095Y-121570714D01*
G04 #@! TO.C,IC2*
X134612504Y-80198508D02*
X133237504Y-80198508D01*
X134612504Y-90323508D02*
X138762504Y-90323508D01*
X134612504Y-80173508D02*
X138762504Y-80173508D01*
X134612504Y-90323508D02*
X134612504Y-90218508D01*
X138762504Y-90323508D02*
X138762504Y-90218508D01*
X138762504Y-80173508D02*
X138762504Y-80278508D01*
X134612504Y-80173508D02*
X134612504Y-80198508D01*
D14*
G04 #@! TO.C,J7*
X136934000Y-117491000D02*
X136934000Y-126291000D01*
X136934000Y-126291000D02*
X127734000Y-126291000D01*
X134234000Y-111591000D02*
X136934000Y-111591000D01*
X136934000Y-111591000D02*
X136934000Y-113491000D01*
X127734000Y-126291000D02*
X127734000Y-111591000D01*
X127734000Y-111591000D02*
X130334000Y-111591000D01*
D10*
G04 #@! TO.C,J2*
X123393200Y-90512900D02*
X129590800Y-90512900D01*
X129590800Y-79918560D02*
X123393200Y-79918560D01*
X129590800Y-87713820D02*
X129092960Y-87713820D01*
X129092960Y-80116680D02*
X129590800Y-80116680D01*
X129590800Y-90314780D02*
X129092960Y-90314780D01*
X129092960Y-85217000D02*
X129590800Y-85217000D01*
X129092960Y-82720180D02*
X129590800Y-82720180D01*
X129590800Y-79916020D02*
X129590800Y-90517980D01*
X129092960Y-90517980D02*
X129092960Y-79916020D01*
X123791980Y-90517980D02*
X123791980Y-79916020D01*
X123393200Y-79916020D02*
X123393200Y-90517980D01*
G04 #@! TO.C,P1*
X140208000Y-125095000D02*
X157988000Y-125095000D01*
X157988000Y-125095000D02*
X157988000Y-122555000D01*
X157988000Y-122555000D02*
X140208000Y-122555000D01*
X137388000Y-125375000D02*
X138938000Y-125375000D01*
X140208000Y-125095000D02*
X140208000Y-122555000D01*
X138938000Y-122275000D02*
X137388000Y-122275000D01*
X137388000Y-122275000D02*
X137388000Y-125375000D01*
G04 #@! TO.C,P2*
X163068000Y-125095000D02*
X175768000Y-125095000D01*
X175768000Y-125095000D02*
X175768000Y-122555000D01*
X175768000Y-122555000D02*
X163068000Y-122555000D01*
X160248000Y-125375000D02*
X161798000Y-125375000D01*
X163068000Y-125095000D02*
X163068000Y-122555000D01*
X161798000Y-122275000D02*
X160248000Y-122275000D01*
X160248000Y-122275000D02*
X160248000Y-125375000D01*
G04 #@! TO.C,P3*
X131064000Y-76835000D02*
X153924000Y-76835000D01*
X153924000Y-76835000D02*
X153924000Y-74295000D01*
X153924000Y-74295000D02*
X131064000Y-74295000D01*
X128244000Y-77115000D02*
X129794000Y-77115000D01*
X131064000Y-76835000D02*
X131064000Y-74295000D01*
X129794000Y-74015000D02*
X128244000Y-74015000D01*
X128244000Y-74015000D02*
X128244000Y-77115000D01*
G04 #@! TO.C,P4*
X157988000Y-76835000D02*
X175768000Y-76835000D01*
X175768000Y-76835000D02*
X175768000Y-74295000D01*
X175768000Y-74295000D02*
X157988000Y-74295000D01*
X155168000Y-77115000D02*
X156718000Y-77115000D01*
X157988000Y-76835000D02*
X157988000Y-74295000D01*
X156718000Y-74015000D02*
X155168000Y-74015000D01*
X155168000Y-74015000D02*
X155168000Y-77115000D01*
G04 #@! TO.C,P5*
X127254000Y-123825000D02*
G75*
G03X127254000Y-123825000I-2286000J0D01*
G01*
G04 #@! TO.C,P6*
X179324000Y-118745000D02*
G75*
G03X179324000Y-118745000I-2286000J0D01*
G01*
G04 #@! TO.C,P7*
X128524000Y-75565000D02*
G75*
G03X128524000Y-75565000I-2286000J0D01*
G01*
G04 #@! TO.C,P8*
X179324000Y-90805000D02*
G75*
G03X179324000Y-90805000I-2286000J0D01*
G01*
D14*
G04 #@! TO.C,C1*
X132937640Y-98349260D02*
X132937640Y-97349260D01*
X131237640Y-97349260D02*
X131237640Y-98349260D01*
G04 #@! TO.C,C2*
X131050685Y-81329096D02*
X131050685Y-82329096D01*
X132750685Y-82329096D02*
X132750685Y-81329096D01*
D10*
G04 #@! TO.C,IC1*
X134812640Y-96233344D02*
X134812640Y-96258344D01*
X138962640Y-96233344D02*
X138962640Y-96338344D01*
X138962640Y-106383344D02*
X138962640Y-106278344D01*
X134812640Y-106383344D02*
X134812640Y-106278344D01*
X134812640Y-96233344D02*
X138962640Y-96233344D01*
X134812640Y-106383344D02*
X138962640Y-106383344D01*
X134812640Y-96258344D02*
X133437640Y-96258344D01*
G04 #@! TO.C,J1*
X123393200Y-95918020D02*
X123393200Y-106519980D01*
X123791980Y-106519980D02*
X123791980Y-95918020D01*
X129092960Y-106519980D02*
X129092960Y-95918020D01*
X129590800Y-95918020D02*
X129590800Y-106519980D01*
X129092960Y-98722180D02*
X129590800Y-98722180D01*
X129092960Y-101219000D02*
X129590800Y-101219000D01*
X129590800Y-106316780D02*
X129092960Y-106316780D01*
X129092960Y-96118680D02*
X129590800Y-96118680D01*
X129590800Y-103715820D02*
X129092960Y-103715820D01*
X129590800Y-95920560D02*
X123393200Y-95920560D01*
X123393200Y-106514900D02*
X129590800Y-106514900D01*
D14*
G04 #@! TO.C,RV1*
X144039000Y-97242000D02*
X145649000Y-98854000D01*
X144180000Y-97102000D02*
X145790000Y-98713000D01*
X141294000Y-96648000D02*
X146245000Y-96648000D01*
X141294000Y-106298000D02*
X146245000Y-106298000D01*
X146245000Y-106298000D02*
X146245000Y-96648000D01*
X141294000Y-106298000D02*
X141294000Y-96648000D01*
X146069000Y-97978000D02*
G75*
G03X146069000Y-97978000I-1155000J0D01*
G01*
G04 #@! TO.C,RV2*
X146323000Y-81976000D02*
G75*
G03X146323000Y-81976000I-1155000J0D01*
G01*
X141548000Y-90296000D02*
X141548000Y-80646000D01*
X146499000Y-90296000D02*
X146499000Y-80646000D01*
X141548000Y-90296000D02*
X146499000Y-90296000D01*
X141548000Y-80646000D02*
X146499000Y-80646000D01*
X144434000Y-81100000D02*
X146044000Y-82711000D01*
X144293000Y-81240000D02*
X145903000Y-82852000D01*
G04 #@! TO.C,TP1*
X150905232Y-92857945D02*
X150905232Y-91527945D01*
X152235232Y-92857945D02*
X150905232Y-92857945D01*
X153505232Y-92857945D02*
X153505232Y-90197945D01*
X153505232Y-90197945D02*
X156105232Y-90197945D01*
X153505232Y-92857945D02*
X156105232Y-92857945D01*
X156105232Y-92857945D02*
X156105232Y-90197945D01*
G04 #@! TO.C,TP2*
X156105232Y-89257945D02*
X156105232Y-86597945D01*
X153505232Y-89257945D02*
X156105232Y-89257945D01*
X153505232Y-86597945D02*
X156105232Y-86597945D01*
X153505232Y-89257945D02*
X153505232Y-86597945D01*
X152235232Y-89257945D02*
X150905232Y-89257945D01*
X150905232Y-89257945D02*
X150905232Y-87927945D01*
G04 #@! TO.C,TP3*
X150905232Y-85657945D02*
X150905232Y-84327945D01*
X152235232Y-85657945D02*
X150905232Y-85657945D01*
X153505232Y-85657945D02*
X153505232Y-82997945D01*
X153505232Y-82997945D02*
X156105232Y-82997945D01*
X153505232Y-85657945D02*
X156105232Y-85657945D01*
X156105232Y-85657945D02*
X156105232Y-82997945D01*
G04 #@! TO.C,TP4*
X156105232Y-82057945D02*
X156105232Y-79397945D01*
X153505232Y-82057945D02*
X156105232Y-82057945D01*
X153505232Y-79397945D02*
X156105232Y-79397945D01*
X153505232Y-82057945D02*
X153505232Y-79397945D01*
X152235232Y-82057945D02*
X150905232Y-82057945D01*
X150905232Y-82057945D02*
X150905232Y-80727945D01*
G04 #@! TO.C,TP5*
X150872641Y-108716568D02*
X150872641Y-107386568D01*
X152202641Y-108716568D02*
X150872641Y-108716568D01*
X153472641Y-108716568D02*
X153472641Y-106056568D01*
X153472641Y-106056568D02*
X156072641Y-106056568D01*
X153472641Y-108716568D02*
X156072641Y-108716568D01*
X156072641Y-108716568D02*
X156072641Y-106056568D01*
G04 #@! TO.C,TP6*
X156072641Y-105116568D02*
X156072641Y-102456568D01*
X153472641Y-105116568D02*
X156072641Y-105116568D01*
X153472641Y-102456568D02*
X156072641Y-102456568D01*
X153472641Y-105116568D02*
X153472641Y-102456568D01*
X152202641Y-105116568D02*
X150872641Y-105116568D01*
X150872641Y-105116568D02*
X150872641Y-103786568D01*
G04 #@! TO.C,TP7*
X150872641Y-101516568D02*
X150872641Y-100186568D01*
X152202641Y-101516568D02*
X150872641Y-101516568D01*
X153472641Y-101516568D02*
X153472641Y-98856568D01*
X153472641Y-98856568D02*
X156072641Y-98856568D01*
X153472641Y-101516568D02*
X156072641Y-101516568D01*
X156072641Y-101516568D02*
X156072641Y-98856568D01*
G04 #@! TO.C,TP8*
X156072641Y-97916568D02*
X156072641Y-95256568D01*
X153472641Y-97916568D02*
X156072641Y-97916568D01*
X153472641Y-95256568D02*
X156072641Y-95256568D01*
X153472641Y-97916568D02*
X153472641Y-95256568D01*
X152202641Y-97916568D02*
X150872641Y-97916568D01*
X150872641Y-97916568D02*
X150872641Y-96586568D01*
G04 #@! TO.C,C3*
X157568000Y-120515000D02*
X157568000Y-119515000D01*
X155868000Y-119515000D02*
X155868000Y-120515000D01*
G04 #@! TO.C,U1*
X148917000Y-116379000D02*
X148917000Y-117889000D01*
X145216000Y-116379000D02*
X145216000Y-117889000D01*
X141946000Y-117889000D02*
X152186000Y-117889000D01*
X152186000Y-116379000D02*
X152186000Y-121020000D01*
X141946000Y-116379000D02*
X141946000Y-121020000D01*
X141946000Y-121020000D02*
X152186000Y-121020000D01*
X141946000Y-116379000D02*
X152186000Y-116379000D01*
D10*
G04 #@! TO.C,REF\002A\002A*
X116661638Y-124327272D02*
X118661638Y-124327272D01*
X114661638Y-124327272D02*
X115561638Y-124327272D01*
X114586638Y-124327272D02*
G75*
G03X114586638Y-124327272I-925000J0D01*
G01*
X120586638Y-124327272D02*
G75*
G03X120586638Y-124327272I-925000J0D01*
G01*
D15*
X116836638Y-124327272D02*
G75*
G03X116836638Y-124327272I-175000J0D01*
G01*
D10*
X117336638Y-123577272D02*
G75*
G03X117411638Y-125002272I-675000J-750000D01*
G01*
D14*
X149920000Y-115884000D02*
X149920000Y-113224000D01*
X147320000Y-115884000D02*
X149920000Y-115884000D01*
X147320000Y-113224000D02*
X149920000Y-113224000D01*
X147320000Y-115884000D02*
X147320000Y-113224000D01*
X146050000Y-115884000D02*
X144720000Y-115884000D01*
X144720000Y-115884000D02*
X144720000Y-114554000D01*
D16*
G04 #@! TO.C,REF\002A\002A\002A*
G36*
X122424241Y-118436184D02*
X122450753Y-118449282D01*
X122483447Y-118472106D01*
X122507275Y-118496996D01*
X122523594Y-118528249D01*
X122533760Y-118570166D01*
X122539128Y-118627044D01*
X122541056Y-118703184D01*
X122541169Y-118735917D01*
X122540839Y-118807656D01*
X122539473Y-118858927D01*
X122536500Y-118894404D01*
X122531351Y-118918763D01*
X122523457Y-118936680D01*
X122515243Y-118948902D01*
X122462813Y-119000905D01*
X122401070Y-119032184D01*
X122334464Y-119041592D01*
X122267442Y-119027980D01*
X122246208Y-119018354D01*
X122195376Y-118991859D01*
X122195376Y-119407052D01*
X122232475Y-119387868D01*
X122281357Y-119373025D01*
X122341439Y-119369222D01*
X122401436Y-119376243D01*
X122446744Y-119392013D01*
X122484325Y-119422047D01*
X122516436Y-119465024D01*
X122518850Y-119469436D01*
X122529033Y-119490221D01*
X122536470Y-119511170D01*
X122541589Y-119536548D01*
X122544819Y-119570618D01*
X122546587Y-119617641D01*
X122547323Y-119681882D01*
X122547456Y-119754176D01*
X122547456Y-119984822D01*
X122409139Y-119984822D01*
X122409139Y-119559533D01*
X122370451Y-119526979D01*
X122330262Y-119500940D01*
X122292203Y-119496205D01*
X122253934Y-119508389D01*
X122233538Y-119520320D01*
X122218358Y-119537313D01*
X122207562Y-119562995D01*
X122200317Y-119600991D01*
X122195792Y-119654926D01*
X122193156Y-119728425D01*
X122192228Y-119777347D01*
X122189089Y-119978535D01*
X122123074Y-119982336D01*
X122057060Y-119986136D01*
X122057060Y-118737650D01*
X122195376Y-118737650D01*
X122198903Y-118807254D01*
X122210785Y-118855569D01*
X122232980Y-118885631D01*
X122267441Y-118900471D01*
X122302258Y-118903436D01*
X122341671Y-118900028D01*
X122367829Y-118886617D01*
X122384186Y-118868896D01*
X122397063Y-118849835D01*
X122404728Y-118828601D01*
X122408139Y-118798849D01*
X122408251Y-118754236D01*
X122407103Y-118716880D01*
X122404468Y-118660604D01*
X122400544Y-118623658D01*
X122393937Y-118600223D01*
X122383251Y-118584480D01*
X122373167Y-118575380D01*
X122331030Y-118555537D01*
X122281160Y-118552332D01*
X122252524Y-118559168D01*
X122224172Y-118583464D01*
X122205391Y-118630728D01*
X122196288Y-118700624D01*
X122195376Y-118737650D01*
X122057060Y-118737650D01*
X122057060Y-118425614D01*
X122126218Y-118425614D01*
X122167740Y-118427256D01*
X122189162Y-118433087D01*
X122195374Y-118444461D01*
X122195376Y-118444798D01*
X122198258Y-118455938D01*
X122210970Y-118454673D01*
X122236243Y-118442433D01*
X122295131Y-118423707D01*
X122361385Y-118421739D01*
X122424241Y-118436184D01*
X122424241Y-118436184D01*
G37*
X122424241Y-118436184D02*
X122450753Y-118449282D01*
X122483447Y-118472106D01*
X122507275Y-118496996D01*
X122523594Y-118528249D01*
X122533760Y-118570166D01*
X122539128Y-118627044D01*
X122541056Y-118703184D01*
X122541169Y-118735917D01*
X122540839Y-118807656D01*
X122539473Y-118858927D01*
X122536500Y-118894404D01*
X122531351Y-118918763D01*
X122523457Y-118936680D01*
X122515243Y-118948902D01*
X122462813Y-119000905D01*
X122401070Y-119032184D01*
X122334464Y-119041592D01*
X122267442Y-119027980D01*
X122246208Y-119018354D01*
X122195376Y-118991859D01*
X122195376Y-119407052D01*
X122232475Y-119387868D01*
X122281357Y-119373025D01*
X122341439Y-119369222D01*
X122401436Y-119376243D01*
X122446744Y-119392013D01*
X122484325Y-119422047D01*
X122516436Y-119465024D01*
X122518850Y-119469436D01*
X122529033Y-119490221D01*
X122536470Y-119511170D01*
X122541589Y-119536548D01*
X122544819Y-119570618D01*
X122546587Y-119617641D01*
X122547323Y-119681882D01*
X122547456Y-119754176D01*
X122547456Y-119984822D01*
X122409139Y-119984822D01*
X122409139Y-119559533D01*
X122370451Y-119526979D01*
X122330262Y-119500940D01*
X122292203Y-119496205D01*
X122253934Y-119508389D01*
X122233538Y-119520320D01*
X122218358Y-119537313D01*
X122207562Y-119562995D01*
X122200317Y-119600991D01*
X122195792Y-119654926D01*
X122193156Y-119728425D01*
X122192228Y-119777347D01*
X122189089Y-119978535D01*
X122123074Y-119982336D01*
X122057060Y-119986136D01*
X122057060Y-118737650D01*
X122195376Y-118737650D01*
X122198903Y-118807254D01*
X122210785Y-118855569D01*
X122232980Y-118885631D01*
X122267441Y-118900471D01*
X122302258Y-118903436D01*
X122341671Y-118900028D01*
X122367829Y-118886617D01*
X122384186Y-118868896D01*
X122397063Y-118849835D01*
X122404728Y-118828601D01*
X122408139Y-118798849D01*
X122408251Y-118754236D01*
X122407103Y-118716880D01*
X122404468Y-118660604D01*
X122400544Y-118623658D01*
X122393937Y-118600223D01*
X122383251Y-118584480D01*
X122373167Y-118575380D01*
X122331030Y-118555537D01*
X122281160Y-118552332D01*
X122252524Y-118559168D01*
X122224172Y-118583464D01*
X122205391Y-118630728D01*
X122196288Y-118700624D01*
X122195376Y-118737650D01*
X122057060Y-118737650D01*
X122057060Y-118425614D01*
X122126218Y-118425614D01*
X122167740Y-118427256D01*
X122189162Y-118433087D01*
X122195374Y-118444461D01*
X122195376Y-118444798D01*
X122198258Y-118455938D01*
X122210970Y-118454673D01*
X122236243Y-118442433D01*
X122295131Y-118423707D01*
X122361385Y-118421739D01*
X122424241Y-118436184D01*
G36*
X122948790Y-119373555D02*
X123007945Y-119389339D01*
X123052977Y-119417948D01*
X123084754Y-119455419D01*
X123094634Y-119471411D01*
X123101927Y-119488163D01*
X123107026Y-119509592D01*
X123110321Y-119539616D01*
X123112203Y-119582154D01*
X123113063Y-119641122D01*
X123113293Y-119720440D01*
X123113297Y-119741484D01*
X123113297Y-119984822D01*
X123052941Y-119984822D01*
X123014443Y-119982126D01*
X122985977Y-119975295D01*
X122978845Y-119971083D01*
X122959348Y-119963813D01*
X122939434Y-119971083D01*
X122906647Y-119980160D01*
X122859022Y-119983813D01*
X122806236Y-119982228D01*
X122757964Y-119975589D01*
X122729782Y-119967072D01*
X122675247Y-119932063D01*
X122641165Y-119883479D01*
X122625843Y-119818882D01*
X122625701Y-119817223D01*
X122627045Y-119788566D01*
X122748644Y-119788566D01*
X122759274Y-119821161D01*
X122776590Y-119839505D01*
X122811348Y-119853379D01*
X122857227Y-119858917D01*
X122904012Y-119856191D01*
X122941486Y-119845274D01*
X122951985Y-119838269D01*
X122970332Y-119805904D01*
X122974980Y-119769111D01*
X122974980Y-119720763D01*
X122905418Y-119720763D01*
X122839333Y-119725850D01*
X122789236Y-119740263D01*
X122758071Y-119762729D01*
X122748644Y-119788566D01*
X122627045Y-119788566D01*
X122629013Y-119746647D01*
X122652290Y-119690845D01*
X122696052Y-119648647D01*
X122702101Y-119644808D01*
X122728093Y-119632309D01*
X122760265Y-119624740D01*
X122805240Y-119621061D01*
X122858669Y-119620216D01*
X122974980Y-119620169D01*
X122974980Y-119571411D01*
X122970047Y-119533581D01*
X122957457Y-119508236D01*
X122955983Y-119506887D01*
X122927966Y-119495800D01*
X122885674Y-119491503D01*
X122838936Y-119493615D01*
X122797582Y-119501756D01*
X122773043Y-119513965D01*
X122759747Y-119523746D01*
X122745706Y-119525613D01*
X122726329Y-119517600D01*
X122697024Y-119497739D01*
X122653197Y-119464063D01*
X122649175Y-119460909D01*
X122651236Y-119449236D01*
X122668432Y-119429822D01*
X122694567Y-119408248D01*
X122723448Y-119390096D01*
X122732522Y-119385809D01*
X122765620Y-119377256D01*
X122814120Y-119371155D01*
X122868305Y-119368708D01*
X122870839Y-119368703D01*
X122948790Y-119373555D01*
X122948790Y-119373555D01*
G37*
X122948790Y-119373555D02*
X123007945Y-119389339D01*
X123052977Y-119417948D01*
X123084754Y-119455419D01*
X123094634Y-119471411D01*
X123101927Y-119488163D01*
X123107026Y-119509592D01*
X123110321Y-119539616D01*
X123112203Y-119582154D01*
X123113063Y-119641122D01*
X123113293Y-119720440D01*
X123113297Y-119741484D01*
X123113297Y-119984822D01*
X123052941Y-119984822D01*
X123014443Y-119982126D01*
X122985977Y-119975295D01*
X122978845Y-119971083D01*
X122959348Y-119963813D01*
X122939434Y-119971083D01*
X122906647Y-119980160D01*
X122859022Y-119983813D01*
X122806236Y-119982228D01*
X122757964Y-119975589D01*
X122729782Y-119967072D01*
X122675247Y-119932063D01*
X122641165Y-119883479D01*
X122625843Y-119818882D01*
X122625701Y-119817223D01*
X122627045Y-119788566D01*
X122748644Y-119788566D01*
X122759274Y-119821161D01*
X122776590Y-119839505D01*
X122811348Y-119853379D01*
X122857227Y-119858917D01*
X122904012Y-119856191D01*
X122941486Y-119845274D01*
X122951985Y-119838269D01*
X122970332Y-119805904D01*
X122974980Y-119769111D01*
X122974980Y-119720763D01*
X122905418Y-119720763D01*
X122839333Y-119725850D01*
X122789236Y-119740263D01*
X122758071Y-119762729D01*
X122748644Y-119788566D01*
X122627045Y-119788566D01*
X122629013Y-119746647D01*
X122652290Y-119690845D01*
X122696052Y-119648647D01*
X122702101Y-119644808D01*
X122728093Y-119632309D01*
X122760265Y-119624740D01*
X122805240Y-119621061D01*
X122858669Y-119620216D01*
X122974980Y-119620169D01*
X122974980Y-119571411D01*
X122970047Y-119533581D01*
X122957457Y-119508236D01*
X122955983Y-119506887D01*
X122927966Y-119495800D01*
X122885674Y-119491503D01*
X122838936Y-119493615D01*
X122797582Y-119501756D01*
X122773043Y-119513965D01*
X122759747Y-119523746D01*
X122745706Y-119525613D01*
X122726329Y-119517600D01*
X122697024Y-119497739D01*
X122653197Y-119464063D01*
X122649175Y-119460909D01*
X122651236Y-119449236D01*
X122668432Y-119429822D01*
X122694567Y-119408248D01*
X122723448Y-119390096D01*
X122732522Y-119385809D01*
X122765620Y-119377256D01*
X122814120Y-119371155D01*
X122868305Y-119368708D01*
X122870839Y-119368703D01*
X122948790Y-119373555D01*
G36*
X123339644Y-119370020D02*
X123358461Y-119375660D01*
X123364527Y-119388053D01*
X123364782Y-119393647D01*
X123365871Y-119409230D01*
X123373368Y-119411676D01*
X123393619Y-119400993D01*
X123405649Y-119393694D01*
X123443600Y-119378063D01*
X123488928Y-119370334D01*
X123536456Y-119369740D01*
X123581005Y-119375513D01*
X123617398Y-119386884D01*
X123640457Y-119403088D01*
X123645004Y-119423355D01*
X123642709Y-119428843D01*
X123625980Y-119451626D01*
X123600037Y-119479647D01*
X123595345Y-119484177D01*
X123570617Y-119505005D01*
X123549282Y-119511735D01*
X123519445Y-119507038D01*
X123507492Y-119503917D01*
X123470295Y-119496421D01*
X123444141Y-119499792D01*
X123422054Y-119511681D01*
X123401822Y-119527635D01*
X123386921Y-119547700D01*
X123376566Y-119575702D01*
X123369971Y-119615467D01*
X123366351Y-119670823D01*
X123364922Y-119745594D01*
X123364782Y-119790740D01*
X123364782Y-119984822D01*
X123239040Y-119984822D01*
X123239040Y-119368683D01*
X123301911Y-119368683D01*
X123339644Y-119370020D01*
X123339644Y-119370020D01*
G37*
X123339644Y-119370020D02*
X123358461Y-119375660D01*
X123364527Y-119388053D01*
X123364782Y-119393647D01*
X123365871Y-119409230D01*
X123373368Y-119411676D01*
X123393619Y-119400993D01*
X123405649Y-119393694D01*
X123443600Y-119378063D01*
X123488928Y-119370334D01*
X123536456Y-119369740D01*
X123581005Y-119375513D01*
X123617398Y-119386884D01*
X123640457Y-119403088D01*
X123645004Y-119423355D01*
X123642709Y-119428843D01*
X123625980Y-119451626D01*
X123600037Y-119479647D01*
X123595345Y-119484177D01*
X123570617Y-119505005D01*
X123549282Y-119511735D01*
X123519445Y-119507038D01*
X123507492Y-119503917D01*
X123470295Y-119496421D01*
X123444141Y-119499792D01*
X123422054Y-119511681D01*
X123401822Y-119527635D01*
X123386921Y-119547700D01*
X123376566Y-119575702D01*
X123369971Y-119615467D01*
X123366351Y-119670823D01*
X123364922Y-119745594D01*
X123364782Y-119790740D01*
X123364782Y-119984822D01*
X123239040Y-119984822D01*
X123239040Y-119368683D01*
X123301911Y-119368683D01*
X123339644Y-119370020D01*
G36*
X124131812Y-119984822D02*
X124062654Y-119984822D01*
X124022512Y-119983645D01*
X124001606Y-119978772D01*
X123994078Y-119968186D01*
X123993495Y-119961029D01*
X123992226Y-119946676D01*
X123984221Y-119943923D01*
X123963185Y-119952771D01*
X123946827Y-119961029D01*
X123884023Y-119980597D01*
X123815752Y-119981729D01*
X123760248Y-119967135D01*
X123708562Y-119931877D01*
X123669162Y-119879835D01*
X123647587Y-119818450D01*
X123647038Y-119815018D01*
X123643833Y-119777571D01*
X123642239Y-119723813D01*
X123642367Y-119683155D01*
X123779721Y-119683155D01*
X123782903Y-119737194D01*
X123790141Y-119781735D01*
X123799940Y-119806888D01*
X123837011Y-119841260D01*
X123881026Y-119853582D01*
X123926416Y-119843618D01*
X123965203Y-119813895D01*
X123979892Y-119793905D01*
X123988481Y-119770050D01*
X123992504Y-119735230D01*
X123993495Y-119682930D01*
X123991722Y-119631139D01*
X123987037Y-119585634D01*
X123980397Y-119555181D01*
X123979290Y-119552452D01*
X123952509Y-119520000D01*
X123913421Y-119502183D01*
X123869685Y-119499306D01*
X123828962Y-119511674D01*
X123798913Y-119539593D01*
X123795796Y-119545148D01*
X123786039Y-119579022D01*
X123780723Y-119627728D01*
X123779721Y-119683155D01*
X123642367Y-119683155D01*
X123642432Y-119662540D01*
X123643336Y-119629563D01*
X123649486Y-119547981D01*
X123662267Y-119486730D01*
X123683529Y-119441449D01*
X123715122Y-119407779D01*
X123745793Y-119388014D01*
X123788646Y-119374120D01*
X123841944Y-119369354D01*
X123896520Y-119373236D01*
X123943208Y-119385282D01*
X123967876Y-119399693D01*
X123993495Y-119422878D01*
X123993495Y-119129773D01*
X124131812Y-119129773D01*
X124131812Y-119984822D01*
X124131812Y-119984822D01*
G37*
X124131812Y-119984822D02*
X124062654Y-119984822D01*
X124022512Y-119983645D01*
X124001606Y-119978772D01*
X123994078Y-119968186D01*
X123993495Y-119961029D01*
X123992226Y-119946676D01*
X123984221Y-119943923D01*
X123963185Y-119952771D01*
X123946827Y-119961029D01*
X123884023Y-119980597D01*
X123815752Y-119981729D01*
X123760248Y-119967135D01*
X123708562Y-119931877D01*
X123669162Y-119879835D01*
X123647587Y-119818450D01*
X123647038Y-119815018D01*
X123643833Y-119777571D01*
X123642239Y-119723813D01*
X123642367Y-119683155D01*
X123779721Y-119683155D01*
X123782903Y-119737194D01*
X123790141Y-119781735D01*
X123799940Y-119806888D01*
X123837011Y-119841260D01*
X123881026Y-119853582D01*
X123926416Y-119843618D01*
X123965203Y-119813895D01*
X123979892Y-119793905D01*
X123988481Y-119770050D01*
X123992504Y-119735230D01*
X123993495Y-119682930D01*
X123991722Y-119631139D01*
X123987037Y-119585634D01*
X123980397Y-119555181D01*
X123979290Y-119552452D01*
X123952509Y-119520000D01*
X123913421Y-119502183D01*
X123869685Y-119499306D01*
X123828962Y-119511674D01*
X123798913Y-119539593D01*
X123795796Y-119545148D01*
X123786039Y-119579022D01*
X123780723Y-119627728D01*
X123779721Y-119683155D01*
X123642367Y-119683155D01*
X123642432Y-119662540D01*
X123643336Y-119629563D01*
X123649486Y-119547981D01*
X123662267Y-119486730D01*
X123683529Y-119441449D01*
X123715122Y-119407779D01*
X123745793Y-119388014D01*
X123788646Y-119374120D01*
X123841944Y-119369354D01*
X123896520Y-119373236D01*
X123943208Y-119385282D01*
X123967876Y-119399693D01*
X123993495Y-119422878D01*
X123993495Y-119129773D01*
X124131812Y-119129773D01*
X124131812Y-119984822D01*
G36*
X124614524Y-119371237D02*
X124664255Y-119374971D01*
X124794291Y-119764773D01*
X124814678Y-119695614D01*
X124826946Y-119652874D01*
X124843085Y-119595115D01*
X124860512Y-119531625D01*
X124869726Y-119497570D01*
X124904388Y-119368683D01*
X125047391Y-119368683D01*
X125004646Y-119503857D01*
X124983596Y-119570342D01*
X124958167Y-119650539D01*
X124931610Y-119734193D01*
X124907902Y-119808782D01*
X124853902Y-119978535D01*
X124795598Y-119982328D01*
X124737295Y-119986122D01*
X124705679Y-119881734D01*
X124686182Y-119816889D01*
X124664904Y-119745400D01*
X124646308Y-119682263D01*
X124645574Y-119679750D01*
X124631684Y-119636969D01*
X124619429Y-119607779D01*
X124610846Y-119596741D01*
X124609082Y-119598018D01*
X124602891Y-119615130D01*
X124591128Y-119651787D01*
X124575225Y-119703378D01*
X124556614Y-119765294D01*
X124546543Y-119799352D01*
X124492007Y-119984822D01*
X124376264Y-119984822D01*
X124283737Y-119692471D01*
X124257744Y-119610462D01*
X124234066Y-119535987D01*
X124213820Y-119472544D01*
X124198126Y-119423632D01*
X124188102Y-119392749D01*
X124185055Y-119383726D01*
X124187467Y-119374487D01*
X124206408Y-119370441D01*
X124245823Y-119370846D01*
X124251993Y-119371152D01*
X124325086Y-119374971D01*
X124372957Y-119551010D01*
X124390553Y-119615211D01*
X124406277Y-119671649D01*
X124418746Y-119715422D01*
X124426574Y-119741630D01*
X124428020Y-119745903D01*
X124434014Y-119740990D01*
X124446101Y-119715532D01*
X124462893Y-119672997D01*
X124483003Y-119616850D01*
X124500003Y-119566130D01*
X124564794Y-119367504D01*
X124614524Y-119371237D01*
X124614524Y-119371237D01*
G37*
X124614524Y-119371237D02*
X124664255Y-119374971D01*
X124794291Y-119764773D01*
X124814678Y-119695614D01*
X124826946Y-119652874D01*
X124843085Y-119595115D01*
X124860512Y-119531625D01*
X124869726Y-119497570D01*
X124904388Y-119368683D01*
X125047391Y-119368683D01*
X125004646Y-119503857D01*
X124983596Y-119570342D01*
X124958167Y-119650539D01*
X124931610Y-119734193D01*
X124907902Y-119808782D01*
X124853902Y-119978535D01*
X124795598Y-119982328D01*
X124737295Y-119986122D01*
X124705679Y-119881734D01*
X124686182Y-119816889D01*
X124664904Y-119745400D01*
X124646308Y-119682263D01*
X124645574Y-119679750D01*
X124631684Y-119636969D01*
X124619429Y-119607779D01*
X124610846Y-119596741D01*
X124609082Y-119598018D01*
X124602891Y-119615130D01*
X124591128Y-119651787D01*
X124575225Y-119703378D01*
X124556614Y-119765294D01*
X124546543Y-119799352D01*
X124492007Y-119984822D01*
X124376264Y-119984822D01*
X124283737Y-119692471D01*
X124257744Y-119610462D01*
X124234066Y-119535987D01*
X124213820Y-119472544D01*
X124198126Y-119423632D01*
X124188102Y-119392749D01*
X124185055Y-119383726D01*
X124187467Y-119374487D01*
X124206408Y-119370441D01*
X124245823Y-119370846D01*
X124251993Y-119371152D01*
X124325086Y-119374971D01*
X124372957Y-119551010D01*
X124390553Y-119615211D01*
X124406277Y-119671649D01*
X124418746Y-119715422D01*
X124426574Y-119741630D01*
X124428020Y-119745903D01*
X124434014Y-119740990D01*
X124446101Y-119715532D01*
X124462893Y-119672997D01*
X124483003Y-119616850D01*
X124500003Y-119566130D01*
X124564794Y-119367504D01*
X124614524Y-119371237D01*
G36*
X125371411Y-119372417D02*
X125424411Y-119385290D01*
X125439731Y-119392110D01*
X125469428Y-119409974D01*
X125492220Y-119430093D01*
X125509083Y-119455962D01*
X125520998Y-119491073D01*
X125528942Y-119538920D01*
X125533894Y-119602996D01*
X125536831Y-119686794D01*
X125537947Y-119742768D01*
X125542052Y-119984822D01*
X125471932Y-119984822D01*
X125429393Y-119983038D01*
X125407476Y-119976942D01*
X125401812Y-119966706D01*
X125398821Y-119955637D01*
X125385451Y-119957754D01*
X125367233Y-119966629D01*
X125321624Y-119980233D01*
X125263007Y-119983899D01*
X125201354Y-119977903D01*
X125146638Y-119962521D01*
X125141730Y-119960386D01*
X125091723Y-119925255D01*
X125058756Y-119876419D01*
X125043587Y-119819333D01*
X125044746Y-119798824D01*
X125168508Y-119798824D01*
X125179413Y-119826425D01*
X125211745Y-119846204D01*
X125263910Y-119856819D01*
X125291787Y-119858228D01*
X125338247Y-119854620D01*
X125369129Y-119840597D01*
X125376664Y-119833931D01*
X125397076Y-119797666D01*
X125401812Y-119764773D01*
X125401812Y-119720763D01*
X125340513Y-119720763D01*
X125269256Y-119724395D01*
X125219276Y-119735818D01*
X125187696Y-119755824D01*
X125180626Y-119764743D01*
X125168508Y-119798824D01*
X125044746Y-119798824D01*
X125046971Y-119759456D01*
X125069663Y-119702244D01*
X125100624Y-119663580D01*
X125119376Y-119646864D01*
X125137733Y-119635878D01*
X125161619Y-119629180D01*
X125196957Y-119625326D01*
X125249669Y-119622873D01*
X125270577Y-119622168D01*
X125401812Y-119617879D01*
X125401620Y-119578158D01*
X125396537Y-119536405D01*
X125378162Y-119511158D01*
X125341039Y-119495030D01*
X125340043Y-119494742D01*
X125287410Y-119488400D01*
X125235906Y-119496684D01*
X125197630Y-119516827D01*
X125182272Y-119526773D01*
X125165730Y-119525397D01*
X125140275Y-119510987D01*
X125125328Y-119500817D01*
X125096091Y-119479088D01*
X125077980Y-119462800D01*
X125075074Y-119458137D01*
X125087040Y-119434005D01*
X125122396Y-119405185D01*
X125137753Y-119395461D01*
X125181901Y-119378714D01*
X125241398Y-119369227D01*
X125307487Y-119367095D01*
X125371411Y-119372417D01*
X125371411Y-119372417D01*
G37*
X125371411Y-119372417D02*
X125424411Y-119385290D01*
X125439731Y-119392110D01*
X125469428Y-119409974D01*
X125492220Y-119430093D01*
X125509083Y-119455962D01*
X125520998Y-119491073D01*
X125528942Y-119538920D01*
X125533894Y-119602996D01*
X125536831Y-119686794D01*
X125537947Y-119742768D01*
X125542052Y-119984822D01*
X125471932Y-119984822D01*
X125429393Y-119983038D01*
X125407476Y-119976942D01*
X125401812Y-119966706D01*
X125398821Y-119955637D01*
X125385451Y-119957754D01*
X125367233Y-119966629D01*
X125321624Y-119980233D01*
X125263007Y-119983899D01*
X125201354Y-119977903D01*
X125146638Y-119962521D01*
X125141730Y-119960386D01*
X125091723Y-119925255D01*
X125058756Y-119876419D01*
X125043587Y-119819333D01*
X125044746Y-119798824D01*
X125168508Y-119798824D01*
X125179413Y-119826425D01*
X125211745Y-119846204D01*
X125263910Y-119856819D01*
X125291787Y-119858228D01*
X125338247Y-119854620D01*
X125369129Y-119840597D01*
X125376664Y-119833931D01*
X125397076Y-119797666D01*
X125401812Y-119764773D01*
X125401812Y-119720763D01*
X125340513Y-119720763D01*
X125269256Y-119724395D01*
X125219276Y-119735818D01*
X125187696Y-119755824D01*
X125180626Y-119764743D01*
X125168508Y-119798824D01*
X125044746Y-119798824D01*
X125046971Y-119759456D01*
X125069663Y-119702244D01*
X125100624Y-119663580D01*
X125119376Y-119646864D01*
X125137733Y-119635878D01*
X125161619Y-119629180D01*
X125196957Y-119625326D01*
X125249669Y-119622873D01*
X125270577Y-119622168D01*
X125401812Y-119617879D01*
X125401620Y-119578158D01*
X125396537Y-119536405D01*
X125378162Y-119511158D01*
X125341039Y-119495030D01*
X125340043Y-119494742D01*
X125287410Y-119488400D01*
X125235906Y-119496684D01*
X125197630Y-119516827D01*
X125182272Y-119526773D01*
X125165730Y-119525397D01*
X125140275Y-119510987D01*
X125125328Y-119500817D01*
X125096091Y-119479088D01*
X125077980Y-119462800D01*
X125075074Y-119458137D01*
X125087040Y-119434005D01*
X125122396Y-119405185D01*
X125137753Y-119395461D01*
X125181901Y-119378714D01*
X125241398Y-119369227D01*
X125307487Y-119367095D01*
X125371411Y-119372417D01*
G36*
X125968255Y-119368486D02*
X126016595Y-119378015D01*
X126044114Y-119392125D01*
X126073064Y-119415568D01*
X126031876Y-119467571D01*
X126006482Y-119499064D01*
X125989238Y-119514428D01*
X125972102Y-119516776D01*
X125947027Y-119509217D01*
X125935257Y-119504941D01*
X125887270Y-119498631D01*
X125843324Y-119512156D01*
X125811060Y-119542710D01*
X125805819Y-119552452D01*
X125800112Y-119578258D01*
X125795706Y-119625817D01*
X125792811Y-119691758D01*
X125791631Y-119772710D01*
X125791614Y-119784226D01*
X125791614Y-119984822D01*
X125653297Y-119984822D01*
X125653297Y-119368683D01*
X125722456Y-119368683D01*
X125762333Y-119369725D01*
X125783107Y-119374358D01*
X125790789Y-119384849D01*
X125791614Y-119394745D01*
X125791614Y-119420806D01*
X125824745Y-119394745D01*
X125862735Y-119376965D01*
X125913770Y-119368174D01*
X125968255Y-119368486D01*
X125968255Y-119368486D01*
G37*
X125968255Y-119368486D02*
X126016595Y-119378015D01*
X126044114Y-119392125D01*
X126073064Y-119415568D01*
X126031876Y-119467571D01*
X126006482Y-119499064D01*
X125989238Y-119514428D01*
X125972102Y-119516776D01*
X125947027Y-119509217D01*
X125935257Y-119504941D01*
X125887270Y-119498631D01*
X125843324Y-119512156D01*
X125811060Y-119542710D01*
X125805819Y-119552452D01*
X125800112Y-119578258D01*
X125795706Y-119625817D01*
X125792811Y-119691758D01*
X125791631Y-119772710D01*
X125791614Y-119784226D01*
X125791614Y-119984822D01*
X125653297Y-119984822D01*
X125653297Y-119368683D01*
X125722456Y-119368683D01*
X125762333Y-119369725D01*
X125783107Y-119374358D01*
X125790789Y-119384849D01*
X125791614Y-119394745D01*
X125791614Y-119420806D01*
X125824745Y-119394745D01*
X125862735Y-119376965D01*
X125913770Y-119368174D01*
X125968255Y-119368486D01*
G36*
X126365581Y-119371970D02*
X126425685Y-119387597D01*
X126476021Y-119419848D01*
X126500393Y-119443940D01*
X126540345Y-119500895D01*
X126563242Y-119566965D01*
X126571108Y-119648182D01*
X126571148Y-119654748D01*
X126571218Y-119720763D01*
X126191264Y-119720763D01*
X126199363Y-119755342D01*
X126213987Y-119786659D01*
X126239581Y-119819291D01*
X126244935Y-119824500D01*
X126290943Y-119852694D01*
X126343410Y-119857475D01*
X126403803Y-119838926D01*
X126414040Y-119833931D01*
X126445439Y-119818745D01*
X126466470Y-119810094D01*
X126470139Y-119809293D01*
X126482948Y-119817063D01*
X126507378Y-119836072D01*
X126519779Y-119846460D01*
X126545476Y-119870321D01*
X126553915Y-119886077D01*
X126548058Y-119900571D01*
X126544928Y-119904534D01*
X126523725Y-119921879D01*
X126488738Y-119942959D01*
X126464337Y-119955265D01*
X126395072Y-119976946D01*
X126318388Y-119983971D01*
X126245765Y-119975647D01*
X126225426Y-119969686D01*
X126162476Y-119935952D01*
X126115815Y-119884045D01*
X126085173Y-119813459D01*
X126070282Y-119723692D01*
X126068647Y-119676753D01*
X126073421Y-119608413D01*
X126193990Y-119608413D01*
X126205652Y-119613465D01*
X126236998Y-119617429D01*
X126282571Y-119619768D01*
X126313446Y-119620169D01*
X126368981Y-119619783D01*
X126404033Y-119617975D01*
X126423262Y-119613773D01*
X126431330Y-119606203D01*
X126432901Y-119595218D01*
X126422121Y-119561381D01*
X126394980Y-119527940D01*
X126359277Y-119502272D01*
X126323560Y-119491772D01*
X126275048Y-119501086D01*
X126233053Y-119528013D01*
X126203936Y-119566827D01*
X126193990Y-119608413D01*
X126073421Y-119608413D01*
X126075599Y-119577236D01*
X126097055Y-119497949D01*
X126133470Y-119438263D01*
X126185297Y-119397549D01*
X126252990Y-119375179D01*
X126289662Y-119370871D01*
X126365581Y-119371970D01*
X126365581Y-119371970D01*
G37*
X126365581Y-119371970D02*
X126425685Y-119387597D01*
X126476021Y-119419848D01*
X126500393Y-119443940D01*
X126540345Y-119500895D01*
X126563242Y-119566965D01*
X126571108Y-119648182D01*
X126571148Y-119654748D01*
X126571218Y-119720763D01*
X126191264Y-119720763D01*
X126199363Y-119755342D01*
X126213987Y-119786659D01*
X126239581Y-119819291D01*
X126244935Y-119824500D01*
X126290943Y-119852694D01*
X126343410Y-119857475D01*
X126403803Y-119838926D01*
X126414040Y-119833931D01*
X126445439Y-119818745D01*
X126466470Y-119810094D01*
X126470139Y-119809293D01*
X126482948Y-119817063D01*
X126507378Y-119836072D01*
X126519779Y-119846460D01*
X126545476Y-119870321D01*
X126553915Y-119886077D01*
X126548058Y-119900571D01*
X126544928Y-119904534D01*
X126523725Y-119921879D01*
X126488738Y-119942959D01*
X126464337Y-119955265D01*
X126395072Y-119976946D01*
X126318388Y-119983971D01*
X126245765Y-119975647D01*
X126225426Y-119969686D01*
X126162476Y-119935952D01*
X126115815Y-119884045D01*
X126085173Y-119813459D01*
X126070282Y-119723692D01*
X126068647Y-119676753D01*
X126073421Y-119608413D01*
X126193990Y-119608413D01*
X126205652Y-119613465D01*
X126236998Y-119617429D01*
X126282571Y-119619768D01*
X126313446Y-119620169D01*
X126368981Y-119619783D01*
X126404033Y-119617975D01*
X126423262Y-119613773D01*
X126431330Y-119606203D01*
X126432901Y-119595218D01*
X126422121Y-119561381D01*
X126394980Y-119527940D01*
X126359277Y-119502272D01*
X126323560Y-119491772D01*
X126275048Y-119501086D01*
X126233053Y-119528013D01*
X126203936Y-119566827D01*
X126193990Y-119608413D01*
X126073421Y-119608413D01*
X126075599Y-119577236D01*
X126097055Y-119497949D01*
X126133470Y-119438263D01*
X126185297Y-119397549D01*
X126252990Y-119375179D01*
X126289662Y-119370871D01*
X126365581Y-119371970D01*
G36*
X121794739Y-118432148D02*
X121860521Y-118461231D01*
X121910460Y-118509793D01*
X121944626Y-118577908D01*
X121963093Y-118665651D01*
X121964417Y-118679351D01*
X121965454Y-118775939D01*
X121952007Y-118860602D01*
X121924892Y-118929221D01*
X121910373Y-118951294D01*
X121859799Y-118998011D01*
X121795391Y-119028268D01*
X121723334Y-119040824D01*
X121649815Y-119034439D01*
X121593928Y-119014772D01*
X121545868Y-118981629D01*
X121506588Y-118938175D01*
X121505908Y-118937158D01*
X121489956Y-118910338D01*
X121479590Y-118883368D01*
X121473312Y-118849332D01*
X121469627Y-118801310D01*
X121468003Y-118761931D01*
X121467328Y-118726219D01*
X121593045Y-118726219D01*
X121594274Y-118761770D01*
X121598734Y-118809094D01*
X121606603Y-118839465D01*
X121620793Y-118861072D01*
X121634083Y-118873694D01*
X121681198Y-118900122D01*
X121730495Y-118903653D01*
X121776407Y-118884639D01*
X121799362Y-118863331D01*
X121815904Y-118841859D01*
X121825579Y-118821313D01*
X121829826Y-118794574D01*
X121830080Y-118754523D01*
X121828772Y-118717638D01*
X121825957Y-118664947D01*
X121821495Y-118630772D01*
X121813452Y-118608480D01*
X121799897Y-118591442D01*
X121789155Y-118581703D01*
X121744223Y-118556123D01*
X121695751Y-118554847D01*
X121655106Y-118569999D01*
X121620433Y-118601642D01*
X121599776Y-118653620D01*
X121593045Y-118726219D01*
X121467328Y-118726219D01*
X121466521Y-118683621D01*
X121469052Y-118625056D01*
X121476638Y-118581007D01*
X121490319Y-118546248D01*
X121511135Y-118515551D01*
X121518853Y-118506436D01*
X121567111Y-118461021D01*
X121618872Y-118434493D01*
X121682172Y-118423379D01*
X121713039Y-118422471D01*
X121794739Y-118432148D01*
X121794739Y-118432148D01*
G37*
X121794739Y-118432148D02*
X121860521Y-118461231D01*
X121910460Y-118509793D01*
X121944626Y-118577908D01*
X121963093Y-118665651D01*
X121964417Y-118679351D01*
X121965454Y-118775939D01*
X121952007Y-118860602D01*
X121924892Y-118929221D01*
X121910373Y-118951294D01*
X121859799Y-118998011D01*
X121795391Y-119028268D01*
X121723334Y-119040824D01*
X121649815Y-119034439D01*
X121593928Y-119014772D01*
X121545868Y-118981629D01*
X121506588Y-118938175D01*
X121505908Y-118937158D01*
X121489956Y-118910338D01*
X121479590Y-118883368D01*
X121473312Y-118849332D01*
X121469627Y-118801310D01*
X121468003Y-118761931D01*
X121467328Y-118726219D01*
X121593045Y-118726219D01*
X121594274Y-118761770D01*
X121598734Y-118809094D01*
X121606603Y-118839465D01*
X121620793Y-118861072D01*
X121634083Y-118873694D01*
X121681198Y-118900122D01*
X121730495Y-118903653D01*
X121776407Y-118884639D01*
X121799362Y-118863331D01*
X121815904Y-118841859D01*
X121825579Y-118821313D01*
X121829826Y-118794574D01*
X121830080Y-118754523D01*
X121828772Y-118717638D01*
X121825957Y-118664947D01*
X121821495Y-118630772D01*
X121813452Y-118608480D01*
X121799897Y-118591442D01*
X121789155Y-118581703D01*
X121744223Y-118556123D01*
X121695751Y-118554847D01*
X121655106Y-118569999D01*
X121620433Y-118601642D01*
X121599776Y-118653620D01*
X121593045Y-118726219D01*
X121467328Y-118726219D01*
X121466521Y-118683621D01*
X121469052Y-118625056D01*
X121476638Y-118581007D01*
X121490319Y-118546248D01*
X121511135Y-118515551D01*
X121518853Y-118506436D01*
X121567111Y-118461021D01*
X121618872Y-118434493D01*
X121682172Y-118423379D01*
X121713039Y-118422471D01*
X121794739Y-118432148D01*
G36*
X122976301Y-118439614D02*
X122988832Y-118445514D01*
X123032201Y-118477283D01*
X123073210Y-118523646D01*
X123103832Y-118574696D01*
X123112541Y-118598166D01*
X123120488Y-118640091D01*
X123125226Y-118690757D01*
X123125801Y-118711679D01*
X123125871Y-118777693D01*
X122745917Y-118777693D01*
X122754017Y-118812273D01*
X122773896Y-118853170D01*
X122808653Y-118888514D01*
X122850002Y-118911282D01*
X122876351Y-118916010D01*
X122912084Y-118910273D01*
X122954718Y-118895882D01*
X122969201Y-118889262D01*
X123022760Y-118862513D01*
X123068467Y-118897376D01*
X123094842Y-118920955D01*
X123108876Y-118940417D01*
X123109586Y-118946129D01*
X123097049Y-118959973D01*
X123069572Y-118981012D01*
X123044634Y-118997425D01*
X122977336Y-119026930D01*
X122901890Y-119040284D01*
X122827112Y-119036812D01*
X122767505Y-119018663D01*
X122706059Y-118979784D01*
X122662392Y-118928595D01*
X122635074Y-118862367D01*
X122622678Y-118778371D01*
X122621579Y-118739936D01*
X122625978Y-118651861D01*
X122626518Y-118649299D01*
X122752418Y-118649299D01*
X122755885Y-118657558D01*
X122770137Y-118662113D01*
X122799530Y-118664065D01*
X122848425Y-118664517D01*
X122867252Y-118664525D01*
X122924533Y-118663843D01*
X122960859Y-118661364D01*
X122980396Y-118656443D01*
X122987310Y-118648434D01*
X122987555Y-118645862D01*
X122979664Y-118625423D01*
X122959915Y-118596789D01*
X122951425Y-118586763D01*
X122919906Y-118558408D01*
X122887051Y-118547259D01*
X122869349Y-118546327D01*
X122821461Y-118557981D01*
X122781301Y-118589285D01*
X122755827Y-118634752D01*
X122755375Y-118636233D01*
X122752418Y-118649299D01*
X122626518Y-118649299D01*
X122640608Y-118582510D01*
X122666962Y-118527025D01*
X122699193Y-118487639D01*
X122758783Y-118444931D01*
X122828832Y-118422109D01*
X122903339Y-118420046D01*
X122976301Y-118439614D01*
X122976301Y-118439614D01*
G37*
X122976301Y-118439614D02*
X122988832Y-118445514D01*
X123032201Y-118477283D01*
X123073210Y-118523646D01*
X123103832Y-118574696D01*
X123112541Y-118598166D01*
X123120488Y-118640091D01*
X123125226Y-118690757D01*
X123125801Y-118711679D01*
X123125871Y-118777693D01*
X122745917Y-118777693D01*
X122754017Y-118812273D01*
X122773896Y-118853170D01*
X122808653Y-118888514D01*
X122850002Y-118911282D01*
X122876351Y-118916010D01*
X122912084Y-118910273D01*
X122954718Y-118895882D01*
X122969201Y-118889262D01*
X123022760Y-118862513D01*
X123068467Y-118897376D01*
X123094842Y-118920955D01*
X123108876Y-118940417D01*
X123109586Y-118946129D01*
X123097049Y-118959973D01*
X123069572Y-118981012D01*
X123044634Y-118997425D01*
X122977336Y-119026930D01*
X122901890Y-119040284D01*
X122827112Y-119036812D01*
X122767505Y-119018663D01*
X122706059Y-118979784D01*
X122662392Y-118928595D01*
X122635074Y-118862367D01*
X122622678Y-118778371D01*
X122621579Y-118739936D01*
X122625978Y-118651861D01*
X122626518Y-118649299D01*
X122752418Y-118649299D01*
X122755885Y-118657558D01*
X122770137Y-118662113D01*
X122799530Y-118664065D01*
X122848425Y-118664517D01*
X122867252Y-118664525D01*
X122924533Y-118663843D01*
X122960859Y-118661364D01*
X122980396Y-118656443D01*
X122987310Y-118648434D01*
X122987555Y-118645862D01*
X122979664Y-118625423D01*
X122959915Y-118596789D01*
X122951425Y-118586763D01*
X122919906Y-118558408D01*
X122887051Y-118547259D01*
X122869349Y-118546327D01*
X122821461Y-118557981D01*
X122781301Y-118589285D01*
X122755827Y-118634752D01*
X122755375Y-118636233D01*
X122752418Y-118649299D01*
X122626518Y-118649299D01*
X122640608Y-118582510D01*
X122666962Y-118527025D01*
X122699193Y-118487639D01*
X122758783Y-118444931D01*
X122828832Y-118422109D01*
X122903339Y-118420046D01*
X122976301Y-118439614D01*
G36*
X124347017Y-118423452D02*
X124394634Y-118432482D01*
X124444034Y-118451370D01*
X124449312Y-118453777D01*
X124486774Y-118473476D01*
X124512717Y-118491781D01*
X124521103Y-118503508D01*
X124513117Y-118522632D01*
X124493720Y-118550850D01*
X124485110Y-118561384D01*
X124449628Y-118602847D01*
X124403885Y-118575858D01*
X124360350Y-118557878D01*
X124310050Y-118548267D01*
X124261812Y-118547660D01*
X124224467Y-118556691D01*
X124215505Y-118562327D01*
X124198437Y-118588171D01*
X124196363Y-118617941D01*
X124209134Y-118641197D01*
X124216688Y-118645708D01*
X124239325Y-118651309D01*
X124279115Y-118657892D01*
X124328166Y-118664183D01*
X124337215Y-118665170D01*
X124415996Y-118678798D01*
X124473136Y-118701946D01*
X124511030Y-118736752D01*
X124532079Y-118785354D01*
X124538635Y-118844718D01*
X124529577Y-118912198D01*
X124500164Y-118965188D01*
X124450278Y-119003783D01*
X124379800Y-119028081D01*
X124301565Y-119037667D01*
X124237766Y-119037552D01*
X124186016Y-119028845D01*
X124150673Y-119016825D01*
X124106017Y-118995880D01*
X124064747Y-118971574D01*
X124050079Y-118960876D01*
X124012357Y-118930084D01*
X124057852Y-118884049D01*
X124103347Y-118838013D01*
X124155072Y-118872243D01*
X124206952Y-118897952D01*
X124262351Y-118911399D01*
X124315605Y-118912818D01*
X124361049Y-118902443D01*
X124393016Y-118880507D01*
X124403338Y-118861998D01*
X124401789Y-118832314D01*
X124376140Y-118809615D01*
X124326460Y-118793940D01*
X124272031Y-118786695D01*
X124188264Y-118772873D01*
X124126033Y-118746796D01*
X124084507Y-118707699D01*
X124062853Y-118654820D01*
X124059853Y-118592126D01*
X124074671Y-118526642D01*
X124108454Y-118477144D01*
X124161505Y-118443408D01*
X124234126Y-118425207D01*
X124287928Y-118421639D01*
X124347017Y-118423452D01*
X124347017Y-118423452D01*
G37*
X124347017Y-118423452D02*
X124394634Y-118432482D01*
X124444034Y-118451370D01*
X124449312Y-118453777D01*
X124486774Y-118473476D01*
X124512717Y-118491781D01*
X124521103Y-118503508D01*
X124513117Y-118522632D01*
X124493720Y-118550850D01*
X124485110Y-118561384D01*
X124449628Y-118602847D01*
X124403885Y-118575858D01*
X124360350Y-118557878D01*
X124310050Y-118548267D01*
X124261812Y-118547660D01*
X124224467Y-118556691D01*
X124215505Y-118562327D01*
X124198437Y-118588171D01*
X124196363Y-118617941D01*
X124209134Y-118641197D01*
X124216688Y-118645708D01*
X124239325Y-118651309D01*
X124279115Y-118657892D01*
X124328166Y-118664183D01*
X124337215Y-118665170D01*
X124415996Y-118678798D01*
X124473136Y-118701946D01*
X124511030Y-118736752D01*
X124532079Y-118785354D01*
X124538635Y-118844718D01*
X124529577Y-118912198D01*
X124500164Y-118965188D01*
X124450278Y-119003783D01*
X124379800Y-119028081D01*
X124301565Y-119037667D01*
X124237766Y-119037552D01*
X124186016Y-119028845D01*
X124150673Y-119016825D01*
X124106017Y-118995880D01*
X124064747Y-118971574D01*
X124050079Y-118960876D01*
X124012357Y-118930084D01*
X124057852Y-118884049D01*
X124103347Y-118838013D01*
X124155072Y-118872243D01*
X124206952Y-118897952D01*
X124262351Y-118911399D01*
X124315605Y-118912818D01*
X124361049Y-118902443D01*
X124393016Y-118880507D01*
X124403338Y-118861998D01*
X124401789Y-118832314D01*
X124376140Y-118809615D01*
X124326460Y-118793940D01*
X124272031Y-118786695D01*
X124188264Y-118772873D01*
X124126033Y-118746796D01*
X124084507Y-118707699D01*
X124062853Y-118654820D01*
X124059853Y-118592126D01*
X124074671Y-118526642D01*
X124108454Y-118477144D01*
X124161505Y-118443408D01*
X124234126Y-118425207D01*
X124287928Y-118421639D01*
X124347017Y-118423452D01*
G36*
X124943762Y-118433055D02*
X125007363Y-118467692D01*
X125057123Y-118522372D01*
X125080568Y-118566842D01*
X125090634Y-118606121D01*
X125097156Y-118662116D01*
X125099951Y-118726621D01*
X125098836Y-118791429D01*
X125093626Y-118848334D01*
X125087541Y-118878727D01*
X125067014Y-118920306D01*
X125031463Y-118964468D01*
X124988619Y-119003087D01*
X124946211Y-119028034D01*
X124945177Y-119028430D01*
X124892553Y-119039331D01*
X124830188Y-119039601D01*
X124770924Y-119029676D01*
X124748040Y-119021722D01*
X124689102Y-118988300D01*
X124646890Y-118944511D01*
X124619156Y-118886538D01*
X124603651Y-118810565D01*
X124600143Y-118770771D01*
X124600590Y-118720766D01*
X124735376Y-118720766D01*
X124739917Y-118793732D01*
X124752986Y-118849334D01*
X124773756Y-118884861D01*
X124788552Y-118895020D01*
X124826464Y-118902104D01*
X124871527Y-118900007D01*
X124910487Y-118889812D01*
X124920704Y-118884204D01*
X124947659Y-118851538D01*
X124965451Y-118801545D01*
X124973024Y-118740705D01*
X124969325Y-118675497D01*
X124961057Y-118636253D01*
X124937320Y-118590805D01*
X124899849Y-118562396D01*
X124854720Y-118552573D01*
X124808011Y-118562887D01*
X124772132Y-118588112D01*
X124753277Y-118608925D01*
X124742272Y-118629439D01*
X124737026Y-118657203D01*
X124735449Y-118699762D01*
X124735376Y-118720766D01*
X124600590Y-118720766D01*
X124601094Y-118664580D01*
X124618388Y-118577501D01*
X124652029Y-118509530D01*
X124702018Y-118460664D01*
X124768356Y-118430899D01*
X124782601Y-118427448D01*
X124868210Y-118419345D01*
X124943762Y-118433055D01*
X124943762Y-118433055D01*
G37*
X124943762Y-118433055D02*
X125007363Y-118467692D01*
X125057123Y-118522372D01*
X125080568Y-118566842D01*
X125090634Y-118606121D01*
X125097156Y-118662116D01*
X125099951Y-118726621D01*
X125098836Y-118791429D01*
X125093626Y-118848334D01*
X125087541Y-118878727D01*
X125067014Y-118920306D01*
X125031463Y-118964468D01*
X124988619Y-119003087D01*
X124946211Y-119028034D01*
X124945177Y-119028430D01*
X124892553Y-119039331D01*
X124830188Y-119039601D01*
X124770924Y-119029676D01*
X124748040Y-119021722D01*
X124689102Y-118988300D01*
X124646890Y-118944511D01*
X124619156Y-118886538D01*
X124603651Y-118810565D01*
X124600143Y-118770771D01*
X124600590Y-118720766D01*
X124735376Y-118720766D01*
X124739917Y-118793732D01*
X124752986Y-118849334D01*
X124773756Y-118884861D01*
X124788552Y-118895020D01*
X124826464Y-118902104D01*
X124871527Y-118900007D01*
X124910487Y-118889812D01*
X124920704Y-118884204D01*
X124947659Y-118851538D01*
X124965451Y-118801545D01*
X124973024Y-118740705D01*
X124969325Y-118675497D01*
X124961057Y-118636253D01*
X124937320Y-118590805D01*
X124899849Y-118562396D01*
X124854720Y-118552573D01*
X124808011Y-118562887D01*
X124772132Y-118588112D01*
X124753277Y-118608925D01*
X124742272Y-118629439D01*
X124737026Y-118657203D01*
X124735449Y-118699762D01*
X124735376Y-118720766D01*
X124600590Y-118720766D01*
X124601094Y-118664580D01*
X124618388Y-118577501D01*
X124652029Y-118509530D01*
X124702018Y-118460664D01*
X124768356Y-118430899D01*
X124782601Y-118427448D01*
X124868210Y-118419345D01*
X124943762Y-118433055D01*
G36*
X125326367Y-118621342D02*
X125327555Y-118713563D01*
X125331897Y-118783610D01*
X125340558Y-118834381D01*
X125354704Y-118868772D01*
X125375500Y-118889679D01*
X125404110Y-118900000D01*
X125439535Y-118902636D01*
X125476636Y-118899682D01*
X125504818Y-118888889D01*
X125525243Y-118867360D01*
X125539079Y-118832199D01*
X125547491Y-118780510D01*
X125551643Y-118709394D01*
X125552703Y-118621342D01*
X125552703Y-118425614D01*
X125691020Y-118425614D01*
X125691020Y-119029179D01*
X125621862Y-119029179D01*
X125580170Y-119027489D01*
X125558701Y-119021556D01*
X125552703Y-119010293D01*
X125549091Y-119000261D01*
X125534714Y-119002383D01*
X125505736Y-119016580D01*
X125439319Y-119038480D01*
X125368875Y-119036928D01*
X125301377Y-119013147D01*
X125269233Y-118994362D01*
X125244715Y-118974022D01*
X125226804Y-118948573D01*
X125214479Y-118914458D01*
X125206723Y-118868121D01*
X125202516Y-118806007D01*
X125200840Y-118724561D01*
X125200624Y-118661578D01*
X125200624Y-118425614D01*
X125326367Y-118425614D01*
X125326367Y-118621342D01*
X125326367Y-118621342D01*
G37*
X125326367Y-118621342D02*
X125327555Y-118713563D01*
X125331897Y-118783610D01*
X125340558Y-118834381D01*
X125354704Y-118868772D01*
X125375500Y-118889679D01*
X125404110Y-118900000D01*
X125439535Y-118902636D01*
X125476636Y-118899682D01*
X125504818Y-118888889D01*
X125525243Y-118867360D01*
X125539079Y-118832199D01*
X125547491Y-118780510D01*
X125551643Y-118709394D01*
X125552703Y-118621342D01*
X125552703Y-118425614D01*
X125691020Y-118425614D01*
X125691020Y-119029179D01*
X125621862Y-119029179D01*
X125580170Y-119027489D01*
X125558701Y-119021556D01*
X125552703Y-119010293D01*
X125549091Y-119000261D01*
X125534714Y-119002383D01*
X125505736Y-119016580D01*
X125439319Y-119038480D01*
X125368875Y-119036928D01*
X125301377Y-119013147D01*
X125269233Y-118994362D01*
X125244715Y-118974022D01*
X125226804Y-118948573D01*
X125214479Y-118914458D01*
X125206723Y-118868121D01*
X125202516Y-118806007D01*
X125200840Y-118724561D01*
X125200624Y-118661578D01*
X125200624Y-118425614D01*
X125326367Y-118425614D01*
X125326367Y-118621342D01*
G36*
X126550226Y-118430880D02*
X126623080Y-118461830D01*
X126646027Y-118476895D01*
X126675354Y-118500048D01*
X126693764Y-118518253D01*
X126696961Y-118524183D01*
X126687935Y-118537340D01*
X126664837Y-118559667D01*
X126646344Y-118575250D01*
X126595728Y-118615926D01*
X126555760Y-118582295D01*
X126524874Y-118560584D01*
X126494759Y-118553090D01*
X126460292Y-118554920D01*
X126405561Y-118568528D01*
X126367886Y-118596772D01*
X126344991Y-118642433D01*
X126334597Y-118708289D01*
X126334595Y-118708331D01*
X126335494Y-118781939D01*
X126349463Y-118835946D01*
X126377328Y-118872716D01*
X126396325Y-118885168D01*
X126446776Y-118900673D01*
X126500663Y-118900683D01*
X126547546Y-118885638D01*
X126558644Y-118878287D01*
X126586476Y-118859511D01*
X126608236Y-118856434D01*
X126631704Y-118870409D01*
X126657649Y-118895510D01*
X126698716Y-118937880D01*
X126653121Y-118975464D01*
X126582674Y-119017882D01*
X126503233Y-119038785D01*
X126420215Y-119037272D01*
X126365694Y-119023411D01*
X126301970Y-118989135D01*
X126251005Y-118935212D01*
X126227851Y-118897149D01*
X126209099Y-118842536D01*
X126199715Y-118773369D01*
X126199643Y-118698407D01*
X126208824Y-118626409D01*
X126227199Y-118566137D01*
X126230093Y-118559958D01*
X126272952Y-118499351D01*
X126330979Y-118455224D01*
X126399591Y-118428493D01*
X126474201Y-118420073D01*
X126550226Y-118430880D01*
X126550226Y-118430880D01*
G37*
X126550226Y-118430880D02*
X126623080Y-118461830D01*
X126646027Y-118476895D01*
X126675354Y-118500048D01*
X126693764Y-118518253D01*
X126696961Y-118524183D01*
X126687935Y-118537340D01*
X126664837Y-118559667D01*
X126646344Y-118575250D01*
X126595728Y-118615926D01*
X126555760Y-118582295D01*
X126524874Y-118560584D01*
X126494759Y-118553090D01*
X126460292Y-118554920D01*
X126405561Y-118568528D01*
X126367886Y-118596772D01*
X126344991Y-118642433D01*
X126334597Y-118708289D01*
X126334595Y-118708331D01*
X126335494Y-118781939D01*
X126349463Y-118835946D01*
X126377328Y-118872716D01*
X126396325Y-118885168D01*
X126446776Y-118900673D01*
X126500663Y-118900683D01*
X126547546Y-118885638D01*
X126558644Y-118878287D01*
X126586476Y-118859511D01*
X126608236Y-118856434D01*
X126631704Y-118870409D01*
X126657649Y-118895510D01*
X126698716Y-118937880D01*
X126653121Y-118975464D01*
X126582674Y-119017882D01*
X126503233Y-119038785D01*
X126420215Y-119037272D01*
X126365694Y-119023411D01*
X126301970Y-118989135D01*
X126251005Y-118935212D01*
X126227851Y-118897149D01*
X126209099Y-118842536D01*
X126199715Y-118773369D01*
X126199643Y-118698407D01*
X126208824Y-118626409D01*
X126227199Y-118566137D01*
X126230093Y-118559958D01*
X126272952Y-118499351D01*
X126330979Y-118455224D01*
X126399591Y-118428493D01*
X126474201Y-118420073D01*
X126550226Y-118430880D01*
G36*
X127010898Y-118423457D02*
X127043096Y-118431279D01*
X127104825Y-118459921D01*
X127157610Y-118503667D01*
X127194141Y-118556117D01*
X127199160Y-118567893D01*
X127206045Y-118598740D01*
X127210864Y-118644371D01*
X127212505Y-118690492D01*
X127212505Y-118777693D01*
X127030178Y-118777693D01*
X126954979Y-118777978D01*
X126902003Y-118779704D01*
X126868325Y-118784181D01*
X126851020Y-118792720D01*
X126847163Y-118806630D01*
X126853829Y-118827222D01*
X126865770Y-118851315D01*
X126899080Y-118891525D01*
X126945368Y-118911558D01*
X127001944Y-118910905D01*
X127066031Y-118889101D01*
X127121417Y-118862193D01*
X127167375Y-118898532D01*
X127213333Y-118934872D01*
X127170096Y-118974819D01*
X127112374Y-119012563D01*
X127041386Y-119035320D01*
X126965029Y-119041688D01*
X126891199Y-119030268D01*
X126879287Y-119026393D01*
X126814399Y-118992506D01*
X126766130Y-118941986D01*
X126733465Y-118873325D01*
X126715385Y-118785014D01*
X126715175Y-118783121D01*
X126713556Y-118686878D01*
X126720100Y-118652542D01*
X126847852Y-118652542D01*
X126859584Y-118657822D01*
X126891438Y-118661867D01*
X126938397Y-118664176D01*
X126968154Y-118664525D01*
X127023648Y-118664306D01*
X127058346Y-118662916D01*
X127076601Y-118659251D01*
X127082766Y-118652210D01*
X127081195Y-118640690D01*
X127079878Y-118636233D01*
X127057382Y-118594355D01*
X127022003Y-118560604D01*
X126990780Y-118545773D01*
X126949301Y-118546668D01*
X126907269Y-118565164D01*
X126872012Y-118595786D01*
X126850854Y-118633062D01*
X126847852Y-118652542D01*
X126720100Y-118652542D01*
X126729690Y-118602229D01*
X126761698Y-118531191D01*
X126807701Y-118475779D01*
X126865821Y-118438009D01*
X126934180Y-118419896D01*
X127010898Y-118423457D01*
X127010898Y-118423457D01*
G37*
X127010898Y-118423457D02*
X127043096Y-118431279D01*
X127104825Y-118459921D01*
X127157610Y-118503667D01*
X127194141Y-118556117D01*
X127199160Y-118567893D01*
X127206045Y-118598740D01*
X127210864Y-118644371D01*
X127212505Y-118690492D01*
X127212505Y-118777693D01*
X127030178Y-118777693D01*
X126954979Y-118777978D01*
X126902003Y-118779704D01*
X126868325Y-118784181D01*
X126851020Y-118792720D01*
X126847163Y-118806630D01*
X126853829Y-118827222D01*
X126865770Y-118851315D01*
X126899080Y-118891525D01*
X126945368Y-118911558D01*
X127001944Y-118910905D01*
X127066031Y-118889101D01*
X127121417Y-118862193D01*
X127167375Y-118898532D01*
X127213333Y-118934872D01*
X127170096Y-118974819D01*
X127112374Y-119012563D01*
X127041386Y-119035320D01*
X126965029Y-119041688D01*
X126891199Y-119030268D01*
X126879287Y-119026393D01*
X126814399Y-118992506D01*
X126766130Y-118941986D01*
X126733465Y-118873325D01*
X126715385Y-118785014D01*
X126715175Y-118783121D01*
X126713556Y-118686878D01*
X126720100Y-118652542D01*
X126847852Y-118652542D01*
X126859584Y-118657822D01*
X126891438Y-118661867D01*
X126938397Y-118664176D01*
X126968154Y-118664525D01*
X127023648Y-118664306D01*
X127058346Y-118662916D01*
X127076601Y-118659251D01*
X127082766Y-118652210D01*
X127081195Y-118640690D01*
X127079878Y-118636233D01*
X127057382Y-118594355D01*
X127022003Y-118560604D01*
X126990780Y-118545773D01*
X126949301Y-118546668D01*
X126907269Y-118565164D01*
X126872012Y-118595786D01*
X126850854Y-118633062D01*
X126847852Y-118652542D01*
X126720100Y-118652542D01*
X126729690Y-118602229D01*
X126761698Y-118531191D01*
X126807701Y-118475779D01*
X126865821Y-118438009D01*
X126934180Y-118419896D01*
X127010898Y-118423457D01*
G36*
X123578988Y-118436002D02*
X123610283Y-118450950D01*
X123640591Y-118472541D01*
X123663682Y-118497391D01*
X123680500Y-118529087D01*
X123691994Y-118571214D01*
X123699109Y-118627358D01*
X123702793Y-118701106D01*
X123703992Y-118796044D01*
X123704011Y-118805985D01*
X123704287Y-119029179D01*
X123565970Y-119029179D01*
X123565970Y-118823418D01*
X123565872Y-118747189D01*
X123565191Y-118691939D01*
X123563349Y-118653501D01*
X123559767Y-118627706D01*
X123553868Y-118610384D01*
X123545073Y-118597368D01*
X123532820Y-118584507D01*
X123489953Y-118556873D01*
X123443157Y-118551745D01*
X123398576Y-118569217D01*
X123383072Y-118582221D01*
X123371690Y-118594447D01*
X123363519Y-118607540D01*
X123358026Y-118625615D01*
X123354680Y-118652787D01*
X123352949Y-118693170D01*
X123352303Y-118750879D01*
X123352208Y-118821132D01*
X123352208Y-119029179D01*
X123213891Y-119029179D01*
X123213891Y-118425614D01*
X123283050Y-118425614D01*
X123324572Y-118427256D01*
X123345994Y-118433087D01*
X123352205Y-118444461D01*
X123352208Y-118444798D01*
X123355090Y-118455938D01*
X123367801Y-118454674D01*
X123393074Y-118442434D01*
X123450395Y-118424424D01*
X123515963Y-118422421D01*
X123578988Y-118436002D01*
X123578988Y-118436002D01*
G37*
X123578988Y-118436002D02*
X123610283Y-118450950D01*
X123640591Y-118472541D01*
X123663682Y-118497391D01*
X123680500Y-118529087D01*
X123691994Y-118571214D01*
X123699109Y-118627358D01*
X123702793Y-118701106D01*
X123703992Y-118796044D01*
X123704011Y-118805985D01*
X123704287Y-119029179D01*
X123565970Y-119029179D01*
X123565970Y-118823418D01*
X123565872Y-118747189D01*
X123565191Y-118691939D01*
X123563349Y-118653501D01*
X123559767Y-118627706D01*
X123553868Y-118610384D01*
X123545073Y-118597368D01*
X123532820Y-118584507D01*
X123489953Y-118556873D01*
X123443157Y-118551745D01*
X123398576Y-118569217D01*
X123383072Y-118582221D01*
X123371690Y-118594447D01*
X123363519Y-118607540D01*
X123358026Y-118625615D01*
X123354680Y-118652787D01*
X123352949Y-118693170D01*
X123352303Y-118750879D01*
X123352208Y-118821132D01*
X123352208Y-119029179D01*
X123213891Y-119029179D01*
X123213891Y-118425614D01*
X123283050Y-118425614D01*
X123324572Y-118427256D01*
X123345994Y-118433087D01*
X123352205Y-118444461D01*
X123352208Y-118444798D01*
X123355090Y-118455938D01*
X123367801Y-118454674D01*
X123393074Y-118442434D01*
X123450395Y-118424424D01*
X123515963Y-118422421D01*
X123578988Y-118436002D01*
G36*
X126132460Y-118425030D02*
X126175711Y-118438245D01*
X126203558Y-118454941D01*
X126212629Y-118468145D01*
X126210132Y-118483797D01*
X126193931Y-118508385D01*
X126180232Y-118525800D01*
X126151992Y-118557283D01*
X126130775Y-118570529D01*
X126112688Y-118569664D01*
X126059035Y-118556010D01*
X126019630Y-118556630D01*
X125987632Y-118572104D01*
X125976890Y-118581161D01*
X125942505Y-118613027D01*
X125942505Y-119029179D01*
X125804188Y-119029179D01*
X125804188Y-118425614D01*
X125873347Y-118425614D01*
X125914869Y-118427256D01*
X125936291Y-118433087D01*
X125942502Y-118444461D01*
X125942505Y-118444798D01*
X125945439Y-118456713D01*
X125958704Y-118455159D01*
X125977084Y-118446563D01*
X126015046Y-118430568D01*
X126045872Y-118420945D01*
X126085536Y-118418478D01*
X126132460Y-118425030D01*
X126132460Y-118425030D01*
G37*
X126132460Y-118425030D02*
X126175711Y-118438245D01*
X126203558Y-118454941D01*
X126212629Y-118468145D01*
X126210132Y-118483797D01*
X126193931Y-118508385D01*
X126180232Y-118525800D01*
X126151992Y-118557283D01*
X126130775Y-118570529D01*
X126112688Y-118569664D01*
X126059035Y-118556010D01*
X126019630Y-118556630D01*
X125987632Y-118572104D01*
X125976890Y-118581161D01*
X125942505Y-118613027D01*
X125942505Y-119029179D01*
X125804188Y-119029179D01*
X125804188Y-118425614D01*
X125873347Y-118425614D01*
X125914869Y-118427256D01*
X125936291Y-118433087D01*
X125942502Y-118444461D01*
X125942505Y-118444798D01*
X125945439Y-118456713D01*
X125958704Y-118455159D01*
X125977084Y-118446563D01*
X126015046Y-118430568D01*
X126045872Y-118420945D01*
X126085536Y-118418478D01*
X126132460Y-118425030D01*
G36*
X124709964Y-114257018D02*
X124766812Y-114558570D01*
X125186338Y-114731512D01*
X125437984Y-114560395D01*
X125508458Y-114512750D01*
X125572163Y-114470210D01*
X125626126Y-114434715D01*
X125667373Y-114408210D01*
X125692934Y-114392636D01*
X125699895Y-114389278D01*
X125712435Y-114397914D01*
X125739231Y-114421792D01*
X125777280Y-114457859D01*
X125823579Y-114503067D01*
X125875123Y-114554364D01*
X125928909Y-114608701D01*
X125981935Y-114663028D01*
X126031195Y-114714295D01*
X126073687Y-114759451D01*
X126106407Y-114795446D01*
X126126351Y-114819230D01*
X126131119Y-114827190D01*
X126124257Y-114841865D01*
X126105020Y-114874014D01*
X126075430Y-114920492D01*
X126037510Y-114978156D01*
X125993282Y-115043860D01*
X125967654Y-115081336D01*
X125920941Y-115149768D01*
X125879432Y-115211520D01*
X125845140Y-115263519D01*
X125820080Y-115302692D01*
X125806264Y-115325965D01*
X125804188Y-115330855D01*
X125808895Y-115344755D01*
X125821723Y-115377150D01*
X125840738Y-115423485D01*
X125864003Y-115479206D01*
X125889584Y-115539758D01*
X125915545Y-115600586D01*
X125939950Y-115657136D01*
X125960863Y-115704852D01*
X125976349Y-115739181D01*
X125984472Y-115755568D01*
X125984952Y-115756212D01*
X125997707Y-115759341D01*
X126031677Y-115766321D01*
X126083340Y-115776467D01*
X126149176Y-115789092D01*
X126225664Y-115803509D01*
X126270290Y-115811823D01*
X126352021Y-115827384D01*
X126425843Y-115842192D01*
X126488021Y-115855436D01*
X126534822Y-115866305D01*
X126562509Y-115873989D01*
X126568074Y-115876427D01*
X126573526Y-115892930D01*
X126577924Y-115930200D01*
X126581272Y-115983880D01*
X126583574Y-116049612D01*
X126584832Y-116123037D01*
X126585048Y-116199796D01*
X126584227Y-116275532D01*
X126582371Y-116345886D01*
X126579482Y-116406500D01*
X126575565Y-116453016D01*
X126570622Y-116481075D01*
X126567657Y-116486916D01*
X126549934Y-116493917D01*
X126512381Y-116503927D01*
X126459964Y-116515769D01*
X126397652Y-116528267D01*
X126375900Y-116532310D01*
X126271024Y-116551520D01*
X126188180Y-116566991D01*
X126124630Y-116579337D01*
X126077637Y-116589173D01*
X126044463Y-116597114D01*
X126022371Y-116603776D01*
X126008624Y-116609773D01*
X126000484Y-116615719D01*
X125999345Y-116616894D01*
X125987977Y-116635826D01*
X125970635Y-116672669D01*
X125949050Y-116722913D01*
X125924954Y-116782046D01*
X125900079Y-116845556D01*
X125876157Y-116908932D01*
X125854919Y-116967662D01*
X125838097Y-117017235D01*
X125827422Y-117053139D01*
X125824627Y-117070862D01*
X125824860Y-117071483D01*
X125834331Y-117085970D01*
X125855818Y-117117844D01*
X125887063Y-117163789D01*
X125925807Y-117220485D01*
X125969793Y-117284617D01*
X125982319Y-117302842D01*
X126026984Y-117368914D01*
X126066288Y-117429200D01*
X126098088Y-117480235D01*
X126120245Y-117518560D01*
X126130617Y-117540711D01*
X126131119Y-117543432D01*
X126122405Y-117557736D01*
X126098325Y-117586072D01*
X126061976Y-117625396D01*
X126016453Y-117672661D01*
X125964852Y-117724823D01*
X125910267Y-117778835D01*
X125855794Y-117831653D01*
X125804529Y-117880231D01*
X125759567Y-117921523D01*
X125724004Y-117952485D01*
X125700935Y-117970070D01*
X125694554Y-117972941D01*
X125679699Y-117966178D01*
X125649286Y-117947939D01*
X125608268Y-117921297D01*
X125576709Y-117899852D01*
X125519525Y-117860503D01*
X125451806Y-117814171D01*
X125383880Y-117767913D01*
X125347361Y-117743155D01*
X125223752Y-117659547D01*
X125119991Y-117715650D01*
X125072720Y-117740228D01*
X125032523Y-117759331D01*
X125005326Y-117770227D01*
X124998402Y-117771743D01*
X124990077Y-117760549D01*
X124973654Y-117728917D01*
X124950357Y-117679765D01*
X124921414Y-117616010D01*
X124888050Y-117540571D01*
X124851491Y-117456364D01*
X124812964Y-117366308D01*
X124773694Y-117273321D01*
X124734908Y-117180320D01*
X124697830Y-117090223D01*
X124663689Y-117005948D01*
X124633708Y-116930413D01*
X124609116Y-116866534D01*
X124591136Y-116817231D01*
X124580997Y-116785421D01*
X124579366Y-116774496D01*
X124592291Y-116760561D01*
X124620589Y-116737940D01*
X124658346Y-116711333D01*
X124661515Y-116709228D01*
X124759100Y-116631114D01*
X124837786Y-116539982D01*
X124896891Y-116438745D01*
X124935732Y-116330318D01*
X124953628Y-116217614D01*
X124949897Y-116103548D01*
X124923857Y-115991034D01*
X124874825Y-115882985D01*
X124860400Y-115859345D01*
X124785369Y-115763887D01*
X124696730Y-115687232D01*
X124597549Y-115629780D01*
X124490895Y-115591929D01*
X124379836Y-115574078D01*
X124267439Y-115576625D01*
X124156773Y-115599970D01*
X124050906Y-115644510D01*
X123952905Y-115710645D01*
X123922590Y-115737487D01*
X123845438Y-115821512D01*
X123789218Y-115909966D01*
X123750653Y-116009115D01*
X123729174Y-116107303D01*
X123723872Y-116217697D01*
X123741552Y-116328640D01*
X123780419Y-116436381D01*
X123838677Y-116537169D01*
X123914531Y-116627256D01*
X124006183Y-116702892D01*
X124018228Y-116710864D01*
X124056389Y-116736974D01*
X124085399Y-116759595D01*
X124099268Y-116774039D01*
X124099469Y-116774496D01*
X124096492Y-116790121D01*
X124084689Y-116825582D01*
X124065286Y-116877962D01*
X124039512Y-116944345D01*
X124008591Y-117021814D01*
X123973751Y-117107450D01*
X123936217Y-117198337D01*
X123897217Y-117291559D01*
X123857977Y-117384197D01*
X123819724Y-117473335D01*
X123783683Y-117556055D01*
X123751083Y-117629441D01*
X123723148Y-117690575D01*
X123701105Y-117736541D01*
X123686182Y-117764421D01*
X123680172Y-117771743D01*
X123661809Y-117766041D01*
X123627448Y-117750749D01*
X123583016Y-117728599D01*
X123558583Y-117715650D01*
X123454822Y-117659547D01*
X123331213Y-117743155D01*
X123268114Y-117785987D01*
X123199030Y-117833122D01*
X123134293Y-117877503D01*
X123101866Y-117899852D01*
X123056259Y-117930477D01*
X123017640Y-117954747D01*
X122991048Y-117969587D01*
X122982410Y-117972724D01*
X122969839Y-117964261D01*
X122942016Y-117940636D01*
X122901639Y-117904302D01*
X122851405Y-117857711D01*
X122794012Y-117803317D01*
X122757714Y-117768392D01*
X122694210Y-117705996D01*
X122639327Y-117650188D01*
X122595286Y-117603354D01*
X122564305Y-117567882D01*
X122548602Y-117546161D01*
X122547095Y-117541752D01*
X122554086Y-117524985D01*
X122573406Y-117491082D01*
X122602909Y-117443476D01*
X122640455Y-117385599D01*
X122683900Y-117320884D01*
X122696255Y-117302842D01*
X122741273Y-117237267D01*
X122781660Y-117178228D01*
X122815160Y-117129042D01*
X122839514Y-117093028D01*
X122852464Y-117073502D01*
X122853715Y-117071483D01*
X122851844Y-117055922D01*
X122841913Y-117021709D01*
X122825653Y-116973355D01*
X122804795Y-116915371D01*
X122781073Y-116852270D01*
X122756216Y-116788563D01*
X122731958Y-116728761D01*
X122710029Y-116677376D01*
X122692162Y-116638919D01*
X122680087Y-116617902D01*
X122679229Y-116616894D01*
X122671846Y-116610888D01*
X122659375Y-116604948D01*
X122639080Y-116598460D01*
X122608222Y-116590809D01*
X122564066Y-116581380D01*
X122503874Y-116569559D01*
X122424907Y-116554729D01*
X122324430Y-116536277D01*
X122302675Y-116532310D01*
X122238198Y-116519853D01*
X122181989Y-116507666D01*
X122139013Y-116496926D01*
X122114240Y-116488809D01*
X122110918Y-116486916D01*
X122105444Y-116470138D01*
X122100994Y-116432645D01*
X122097572Y-116378794D01*
X122095181Y-116312944D01*
X122093823Y-116239453D01*
X122093501Y-116162680D01*
X122094219Y-116086983D01*
X122095979Y-116016720D01*
X122098784Y-115956250D01*
X122102638Y-115909930D01*
X122107543Y-115882119D01*
X122110500Y-115876427D01*
X122126963Y-115870686D01*
X122164449Y-115861345D01*
X122219225Y-115849215D01*
X122287555Y-115835107D01*
X122365706Y-115819830D01*
X122408284Y-115811823D01*
X122489071Y-115796721D01*
X122561113Y-115783040D01*
X122620889Y-115771467D01*
X122664879Y-115762687D01*
X122689561Y-115757387D01*
X122693623Y-115756212D01*
X122700489Y-115742965D01*
X122715002Y-115711057D01*
X122735229Y-115665047D01*
X122759234Y-115609492D01*
X122785082Y-115548953D01*
X122810840Y-115487986D01*
X122834573Y-115431151D01*
X122854346Y-115383006D01*
X122868224Y-115348110D01*
X122874274Y-115331021D01*
X122874386Y-115330274D01*
X122867528Y-115316793D01*
X122848302Y-115285770D01*
X122818728Y-115240289D01*
X122780827Y-115183432D01*
X122736620Y-115118283D01*
X122710921Y-115080862D01*
X122664093Y-115012247D01*
X122622501Y-114949952D01*
X122588175Y-114897129D01*
X122563143Y-114856927D01*
X122549435Y-114832500D01*
X122547456Y-114827024D01*
X122555966Y-114814278D01*
X122579493Y-114787063D01*
X122615032Y-114748428D01*
X122659577Y-114701423D01*
X122710123Y-114649095D01*
X122763664Y-114594495D01*
X122817195Y-114540670D01*
X122867711Y-114490670D01*
X122912206Y-114447543D01*
X122947675Y-114414339D01*
X122971113Y-114394106D01*
X122978954Y-114389278D01*
X122991720Y-114396067D01*
X123022256Y-114415142D01*
X123067590Y-114444561D01*
X123124756Y-114482381D01*
X123190784Y-114526661D01*
X123240590Y-114560395D01*
X123492236Y-114731512D01*
X123701999Y-114645041D01*
X123911763Y-114558570D01*
X123968611Y-114257018D01*
X124025460Y-113955466D01*
X124653115Y-113955466D01*
X124709964Y-114257018D01*
X124709964Y-114257018D01*
G37*
X124709964Y-114257018D02*
X124766812Y-114558570D01*
X125186338Y-114731512D01*
X125437984Y-114560395D01*
X125508458Y-114512750D01*
X125572163Y-114470210D01*
X125626126Y-114434715D01*
X125667373Y-114408210D01*
X125692934Y-114392636D01*
X125699895Y-114389278D01*
X125712435Y-114397914D01*
X125739231Y-114421792D01*
X125777280Y-114457859D01*
X125823579Y-114503067D01*
X125875123Y-114554364D01*
X125928909Y-114608701D01*
X125981935Y-114663028D01*
X126031195Y-114714295D01*
X126073687Y-114759451D01*
X126106407Y-114795446D01*
X126126351Y-114819230D01*
X126131119Y-114827190D01*
X126124257Y-114841865D01*
X126105020Y-114874014D01*
X126075430Y-114920492D01*
X126037510Y-114978156D01*
X125993282Y-115043860D01*
X125967654Y-115081336D01*
X125920941Y-115149768D01*
X125879432Y-115211520D01*
X125845140Y-115263519D01*
X125820080Y-115302692D01*
X125806264Y-115325965D01*
X125804188Y-115330855D01*
X125808895Y-115344755D01*
X125821723Y-115377150D01*
X125840738Y-115423485D01*
X125864003Y-115479206D01*
X125889584Y-115539758D01*
X125915545Y-115600586D01*
X125939950Y-115657136D01*
X125960863Y-115704852D01*
X125976349Y-115739181D01*
X125984472Y-115755568D01*
X125984952Y-115756212D01*
X125997707Y-115759341D01*
X126031677Y-115766321D01*
X126083340Y-115776467D01*
X126149176Y-115789092D01*
X126225664Y-115803509D01*
X126270290Y-115811823D01*
X126352021Y-115827384D01*
X126425843Y-115842192D01*
X126488021Y-115855436D01*
X126534822Y-115866305D01*
X126562509Y-115873989D01*
X126568074Y-115876427D01*
X126573526Y-115892930D01*
X126577924Y-115930200D01*
X126581272Y-115983880D01*
X126583574Y-116049612D01*
X126584832Y-116123037D01*
X126585048Y-116199796D01*
X126584227Y-116275532D01*
X126582371Y-116345886D01*
X126579482Y-116406500D01*
X126575565Y-116453016D01*
X126570622Y-116481075D01*
X126567657Y-116486916D01*
X126549934Y-116493917D01*
X126512381Y-116503927D01*
X126459964Y-116515769D01*
X126397652Y-116528267D01*
X126375900Y-116532310D01*
X126271024Y-116551520D01*
X126188180Y-116566991D01*
X126124630Y-116579337D01*
X126077637Y-116589173D01*
X126044463Y-116597114D01*
X126022371Y-116603776D01*
X126008624Y-116609773D01*
X126000484Y-116615719D01*
X125999345Y-116616894D01*
X125987977Y-116635826D01*
X125970635Y-116672669D01*
X125949050Y-116722913D01*
X125924954Y-116782046D01*
X125900079Y-116845556D01*
X125876157Y-116908932D01*
X125854919Y-116967662D01*
X125838097Y-117017235D01*
X125827422Y-117053139D01*
X125824627Y-117070862D01*
X125824860Y-117071483D01*
X125834331Y-117085970D01*
X125855818Y-117117844D01*
X125887063Y-117163789D01*
X125925807Y-117220485D01*
X125969793Y-117284617D01*
X125982319Y-117302842D01*
X126026984Y-117368914D01*
X126066288Y-117429200D01*
X126098088Y-117480235D01*
X126120245Y-117518560D01*
X126130617Y-117540711D01*
X126131119Y-117543432D01*
X126122405Y-117557736D01*
X126098325Y-117586072D01*
X126061976Y-117625396D01*
X126016453Y-117672661D01*
X125964852Y-117724823D01*
X125910267Y-117778835D01*
X125855794Y-117831653D01*
X125804529Y-117880231D01*
X125759567Y-117921523D01*
X125724004Y-117952485D01*
X125700935Y-117970070D01*
X125694554Y-117972941D01*
X125679699Y-117966178D01*
X125649286Y-117947939D01*
X125608268Y-117921297D01*
X125576709Y-117899852D01*
X125519525Y-117860503D01*
X125451806Y-117814171D01*
X125383880Y-117767913D01*
X125347361Y-117743155D01*
X125223752Y-117659547D01*
X125119991Y-117715650D01*
X125072720Y-117740228D01*
X125032523Y-117759331D01*
X125005326Y-117770227D01*
X124998402Y-117771743D01*
X124990077Y-117760549D01*
X124973654Y-117728917D01*
X124950357Y-117679765D01*
X124921414Y-117616010D01*
X124888050Y-117540571D01*
X124851491Y-117456364D01*
X124812964Y-117366308D01*
X124773694Y-117273321D01*
X124734908Y-117180320D01*
X124697830Y-117090223D01*
X124663689Y-117005948D01*
X124633708Y-116930413D01*
X124609116Y-116866534D01*
X124591136Y-116817231D01*
X124580997Y-116785421D01*
X124579366Y-116774496D01*
X124592291Y-116760561D01*
X124620589Y-116737940D01*
X124658346Y-116711333D01*
X124661515Y-116709228D01*
X124759100Y-116631114D01*
X124837786Y-116539982D01*
X124896891Y-116438745D01*
X124935732Y-116330318D01*
X124953628Y-116217614D01*
X124949897Y-116103548D01*
X124923857Y-115991034D01*
X124874825Y-115882985D01*
X124860400Y-115859345D01*
X124785369Y-115763887D01*
X124696730Y-115687232D01*
X124597549Y-115629780D01*
X124490895Y-115591929D01*
X124379836Y-115574078D01*
X124267439Y-115576625D01*
X124156773Y-115599970D01*
X124050906Y-115644510D01*
X123952905Y-115710645D01*
X123922590Y-115737487D01*
X123845438Y-115821512D01*
X123789218Y-115909966D01*
X123750653Y-116009115D01*
X123729174Y-116107303D01*
X123723872Y-116217697D01*
X123741552Y-116328640D01*
X123780419Y-116436381D01*
X123838677Y-116537169D01*
X123914531Y-116627256D01*
X124006183Y-116702892D01*
X124018228Y-116710864D01*
X124056389Y-116736974D01*
X124085399Y-116759595D01*
X124099268Y-116774039D01*
X124099469Y-116774496D01*
X124096492Y-116790121D01*
X124084689Y-116825582D01*
X124065286Y-116877962D01*
X124039512Y-116944345D01*
X124008591Y-117021814D01*
X123973751Y-117107450D01*
X123936217Y-117198337D01*
X123897217Y-117291559D01*
X123857977Y-117384197D01*
X123819724Y-117473335D01*
X123783683Y-117556055D01*
X123751083Y-117629441D01*
X123723148Y-117690575D01*
X123701105Y-117736541D01*
X123686182Y-117764421D01*
X123680172Y-117771743D01*
X123661809Y-117766041D01*
X123627448Y-117750749D01*
X123583016Y-117728599D01*
X123558583Y-117715650D01*
X123454822Y-117659547D01*
X123331213Y-117743155D01*
X123268114Y-117785987D01*
X123199030Y-117833122D01*
X123134293Y-117877503D01*
X123101866Y-117899852D01*
X123056259Y-117930477D01*
X123017640Y-117954747D01*
X122991048Y-117969587D01*
X122982410Y-117972724D01*
X122969839Y-117964261D01*
X122942016Y-117940636D01*
X122901639Y-117904302D01*
X122851405Y-117857711D01*
X122794012Y-117803317D01*
X122757714Y-117768392D01*
X122694210Y-117705996D01*
X122639327Y-117650188D01*
X122595286Y-117603354D01*
X122564305Y-117567882D01*
X122548602Y-117546161D01*
X122547095Y-117541752D01*
X122554086Y-117524985D01*
X122573406Y-117491082D01*
X122602909Y-117443476D01*
X122640455Y-117385599D01*
X122683900Y-117320884D01*
X122696255Y-117302842D01*
X122741273Y-117237267D01*
X122781660Y-117178228D01*
X122815160Y-117129042D01*
X122839514Y-117093028D01*
X122852464Y-117073502D01*
X122853715Y-117071483D01*
X122851844Y-117055922D01*
X122841913Y-117021709D01*
X122825653Y-116973355D01*
X122804795Y-116915371D01*
X122781073Y-116852270D01*
X122756216Y-116788563D01*
X122731958Y-116728761D01*
X122710029Y-116677376D01*
X122692162Y-116638919D01*
X122680087Y-116617902D01*
X122679229Y-116616894D01*
X122671846Y-116610888D01*
X122659375Y-116604948D01*
X122639080Y-116598460D01*
X122608222Y-116590809D01*
X122564066Y-116581380D01*
X122503874Y-116569559D01*
X122424907Y-116554729D01*
X122324430Y-116536277D01*
X122302675Y-116532310D01*
X122238198Y-116519853D01*
X122181989Y-116507666D01*
X122139013Y-116496926D01*
X122114240Y-116488809D01*
X122110918Y-116486916D01*
X122105444Y-116470138D01*
X122100994Y-116432645D01*
X122097572Y-116378794D01*
X122095181Y-116312944D01*
X122093823Y-116239453D01*
X122093501Y-116162680D01*
X122094219Y-116086983D01*
X122095979Y-116016720D01*
X122098784Y-115956250D01*
X122102638Y-115909930D01*
X122107543Y-115882119D01*
X122110500Y-115876427D01*
X122126963Y-115870686D01*
X122164449Y-115861345D01*
X122219225Y-115849215D01*
X122287555Y-115835107D01*
X122365706Y-115819830D01*
X122408284Y-115811823D01*
X122489071Y-115796721D01*
X122561113Y-115783040D01*
X122620889Y-115771467D01*
X122664879Y-115762687D01*
X122689561Y-115757387D01*
X122693623Y-115756212D01*
X122700489Y-115742965D01*
X122715002Y-115711057D01*
X122735229Y-115665047D01*
X122759234Y-115609492D01*
X122785082Y-115548953D01*
X122810840Y-115487986D01*
X122834573Y-115431151D01*
X122854346Y-115383006D01*
X122868224Y-115348110D01*
X122874274Y-115331021D01*
X122874386Y-115330274D01*
X122867528Y-115316793D01*
X122848302Y-115285770D01*
X122818728Y-115240289D01*
X122780827Y-115183432D01*
X122736620Y-115118283D01*
X122710921Y-115080862D01*
X122664093Y-115012247D01*
X122622501Y-114949952D01*
X122588175Y-114897129D01*
X122563143Y-114856927D01*
X122549435Y-114832500D01*
X122547456Y-114827024D01*
X122555966Y-114814278D01*
X122579493Y-114787063D01*
X122615032Y-114748428D01*
X122659577Y-114701423D01*
X122710123Y-114649095D01*
X122763664Y-114594495D01*
X122817195Y-114540670D01*
X122867711Y-114490670D01*
X122912206Y-114447543D01*
X122947675Y-114414339D01*
X122971113Y-114394106D01*
X122978954Y-114389278D01*
X122991720Y-114396067D01*
X123022256Y-114415142D01*
X123067590Y-114444561D01*
X123124756Y-114482381D01*
X123190784Y-114526661D01*
X123240590Y-114560395D01*
X123492236Y-114731512D01*
X123701999Y-114645041D01*
X123911763Y-114558570D01*
X123968611Y-114257018D01*
X124025460Y-113955466D01*
X124653115Y-113955466D01*
X124709964Y-114257018D01*
G04 #@! TO.C,IC2*
D10*
X135711313Y-79700888D02*
X135711313Y-78700888D01*
X136758932Y-79605650D02*
X136711313Y-79653269D01*
X136568456Y-79700888D01*
X136473218Y-79700888D01*
X136330361Y-79653269D01*
X136235123Y-79558031D01*
X136187504Y-79462793D01*
X136139884Y-79272317D01*
X136139884Y-79129460D01*
X136187504Y-78938984D01*
X136235123Y-78843746D01*
X136330361Y-78748508D01*
X136473218Y-78700888D01*
X136568456Y-78700888D01*
X136711313Y-78748508D01*
X136758932Y-78796127D01*
X137139884Y-78796127D02*
X137187504Y-78748508D01*
X137282742Y-78700888D01*
X137520837Y-78700888D01*
X137616075Y-78748508D01*
X137663694Y-78796127D01*
X137711313Y-78891365D01*
X137711313Y-78986603D01*
X137663694Y-79129460D01*
X137092265Y-79700888D01*
X137711313Y-79700888D01*
G04 #@! TO.C,TP11*
X132421380Y-94194095D02*
X132421380Y-93622666D01*
X133421380Y-93908380D02*
X132421380Y-93908380D01*
X133421380Y-93289333D02*
X132421380Y-93289333D01*
X132421380Y-92908380D01*
X132469000Y-92813142D01*
X132516619Y-92765523D01*
X132611857Y-92717904D01*
X132754714Y-92717904D01*
X132849952Y-92765523D01*
X132897571Y-92813142D01*
X132945190Y-92908380D01*
X132945190Y-93289333D01*
X133421380Y-91765523D02*
X133421380Y-92336952D01*
X133421380Y-92051238D02*
X132421380Y-92051238D01*
X132564238Y-92146476D01*
X132659476Y-92241714D01*
X132707095Y-92336952D01*
X133421380Y-90813142D02*
X133421380Y-91384571D01*
X133421380Y-91098857D02*
X132421380Y-91098857D01*
X132564238Y-91194095D01*
X132659476Y-91289333D01*
X132707095Y-91384571D01*
G04 #@! TO.C,TP12*
X141057380Y-94194095D02*
X141057380Y-93622666D01*
X142057380Y-93908380D02*
X141057380Y-93908380D01*
X142057380Y-93289333D02*
X141057380Y-93289333D01*
X141057380Y-92908380D01*
X141105000Y-92813142D01*
X141152619Y-92765523D01*
X141247857Y-92717904D01*
X141390714Y-92717904D01*
X141485952Y-92765523D01*
X141533571Y-92813142D01*
X141581190Y-92908380D01*
X141581190Y-93289333D01*
X142057380Y-91765523D02*
X142057380Y-92336952D01*
X142057380Y-92051238D02*
X141057380Y-92051238D01*
X141200238Y-92146476D01*
X141295476Y-92241714D01*
X141343095Y-92336952D01*
X141152619Y-91384571D02*
X141105000Y-91336952D01*
X141057380Y-91241714D01*
X141057380Y-91003619D01*
X141105000Y-90908380D01*
X141152619Y-90860761D01*
X141247857Y-90813142D01*
X141343095Y-90813142D01*
X141485952Y-90860761D01*
X142057380Y-91432190D01*
X142057380Y-90813142D01*
G04 #@! TO.C,TP10*
X141184380Y-110323095D02*
X141184380Y-109751666D01*
X142184380Y-110037380D02*
X141184380Y-110037380D01*
X142184380Y-109418333D02*
X141184380Y-109418333D01*
X141184380Y-109037380D01*
X141232000Y-108942142D01*
X141279619Y-108894523D01*
X141374857Y-108846904D01*
X141517714Y-108846904D01*
X141612952Y-108894523D01*
X141660571Y-108942142D01*
X141708190Y-109037380D01*
X141708190Y-109418333D01*
X142184380Y-107894523D02*
X142184380Y-108465952D01*
X142184380Y-108180238D02*
X141184380Y-108180238D01*
X141327238Y-108275476D01*
X141422476Y-108370714D01*
X141470095Y-108465952D01*
X141184380Y-107275476D02*
X141184380Y-107180238D01*
X141232000Y-107085000D01*
X141279619Y-107037380D01*
X141374857Y-106989761D01*
X141565333Y-106942142D01*
X141803428Y-106942142D01*
X141993904Y-106989761D01*
X142089142Y-107037380D01*
X142136761Y-107085000D01*
X142184380Y-107180238D01*
X142184380Y-107275476D01*
X142136761Y-107370714D01*
X142089142Y-107418333D01*
X141993904Y-107465952D01*
X141803428Y-107513571D01*
X141565333Y-107513571D01*
X141374857Y-107465952D01*
X141279619Y-107418333D01*
X141232000Y-107370714D01*
X141184380Y-107275476D01*
G04 #@! TO.C,TP9*
X132548380Y-109719904D02*
X132548380Y-109148476D01*
X133548380Y-109434190D02*
X132548380Y-109434190D01*
X133548380Y-108815142D02*
X132548380Y-108815142D01*
X132548380Y-108434190D01*
X132596000Y-108338952D01*
X132643619Y-108291333D01*
X132738857Y-108243714D01*
X132881714Y-108243714D01*
X132976952Y-108291333D01*
X133024571Y-108338952D01*
X133072190Y-108434190D01*
X133072190Y-108815142D01*
X133548380Y-107767523D02*
X133548380Y-107577047D01*
X133500761Y-107481809D01*
X133453142Y-107434190D01*
X133310285Y-107338952D01*
X133119809Y-107291333D01*
X132738857Y-107291333D01*
X132643619Y-107338952D01*
X132596000Y-107386571D01*
X132548380Y-107481809D01*
X132548380Y-107672285D01*
X132596000Y-107767523D01*
X132643619Y-107815142D01*
X132738857Y-107862761D01*
X132976952Y-107862761D01*
X133072190Y-107815142D01*
X133119809Y-107767523D01*
X133167428Y-107672285D01*
X133167428Y-107481809D01*
X133119809Y-107386571D01*
X133072190Y-107338952D01*
X132976952Y-107291333D01*
G04 #@! TO.C,J7*
X128825666Y-110069380D02*
X128825666Y-110783666D01*
X128778047Y-110926523D01*
X128682809Y-111021761D01*
X128539952Y-111069380D01*
X128444714Y-111069380D01*
X129206619Y-110069380D02*
X129873285Y-110069380D01*
X129444714Y-111069380D01*
G04 #@! TO.C,J2*
X126032380Y-92104333D02*
X126746666Y-92104333D01*
X126889523Y-92151952D01*
X126984761Y-92247190D01*
X127032380Y-92390047D01*
X127032380Y-92485285D01*
X126127619Y-91675761D02*
X126080000Y-91628142D01*
X126032380Y-91532904D01*
X126032380Y-91294809D01*
X126080000Y-91199571D01*
X126127619Y-91151952D01*
X126222857Y-91104333D01*
X126318095Y-91104333D01*
X126460952Y-91151952D01*
X127032380Y-91723380D01*
X127032380Y-91104333D01*
G04 #@! TO.C,P1*
X147089904Y-121737380D02*
X147089904Y-120737380D01*
X147470857Y-120737380D01*
X147566095Y-120785000D01*
X147613714Y-120832619D01*
X147661333Y-120927857D01*
X147661333Y-121070714D01*
X147613714Y-121165952D01*
X147566095Y-121213571D01*
X147470857Y-121261190D01*
X147089904Y-121261190D01*
X148613714Y-121737380D02*
X148042285Y-121737380D01*
X148328000Y-121737380D02*
X148328000Y-120737380D01*
X148232761Y-120880238D01*
X148137523Y-120975476D01*
X148042285Y-121023095D01*
G04 #@! TO.C,P2*
X167663904Y-121737380D02*
X167663904Y-120737380D01*
X168044857Y-120737380D01*
X168140095Y-120785000D01*
X168187714Y-120832619D01*
X168235333Y-120927857D01*
X168235333Y-121070714D01*
X168187714Y-121165952D01*
X168140095Y-121213571D01*
X168044857Y-121261190D01*
X167663904Y-121261190D01*
X168616285Y-120832619D02*
X168663904Y-120785000D01*
X168759142Y-120737380D01*
X168997238Y-120737380D01*
X169092476Y-120785000D01*
X169140095Y-120832619D01*
X169187714Y-120927857D01*
X169187714Y-121023095D01*
X169140095Y-121165952D01*
X168568666Y-121737380D01*
X169187714Y-121737380D01*
G04 #@! TO.C,P3*
X149121904Y-78811380D02*
X149121904Y-77811380D01*
X149502857Y-77811380D01*
X149598095Y-77859000D01*
X149645714Y-77906619D01*
X149693333Y-78001857D01*
X149693333Y-78144714D01*
X149645714Y-78239952D01*
X149598095Y-78287571D01*
X149502857Y-78335190D01*
X149121904Y-78335190D01*
X150026666Y-77811380D02*
X150645714Y-77811380D01*
X150312380Y-78192333D01*
X150455238Y-78192333D01*
X150550476Y-78239952D01*
X150598095Y-78287571D01*
X150645714Y-78382809D01*
X150645714Y-78620904D01*
X150598095Y-78716142D01*
X150550476Y-78763761D01*
X150455238Y-78811380D01*
X150169523Y-78811380D01*
X150074285Y-78763761D01*
X150026666Y-78716142D01*
G04 #@! TO.C,P4*
X164869904Y-78811380D02*
X164869904Y-77811380D01*
X165250857Y-77811380D01*
X165346095Y-77859000D01*
X165393714Y-77906619D01*
X165441333Y-78001857D01*
X165441333Y-78144714D01*
X165393714Y-78239952D01*
X165346095Y-78287571D01*
X165250857Y-78335190D01*
X164869904Y-78335190D01*
X166298476Y-78144714D02*
X166298476Y-78811380D01*
X166060380Y-77763761D02*
X165822285Y-78478047D01*
X166441333Y-78478047D01*
G04 #@! TO.C,C1*
X131548142Y-100750666D02*
X131595761Y-100798285D01*
X131643380Y-100941142D01*
X131643380Y-101036380D01*
X131595761Y-101179238D01*
X131500523Y-101274476D01*
X131405285Y-101322095D01*
X131214809Y-101369714D01*
X131071952Y-101369714D01*
X130881476Y-101322095D01*
X130786238Y-101274476D01*
X130691000Y-101179238D01*
X130643380Y-101036380D01*
X130643380Y-100941142D01*
X130691000Y-100798285D01*
X130738619Y-100750666D01*
X131643380Y-99798285D02*
X131643380Y-100369714D01*
X131643380Y-100084000D02*
X130643380Y-100084000D01*
X130786238Y-100179238D01*
X130881476Y-100274476D01*
X130929095Y-100369714D01*
G04 #@! TO.C,C2*
X131421142Y-84748666D02*
X131468761Y-84796285D01*
X131516380Y-84939142D01*
X131516380Y-85034380D01*
X131468761Y-85177238D01*
X131373523Y-85272476D01*
X131278285Y-85320095D01*
X131087809Y-85367714D01*
X130944952Y-85367714D01*
X130754476Y-85320095D01*
X130659238Y-85272476D01*
X130564000Y-85177238D01*
X130516380Y-85034380D01*
X130516380Y-84939142D01*
X130564000Y-84796285D01*
X130611619Y-84748666D01*
X130611619Y-84367714D02*
X130564000Y-84320095D01*
X130516380Y-84224857D01*
X130516380Y-83986761D01*
X130564000Y-83891523D01*
X130611619Y-83843904D01*
X130706857Y-83796285D01*
X130802095Y-83796285D01*
X130944952Y-83843904D01*
X131516380Y-84415333D01*
X131516380Y-83796285D01*
G04 #@! TO.C,IC1*
X135911449Y-95760724D02*
X135911449Y-94760724D01*
X136959068Y-95665486D02*
X136911449Y-95713105D01*
X136768592Y-95760724D01*
X136673354Y-95760724D01*
X136530497Y-95713105D01*
X136435259Y-95617867D01*
X136387640Y-95522629D01*
X136340020Y-95332153D01*
X136340020Y-95189296D01*
X136387640Y-94998820D01*
X136435259Y-94903582D01*
X136530497Y-94808344D01*
X136673354Y-94760724D01*
X136768592Y-94760724D01*
X136911449Y-94808344D01*
X136959068Y-94855963D01*
X137911449Y-95760724D02*
X137340020Y-95760724D01*
X137625735Y-95760724D02*
X137625735Y-94760724D01*
X137530497Y-94903582D01*
X137435259Y-94998820D01*
X137340020Y-95046439D01*
G04 #@! TO.C,J1*
X125932380Y-107886333D02*
X126646666Y-107886333D01*
X126789523Y-107933952D01*
X126884761Y-108029190D01*
X126932380Y-108172047D01*
X126932380Y-108267285D01*
X126932380Y-106886333D02*
X126932380Y-107457761D01*
X126932380Y-107172047D02*
X125932380Y-107172047D01*
X126075238Y-107267285D01*
X126170476Y-107362523D01*
X126218095Y-107457761D01*
G04 #@! TO.C,RV1*
X143168761Y-96083380D02*
X142835428Y-95607190D01*
X142597333Y-96083380D02*
X142597333Y-95083380D01*
X142978285Y-95083380D01*
X143073523Y-95131000D01*
X143121142Y-95178619D01*
X143168761Y-95273857D01*
X143168761Y-95416714D01*
X143121142Y-95511952D01*
X143073523Y-95559571D01*
X142978285Y-95607190D01*
X142597333Y-95607190D01*
X143454476Y-95083380D02*
X143787809Y-96083380D01*
X144121142Y-95083380D01*
X144978285Y-96083380D02*
X144406857Y-96083380D01*
X144692571Y-96083380D02*
X144692571Y-95083380D01*
X144597333Y-95226238D01*
X144502095Y-95321476D01*
X144406857Y-95369095D01*
G04 #@! TO.C,RV2*
X143295761Y-80081380D02*
X142962428Y-79605190D01*
X142724333Y-80081380D02*
X142724333Y-79081380D01*
X143105285Y-79081380D01*
X143200523Y-79129000D01*
X143248142Y-79176619D01*
X143295761Y-79271857D01*
X143295761Y-79414714D01*
X143248142Y-79509952D01*
X143200523Y-79557571D01*
X143105285Y-79605190D01*
X142724333Y-79605190D01*
X143581476Y-79081380D02*
X143914809Y-80081380D01*
X144248142Y-79081380D01*
X144533857Y-79176619D02*
X144581476Y-79129000D01*
X144676714Y-79081380D01*
X144914809Y-79081380D01*
X145010047Y-79129000D01*
X145057666Y-79176619D01*
X145105285Y-79271857D01*
X145105285Y-79367095D01*
X145057666Y-79509952D01*
X144486238Y-80081380D01*
X145105285Y-80081380D01*
G04 #@! TO.C,TP1*
X149357612Y-92789849D02*
X149357612Y-92218421D01*
X150357612Y-92504135D02*
X149357612Y-92504135D01*
X150357612Y-91885087D02*
X149357612Y-91885087D01*
X149357612Y-91504135D01*
X149405232Y-91408897D01*
X149452851Y-91361278D01*
X149548089Y-91313659D01*
X149690946Y-91313659D01*
X149786184Y-91361278D01*
X149833803Y-91408897D01*
X149881422Y-91504135D01*
X149881422Y-91885087D01*
X150357612Y-90361278D02*
X150357612Y-90932706D01*
X150357612Y-90646992D02*
X149357612Y-90646992D01*
X149500470Y-90742230D01*
X149595708Y-90837468D01*
X149643327Y-90932706D01*
G04 #@! TO.C,TP2*
X149357612Y-89189849D02*
X149357612Y-88618421D01*
X150357612Y-88904135D02*
X149357612Y-88904135D01*
X150357612Y-88285087D02*
X149357612Y-88285087D01*
X149357612Y-87904135D01*
X149405232Y-87808897D01*
X149452851Y-87761278D01*
X149548089Y-87713659D01*
X149690946Y-87713659D01*
X149786184Y-87761278D01*
X149833803Y-87808897D01*
X149881422Y-87904135D01*
X149881422Y-88285087D01*
X149452851Y-87332706D02*
X149405232Y-87285087D01*
X149357612Y-87189849D01*
X149357612Y-86951754D01*
X149405232Y-86856516D01*
X149452851Y-86808897D01*
X149548089Y-86761278D01*
X149643327Y-86761278D01*
X149786184Y-86808897D01*
X150357612Y-87380325D01*
X150357612Y-86761278D01*
G04 #@! TO.C,TP3*
X149357612Y-85589849D02*
X149357612Y-85018421D01*
X150357612Y-85304135D02*
X149357612Y-85304135D01*
X150357612Y-84685087D02*
X149357612Y-84685087D01*
X149357612Y-84304135D01*
X149405232Y-84208897D01*
X149452851Y-84161278D01*
X149548089Y-84113659D01*
X149690946Y-84113659D01*
X149786184Y-84161278D01*
X149833803Y-84208897D01*
X149881422Y-84304135D01*
X149881422Y-84685087D01*
X149357612Y-83780325D02*
X149357612Y-83161278D01*
X149738565Y-83494611D01*
X149738565Y-83351754D01*
X149786184Y-83256516D01*
X149833803Y-83208897D01*
X149929041Y-83161278D01*
X150167136Y-83161278D01*
X150262374Y-83208897D01*
X150309993Y-83256516D01*
X150357612Y-83351754D01*
X150357612Y-83637468D01*
X150309993Y-83732706D01*
X150262374Y-83780325D01*
G04 #@! TO.C,TP4*
X149357612Y-81989849D02*
X149357612Y-81418421D01*
X150357612Y-81704135D02*
X149357612Y-81704135D01*
X150357612Y-81085087D02*
X149357612Y-81085087D01*
X149357612Y-80704135D01*
X149405232Y-80608897D01*
X149452851Y-80561278D01*
X149548089Y-80513659D01*
X149690946Y-80513659D01*
X149786184Y-80561278D01*
X149833803Y-80608897D01*
X149881422Y-80704135D01*
X149881422Y-81085087D01*
X149690946Y-79656516D02*
X150357612Y-79656516D01*
X149309993Y-79894611D02*
X150024279Y-80132706D01*
X150024279Y-79513659D01*
G04 #@! TO.C,TP5*
X149325021Y-108648472D02*
X149325021Y-108077044D01*
X150325021Y-108362758D02*
X149325021Y-108362758D01*
X150325021Y-107743710D02*
X149325021Y-107743710D01*
X149325021Y-107362758D01*
X149372641Y-107267520D01*
X149420260Y-107219901D01*
X149515498Y-107172282D01*
X149658355Y-107172282D01*
X149753593Y-107219901D01*
X149801212Y-107267520D01*
X149848831Y-107362758D01*
X149848831Y-107743710D01*
X149325021Y-106267520D02*
X149325021Y-106743710D01*
X149801212Y-106791329D01*
X149753593Y-106743710D01*
X149705974Y-106648472D01*
X149705974Y-106410377D01*
X149753593Y-106315139D01*
X149801212Y-106267520D01*
X149896450Y-106219901D01*
X150134545Y-106219901D01*
X150229783Y-106267520D01*
X150277402Y-106315139D01*
X150325021Y-106410377D01*
X150325021Y-106648472D01*
X150277402Y-106743710D01*
X150229783Y-106791329D01*
G04 #@! TO.C,TP6*
X149325021Y-105048472D02*
X149325021Y-104477044D01*
X150325021Y-104762758D02*
X149325021Y-104762758D01*
X150325021Y-104143710D02*
X149325021Y-104143710D01*
X149325021Y-103762758D01*
X149372641Y-103667520D01*
X149420260Y-103619901D01*
X149515498Y-103572282D01*
X149658355Y-103572282D01*
X149753593Y-103619901D01*
X149801212Y-103667520D01*
X149848831Y-103762758D01*
X149848831Y-104143710D01*
X149325021Y-102715139D02*
X149325021Y-102905615D01*
X149372641Y-103000853D01*
X149420260Y-103048472D01*
X149563117Y-103143710D01*
X149753593Y-103191329D01*
X150134545Y-103191329D01*
X150229783Y-103143710D01*
X150277402Y-103096091D01*
X150325021Y-103000853D01*
X150325021Y-102810377D01*
X150277402Y-102715139D01*
X150229783Y-102667520D01*
X150134545Y-102619901D01*
X149896450Y-102619901D01*
X149801212Y-102667520D01*
X149753593Y-102715139D01*
X149705974Y-102810377D01*
X149705974Y-103000853D01*
X149753593Y-103096091D01*
X149801212Y-103143710D01*
X149896450Y-103191329D01*
G04 #@! TO.C,TP7*
X149325021Y-101448472D02*
X149325021Y-100877044D01*
X150325021Y-101162758D02*
X149325021Y-101162758D01*
X150325021Y-100543710D02*
X149325021Y-100543710D01*
X149325021Y-100162758D01*
X149372641Y-100067520D01*
X149420260Y-100019901D01*
X149515498Y-99972282D01*
X149658355Y-99972282D01*
X149753593Y-100019901D01*
X149801212Y-100067520D01*
X149848831Y-100162758D01*
X149848831Y-100543710D01*
X149325021Y-99638948D02*
X149325021Y-98972282D01*
X150325021Y-99400853D01*
G04 #@! TO.C,TP8*
X149325021Y-97848472D02*
X149325021Y-97277044D01*
X150325021Y-97562758D02*
X149325021Y-97562758D01*
X150325021Y-96943710D02*
X149325021Y-96943710D01*
X149325021Y-96562758D01*
X149372641Y-96467520D01*
X149420260Y-96419901D01*
X149515498Y-96372282D01*
X149658355Y-96372282D01*
X149753593Y-96419901D01*
X149801212Y-96467520D01*
X149848831Y-96562758D01*
X149848831Y-96943710D01*
X149753593Y-95800853D02*
X149705974Y-95896091D01*
X149658355Y-95943710D01*
X149563117Y-95991329D01*
X149515498Y-95991329D01*
X149420260Y-95943710D01*
X149372641Y-95896091D01*
X149325021Y-95800853D01*
X149325021Y-95610377D01*
X149372641Y-95515139D01*
X149420260Y-95467520D01*
X149515498Y-95419901D01*
X149563117Y-95419901D01*
X149658355Y-95467520D01*
X149705974Y-95515139D01*
X149753593Y-95610377D01*
X149753593Y-95800853D01*
X149801212Y-95896091D01*
X149848831Y-95943710D01*
X149944069Y-95991329D01*
X150134545Y-95991329D01*
X150229783Y-95943710D01*
X150277402Y-95896091D01*
X150325021Y-95800853D01*
X150325021Y-95610377D01*
X150277402Y-95515139D01*
X150229783Y-95467520D01*
X150134545Y-95419901D01*
X149944069Y-95419901D01*
X149848831Y-95467520D01*
X149801212Y-95515139D01*
X149753593Y-95610377D01*
G04 #@! TO.C,C3*
X157075142Y-117387666D02*
X157122761Y-117435285D01*
X157170380Y-117578142D01*
X157170380Y-117673380D01*
X157122761Y-117816238D01*
X157027523Y-117911476D01*
X156932285Y-117959095D01*
X156741809Y-118006714D01*
X156598952Y-118006714D01*
X156408476Y-117959095D01*
X156313238Y-117911476D01*
X156218000Y-117816238D01*
X156170380Y-117673380D01*
X156170380Y-117578142D01*
X156218000Y-117435285D01*
X156265619Y-117387666D01*
X156170380Y-117054333D02*
X156170380Y-116435285D01*
X156551333Y-116768619D01*
X156551333Y-116625761D01*
X156598952Y-116530523D01*
X156646571Y-116482904D01*
X156741809Y-116435285D01*
X156979904Y-116435285D01*
X157075142Y-116482904D01*
X157122761Y-116530523D01*
X157170380Y-116625761D01*
X157170380Y-116911476D01*
X157122761Y-117006714D01*
X157075142Y-117054333D01*
G04 #@! TO.C,U1*
X139954095Y-118578380D02*
X139954095Y-119387904D01*
X140001714Y-119483142D01*
X140049333Y-119530761D01*
X140144571Y-119578380D01*
X140335047Y-119578380D01*
X140430285Y-119530761D01*
X140477904Y-119483142D01*
X140525523Y-119387904D01*
X140525523Y-118578380D01*
X141525523Y-119578380D02*
X140954095Y-119578380D01*
X141239809Y-119578380D02*
X141239809Y-118578380D01*
X141144571Y-118721238D01*
X141049333Y-118816476D01*
X140954095Y-118864095D01*
G04 #@! TD*
M02*
