G04 #@! TF.GenerationSoftware,KiCad,Pcbnew,(5.0.2)-1*
G04 #@! TF.CreationDate,2019-01-29T00:01:16-05:00*
G04 #@! TF.ProjectId,LoadCellShield,4c6f6164-4365-46c6-9c53-6869656c642e,rev?*
G04 #@! TF.SameCoordinates,Original*
G04 #@! TF.FileFunction,Copper,L2,Bot*
G04 #@! TF.FilePolarity,Positive*
%FSLAX46Y46*%
G04 Gerber Fmt 4.6, Leading zero omitted, Abs format (unit mm)*
G04 Created by KiCad (PCBNEW (5.0.2)-1) date 1/29/2019 12:01:16 AM*
%MOMM*%
%LPD*%
G01*
G04 APERTURE LIST*
G04 #@! TA.AperFunction,ComponentPad*
%ADD10C,2.499360*%
G04 #@! TD*
G04 #@! TA.AperFunction,ComponentPad*
%ADD11R,3.500000X3.500000*%
G04 #@! TD*
G04 #@! TA.AperFunction,ComponentPad*
%ADD12O,1.998980X1.998980*%
G04 #@! TD*
G04 #@! TA.AperFunction,ComponentPad*
%ADD13R,1.998980X1.998980*%
G04 #@! TD*
G04 #@! TA.AperFunction,ComponentPad*
%ADD14O,1.727200X2.032000*%
G04 #@! TD*
G04 #@! TA.AperFunction,ComponentPad*
%ADD15C,4.064000*%
G04 #@! TD*
G04 #@! TA.AperFunction,ComponentPad*
%ADD16C,1.440000*%
G04 #@! TD*
G04 #@! TA.AperFunction,ComponentPad*
%ADD17O,1.700000X1.700000*%
G04 #@! TD*
G04 #@! TA.AperFunction,ComponentPad*
%ADD18R,1.700000X1.700000*%
G04 #@! TD*
G04 #@! TA.AperFunction,ComponentPad*
%ADD19O,1.800000X1.800000*%
G04 #@! TD*
G04 #@! TA.AperFunction,ComponentPad*
%ADD20R,1.800000X1.800000*%
G04 #@! TD*
G04 #@! TA.AperFunction,ViaPad*
%ADD21C,0.600000*%
G04 #@! TD*
G04 #@! TA.AperFunction,Conductor*
%ADD22C,0.250000*%
G04 #@! TD*
G04 #@! TA.AperFunction,Conductor*
%ADD23C,0.254000*%
G04 #@! TD*
G04 APERTURE END LIST*
D10*
G04 #@! TO.P,TP11,1*
G04 #@! TO.N,Net-(IC2-Pad8)*
X135001000Y-92456000D03*
G04 #@! TD*
G04 #@! TO.P,TP12,1*
G04 #@! TO.N,Net-(IC2-Pad9)*
X139446000Y-92456000D03*
G04 #@! TD*
G04 #@! TO.P,TP10,1*
G04 #@! TO.N,Net-(IC1-Pad9)*
X139573000Y-108585000D03*
G04 #@! TD*
G04 #@! TO.P,TP9,1*
G04 #@! TO.N,Net-(IC1-Pad8)*
X135128000Y-108585000D03*
G04 #@! TD*
D11*
G04 #@! TO.P,J7,1*
G04 #@! TO.N,Analog_Vin*
X132334000Y-112491000D03*
G04 #@! TO.P,J7,2*
G04 #@! TO.N,GND*
X132334000Y-118491000D03*
G04 #@! TO.P,J7,3*
G04 #@! TO.N,Net-(J7-Pad3)*
X137034000Y-115491000D03*
G04 #@! TD*
D12*
G04 #@! TO.P,J2,3*
G04 #@! TO.N,Net-(IC2-Pad6)*
X126492000Y-83947000D03*
G04 #@! TO.P,J2,2*
G04 #@! TO.N,Net-(IC2-Pad7)*
X126492000Y-86487000D03*
D13*
G04 #@! TO.P,J2,1*
G04 #@! TO.N,GND*
X126492000Y-89027000D03*
D12*
G04 #@! TO.P,J2,4*
G04 #@! TO.N,V_Bridge1*
X126492000Y-81407000D03*
G04 #@! TD*
D14*
G04 #@! TO.P,P1,1*
G04 #@! TO.N,Net-(P1-Pad1)*
X138938000Y-123825000D03*
G04 #@! TO.P,P1,2*
G04 #@! TO.N,/IOREF*
X141478000Y-123825000D03*
G04 #@! TO.P,P1,3*
G04 #@! TO.N,/Reset*
X144018000Y-123825000D03*
G04 #@! TO.P,P1,4*
G04 #@! TO.N,+3V3*
X146558000Y-123825000D03*
G04 #@! TO.P,P1,5*
G04 #@! TO.N,+5V*
X149098000Y-123825000D03*
G04 #@! TO.P,P1,6*
G04 #@! TO.N,GND*
X151638000Y-123825000D03*
G04 #@! TO.P,P1,7*
X154178000Y-123825000D03*
G04 #@! TO.P,P1,8*
G04 #@! TO.N,Vin*
X156718000Y-123825000D03*
G04 #@! TD*
G04 #@! TO.P,P2,1*
G04 #@! TO.N,Channel0*
X161798000Y-123825000D03*
G04 #@! TO.P,P2,2*
G04 #@! TO.N,Channel1*
X164338000Y-123825000D03*
G04 #@! TO.P,P2,3*
G04 #@! TO.N,/A2*
X166878000Y-123825000D03*
G04 #@! TO.P,P2,4*
G04 #@! TO.N,/A3*
X169418000Y-123825000D03*
G04 #@! TO.P,P2,5*
G04 #@! TO.N,/A4(SDA)*
X171958000Y-123825000D03*
G04 #@! TO.P,P2,6*
G04 #@! TO.N,/A5(SCL)*
X174498000Y-123825000D03*
G04 #@! TD*
G04 #@! TO.P,P3,1*
G04 #@! TO.N,/A5(SCL)*
X129794000Y-75565000D03*
G04 #@! TO.P,P3,2*
G04 #@! TO.N,/A4(SDA)*
X132334000Y-75565000D03*
G04 #@! TO.P,P3,3*
G04 #@! TO.N,/AREF*
X134874000Y-75565000D03*
G04 #@! TO.P,P3,4*
G04 #@! TO.N,GND*
X137414000Y-75565000D03*
G04 #@! TO.P,P3,5*
G04 #@! TO.N,/13(SCK)*
X139954000Y-75565000D03*
G04 #@! TO.P,P3,6*
G04 #@! TO.N,/12(MISO)*
X142494000Y-75565000D03*
G04 #@! TO.P,P3,7*
G04 #@! TO.N,/11(\002A\002A/MOSI)*
X145034000Y-75565000D03*
G04 #@! TO.P,P3,8*
G04 #@! TO.N,/10(\002A\002A/SS)*
X147574000Y-75565000D03*
G04 #@! TO.P,P3,9*
G04 #@! TO.N,/9(\002A\002A)*
X150114000Y-75565000D03*
G04 #@! TO.P,P3,10*
G04 #@! TO.N,/8*
X152654000Y-75565000D03*
G04 #@! TD*
G04 #@! TO.P,P4,1*
G04 #@! TO.N,/7*
X156718000Y-75565000D03*
G04 #@! TO.P,P4,2*
G04 #@! TO.N,/6(\002A\002A)*
X159258000Y-75565000D03*
G04 #@! TO.P,P4,3*
G04 #@! TO.N,/5(\002A\002A)*
X161798000Y-75565000D03*
G04 #@! TO.P,P4,4*
G04 #@! TO.N,Sleep1*
X164338000Y-75565000D03*
G04 #@! TO.P,P4,5*
G04 #@! TO.N,/3(\002A\002A)*
X166878000Y-75565000D03*
G04 #@! TO.P,P4,6*
G04 #@! TO.N,Sleep0*
X169418000Y-75565000D03*
G04 #@! TO.P,P4,7*
G04 #@! TO.N,/1(Tx)*
X171958000Y-75565000D03*
G04 #@! TO.P,P4,8*
G04 #@! TO.N,/0(Rx)*
X174498000Y-75565000D03*
G04 #@! TD*
D15*
G04 #@! TO.P,P5,1*
G04 #@! TO.N,Net-(P5-Pad1)*
X124968000Y-123825000D03*
G04 #@! TD*
G04 #@! TO.P,P6,1*
G04 #@! TO.N,Net-(P6-Pad1)*
X177038000Y-118745000D03*
G04 #@! TD*
G04 #@! TO.P,P7,1*
G04 #@! TO.N,Net-(P7-Pad1)*
X126238000Y-75565000D03*
G04 #@! TD*
G04 #@! TO.P,P8,1*
G04 #@! TO.N,Net-(P8-Pad1)*
X177038000Y-90805000D03*
G04 #@! TD*
D12*
G04 #@! TO.P,J1,4*
G04 #@! TO.N,V_Bridge0*
X126492000Y-97409000D03*
D13*
G04 #@! TO.P,J1,1*
G04 #@! TO.N,GND*
X126492000Y-105029000D03*
D12*
G04 #@! TO.P,J1,2*
G04 #@! TO.N,Net-(IC1-Pad7)*
X126492000Y-102489000D03*
G04 #@! TO.P,J1,3*
G04 #@! TO.N,Net-(IC1-Pad6)*
X126492000Y-99949000D03*
G04 #@! TD*
D16*
G04 #@! TO.P,RV1,3*
G04 #@! TO.N,Net-(IC1-Pad9)*
X142494000Y-104013000D03*
G04 #@! TO.P,RV1,2*
G04 #@! TO.N,Net-(IC1-Pad8)*
X145034000Y-101473000D03*
G04 #@! TO.P,RV1,1*
G04 #@! TO.N,Net-(RV1-Pad1)*
X142494000Y-98933000D03*
G04 #@! TD*
G04 #@! TO.P,RV2,1*
G04 #@! TO.N,Net-(RV2-Pad1)*
X142748000Y-82931000D03*
G04 #@! TO.P,RV2,2*
G04 #@! TO.N,Net-(IC2-Pad8)*
X145288000Y-85471000D03*
G04 #@! TO.P,RV2,3*
G04 #@! TO.N,Net-(IC2-Pad9)*
X142748000Y-88011000D03*
G04 #@! TD*
D17*
G04 #@! TO.P,TP1,2*
G04 #@! TO.N,V_Bridge1*
X154749500Y-88328500D03*
D18*
G04 #@! TO.P,TP1,1*
G04 #@! TO.N,Net-(IC2-Pad13)*
X152209500Y-88328500D03*
G04 #@! TD*
G04 #@! TO.P,TP2,1*
G04 #@! TO.N,Net-(IC2-Pad14)*
X152209500Y-85788500D03*
D17*
G04 #@! TO.P,TP2,2*
G04 #@! TO.N,V_Bridge1*
X154749500Y-85788500D03*
G04 #@! TD*
G04 #@! TO.P,TP3,2*
G04 #@! TO.N,V_Bridge1*
X154749500Y-83248500D03*
D18*
G04 #@! TO.P,TP3,1*
G04 #@! TO.N,Net-(IC2-Pad15)*
X152209500Y-83248500D03*
G04 #@! TD*
G04 #@! TO.P,TP4,1*
G04 #@! TO.N,Net-(IC2-Pad16)*
X152209500Y-80708500D03*
D17*
G04 #@! TO.P,TP4,2*
G04 #@! TO.N,V_Bridge1*
X154749500Y-80708500D03*
G04 #@! TD*
G04 #@! TO.P,TP5,2*
G04 #@! TO.N,V_Bridge0*
X154749500Y-104203500D03*
D18*
G04 #@! TO.P,TP5,1*
G04 #@! TO.N,Net-(IC1-Pad13)*
X152209500Y-104203500D03*
G04 #@! TD*
G04 #@! TO.P,TP6,1*
G04 #@! TO.N,Net-(IC1-Pad14)*
X152202641Y-101663500D03*
D17*
G04 #@! TO.P,TP6,2*
G04 #@! TO.N,V_Bridge0*
X154742641Y-101663500D03*
G04 #@! TD*
G04 #@! TO.P,TP7,2*
G04 #@! TO.N,V_Bridge0*
X154749500Y-99123500D03*
D18*
G04 #@! TO.P,TP7,1*
G04 #@! TO.N,Net-(IC1-Pad15)*
X152209500Y-99123500D03*
G04 #@! TD*
G04 #@! TO.P,TP8,1*
G04 #@! TO.N,Net-(IC1-Pad16)*
X152202641Y-96586568D03*
D17*
G04 #@! TO.P,TP8,2*
G04 #@! TO.N,V_Bridge0*
X154742641Y-96586568D03*
G04 #@! TD*
D19*
G04 #@! TO.P,U1,3*
G04 #@! TO.N,Vin*
X149606000Y-118999000D03*
G04 #@! TO.P,U1,2*
G04 #@! TO.N,GND*
X147066000Y-118999000D03*
D20*
G04 #@! TO.P,U1,1*
G04 #@! TO.N,Analog_Vin*
X144526000Y-118999000D03*
G04 #@! TD*
D18*
G04 #@! TO.P,REF\002A\002A,1*
G04 #@! TO.N,Analog_Vin*
X146050000Y-114554000D03*
D17*
G04 #@! TO.P,REF\002A\002A,2*
G04 #@! TO.N,Vin*
X148590000Y-114554000D03*
G04 #@! TD*
D21*
G04 #@! TO.N,GND*
X132080000Y-100012500D03*
X131953000Y-84010500D03*
X132080000Y-101981000D03*
X138557000Y-101917500D03*
X138366500Y-85852000D03*
X128143000Y-101727000D03*
X128143000Y-99187000D03*
X128143000Y-83312000D03*
X148463000Y-86995000D03*
X148463000Y-89535000D03*
X138049000Y-81915000D03*
X129921000Y-90170000D03*
X131191000Y-90170000D03*
X129921000Y-94615000D03*
X131191000Y-94615000D03*
X129921000Y-106045000D03*
X131191000Y-106045000D03*
X129921000Y-109855000D03*
X131191000Y-109855000D03*
X128143000Y-80645000D03*
X128143000Y-96520000D03*
X156718000Y-117475000D03*
X160528000Y-121285000D03*
X163068000Y-121285000D03*
X165608000Y-121285000D03*
X160528000Y-116205000D03*
X163068000Y-116205000D03*
X165608000Y-116205000D03*
X163068000Y-111125000D03*
X165608000Y-111125000D03*
X165608000Y-106045000D03*
X163068000Y-106045000D03*
X165608000Y-100965000D03*
X163068000Y-100965000D03*
X154813000Y-76644500D03*
X154813000Y-79121000D03*
X148463000Y-97663000D03*
X148463000Y-102870000D03*
X145923000Y-107950000D03*
X145923000Y-111125000D03*
X153543000Y-87058500D03*
X148463000Y-81597500D03*
X140208000Y-79375000D03*
X148463000Y-84772500D03*
X153543000Y-81978500D03*
X135001000Y-85852000D03*
X131953000Y-85915500D03*
X135191500Y-99377500D03*
X135191500Y-101917500D03*
X135001000Y-83312000D03*
X136661990Y-81915000D03*
X167513000Y-77660500D03*
X163703000Y-77597000D03*
X163703000Y-79057500D03*
X167513000Y-79057500D03*
X153479500Y-97853500D03*
X153479500Y-102933500D03*
X156718000Y-113030000D03*
X156718000Y-110490000D03*
X150368000Y-113030000D03*
X150368000Y-110490000D03*
X145923000Y-94615000D03*
X128143000Y-85852000D03*
X148463000Y-100711000D03*
X145923000Y-92075000D03*
X152273000Y-94615000D03*
X152273000Y-92075000D03*
X161798000Y-95250000D03*
X163703000Y-93345000D03*
X158623000Y-94615000D03*
X158623000Y-92075000D03*
X148463000Y-105410000D03*
G04 #@! TO.N,Net-(IC1-Pad8)*
X135763000Y-105791000D03*
G04 #@! TO.N,Channel0*
X160147000Y-112014000D03*
X140843004Y-104521000D03*
G04 #@! TO.N,Channel1*
X164338000Y-95885000D03*
X140716000Y-88392020D03*
G04 #@! TO.N,Net-(IC2-Pad8)*
X134874000Y-89662000D03*
G04 #@! TO.N,V_Bridge0*
X135191500Y-100673344D03*
G04 #@! TO.N,V_Bridge1*
X135011000Y-84582000D03*
G04 #@! TO.N,Analog_Vin*
X130556000Y-80899000D03*
X130556000Y-96901000D03*
G04 #@! TD*
D22*
G04 #@! TO.N,Vin*
X156718000Y-123825000D02*
X156718000Y-123672600D01*
G04 #@! TO.N,Net-(IC1-Pad8)*
X135128000Y-106426000D02*
X135763000Y-105791000D01*
X135128000Y-108585000D02*
X135128000Y-106426000D01*
X136207500Y-105791000D02*
X135763000Y-105791000D01*
X139636500Y-102362000D02*
X136207500Y-105791000D01*
X145034000Y-101473000D02*
X144145000Y-102362000D01*
X144145000Y-102362000D02*
X139636500Y-102362000D01*
G04 #@! TO.N,Channel0*
X161798000Y-123825000D02*
X161798000Y-123672600D01*
X141143003Y-104820999D02*
X140843004Y-104521000D01*
X148082004Y-111760000D02*
X141143003Y-104820999D01*
X160147000Y-112014000D02*
X159893000Y-111760000D01*
X159893000Y-111760000D02*
X148082004Y-111760000D01*
G04 #@! TO.N,Channel1*
X141015999Y-88692019D02*
X140716000Y-88392020D01*
X145668980Y-93345000D02*
X141015999Y-88692019D01*
X164338000Y-95885000D02*
X161798000Y-93345000D01*
X161798000Y-93345000D02*
X145668980Y-93345000D01*
G04 #@! TO.N,Net-(IC2-Pad8)*
X135001000Y-89789000D02*
X134874000Y-89662000D01*
X135001000Y-92456000D02*
X135001000Y-89789000D01*
X135763000Y-89662000D02*
X134874000Y-89662000D01*
X139065000Y-86360000D02*
X135763000Y-89662000D01*
X145288000Y-85471000D02*
X144399000Y-86360000D01*
X144399000Y-86360000D02*
X139065000Y-86360000D01*
G04 #@! TO.N,V_Bridge0*
X154749500Y-101656641D02*
X154742641Y-101663500D01*
X154749500Y-99123500D02*
X154749500Y-101656641D01*
X135217344Y-100647500D02*
X135191500Y-100673344D01*
X143192500Y-100647500D02*
X135217344Y-100647500D01*
X154749500Y-100330000D02*
X154686000Y-100393500D01*
X154749500Y-101656641D02*
X154749500Y-100330000D01*
X154686000Y-100393500D02*
X149733000Y-100393500D01*
X149733000Y-100393500D02*
X149098000Y-99758500D01*
X149098000Y-99758500D02*
X144081500Y-99758500D01*
X144081500Y-99758500D02*
X143192500Y-100647500D01*
G04 #@! TO.N,V_Bridge1*
X154749500Y-84772500D02*
X154749500Y-83248500D01*
X143446500Y-84582000D02*
X135011000Y-84582000D01*
X144208500Y-83820000D02*
X143446500Y-84582000D01*
X149161500Y-83820000D02*
X144208500Y-83820000D01*
X149860000Y-84518500D02*
X149161500Y-83820000D01*
X154749500Y-85788500D02*
X154749500Y-84518500D01*
X154749500Y-84518500D02*
X149860000Y-84518500D01*
G04 #@! TO.N,Analog_Vin*
X130556000Y-110713000D02*
X132334000Y-112491000D01*
X130556000Y-80899000D02*
X130556000Y-96901000D01*
X130556000Y-96901000D02*
X130556000Y-110713000D01*
G04 #@! TD*
D23*
G04 #@! TO.N,GND*
G36*
X124901734Y-73565136D02*
X124238136Y-74228734D01*
X123879000Y-75095766D01*
X123879000Y-76034234D01*
X124238136Y-76901266D01*
X124901734Y-77564864D01*
X125768766Y-77924000D01*
X126707234Y-77924000D01*
X127574266Y-77564864D01*
X128237864Y-76901266D01*
X128597000Y-76034234D01*
X128597000Y-75295339D01*
X128603400Y-75295339D01*
X128603400Y-75834662D01*
X128672480Y-76181949D01*
X128935626Y-76575775D01*
X129329452Y-76838920D01*
X129794000Y-76931325D01*
X130258549Y-76838920D01*
X130652375Y-76575775D01*
X130915520Y-76181948D01*
X130984600Y-75834661D01*
X130984600Y-75295339D01*
X131143400Y-75295339D01*
X131143400Y-75834662D01*
X131212480Y-76181949D01*
X131475626Y-76575775D01*
X131869452Y-76838920D01*
X132334000Y-76931325D01*
X132798549Y-76838920D01*
X133192375Y-76575775D01*
X133455520Y-76181948D01*
X133524600Y-75834661D01*
X133524600Y-75295339D01*
X133683400Y-75295339D01*
X133683400Y-75834662D01*
X133752480Y-76181949D01*
X134015626Y-76575775D01*
X134409452Y-76838920D01*
X134874000Y-76931325D01*
X135338549Y-76838920D01*
X135732375Y-76575775D01*
X135995520Y-76181948D01*
X136003679Y-76140932D01*
X136122046Y-76479320D01*
X136511964Y-76915732D01*
X137039209Y-77169709D01*
X137054974Y-77172358D01*
X137287000Y-77051217D01*
X137287000Y-75692000D01*
X137267000Y-75692000D01*
X137267000Y-75438000D01*
X137287000Y-75438000D01*
X137287000Y-74078783D01*
X137541000Y-74078783D01*
X137541000Y-75438000D01*
X137561000Y-75438000D01*
X137561000Y-75692000D01*
X137541000Y-75692000D01*
X137541000Y-77051217D01*
X137773026Y-77172358D01*
X137788791Y-77169709D01*
X138316036Y-76915732D01*
X138705954Y-76479320D01*
X138824321Y-76140932D01*
X138832480Y-76181949D01*
X139095626Y-76575775D01*
X139489452Y-76838920D01*
X139954000Y-76931325D01*
X140418549Y-76838920D01*
X140812375Y-76575775D01*
X141075520Y-76181948D01*
X141144600Y-75834661D01*
X141144600Y-75295339D01*
X141303400Y-75295339D01*
X141303400Y-75834662D01*
X141372480Y-76181949D01*
X141635626Y-76575775D01*
X142029452Y-76838920D01*
X142494000Y-76931325D01*
X142958549Y-76838920D01*
X143352375Y-76575775D01*
X143615520Y-76181948D01*
X143684600Y-75834661D01*
X143684600Y-75295339D01*
X143843400Y-75295339D01*
X143843400Y-75834662D01*
X143912480Y-76181949D01*
X144175626Y-76575775D01*
X144569452Y-76838920D01*
X145034000Y-76931325D01*
X145498549Y-76838920D01*
X145892375Y-76575775D01*
X146155520Y-76181948D01*
X146224600Y-75834661D01*
X146224600Y-75295339D01*
X146383400Y-75295339D01*
X146383400Y-75834662D01*
X146452480Y-76181949D01*
X146715626Y-76575775D01*
X147109452Y-76838920D01*
X147574000Y-76931325D01*
X148038549Y-76838920D01*
X148432375Y-76575775D01*
X148695520Y-76181948D01*
X148764600Y-75834661D01*
X148764600Y-75295339D01*
X148923400Y-75295339D01*
X148923400Y-75834662D01*
X148992480Y-76181949D01*
X149255626Y-76575775D01*
X149649452Y-76838920D01*
X150114000Y-76931325D01*
X150578549Y-76838920D01*
X150972375Y-76575775D01*
X151235520Y-76181948D01*
X151304600Y-75834661D01*
X151304600Y-75295339D01*
X151463400Y-75295339D01*
X151463400Y-75834662D01*
X151532480Y-76181949D01*
X151795626Y-76575775D01*
X152189452Y-76838920D01*
X152654000Y-76931325D01*
X153118549Y-76838920D01*
X153512375Y-76575775D01*
X153775520Y-76181948D01*
X153844600Y-75834661D01*
X153844600Y-75295339D01*
X155527400Y-75295339D01*
X155527400Y-75834662D01*
X155596480Y-76181949D01*
X155859626Y-76575775D01*
X156253452Y-76838920D01*
X156718000Y-76931325D01*
X157182549Y-76838920D01*
X157576375Y-76575775D01*
X157839520Y-76181948D01*
X157908600Y-75834661D01*
X157908600Y-75295339D01*
X158067400Y-75295339D01*
X158067400Y-75834662D01*
X158136480Y-76181949D01*
X158399626Y-76575775D01*
X158793452Y-76838920D01*
X159258000Y-76931325D01*
X159722549Y-76838920D01*
X160116375Y-76575775D01*
X160379520Y-76181948D01*
X160448600Y-75834661D01*
X160448600Y-75295339D01*
X160607400Y-75295339D01*
X160607400Y-75834662D01*
X160676480Y-76181949D01*
X160939626Y-76575775D01*
X161333452Y-76838920D01*
X161798000Y-76931325D01*
X162262549Y-76838920D01*
X162656375Y-76575775D01*
X162919520Y-76181948D01*
X162988600Y-75834661D01*
X162988600Y-75295339D01*
X163147400Y-75295339D01*
X163147400Y-75834662D01*
X163216480Y-76181949D01*
X163479626Y-76575775D01*
X163873452Y-76838920D01*
X164338000Y-76931325D01*
X164802549Y-76838920D01*
X165196375Y-76575775D01*
X165459520Y-76181948D01*
X165528600Y-75834661D01*
X165528600Y-75295339D01*
X165687400Y-75295339D01*
X165687400Y-75834662D01*
X165756480Y-76181949D01*
X166019626Y-76575775D01*
X166413452Y-76838920D01*
X166878000Y-76931325D01*
X167342549Y-76838920D01*
X167736375Y-76575775D01*
X167999520Y-76181948D01*
X168068600Y-75834661D01*
X168068600Y-75295339D01*
X168227400Y-75295339D01*
X168227400Y-75834662D01*
X168296480Y-76181949D01*
X168559626Y-76575775D01*
X168953452Y-76838920D01*
X169418000Y-76931325D01*
X169882549Y-76838920D01*
X170276375Y-76575775D01*
X170539520Y-76181948D01*
X170608600Y-75834661D01*
X170608600Y-75295339D01*
X170767400Y-75295339D01*
X170767400Y-75834662D01*
X170836480Y-76181949D01*
X171099626Y-76575775D01*
X171493452Y-76838920D01*
X171958000Y-76931325D01*
X172422549Y-76838920D01*
X172816375Y-76575775D01*
X173079520Y-76181948D01*
X173148600Y-75834661D01*
X173148600Y-75295339D01*
X173307400Y-75295339D01*
X173307400Y-75834662D01*
X173376480Y-76181949D01*
X173639626Y-76575775D01*
X174033452Y-76838920D01*
X174498000Y-76931325D01*
X174962549Y-76838920D01*
X175356375Y-76575775D01*
X175619520Y-76181948D01*
X175688600Y-75834661D01*
X175688600Y-75295338D01*
X175619520Y-74948051D01*
X175356375Y-74554225D01*
X174962548Y-74291080D01*
X174498000Y-74198675D01*
X174033451Y-74291080D01*
X173639625Y-74554225D01*
X173376480Y-74948052D01*
X173307400Y-75295339D01*
X173148600Y-75295339D01*
X173148600Y-75295338D01*
X173079520Y-74948051D01*
X172816375Y-74554225D01*
X172422548Y-74291080D01*
X171958000Y-74198675D01*
X171493451Y-74291080D01*
X171099625Y-74554225D01*
X170836480Y-74948052D01*
X170767400Y-75295339D01*
X170608600Y-75295339D01*
X170608600Y-75295338D01*
X170539520Y-74948051D01*
X170276375Y-74554225D01*
X169882548Y-74291080D01*
X169418000Y-74198675D01*
X168953451Y-74291080D01*
X168559625Y-74554225D01*
X168296480Y-74948052D01*
X168227400Y-75295339D01*
X168068600Y-75295339D01*
X168068600Y-75295338D01*
X167999520Y-74948051D01*
X167736375Y-74554225D01*
X167342548Y-74291080D01*
X166878000Y-74198675D01*
X166413451Y-74291080D01*
X166019625Y-74554225D01*
X165756480Y-74948052D01*
X165687400Y-75295339D01*
X165528600Y-75295339D01*
X165528600Y-75295338D01*
X165459520Y-74948051D01*
X165196375Y-74554225D01*
X164802548Y-74291080D01*
X164338000Y-74198675D01*
X163873451Y-74291080D01*
X163479625Y-74554225D01*
X163216480Y-74948052D01*
X163147400Y-75295339D01*
X162988600Y-75295339D01*
X162988600Y-75295338D01*
X162919520Y-74948051D01*
X162656375Y-74554225D01*
X162262548Y-74291080D01*
X161798000Y-74198675D01*
X161333451Y-74291080D01*
X160939625Y-74554225D01*
X160676480Y-74948052D01*
X160607400Y-75295339D01*
X160448600Y-75295339D01*
X160448600Y-75295338D01*
X160379520Y-74948051D01*
X160116375Y-74554225D01*
X159722548Y-74291080D01*
X159258000Y-74198675D01*
X158793451Y-74291080D01*
X158399625Y-74554225D01*
X158136480Y-74948052D01*
X158067400Y-75295339D01*
X157908600Y-75295339D01*
X157908600Y-75295338D01*
X157839520Y-74948051D01*
X157576375Y-74554225D01*
X157182548Y-74291080D01*
X156718000Y-74198675D01*
X156253451Y-74291080D01*
X155859625Y-74554225D01*
X155596480Y-74948052D01*
X155527400Y-75295339D01*
X153844600Y-75295339D01*
X153844600Y-75295338D01*
X153775520Y-74948051D01*
X153512375Y-74554225D01*
X153118548Y-74291080D01*
X152654000Y-74198675D01*
X152189451Y-74291080D01*
X151795625Y-74554225D01*
X151532480Y-74948052D01*
X151463400Y-75295339D01*
X151304600Y-75295339D01*
X151304600Y-75295338D01*
X151235520Y-74948051D01*
X150972375Y-74554225D01*
X150578548Y-74291080D01*
X150114000Y-74198675D01*
X149649451Y-74291080D01*
X149255625Y-74554225D01*
X148992480Y-74948052D01*
X148923400Y-75295339D01*
X148764600Y-75295339D01*
X148764600Y-75295338D01*
X148695520Y-74948051D01*
X148432375Y-74554225D01*
X148038548Y-74291080D01*
X147574000Y-74198675D01*
X147109451Y-74291080D01*
X146715625Y-74554225D01*
X146452480Y-74948052D01*
X146383400Y-75295339D01*
X146224600Y-75295339D01*
X146224600Y-75295338D01*
X146155520Y-74948051D01*
X145892375Y-74554225D01*
X145498548Y-74291080D01*
X145034000Y-74198675D01*
X144569451Y-74291080D01*
X144175625Y-74554225D01*
X143912480Y-74948052D01*
X143843400Y-75295339D01*
X143684600Y-75295339D01*
X143684600Y-75295338D01*
X143615520Y-74948051D01*
X143352375Y-74554225D01*
X142958548Y-74291080D01*
X142494000Y-74198675D01*
X142029451Y-74291080D01*
X141635625Y-74554225D01*
X141372480Y-74948052D01*
X141303400Y-75295339D01*
X141144600Y-75295339D01*
X141144600Y-75295338D01*
X141075520Y-74948051D01*
X140812375Y-74554225D01*
X140418548Y-74291080D01*
X139954000Y-74198675D01*
X139489451Y-74291080D01*
X139095625Y-74554225D01*
X138832480Y-74948052D01*
X138824321Y-74989068D01*
X138705954Y-74650680D01*
X138316036Y-74214268D01*
X137788791Y-73960291D01*
X137773026Y-73957642D01*
X137541000Y-74078783D01*
X137287000Y-74078783D01*
X137054974Y-73957642D01*
X137039209Y-73960291D01*
X136511964Y-74214268D01*
X136122046Y-74650680D01*
X136003679Y-74989068D01*
X135995520Y-74948051D01*
X135732375Y-74554225D01*
X135338548Y-74291080D01*
X134874000Y-74198675D01*
X134409451Y-74291080D01*
X134015625Y-74554225D01*
X133752480Y-74948052D01*
X133683400Y-75295339D01*
X133524600Y-75295339D01*
X133524600Y-75295338D01*
X133455520Y-74948051D01*
X133192375Y-74554225D01*
X132798548Y-74291080D01*
X132334000Y-74198675D01*
X131869451Y-74291080D01*
X131475625Y-74554225D01*
X131212480Y-74948052D01*
X131143400Y-75295339D01*
X130984600Y-75295339D01*
X130984600Y-75295338D01*
X130915520Y-74948051D01*
X130652375Y-74554225D01*
X130258548Y-74291080D01*
X129794000Y-74198675D01*
X129329451Y-74291080D01*
X128935625Y-74554225D01*
X128672480Y-74948052D01*
X128603400Y-75295339D01*
X128597000Y-75295339D01*
X128597000Y-75095766D01*
X128237864Y-74228734D01*
X127574266Y-73565136D01*
X127064538Y-73354000D01*
X175377724Y-73354000D01*
X176709001Y-74685277D01*
X176709000Y-85946604D01*
X176702556Y-85979000D01*
X176709000Y-86011396D01*
X176709000Y-86011400D01*
X176728089Y-86107368D01*
X176751520Y-86142436D01*
X176779052Y-86183639D01*
X176800805Y-86216195D01*
X176828272Y-86234548D01*
X179249001Y-88655277D01*
X179249001Y-89978464D01*
X179037864Y-89468734D01*
X178374266Y-88805136D01*
X177507234Y-88446000D01*
X176568766Y-88446000D01*
X175701734Y-88805136D01*
X175038136Y-89468734D01*
X174679000Y-90335766D01*
X174679000Y-91274234D01*
X175038136Y-92141266D01*
X175701734Y-92804864D01*
X176568766Y-93164000D01*
X177507234Y-93164000D01*
X178374266Y-92804864D01*
X179037864Y-92141266D01*
X179249001Y-91631536D01*
X179249000Y-117918462D01*
X179037864Y-117408734D01*
X178374266Y-116745136D01*
X177507234Y-116386000D01*
X176568766Y-116386000D01*
X175701734Y-116745136D01*
X175038136Y-117408734D01*
X174679000Y-118275766D01*
X174679000Y-119214234D01*
X175038136Y-120081266D01*
X175701734Y-120744864D01*
X176568766Y-121104000D01*
X177507234Y-121104000D01*
X178374266Y-120744864D01*
X179037864Y-120081266D01*
X179249000Y-119571538D01*
X179249000Y-121148724D01*
X176828270Y-123569454D01*
X176800806Y-123587805D01*
X176782455Y-123615269D01*
X176782451Y-123615273D01*
X176728090Y-123696631D01*
X176702556Y-123825000D01*
X176709001Y-123857401D01*
X176709000Y-126036000D01*
X125794538Y-126036000D01*
X126304266Y-125824864D01*
X126967864Y-125161266D01*
X127327000Y-124294234D01*
X127327000Y-123555339D01*
X137747400Y-123555339D01*
X137747400Y-124094662D01*
X137816480Y-124441949D01*
X138079626Y-124835775D01*
X138473452Y-125098920D01*
X138938000Y-125191325D01*
X139402549Y-125098920D01*
X139796375Y-124835775D01*
X140059520Y-124441948D01*
X140128600Y-124094661D01*
X140128600Y-123555339D01*
X140287400Y-123555339D01*
X140287400Y-124094662D01*
X140356480Y-124441949D01*
X140619626Y-124835775D01*
X141013452Y-125098920D01*
X141478000Y-125191325D01*
X141942549Y-125098920D01*
X142336375Y-124835775D01*
X142599520Y-124441948D01*
X142668600Y-124094661D01*
X142668600Y-123555339D01*
X142827400Y-123555339D01*
X142827400Y-124094662D01*
X142896480Y-124441949D01*
X143159626Y-124835775D01*
X143553452Y-125098920D01*
X144018000Y-125191325D01*
X144482549Y-125098920D01*
X144876375Y-124835775D01*
X145139520Y-124441948D01*
X145208600Y-124094661D01*
X145208600Y-123555339D01*
X145367400Y-123555339D01*
X145367400Y-124094662D01*
X145436480Y-124441949D01*
X145699626Y-124835775D01*
X146093452Y-125098920D01*
X146558000Y-125191325D01*
X147022549Y-125098920D01*
X147416375Y-124835775D01*
X147679520Y-124441948D01*
X147748600Y-124094661D01*
X147748600Y-123555339D01*
X147907400Y-123555339D01*
X147907400Y-124094662D01*
X147976480Y-124441949D01*
X148239626Y-124835775D01*
X148633452Y-125098920D01*
X149098000Y-125191325D01*
X149562549Y-125098920D01*
X149956375Y-124835775D01*
X150219520Y-124441948D01*
X150227679Y-124400932D01*
X150346046Y-124739320D01*
X150735964Y-125175732D01*
X151263209Y-125429709D01*
X151278974Y-125432358D01*
X151511000Y-125311217D01*
X151511000Y-123952000D01*
X151765000Y-123952000D01*
X151765000Y-125311217D01*
X151997026Y-125432358D01*
X152012791Y-125429709D01*
X152540036Y-125175732D01*
X152908000Y-124763892D01*
X153275964Y-125175732D01*
X153803209Y-125429709D01*
X153818974Y-125432358D01*
X154051000Y-125311217D01*
X154051000Y-123952000D01*
X151765000Y-123952000D01*
X151511000Y-123952000D01*
X151491000Y-123952000D01*
X151491000Y-123698000D01*
X151511000Y-123698000D01*
X151511000Y-122338783D01*
X151765000Y-122338783D01*
X151765000Y-123698000D01*
X154051000Y-123698000D01*
X154051000Y-122338783D01*
X154305000Y-122338783D01*
X154305000Y-123698000D01*
X154325000Y-123698000D01*
X154325000Y-123952000D01*
X154305000Y-123952000D01*
X154305000Y-125311217D01*
X154537026Y-125432358D01*
X154552791Y-125429709D01*
X155080036Y-125175732D01*
X155469954Y-124739320D01*
X155588321Y-124400932D01*
X155596480Y-124441949D01*
X155859626Y-124835775D01*
X156253452Y-125098920D01*
X156718000Y-125191325D01*
X157182549Y-125098920D01*
X157576375Y-124835775D01*
X157839520Y-124441948D01*
X157908600Y-124094661D01*
X157908600Y-123555339D01*
X160607400Y-123555339D01*
X160607400Y-124094662D01*
X160676480Y-124441949D01*
X160939626Y-124835775D01*
X161333452Y-125098920D01*
X161798000Y-125191325D01*
X162262549Y-125098920D01*
X162656375Y-124835775D01*
X162919520Y-124441948D01*
X162988600Y-124094661D01*
X162988600Y-123555339D01*
X163147400Y-123555339D01*
X163147400Y-124094662D01*
X163216480Y-124441949D01*
X163479626Y-124835775D01*
X163873452Y-125098920D01*
X164338000Y-125191325D01*
X164802549Y-125098920D01*
X165196375Y-124835775D01*
X165459520Y-124441948D01*
X165528600Y-124094661D01*
X165528600Y-123555339D01*
X165687400Y-123555339D01*
X165687400Y-124094662D01*
X165756480Y-124441949D01*
X166019626Y-124835775D01*
X166413452Y-125098920D01*
X166878000Y-125191325D01*
X167342549Y-125098920D01*
X167736375Y-124835775D01*
X167999520Y-124441948D01*
X168068600Y-124094661D01*
X168068600Y-123555339D01*
X168227400Y-123555339D01*
X168227400Y-124094662D01*
X168296480Y-124441949D01*
X168559626Y-124835775D01*
X168953452Y-125098920D01*
X169418000Y-125191325D01*
X169882549Y-125098920D01*
X170276375Y-124835775D01*
X170539520Y-124441948D01*
X170608600Y-124094661D01*
X170608600Y-123555339D01*
X170767400Y-123555339D01*
X170767400Y-124094662D01*
X170836480Y-124441949D01*
X171099626Y-124835775D01*
X171493452Y-125098920D01*
X171958000Y-125191325D01*
X172422549Y-125098920D01*
X172816375Y-124835775D01*
X173079520Y-124441948D01*
X173148600Y-124094661D01*
X173148600Y-123555339D01*
X173307400Y-123555339D01*
X173307400Y-124094662D01*
X173376480Y-124441949D01*
X173639626Y-124835775D01*
X174033452Y-125098920D01*
X174498000Y-125191325D01*
X174962549Y-125098920D01*
X175356375Y-124835775D01*
X175619520Y-124441948D01*
X175688600Y-124094661D01*
X175688600Y-123555338D01*
X175619520Y-123208051D01*
X175356375Y-122814225D01*
X174962548Y-122551080D01*
X174498000Y-122458675D01*
X174033451Y-122551080D01*
X173639625Y-122814225D01*
X173376480Y-123208052D01*
X173307400Y-123555339D01*
X173148600Y-123555339D01*
X173148600Y-123555338D01*
X173079520Y-123208051D01*
X172816375Y-122814225D01*
X172422548Y-122551080D01*
X171958000Y-122458675D01*
X171493451Y-122551080D01*
X171099625Y-122814225D01*
X170836480Y-123208052D01*
X170767400Y-123555339D01*
X170608600Y-123555339D01*
X170608600Y-123555338D01*
X170539520Y-123208051D01*
X170276375Y-122814225D01*
X169882548Y-122551080D01*
X169418000Y-122458675D01*
X168953451Y-122551080D01*
X168559625Y-122814225D01*
X168296480Y-123208052D01*
X168227400Y-123555339D01*
X168068600Y-123555339D01*
X168068600Y-123555338D01*
X167999520Y-123208051D01*
X167736375Y-122814225D01*
X167342548Y-122551080D01*
X166878000Y-122458675D01*
X166413451Y-122551080D01*
X166019625Y-122814225D01*
X165756480Y-123208052D01*
X165687400Y-123555339D01*
X165528600Y-123555339D01*
X165528600Y-123555338D01*
X165459520Y-123208051D01*
X165196375Y-122814225D01*
X164802548Y-122551080D01*
X164338000Y-122458675D01*
X163873451Y-122551080D01*
X163479625Y-122814225D01*
X163216480Y-123208052D01*
X163147400Y-123555339D01*
X162988600Y-123555339D01*
X162988600Y-123555338D01*
X162919520Y-123208051D01*
X162656375Y-122814225D01*
X162262548Y-122551080D01*
X161798000Y-122458675D01*
X161333451Y-122551080D01*
X160939625Y-122814225D01*
X160676480Y-123208052D01*
X160607400Y-123555339D01*
X157908600Y-123555339D01*
X157908600Y-123555338D01*
X157839520Y-123208051D01*
X157576375Y-122814225D01*
X157182548Y-122551080D01*
X156718000Y-122458675D01*
X156253451Y-122551080D01*
X155859625Y-122814225D01*
X155596480Y-123208052D01*
X155588321Y-123249068D01*
X155469954Y-122910680D01*
X155080036Y-122474268D01*
X154552791Y-122220291D01*
X154537026Y-122217642D01*
X154305000Y-122338783D01*
X154051000Y-122338783D01*
X153818974Y-122217642D01*
X153803209Y-122220291D01*
X153275964Y-122474268D01*
X152908000Y-122886108D01*
X152540036Y-122474268D01*
X152012791Y-122220291D01*
X151997026Y-122217642D01*
X151765000Y-122338783D01*
X151511000Y-122338783D01*
X151278974Y-122217642D01*
X151263209Y-122220291D01*
X150735964Y-122474268D01*
X150346046Y-122910680D01*
X150227679Y-123249068D01*
X150219520Y-123208051D01*
X149956375Y-122814225D01*
X149562548Y-122551080D01*
X149098000Y-122458675D01*
X148633451Y-122551080D01*
X148239625Y-122814225D01*
X147976480Y-123208052D01*
X147907400Y-123555339D01*
X147748600Y-123555339D01*
X147748600Y-123555338D01*
X147679520Y-123208051D01*
X147416375Y-122814225D01*
X147022548Y-122551080D01*
X146558000Y-122458675D01*
X146093451Y-122551080D01*
X145699625Y-122814225D01*
X145436480Y-123208052D01*
X145367400Y-123555339D01*
X145208600Y-123555339D01*
X145208600Y-123555338D01*
X145139520Y-123208051D01*
X144876375Y-122814225D01*
X144482548Y-122551080D01*
X144018000Y-122458675D01*
X143553451Y-122551080D01*
X143159625Y-122814225D01*
X142896480Y-123208052D01*
X142827400Y-123555339D01*
X142668600Y-123555339D01*
X142668600Y-123555338D01*
X142599520Y-123208051D01*
X142336375Y-122814225D01*
X141942548Y-122551080D01*
X141478000Y-122458675D01*
X141013451Y-122551080D01*
X140619625Y-122814225D01*
X140356480Y-123208052D01*
X140287400Y-123555339D01*
X140128600Y-123555339D01*
X140128600Y-123555338D01*
X140059520Y-123208051D01*
X139796375Y-122814225D01*
X139402548Y-122551080D01*
X138938000Y-122458675D01*
X138473451Y-122551080D01*
X138079625Y-122814225D01*
X137816480Y-123208052D01*
X137747400Y-123555339D01*
X127327000Y-123555339D01*
X127327000Y-123355766D01*
X126967864Y-122488734D01*
X126304266Y-121825136D01*
X125437234Y-121466000D01*
X124498766Y-121466000D01*
X123631734Y-121825136D01*
X122968136Y-122488734D01*
X122609000Y-123355766D01*
X122609000Y-124294234D01*
X122968136Y-125161266D01*
X123631734Y-125824864D01*
X124141462Y-126036000D01*
X111327000Y-126036000D01*
X111327000Y-118776750D01*
X129949000Y-118776750D01*
X129949000Y-120367309D01*
X130045673Y-120600698D01*
X130224301Y-120779327D01*
X130457690Y-120876000D01*
X132048250Y-120876000D01*
X132207000Y-120717250D01*
X132207000Y-118618000D01*
X132461000Y-118618000D01*
X132461000Y-120717250D01*
X132619750Y-120876000D01*
X134210310Y-120876000D01*
X134443699Y-120779327D01*
X134622327Y-120600698D01*
X134719000Y-120367309D01*
X134719000Y-118776750D01*
X134560250Y-118618000D01*
X132461000Y-118618000D01*
X132207000Y-118618000D01*
X130107750Y-118618000D01*
X129949000Y-118776750D01*
X111327000Y-118776750D01*
X111327000Y-116614691D01*
X129949000Y-116614691D01*
X129949000Y-118205250D01*
X130107750Y-118364000D01*
X132207000Y-118364000D01*
X132207000Y-116264750D01*
X132461000Y-116264750D01*
X132461000Y-118364000D01*
X134560250Y-118364000D01*
X134719000Y-118205250D01*
X134719000Y-118099000D01*
X143292594Y-118099000D01*
X143292594Y-119899000D01*
X143317973Y-120026589D01*
X143390246Y-120134754D01*
X143498411Y-120207027D01*
X143626000Y-120232406D01*
X145426000Y-120232406D01*
X145553589Y-120207027D01*
X145661754Y-120134754D01*
X145734027Y-120026589D01*
X145759406Y-119899000D01*
X145759406Y-119801578D01*
X146158424Y-120236966D01*
X146701258Y-120490046D01*
X146939000Y-120369997D01*
X146939000Y-119126000D01*
X146919000Y-119126000D01*
X146919000Y-118872000D01*
X146939000Y-118872000D01*
X146939000Y-117628003D01*
X147193000Y-117628003D01*
X147193000Y-118872000D01*
X147213000Y-118872000D01*
X147213000Y-119126000D01*
X147193000Y-119126000D01*
X147193000Y-120369997D01*
X147430742Y-120490046D01*
X147973576Y-120236966D01*
X148378240Y-119795417D01*
X148486998Y-119532836D01*
X148721383Y-119883617D01*
X149127248Y-120154808D01*
X149485153Y-120226000D01*
X149726847Y-120226000D01*
X150084752Y-120154808D01*
X150490617Y-119883617D01*
X150761808Y-119477752D01*
X150857038Y-118999000D01*
X150761808Y-118520248D01*
X150490617Y-118114383D01*
X150084752Y-117843192D01*
X149726847Y-117772000D01*
X149485153Y-117772000D01*
X149127248Y-117843192D01*
X148721383Y-118114383D01*
X148486998Y-118465164D01*
X148378240Y-118202583D01*
X147973576Y-117761034D01*
X147430742Y-117507954D01*
X147193000Y-117628003D01*
X146939000Y-117628003D01*
X146701258Y-117507954D01*
X146158424Y-117761034D01*
X145759406Y-118196422D01*
X145759406Y-118099000D01*
X145734027Y-117971411D01*
X145661754Y-117863246D01*
X145553589Y-117790973D01*
X145426000Y-117765594D01*
X143626000Y-117765594D01*
X143498411Y-117790973D01*
X143390246Y-117863246D01*
X143317973Y-117971411D01*
X143292594Y-118099000D01*
X134719000Y-118099000D01*
X134719000Y-116614691D01*
X134622327Y-116381302D01*
X134443699Y-116202673D01*
X134210310Y-116106000D01*
X132619750Y-116106000D01*
X132461000Y-116264750D01*
X132207000Y-116264750D01*
X132048250Y-116106000D01*
X130457690Y-116106000D01*
X130224301Y-116202673D01*
X130045673Y-116381302D01*
X129949000Y-116614691D01*
X111327000Y-116614691D01*
X111327000Y-105314750D01*
X124857510Y-105314750D01*
X124857510Y-106154799D01*
X124954183Y-106388188D01*
X125132811Y-106566817D01*
X125366200Y-106663490D01*
X126206250Y-106663490D01*
X126365000Y-106504740D01*
X126365000Y-105156000D01*
X126619000Y-105156000D01*
X126619000Y-106504740D01*
X126777750Y-106663490D01*
X127617800Y-106663490D01*
X127851189Y-106566817D01*
X128029817Y-106388188D01*
X128126490Y-106154799D01*
X128126490Y-105314750D01*
X127967740Y-105156000D01*
X126619000Y-105156000D01*
X126365000Y-105156000D01*
X125016260Y-105156000D01*
X124857510Y-105314750D01*
X111327000Y-105314750D01*
X111327000Y-103903201D01*
X124857510Y-103903201D01*
X124857510Y-104743250D01*
X125016260Y-104902000D01*
X126365000Y-104902000D01*
X126365000Y-104882000D01*
X126619000Y-104882000D01*
X126619000Y-104902000D01*
X127967740Y-104902000D01*
X128126490Y-104743250D01*
X128126490Y-103903201D01*
X128029817Y-103669812D01*
X127851189Y-103491183D01*
X127617800Y-103394510D01*
X127482314Y-103394510D01*
X127741526Y-103006571D01*
X127844477Y-102489000D01*
X127741526Y-101971429D01*
X127448346Y-101532654D01*
X127009571Y-101239474D01*
X126906641Y-101219000D01*
X127009571Y-101198526D01*
X127448346Y-100905346D01*
X127741526Y-100466571D01*
X127844477Y-99949000D01*
X127741526Y-99431429D01*
X127448346Y-98992654D01*
X127009571Y-98699474D01*
X126906641Y-98679000D01*
X127009571Y-98658526D01*
X127448346Y-98365346D01*
X127741526Y-97926571D01*
X127844477Y-97409000D01*
X127741526Y-96891429D01*
X127448346Y-96452654D01*
X127009571Y-96159474D01*
X126622646Y-96082510D01*
X126361354Y-96082510D01*
X125974429Y-96159474D01*
X125535654Y-96452654D01*
X125242474Y-96891429D01*
X125139523Y-97409000D01*
X125242474Y-97926571D01*
X125535654Y-98365346D01*
X125974429Y-98658526D01*
X126077359Y-98679000D01*
X125974429Y-98699474D01*
X125535654Y-98992654D01*
X125242474Y-99431429D01*
X125139523Y-99949000D01*
X125242474Y-100466571D01*
X125535654Y-100905346D01*
X125974429Y-101198526D01*
X126077359Y-101219000D01*
X125974429Y-101239474D01*
X125535654Y-101532654D01*
X125242474Y-101971429D01*
X125139523Y-102489000D01*
X125242474Y-103006571D01*
X125501686Y-103394510D01*
X125366200Y-103394510D01*
X125132811Y-103491183D01*
X124954183Y-103669812D01*
X124857510Y-103903201D01*
X111327000Y-103903201D01*
X111327000Y-89312750D01*
X124857510Y-89312750D01*
X124857510Y-90152799D01*
X124954183Y-90386188D01*
X125132811Y-90564817D01*
X125366200Y-90661490D01*
X126206250Y-90661490D01*
X126365000Y-90502740D01*
X126365000Y-89154000D01*
X126619000Y-89154000D01*
X126619000Y-90502740D01*
X126777750Y-90661490D01*
X127617800Y-90661490D01*
X127851189Y-90564817D01*
X128029817Y-90386188D01*
X128126490Y-90152799D01*
X128126490Y-89312750D01*
X127967740Y-89154000D01*
X126619000Y-89154000D01*
X126365000Y-89154000D01*
X125016260Y-89154000D01*
X124857510Y-89312750D01*
X111327000Y-89312750D01*
X111327000Y-87901201D01*
X124857510Y-87901201D01*
X124857510Y-88741250D01*
X125016260Y-88900000D01*
X126365000Y-88900000D01*
X126365000Y-88880000D01*
X126619000Y-88880000D01*
X126619000Y-88900000D01*
X127967740Y-88900000D01*
X128126490Y-88741250D01*
X128126490Y-87901201D01*
X128029817Y-87667812D01*
X127851189Y-87489183D01*
X127617800Y-87392510D01*
X127482314Y-87392510D01*
X127741526Y-87004571D01*
X127844477Y-86487000D01*
X127741526Y-85969429D01*
X127448346Y-85530654D01*
X127009571Y-85237474D01*
X126906641Y-85217000D01*
X127009571Y-85196526D01*
X127448346Y-84903346D01*
X127741526Y-84464571D01*
X127844477Y-83947000D01*
X127741526Y-83429429D01*
X127448346Y-82990654D01*
X127009571Y-82697474D01*
X126906641Y-82677000D01*
X127009571Y-82656526D01*
X127448346Y-82363346D01*
X127741526Y-81924571D01*
X127844477Y-81407000D01*
X127741526Y-80889429D01*
X127664588Y-80774282D01*
X129929000Y-80774282D01*
X129929000Y-81023718D01*
X130024455Y-81254167D01*
X130104000Y-81333712D01*
X130104001Y-96466287D01*
X130024455Y-96545833D01*
X129929000Y-96776282D01*
X129929000Y-97025718D01*
X130024455Y-97256167D01*
X130104000Y-97335712D01*
X130104001Y-110668477D01*
X130095145Y-110713000D01*
X130130225Y-110889361D01*
X130130226Y-110889362D01*
X130230127Y-111038874D01*
X130250594Y-111052550D01*
X130250594Y-114241000D01*
X130275973Y-114368589D01*
X130348246Y-114476754D01*
X130456411Y-114549027D01*
X130584000Y-114574406D01*
X134084000Y-114574406D01*
X134211589Y-114549027D01*
X134319754Y-114476754D01*
X134392027Y-114368589D01*
X134417406Y-114241000D01*
X134417406Y-113741000D01*
X134950594Y-113741000D01*
X134950594Y-117241000D01*
X134975973Y-117368589D01*
X135048246Y-117476754D01*
X135156411Y-117549027D01*
X135284000Y-117574406D01*
X138784000Y-117574406D01*
X138911589Y-117549027D01*
X139019754Y-117476754D01*
X139092027Y-117368589D01*
X139117406Y-117241000D01*
X139117406Y-113741000D01*
X139110047Y-113704000D01*
X144866594Y-113704000D01*
X144866594Y-115404000D01*
X144891973Y-115531589D01*
X144964246Y-115639754D01*
X145072411Y-115712027D01*
X145200000Y-115737406D01*
X146900000Y-115737406D01*
X147027589Y-115712027D01*
X147135754Y-115639754D01*
X147208027Y-115531589D01*
X147233406Y-115404000D01*
X147233406Y-114554000D01*
X147389942Y-114554000D01*
X147481291Y-115013242D01*
X147741431Y-115402569D01*
X148130758Y-115662709D01*
X148474080Y-115731000D01*
X148705920Y-115731000D01*
X149049242Y-115662709D01*
X149438569Y-115402569D01*
X149698709Y-115013242D01*
X149790058Y-114554000D01*
X149698709Y-114094758D01*
X149438569Y-113705431D01*
X149049242Y-113445291D01*
X148705920Y-113377000D01*
X148474080Y-113377000D01*
X148130758Y-113445291D01*
X147741431Y-113705431D01*
X147481291Y-114094758D01*
X147389942Y-114554000D01*
X147233406Y-114554000D01*
X147233406Y-113704000D01*
X147208027Y-113576411D01*
X147135754Y-113468246D01*
X147027589Y-113395973D01*
X146900000Y-113370594D01*
X145200000Y-113370594D01*
X145072411Y-113395973D01*
X144964246Y-113468246D01*
X144891973Y-113576411D01*
X144866594Y-113704000D01*
X139110047Y-113704000D01*
X139092027Y-113613411D01*
X139019754Y-113505246D01*
X138911589Y-113432973D01*
X138784000Y-113407594D01*
X135284000Y-113407594D01*
X135156411Y-113432973D01*
X135048246Y-113505246D01*
X134975973Y-113613411D01*
X134950594Y-113741000D01*
X134417406Y-113741000D01*
X134417406Y-110741000D01*
X134392027Y-110613411D01*
X134319754Y-110505246D01*
X134211589Y-110432973D01*
X134084000Y-110407594D01*
X131008000Y-110407594D01*
X131008000Y-108271379D01*
X133551320Y-108271379D01*
X133551320Y-108898621D01*
X133791355Y-109478117D01*
X134234883Y-109921645D01*
X134814379Y-110161680D01*
X135441621Y-110161680D01*
X136021117Y-109921645D01*
X136464645Y-109478117D01*
X136704680Y-108898621D01*
X136704680Y-108271379D01*
X137996320Y-108271379D01*
X137996320Y-108898621D01*
X138236355Y-109478117D01*
X138679883Y-109921645D01*
X139259379Y-110161680D01*
X139886621Y-110161680D01*
X140466117Y-109921645D01*
X140909645Y-109478117D01*
X141149680Y-108898621D01*
X141149680Y-108271379D01*
X140909645Y-107691883D01*
X140466117Y-107248355D01*
X139886621Y-107008320D01*
X139259379Y-107008320D01*
X138679883Y-107248355D01*
X138236355Y-107691883D01*
X137996320Y-108271379D01*
X136704680Y-108271379D01*
X136464645Y-107691883D01*
X136021117Y-107248355D01*
X135580000Y-107065638D01*
X135580000Y-106613224D01*
X135775225Y-106418000D01*
X135887718Y-106418000D01*
X136118167Y-106322545D01*
X136191950Y-106248762D01*
X136207500Y-106251855D01*
X136252018Y-106243000D01*
X136383862Y-106216775D01*
X136533374Y-106116874D01*
X136558593Y-106079131D01*
X138241442Y-104396282D01*
X140216004Y-104396282D01*
X140216004Y-104645718D01*
X140311459Y-104876167D01*
X140487837Y-105052545D01*
X140718286Y-105148000D01*
X140830779Y-105148000D01*
X140854869Y-105172090D01*
X140854872Y-105172092D01*
X147730912Y-112048133D01*
X147756130Y-112085874D01*
X147905642Y-112185775D01*
X148037486Y-112212000D01*
X148037487Y-112212000D01*
X148082003Y-112220855D01*
X148126520Y-112212000D01*
X159550354Y-112212000D01*
X159615455Y-112369167D01*
X159791833Y-112545545D01*
X160022282Y-112641000D01*
X160271718Y-112641000D01*
X160502167Y-112545545D01*
X160678545Y-112369167D01*
X160774000Y-112138718D01*
X160774000Y-111889282D01*
X160678545Y-111658833D01*
X160502167Y-111482455D01*
X160271718Y-111387000D01*
X160148345Y-111387000D01*
X160069362Y-111334225D01*
X159937518Y-111308000D01*
X159893000Y-111299145D01*
X159848482Y-111308000D01*
X148269229Y-111308000D01*
X141494096Y-104532868D01*
X141494094Y-104532865D01*
X141470004Y-104508775D01*
X141470004Y-104396282D01*
X141374549Y-104165833D01*
X141198171Y-103989455D01*
X140967722Y-103894000D01*
X140718286Y-103894000D01*
X140487837Y-103989455D01*
X140311459Y-104165833D01*
X140216004Y-104396282D01*
X138241442Y-104396282D01*
X138832985Y-103804739D01*
X141447000Y-103804739D01*
X141447000Y-104221261D01*
X141606396Y-104606078D01*
X141900922Y-104900604D01*
X142285739Y-105060000D01*
X142702261Y-105060000D01*
X143087078Y-104900604D01*
X143381604Y-104606078D01*
X143541000Y-104221261D01*
X143541000Y-103804739D01*
X143381604Y-103419922D01*
X143315182Y-103353500D01*
X151026094Y-103353500D01*
X151026094Y-105053500D01*
X151051473Y-105181089D01*
X151123746Y-105289254D01*
X151231911Y-105361527D01*
X151359500Y-105386906D01*
X153059500Y-105386906D01*
X153187089Y-105361527D01*
X153295254Y-105289254D01*
X153367527Y-105181089D01*
X153392906Y-105053500D01*
X153392906Y-104203500D01*
X153549442Y-104203500D01*
X153640791Y-104662742D01*
X153900931Y-105052069D01*
X154290258Y-105312209D01*
X154633580Y-105380500D01*
X154865420Y-105380500D01*
X155208742Y-105312209D01*
X155598069Y-105052069D01*
X155858209Y-104662742D01*
X155949558Y-104203500D01*
X155858209Y-103744258D01*
X155598069Y-103354931D01*
X155208742Y-103094791D01*
X154865420Y-103026500D01*
X154633580Y-103026500D01*
X154290258Y-103094791D01*
X153900931Y-103354931D01*
X153640791Y-103744258D01*
X153549442Y-104203500D01*
X153392906Y-104203500D01*
X153392906Y-103353500D01*
X153367527Y-103225911D01*
X153295254Y-103117746D01*
X153187089Y-103045473D01*
X153059500Y-103020094D01*
X151359500Y-103020094D01*
X151231911Y-103045473D01*
X151123746Y-103117746D01*
X151051473Y-103225911D01*
X151026094Y-103353500D01*
X143315182Y-103353500D01*
X143087078Y-103125396D01*
X142702261Y-102966000D01*
X142285739Y-102966000D01*
X141900922Y-103125396D01*
X141606396Y-103419922D01*
X141447000Y-103804739D01*
X138832985Y-103804739D01*
X139823725Y-102814000D01*
X144100482Y-102814000D01*
X144145000Y-102822855D01*
X144189518Y-102814000D01*
X144321362Y-102787775D01*
X144470874Y-102687874D01*
X144496093Y-102650131D01*
X144684661Y-102461564D01*
X144825739Y-102520000D01*
X145242261Y-102520000D01*
X145627078Y-102360604D01*
X145921604Y-102066078D01*
X146081000Y-101681261D01*
X146081000Y-101264739D01*
X145921604Y-100879922D01*
X145627078Y-100585396D01*
X145242261Y-100426000D01*
X144825739Y-100426000D01*
X144440922Y-100585396D01*
X144146396Y-100879922D01*
X143987000Y-101264739D01*
X143987000Y-101681261D01*
X144045436Y-101822339D01*
X143957776Y-101910000D01*
X139681016Y-101910000D01*
X139636499Y-101901145D01*
X139591983Y-101910000D01*
X139591982Y-101910000D01*
X139460138Y-101936225D01*
X139310626Y-102036126D01*
X139285409Y-102073866D01*
X136105194Y-105254082D01*
X135887718Y-105164000D01*
X135638282Y-105164000D01*
X135407833Y-105259455D01*
X135231455Y-105435833D01*
X135136000Y-105666282D01*
X135136000Y-105778775D01*
X134839867Y-106074909D01*
X134802127Y-106100126D01*
X134776910Y-106137866D01*
X134776909Y-106137867D01*
X134702225Y-106249639D01*
X134667145Y-106426000D01*
X134676001Y-106470522D01*
X134676001Y-107065638D01*
X134234883Y-107248355D01*
X133791355Y-107691883D01*
X133551320Y-108271379D01*
X131008000Y-108271379D01*
X131008000Y-100548626D01*
X134564500Y-100548626D01*
X134564500Y-100798062D01*
X134659955Y-101028511D01*
X134836333Y-101204889D01*
X135066782Y-101300344D01*
X135316218Y-101300344D01*
X135546667Y-101204889D01*
X135652056Y-101099500D01*
X143147982Y-101099500D01*
X143192500Y-101108355D01*
X143237018Y-101099500D01*
X143368862Y-101073275D01*
X143518374Y-100973374D01*
X143543593Y-100935631D01*
X144268725Y-100210500D01*
X148910776Y-100210500D01*
X149381908Y-100681633D01*
X149407126Y-100719374D01*
X149444866Y-100744591D01*
X149556638Y-100819275D01*
X149733000Y-100854355D01*
X149777518Y-100845500D01*
X151019235Y-100845500D01*
X151019235Y-102513500D01*
X151044614Y-102641089D01*
X151116887Y-102749254D01*
X151225052Y-102821527D01*
X151352641Y-102846906D01*
X153052641Y-102846906D01*
X153180230Y-102821527D01*
X153288395Y-102749254D01*
X153360668Y-102641089D01*
X153386047Y-102513500D01*
X153386047Y-100845500D01*
X153873646Y-100845500D01*
X153633932Y-101204258D01*
X153542583Y-101663500D01*
X153633932Y-102122742D01*
X153894072Y-102512069D01*
X154283399Y-102772209D01*
X154626721Y-102840500D01*
X154858561Y-102840500D01*
X155201883Y-102772209D01*
X155591210Y-102512069D01*
X155851350Y-102122742D01*
X155942699Y-101663500D01*
X155851350Y-101204258D01*
X155591210Y-100814931D01*
X155201883Y-100554791D01*
X155201500Y-100554715D01*
X155201500Y-100374518D01*
X155210355Y-100330000D01*
X155201500Y-100285482D01*
X155201500Y-100233650D01*
X155208742Y-100232209D01*
X155598069Y-99972069D01*
X155858209Y-99582742D01*
X155949558Y-99123500D01*
X155858209Y-98664258D01*
X155598069Y-98274931D01*
X155208742Y-98014791D01*
X154865420Y-97946500D01*
X154633580Y-97946500D01*
X154290258Y-98014791D01*
X153900931Y-98274931D01*
X153640791Y-98664258D01*
X153549442Y-99123500D01*
X153640791Y-99582742D01*
X153880505Y-99941500D01*
X153392906Y-99941500D01*
X153392906Y-98273500D01*
X153367527Y-98145911D01*
X153295254Y-98037746D01*
X153187089Y-97965473D01*
X153059500Y-97940094D01*
X151359500Y-97940094D01*
X151231911Y-97965473D01*
X151123746Y-98037746D01*
X151051473Y-98145911D01*
X151026094Y-98273500D01*
X151026094Y-99941500D01*
X149920225Y-99941500D01*
X149449093Y-99470369D01*
X149423874Y-99432626D01*
X149274362Y-99332725D01*
X149142518Y-99306500D01*
X149098000Y-99297645D01*
X149053482Y-99306500D01*
X144126018Y-99306500D01*
X144081500Y-99297645D01*
X144036982Y-99306500D01*
X143905138Y-99332725D01*
X143755626Y-99432626D01*
X143730408Y-99470367D01*
X143005276Y-100195500D01*
X135600368Y-100195500D01*
X135546667Y-100141799D01*
X135316218Y-100046344D01*
X135066782Y-100046344D01*
X134836333Y-100141799D01*
X134659955Y-100318177D01*
X134564500Y-100548626D01*
X131008000Y-100548626D01*
X131008000Y-98724739D01*
X141447000Y-98724739D01*
X141447000Y-99141261D01*
X141606396Y-99526078D01*
X141900922Y-99820604D01*
X142285739Y-99980000D01*
X142702261Y-99980000D01*
X143087078Y-99820604D01*
X143381604Y-99526078D01*
X143541000Y-99141261D01*
X143541000Y-98724739D01*
X143381604Y-98339922D01*
X143087078Y-98045396D01*
X142702261Y-97886000D01*
X142285739Y-97886000D01*
X141900922Y-98045396D01*
X141606396Y-98339922D01*
X141447000Y-98724739D01*
X131008000Y-98724739D01*
X131008000Y-97335712D01*
X131087545Y-97256167D01*
X131183000Y-97025718D01*
X131183000Y-96776282D01*
X131087545Y-96545833D01*
X131008000Y-96466288D01*
X131008000Y-95736568D01*
X151019235Y-95736568D01*
X151019235Y-97436568D01*
X151044614Y-97564157D01*
X151116887Y-97672322D01*
X151225052Y-97744595D01*
X151352641Y-97769974D01*
X153052641Y-97769974D01*
X153180230Y-97744595D01*
X153288395Y-97672322D01*
X153360668Y-97564157D01*
X153386047Y-97436568D01*
X153386047Y-96586568D01*
X153542583Y-96586568D01*
X153633932Y-97045810D01*
X153894072Y-97435137D01*
X154283399Y-97695277D01*
X154626721Y-97763568D01*
X154858561Y-97763568D01*
X155201883Y-97695277D01*
X155591210Y-97435137D01*
X155851350Y-97045810D01*
X155942699Y-96586568D01*
X155851350Y-96127326D01*
X155591210Y-95737999D01*
X155201883Y-95477859D01*
X154858561Y-95409568D01*
X154626721Y-95409568D01*
X154283399Y-95477859D01*
X153894072Y-95737999D01*
X153633932Y-96127326D01*
X153542583Y-96586568D01*
X153386047Y-96586568D01*
X153386047Y-95736568D01*
X153360668Y-95608979D01*
X153288395Y-95500814D01*
X153180230Y-95428541D01*
X153052641Y-95403162D01*
X151352641Y-95403162D01*
X151225052Y-95428541D01*
X151116887Y-95500814D01*
X151044614Y-95608979D01*
X151019235Y-95736568D01*
X131008000Y-95736568D01*
X131008000Y-92142379D01*
X133424320Y-92142379D01*
X133424320Y-92769621D01*
X133664355Y-93349117D01*
X134107883Y-93792645D01*
X134687379Y-94032680D01*
X135314621Y-94032680D01*
X135894117Y-93792645D01*
X136337645Y-93349117D01*
X136577680Y-92769621D01*
X136577680Y-92142379D01*
X137869320Y-92142379D01*
X137869320Y-92769621D01*
X138109355Y-93349117D01*
X138552883Y-93792645D01*
X139132379Y-94032680D01*
X139759621Y-94032680D01*
X140339117Y-93792645D01*
X140782645Y-93349117D01*
X141022680Y-92769621D01*
X141022680Y-92142379D01*
X140782645Y-91562883D01*
X140339117Y-91119355D01*
X139759621Y-90879320D01*
X139132379Y-90879320D01*
X138552883Y-91119355D01*
X138109355Y-91562883D01*
X137869320Y-92142379D01*
X136577680Y-92142379D01*
X136337645Y-91562883D01*
X135894117Y-91119355D01*
X135453000Y-90936638D01*
X135453000Y-90114000D01*
X135718482Y-90114000D01*
X135763000Y-90122855D01*
X135807518Y-90114000D01*
X135939362Y-90087775D01*
X136088874Y-89987874D01*
X136114093Y-89950131D01*
X137796922Y-88267302D01*
X140089000Y-88267302D01*
X140089000Y-88516738D01*
X140184455Y-88747187D01*
X140360833Y-88923565D01*
X140591282Y-89019020D01*
X140703775Y-89019020D01*
X140727865Y-89043110D01*
X140727868Y-89043112D01*
X145317888Y-93633133D01*
X145343106Y-93670874D01*
X145380846Y-93696091D01*
X145492618Y-93770775D01*
X145668980Y-93805855D01*
X145713498Y-93797000D01*
X161610776Y-93797000D01*
X163711000Y-95897224D01*
X163711000Y-96009718D01*
X163806455Y-96240167D01*
X163982833Y-96416545D01*
X164213282Y-96512000D01*
X164462718Y-96512000D01*
X164693167Y-96416545D01*
X164869545Y-96240167D01*
X164965000Y-96009718D01*
X164965000Y-95760282D01*
X164869545Y-95529833D01*
X164693167Y-95353455D01*
X164462718Y-95258000D01*
X164350224Y-95258000D01*
X162149093Y-93056869D01*
X162123874Y-93019126D01*
X161974362Y-92919225D01*
X161842518Y-92893000D01*
X161798000Y-92884145D01*
X161753482Y-92893000D01*
X145856205Y-92893000D01*
X141367092Y-88403888D01*
X141367090Y-88403885D01*
X141343000Y-88379795D01*
X141343000Y-88267302D01*
X141247545Y-88036853D01*
X141071167Y-87860475D01*
X140931780Y-87802739D01*
X141701000Y-87802739D01*
X141701000Y-88219261D01*
X141860396Y-88604078D01*
X142154922Y-88898604D01*
X142539739Y-89058000D01*
X142956261Y-89058000D01*
X143341078Y-88898604D01*
X143635604Y-88604078D01*
X143795000Y-88219261D01*
X143795000Y-87802739D01*
X143660697Y-87478500D01*
X151026094Y-87478500D01*
X151026094Y-89178500D01*
X151051473Y-89306089D01*
X151123746Y-89414254D01*
X151231911Y-89486527D01*
X151359500Y-89511906D01*
X153059500Y-89511906D01*
X153187089Y-89486527D01*
X153295254Y-89414254D01*
X153367527Y-89306089D01*
X153392906Y-89178500D01*
X153392906Y-88328500D01*
X153549442Y-88328500D01*
X153640791Y-88787742D01*
X153900931Y-89177069D01*
X154290258Y-89437209D01*
X154633580Y-89505500D01*
X154865420Y-89505500D01*
X155208742Y-89437209D01*
X155598069Y-89177069D01*
X155858209Y-88787742D01*
X155949558Y-88328500D01*
X155858209Y-87869258D01*
X155598069Y-87479931D01*
X155208742Y-87219791D01*
X154865420Y-87151500D01*
X154633580Y-87151500D01*
X154290258Y-87219791D01*
X153900931Y-87479931D01*
X153640791Y-87869258D01*
X153549442Y-88328500D01*
X153392906Y-88328500D01*
X153392906Y-87478500D01*
X153367527Y-87350911D01*
X153295254Y-87242746D01*
X153187089Y-87170473D01*
X153059500Y-87145094D01*
X151359500Y-87145094D01*
X151231911Y-87170473D01*
X151123746Y-87242746D01*
X151051473Y-87350911D01*
X151026094Y-87478500D01*
X143660697Y-87478500D01*
X143635604Y-87417922D01*
X143341078Y-87123396D01*
X142956261Y-86964000D01*
X142539739Y-86964000D01*
X142154922Y-87123396D01*
X141860396Y-87417922D01*
X141701000Y-87802739D01*
X140931780Y-87802739D01*
X140840718Y-87765020D01*
X140591282Y-87765020D01*
X140360833Y-87860475D01*
X140184455Y-88036853D01*
X140089000Y-88267302D01*
X137796922Y-88267302D01*
X139252225Y-86812000D01*
X144354482Y-86812000D01*
X144399000Y-86820855D01*
X144443518Y-86812000D01*
X144575362Y-86785775D01*
X144724874Y-86685874D01*
X144750093Y-86648131D01*
X144938661Y-86459564D01*
X145079739Y-86518000D01*
X145496261Y-86518000D01*
X145881078Y-86358604D01*
X146175604Y-86064078D01*
X146335000Y-85679261D01*
X146335000Y-85262739D01*
X146175604Y-84877922D01*
X145881078Y-84583396D01*
X145496261Y-84424000D01*
X145079739Y-84424000D01*
X144694922Y-84583396D01*
X144400396Y-84877922D01*
X144241000Y-85262739D01*
X144241000Y-85679261D01*
X144299436Y-85820339D01*
X144211776Y-85908000D01*
X139109517Y-85908000D01*
X139064999Y-85899145D01*
X138888638Y-85934225D01*
X138739126Y-86034126D01*
X138713909Y-86071866D01*
X135575776Y-89210000D01*
X135308712Y-89210000D01*
X135229167Y-89130455D01*
X134998718Y-89035000D01*
X134749282Y-89035000D01*
X134518833Y-89130455D01*
X134342455Y-89306833D01*
X134247000Y-89537282D01*
X134247000Y-89786718D01*
X134342455Y-90017167D01*
X134518833Y-90193545D01*
X134549001Y-90206041D01*
X134549001Y-90936638D01*
X134107883Y-91119355D01*
X133664355Y-91562883D01*
X133424320Y-92142379D01*
X131008000Y-92142379D01*
X131008000Y-84457282D01*
X134384000Y-84457282D01*
X134384000Y-84706718D01*
X134479455Y-84937167D01*
X134655833Y-85113545D01*
X134886282Y-85209000D01*
X135135718Y-85209000D01*
X135366167Y-85113545D01*
X135445712Y-85034000D01*
X143401982Y-85034000D01*
X143446500Y-85042855D01*
X143491018Y-85034000D01*
X143622862Y-85007775D01*
X143772374Y-84907874D01*
X143797593Y-84870131D01*
X144395725Y-84272000D01*
X148974276Y-84272000D01*
X149508908Y-84806633D01*
X149534126Y-84844374D01*
X149571866Y-84869591D01*
X149683638Y-84944275D01*
X149859999Y-84979355D01*
X149904517Y-84970500D01*
X151026094Y-84970500D01*
X151026094Y-86638500D01*
X151051473Y-86766089D01*
X151123746Y-86874254D01*
X151231911Y-86946527D01*
X151359500Y-86971906D01*
X153059500Y-86971906D01*
X153187089Y-86946527D01*
X153295254Y-86874254D01*
X153367527Y-86766089D01*
X153392906Y-86638500D01*
X153392906Y-84970500D01*
X153880505Y-84970500D01*
X153640791Y-85329258D01*
X153549442Y-85788500D01*
X153640791Y-86247742D01*
X153900931Y-86637069D01*
X154290258Y-86897209D01*
X154633580Y-86965500D01*
X154865420Y-86965500D01*
X155208742Y-86897209D01*
X155598069Y-86637069D01*
X155858209Y-86247742D01*
X155949558Y-85788500D01*
X155858209Y-85329258D01*
X155598069Y-84939931D01*
X155208742Y-84679791D01*
X155201500Y-84678350D01*
X155201500Y-84563018D01*
X155210355Y-84518500D01*
X155201500Y-84473982D01*
X155201500Y-84358650D01*
X155208742Y-84357209D01*
X155598069Y-84097069D01*
X155858209Y-83707742D01*
X155949558Y-83248500D01*
X155858209Y-82789258D01*
X155598069Y-82399931D01*
X155208742Y-82139791D01*
X154865420Y-82071500D01*
X154633580Y-82071500D01*
X154290258Y-82139791D01*
X153900931Y-82399931D01*
X153640791Y-82789258D01*
X153549442Y-83248500D01*
X153640791Y-83707742D01*
X153880505Y-84066500D01*
X153392906Y-84066500D01*
X153392906Y-82398500D01*
X153367527Y-82270911D01*
X153295254Y-82162746D01*
X153187089Y-82090473D01*
X153059500Y-82065094D01*
X151359500Y-82065094D01*
X151231911Y-82090473D01*
X151123746Y-82162746D01*
X151051473Y-82270911D01*
X151026094Y-82398500D01*
X151026094Y-84066500D01*
X150047225Y-84066500D01*
X149512593Y-83531869D01*
X149487374Y-83494126D01*
X149337862Y-83394225D01*
X149206018Y-83368000D01*
X149161500Y-83359145D01*
X149116982Y-83368000D01*
X144253018Y-83368000D01*
X144208500Y-83359145D01*
X144163982Y-83368000D01*
X144032138Y-83394225D01*
X143882626Y-83494126D01*
X143857408Y-83531867D01*
X143259276Y-84130000D01*
X135445712Y-84130000D01*
X135366167Y-84050455D01*
X135135718Y-83955000D01*
X134886282Y-83955000D01*
X134655833Y-84050455D01*
X134479455Y-84226833D01*
X134384000Y-84457282D01*
X131008000Y-84457282D01*
X131008000Y-82722739D01*
X141701000Y-82722739D01*
X141701000Y-83139261D01*
X141860396Y-83524078D01*
X142154922Y-83818604D01*
X142539739Y-83978000D01*
X142956261Y-83978000D01*
X143341078Y-83818604D01*
X143635604Y-83524078D01*
X143795000Y-83139261D01*
X143795000Y-82722739D01*
X143635604Y-82337922D01*
X143341078Y-82043396D01*
X142956261Y-81884000D01*
X142539739Y-81884000D01*
X142154922Y-82043396D01*
X141860396Y-82337922D01*
X141701000Y-82722739D01*
X131008000Y-82722739D01*
X131008000Y-81333712D01*
X131087545Y-81254167D01*
X131183000Y-81023718D01*
X131183000Y-80774282D01*
X131087545Y-80543833D01*
X130911167Y-80367455D01*
X130680718Y-80272000D01*
X130431282Y-80272000D01*
X130200833Y-80367455D01*
X130024455Y-80543833D01*
X129929000Y-80774282D01*
X127664588Y-80774282D01*
X127448346Y-80450654D01*
X127009571Y-80157474D01*
X126622646Y-80080510D01*
X126361354Y-80080510D01*
X125974429Y-80157474D01*
X125535654Y-80450654D01*
X125242474Y-80889429D01*
X125139523Y-81407000D01*
X125242474Y-81924571D01*
X125535654Y-82363346D01*
X125974429Y-82656526D01*
X126077359Y-82677000D01*
X125974429Y-82697474D01*
X125535654Y-82990654D01*
X125242474Y-83429429D01*
X125139523Y-83947000D01*
X125242474Y-84464571D01*
X125535654Y-84903346D01*
X125974429Y-85196526D01*
X126077359Y-85217000D01*
X125974429Y-85237474D01*
X125535654Y-85530654D01*
X125242474Y-85969429D01*
X125139523Y-86487000D01*
X125242474Y-87004571D01*
X125501686Y-87392510D01*
X125366200Y-87392510D01*
X125132811Y-87489183D01*
X124954183Y-87667812D01*
X124857510Y-87901201D01*
X111327000Y-87901201D01*
X111327000Y-79858500D01*
X151026094Y-79858500D01*
X151026094Y-81558500D01*
X151051473Y-81686089D01*
X151123746Y-81794254D01*
X151231911Y-81866527D01*
X151359500Y-81891906D01*
X153059500Y-81891906D01*
X153187089Y-81866527D01*
X153295254Y-81794254D01*
X153367527Y-81686089D01*
X153392906Y-81558500D01*
X153392906Y-80708500D01*
X153549442Y-80708500D01*
X153640791Y-81167742D01*
X153900931Y-81557069D01*
X154290258Y-81817209D01*
X154633580Y-81885500D01*
X154865420Y-81885500D01*
X155208742Y-81817209D01*
X155598069Y-81557069D01*
X155858209Y-81167742D01*
X155949558Y-80708500D01*
X155858209Y-80249258D01*
X155598069Y-79859931D01*
X155208742Y-79599791D01*
X154865420Y-79531500D01*
X154633580Y-79531500D01*
X154290258Y-79599791D01*
X153900931Y-79859931D01*
X153640791Y-80249258D01*
X153549442Y-80708500D01*
X153392906Y-80708500D01*
X153392906Y-79858500D01*
X153367527Y-79730911D01*
X153295254Y-79622746D01*
X153187089Y-79550473D01*
X153059500Y-79525094D01*
X151359500Y-79525094D01*
X151231911Y-79550473D01*
X151123746Y-79622746D01*
X151051473Y-79730911D01*
X151026094Y-79858500D01*
X111327000Y-79858500D01*
X111327000Y-73354000D01*
X125411462Y-73354000D01*
X124901734Y-73565136D01*
X124901734Y-73565136D01*
G37*
X124901734Y-73565136D02*
X124238136Y-74228734D01*
X123879000Y-75095766D01*
X123879000Y-76034234D01*
X124238136Y-76901266D01*
X124901734Y-77564864D01*
X125768766Y-77924000D01*
X126707234Y-77924000D01*
X127574266Y-77564864D01*
X128237864Y-76901266D01*
X128597000Y-76034234D01*
X128597000Y-75295339D01*
X128603400Y-75295339D01*
X128603400Y-75834662D01*
X128672480Y-76181949D01*
X128935626Y-76575775D01*
X129329452Y-76838920D01*
X129794000Y-76931325D01*
X130258549Y-76838920D01*
X130652375Y-76575775D01*
X130915520Y-76181948D01*
X130984600Y-75834661D01*
X130984600Y-75295339D01*
X131143400Y-75295339D01*
X131143400Y-75834662D01*
X131212480Y-76181949D01*
X131475626Y-76575775D01*
X131869452Y-76838920D01*
X132334000Y-76931325D01*
X132798549Y-76838920D01*
X133192375Y-76575775D01*
X133455520Y-76181948D01*
X133524600Y-75834661D01*
X133524600Y-75295339D01*
X133683400Y-75295339D01*
X133683400Y-75834662D01*
X133752480Y-76181949D01*
X134015626Y-76575775D01*
X134409452Y-76838920D01*
X134874000Y-76931325D01*
X135338549Y-76838920D01*
X135732375Y-76575775D01*
X135995520Y-76181948D01*
X136003679Y-76140932D01*
X136122046Y-76479320D01*
X136511964Y-76915732D01*
X137039209Y-77169709D01*
X137054974Y-77172358D01*
X137287000Y-77051217D01*
X137287000Y-75692000D01*
X137267000Y-75692000D01*
X137267000Y-75438000D01*
X137287000Y-75438000D01*
X137287000Y-74078783D01*
X137541000Y-74078783D01*
X137541000Y-75438000D01*
X137561000Y-75438000D01*
X137561000Y-75692000D01*
X137541000Y-75692000D01*
X137541000Y-77051217D01*
X137773026Y-77172358D01*
X137788791Y-77169709D01*
X138316036Y-76915732D01*
X138705954Y-76479320D01*
X138824321Y-76140932D01*
X138832480Y-76181949D01*
X139095626Y-76575775D01*
X139489452Y-76838920D01*
X139954000Y-76931325D01*
X140418549Y-76838920D01*
X140812375Y-76575775D01*
X141075520Y-76181948D01*
X141144600Y-75834661D01*
X141144600Y-75295339D01*
X141303400Y-75295339D01*
X141303400Y-75834662D01*
X141372480Y-76181949D01*
X141635626Y-76575775D01*
X142029452Y-76838920D01*
X142494000Y-76931325D01*
X142958549Y-76838920D01*
X143352375Y-76575775D01*
X143615520Y-76181948D01*
X143684600Y-75834661D01*
X143684600Y-75295339D01*
X143843400Y-75295339D01*
X143843400Y-75834662D01*
X143912480Y-76181949D01*
X144175626Y-76575775D01*
X144569452Y-76838920D01*
X145034000Y-76931325D01*
X145498549Y-76838920D01*
X145892375Y-76575775D01*
X146155520Y-76181948D01*
X146224600Y-75834661D01*
X146224600Y-75295339D01*
X146383400Y-75295339D01*
X146383400Y-75834662D01*
X146452480Y-76181949D01*
X146715626Y-76575775D01*
X147109452Y-76838920D01*
X147574000Y-76931325D01*
X148038549Y-76838920D01*
X148432375Y-76575775D01*
X148695520Y-76181948D01*
X148764600Y-75834661D01*
X148764600Y-75295339D01*
X148923400Y-75295339D01*
X148923400Y-75834662D01*
X148992480Y-76181949D01*
X149255626Y-76575775D01*
X149649452Y-76838920D01*
X150114000Y-76931325D01*
X150578549Y-76838920D01*
X150972375Y-76575775D01*
X151235520Y-76181948D01*
X151304600Y-75834661D01*
X151304600Y-75295339D01*
X151463400Y-75295339D01*
X151463400Y-75834662D01*
X151532480Y-76181949D01*
X151795626Y-76575775D01*
X152189452Y-76838920D01*
X152654000Y-76931325D01*
X153118549Y-76838920D01*
X153512375Y-76575775D01*
X153775520Y-76181948D01*
X153844600Y-75834661D01*
X153844600Y-75295339D01*
X155527400Y-75295339D01*
X155527400Y-75834662D01*
X155596480Y-76181949D01*
X155859626Y-76575775D01*
X156253452Y-76838920D01*
X156718000Y-76931325D01*
X157182549Y-76838920D01*
X157576375Y-76575775D01*
X157839520Y-76181948D01*
X157908600Y-75834661D01*
X157908600Y-75295339D01*
X158067400Y-75295339D01*
X158067400Y-75834662D01*
X158136480Y-76181949D01*
X158399626Y-76575775D01*
X158793452Y-76838920D01*
X159258000Y-76931325D01*
X159722549Y-76838920D01*
X160116375Y-76575775D01*
X160379520Y-76181948D01*
X160448600Y-75834661D01*
X160448600Y-75295339D01*
X160607400Y-75295339D01*
X160607400Y-75834662D01*
X160676480Y-76181949D01*
X160939626Y-76575775D01*
X161333452Y-76838920D01*
X161798000Y-76931325D01*
X162262549Y-76838920D01*
X162656375Y-76575775D01*
X162919520Y-76181948D01*
X162988600Y-75834661D01*
X162988600Y-75295339D01*
X163147400Y-75295339D01*
X163147400Y-75834662D01*
X163216480Y-76181949D01*
X163479626Y-76575775D01*
X163873452Y-76838920D01*
X164338000Y-76931325D01*
X164802549Y-76838920D01*
X165196375Y-76575775D01*
X165459520Y-76181948D01*
X165528600Y-75834661D01*
X165528600Y-75295339D01*
X165687400Y-75295339D01*
X165687400Y-75834662D01*
X165756480Y-76181949D01*
X166019626Y-76575775D01*
X166413452Y-76838920D01*
X166878000Y-76931325D01*
X167342549Y-76838920D01*
X167736375Y-76575775D01*
X167999520Y-76181948D01*
X168068600Y-75834661D01*
X168068600Y-75295339D01*
X168227400Y-75295339D01*
X168227400Y-75834662D01*
X168296480Y-76181949D01*
X168559626Y-76575775D01*
X168953452Y-76838920D01*
X169418000Y-76931325D01*
X169882549Y-76838920D01*
X170276375Y-76575775D01*
X170539520Y-76181948D01*
X170608600Y-75834661D01*
X170608600Y-75295339D01*
X170767400Y-75295339D01*
X170767400Y-75834662D01*
X170836480Y-76181949D01*
X171099626Y-76575775D01*
X171493452Y-76838920D01*
X171958000Y-76931325D01*
X172422549Y-76838920D01*
X172816375Y-76575775D01*
X173079520Y-76181948D01*
X173148600Y-75834661D01*
X173148600Y-75295339D01*
X173307400Y-75295339D01*
X173307400Y-75834662D01*
X173376480Y-76181949D01*
X173639626Y-76575775D01*
X174033452Y-76838920D01*
X174498000Y-76931325D01*
X174962549Y-76838920D01*
X175356375Y-76575775D01*
X175619520Y-76181948D01*
X175688600Y-75834661D01*
X175688600Y-75295338D01*
X175619520Y-74948051D01*
X175356375Y-74554225D01*
X174962548Y-74291080D01*
X174498000Y-74198675D01*
X174033451Y-74291080D01*
X173639625Y-74554225D01*
X173376480Y-74948052D01*
X173307400Y-75295339D01*
X173148600Y-75295339D01*
X173148600Y-75295338D01*
X173079520Y-74948051D01*
X172816375Y-74554225D01*
X172422548Y-74291080D01*
X171958000Y-74198675D01*
X171493451Y-74291080D01*
X171099625Y-74554225D01*
X170836480Y-74948052D01*
X170767400Y-75295339D01*
X170608600Y-75295339D01*
X170608600Y-75295338D01*
X170539520Y-74948051D01*
X170276375Y-74554225D01*
X169882548Y-74291080D01*
X169418000Y-74198675D01*
X168953451Y-74291080D01*
X168559625Y-74554225D01*
X168296480Y-74948052D01*
X168227400Y-75295339D01*
X168068600Y-75295339D01*
X168068600Y-75295338D01*
X167999520Y-74948051D01*
X167736375Y-74554225D01*
X167342548Y-74291080D01*
X166878000Y-74198675D01*
X166413451Y-74291080D01*
X166019625Y-74554225D01*
X165756480Y-74948052D01*
X165687400Y-75295339D01*
X165528600Y-75295339D01*
X165528600Y-75295338D01*
X165459520Y-74948051D01*
X165196375Y-74554225D01*
X164802548Y-74291080D01*
X164338000Y-74198675D01*
X163873451Y-74291080D01*
X163479625Y-74554225D01*
X163216480Y-74948052D01*
X163147400Y-75295339D01*
X162988600Y-75295339D01*
X162988600Y-75295338D01*
X162919520Y-74948051D01*
X162656375Y-74554225D01*
X162262548Y-74291080D01*
X161798000Y-74198675D01*
X161333451Y-74291080D01*
X160939625Y-74554225D01*
X160676480Y-74948052D01*
X160607400Y-75295339D01*
X160448600Y-75295339D01*
X160448600Y-75295338D01*
X160379520Y-74948051D01*
X160116375Y-74554225D01*
X159722548Y-74291080D01*
X159258000Y-74198675D01*
X158793451Y-74291080D01*
X158399625Y-74554225D01*
X158136480Y-74948052D01*
X158067400Y-75295339D01*
X157908600Y-75295339D01*
X157908600Y-75295338D01*
X157839520Y-74948051D01*
X157576375Y-74554225D01*
X157182548Y-74291080D01*
X156718000Y-74198675D01*
X156253451Y-74291080D01*
X155859625Y-74554225D01*
X155596480Y-74948052D01*
X155527400Y-75295339D01*
X153844600Y-75295339D01*
X153844600Y-75295338D01*
X153775520Y-74948051D01*
X153512375Y-74554225D01*
X153118548Y-74291080D01*
X152654000Y-74198675D01*
X152189451Y-74291080D01*
X151795625Y-74554225D01*
X151532480Y-74948052D01*
X151463400Y-75295339D01*
X151304600Y-75295339D01*
X151304600Y-75295338D01*
X151235520Y-74948051D01*
X150972375Y-74554225D01*
X150578548Y-74291080D01*
X150114000Y-74198675D01*
X149649451Y-74291080D01*
X149255625Y-74554225D01*
X148992480Y-74948052D01*
X148923400Y-75295339D01*
X148764600Y-75295339D01*
X148764600Y-75295338D01*
X148695520Y-74948051D01*
X148432375Y-74554225D01*
X148038548Y-74291080D01*
X147574000Y-74198675D01*
X147109451Y-74291080D01*
X146715625Y-74554225D01*
X146452480Y-74948052D01*
X146383400Y-75295339D01*
X146224600Y-75295339D01*
X146224600Y-75295338D01*
X146155520Y-74948051D01*
X145892375Y-74554225D01*
X145498548Y-74291080D01*
X145034000Y-74198675D01*
X144569451Y-74291080D01*
X144175625Y-74554225D01*
X143912480Y-74948052D01*
X143843400Y-75295339D01*
X143684600Y-75295339D01*
X143684600Y-75295338D01*
X143615520Y-74948051D01*
X143352375Y-74554225D01*
X142958548Y-74291080D01*
X142494000Y-74198675D01*
X142029451Y-74291080D01*
X141635625Y-74554225D01*
X141372480Y-74948052D01*
X141303400Y-75295339D01*
X141144600Y-75295339D01*
X141144600Y-75295338D01*
X141075520Y-74948051D01*
X140812375Y-74554225D01*
X140418548Y-74291080D01*
X139954000Y-74198675D01*
X139489451Y-74291080D01*
X139095625Y-74554225D01*
X138832480Y-74948052D01*
X138824321Y-74989068D01*
X138705954Y-74650680D01*
X138316036Y-74214268D01*
X137788791Y-73960291D01*
X137773026Y-73957642D01*
X137541000Y-74078783D01*
X137287000Y-74078783D01*
X137054974Y-73957642D01*
X137039209Y-73960291D01*
X136511964Y-74214268D01*
X136122046Y-74650680D01*
X136003679Y-74989068D01*
X135995520Y-74948051D01*
X135732375Y-74554225D01*
X135338548Y-74291080D01*
X134874000Y-74198675D01*
X134409451Y-74291080D01*
X134015625Y-74554225D01*
X133752480Y-74948052D01*
X133683400Y-75295339D01*
X133524600Y-75295339D01*
X133524600Y-75295338D01*
X133455520Y-74948051D01*
X133192375Y-74554225D01*
X132798548Y-74291080D01*
X132334000Y-74198675D01*
X131869451Y-74291080D01*
X131475625Y-74554225D01*
X131212480Y-74948052D01*
X131143400Y-75295339D01*
X130984600Y-75295339D01*
X130984600Y-75295338D01*
X130915520Y-74948051D01*
X130652375Y-74554225D01*
X130258548Y-74291080D01*
X129794000Y-74198675D01*
X129329451Y-74291080D01*
X128935625Y-74554225D01*
X128672480Y-74948052D01*
X128603400Y-75295339D01*
X128597000Y-75295339D01*
X128597000Y-75095766D01*
X128237864Y-74228734D01*
X127574266Y-73565136D01*
X127064538Y-73354000D01*
X175377724Y-73354000D01*
X176709001Y-74685277D01*
X176709000Y-85946604D01*
X176702556Y-85979000D01*
X176709000Y-86011396D01*
X176709000Y-86011400D01*
X176728089Y-86107368D01*
X176751520Y-86142436D01*
X176779052Y-86183639D01*
X176800805Y-86216195D01*
X176828272Y-86234548D01*
X179249001Y-88655277D01*
X179249001Y-89978464D01*
X179037864Y-89468734D01*
X178374266Y-88805136D01*
X177507234Y-88446000D01*
X176568766Y-88446000D01*
X175701734Y-88805136D01*
X175038136Y-89468734D01*
X174679000Y-90335766D01*
X174679000Y-91274234D01*
X175038136Y-92141266D01*
X175701734Y-92804864D01*
X176568766Y-93164000D01*
X177507234Y-93164000D01*
X178374266Y-92804864D01*
X179037864Y-92141266D01*
X179249001Y-91631536D01*
X179249000Y-117918462D01*
X179037864Y-117408734D01*
X178374266Y-116745136D01*
X177507234Y-116386000D01*
X176568766Y-116386000D01*
X175701734Y-116745136D01*
X175038136Y-117408734D01*
X174679000Y-118275766D01*
X174679000Y-119214234D01*
X175038136Y-120081266D01*
X175701734Y-120744864D01*
X176568766Y-121104000D01*
X177507234Y-121104000D01*
X178374266Y-120744864D01*
X179037864Y-120081266D01*
X179249000Y-119571538D01*
X179249000Y-121148724D01*
X176828270Y-123569454D01*
X176800806Y-123587805D01*
X176782455Y-123615269D01*
X176782451Y-123615273D01*
X176728090Y-123696631D01*
X176702556Y-123825000D01*
X176709001Y-123857401D01*
X176709000Y-126036000D01*
X125794538Y-126036000D01*
X126304266Y-125824864D01*
X126967864Y-125161266D01*
X127327000Y-124294234D01*
X127327000Y-123555339D01*
X137747400Y-123555339D01*
X137747400Y-124094662D01*
X137816480Y-124441949D01*
X138079626Y-124835775D01*
X138473452Y-125098920D01*
X138938000Y-125191325D01*
X139402549Y-125098920D01*
X139796375Y-124835775D01*
X140059520Y-124441948D01*
X140128600Y-124094661D01*
X140128600Y-123555339D01*
X140287400Y-123555339D01*
X140287400Y-124094662D01*
X140356480Y-124441949D01*
X140619626Y-124835775D01*
X141013452Y-125098920D01*
X141478000Y-125191325D01*
X141942549Y-125098920D01*
X142336375Y-124835775D01*
X142599520Y-124441948D01*
X142668600Y-124094661D01*
X142668600Y-123555339D01*
X142827400Y-123555339D01*
X142827400Y-124094662D01*
X142896480Y-124441949D01*
X143159626Y-124835775D01*
X143553452Y-125098920D01*
X144018000Y-125191325D01*
X144482549Y-125098920D01*
X144876375Y-124835775D01*
X145139520Y-124441948D01*
X145208600Y-124094661D01*
X145208600Y-123555339D01*
X145367400Y-123555339D01*
X145367400Y-124094662D01*
X145436480Y-124441949D01*
X145699626Y-124835775D01*
X146093452Y-125098920D01*
X146558000Y-125191325D01*
X147022549Y-125098920D01*
X147416375Y-124835775D01*
X147679520Y-124441948D01*
X147748600Y-124094661D01*
X147748600Y-123555339D01*
X147907400Y-123555339D01*
X147907400Y-124094662D01*
X147976480Y-124441949D01*
X148239626Y-124835775D01*
X148633452Y-125098920D01*
X149098000Y-125191325D01*
X149562549Y-125098920D01*
X149956375Y-124835775D01*
X150219520Y-124441948D01*
X150227679Y-124400932D01*
X150346046Y-124739320D01*
X150735964Y-125175732D01*
X151263209Y-125429709D01*
X151278974Y-125432358D01*
X151511000Y-125311217D01*
X151511000Y-123952000D01*
X151765000Y-123952000D01*
X151765000Y-125311217D01*
X151997026Y-125432358D01*
X152012791Y-125429709D01*
X152540036Y-125175732D01*
X152908000Y-124763892D01*
X153275964Y-125175732D01*
X153803209Y-125429709D01*
X153818974Y-125432358D01*
X154051000Y-125311217D01*
X154051000Y-123952000D01*
X151765000Y-123952000D01*
X151511000Y-123952000D01*
X151491000Y-123952000D01*
X151491000Y-123698000D01*
X151511000Y-123698000D01*
X151511000Y-122338783D01*
X151765000Y-122338783D01*
X151765000Y-123698000D01*
X154051000Y-123698000D01*
X154051000Y-122338783D01*
X154305000Y-122338783D01*
X154305000Y-123698000D01*
X154325000Y-123698000D01*
X154325000Y-123952000D01*
X154305000Y-123952000D01*
X154305000Y-125311217D01*
X154537026Y-125432358D01*
X154552791Y-125429709D01*
X155080036Y-125175732D01*
X155469954Y-124739320D01*
X155588321Y-124400932D01*
X155596480Y-124441949D01*
X155859626Y-124835775D01*
X156253452Y-125098920D01*
X156718000Y-125191325D01*
X157182549Y-125098920D01*
X157576375Y-124835775D01*
X157839520Y-124441948D01*
X157908600Y-124094661D01*
X157908600Y-123555339D01*
X160607400Y-123555339D01*
X160607400Y-124094662D01*
X160676480Y-124441949D01*
X160939626Y-124835775D01*
X161333452Y-125098920D01*
X161798000Y-125191325D01*
X162262549Y-125098920D01*
X162656375Y-124835775D01*
X162919520Y-124441948D01*
X162988600Y-124094661D01*
X162988600Y-123555339D01*
X163147400Y-123555339D01*
X163147400Y-124094662D01*
X163216480Y-124441949D01*
X163479626Y-124835775D01*
X163873452Y-125098920D01*
X164338000Y-125191325D01*
X164802549Y-125098920D01*
X165196375Y-124835775D01*
X165459520Y-124441948D01*
X165528600Y-124094661D01*
X165528600Y-123555339D01*
X165687400Y-123555339D01*
X165687400Y-124094662D01*
X165756480Y-124441949D01*
X166019626Y-124835775D01*
X166413452Y-125098920D01*
X166878000Y-125191325D01*
X167342549Y-125098920D01*
X167736375Y-124835775D01*
X167999520Y-124441948D01*
X168068600Y-124094661D01*
X168068600Y-123555339D01*
X168227400Y-123555339D01*
X168227400Y-124094662D01*
X168296480Y-124441949D01*
X168559626Y-124835775D01*
X168953452Y-125098920D01*
X169418000Y-125191325D01*
X169882549Y-125098920D01*
X170276375Y-124835775D01*
X170539520Y-124441948D01*
X170608600Y-124094661D01*
X170608600Y-123555339D01*
X170767400Y-123555339D01*
X170767400Y-124094662D01*
X170836480Y-124441949D01*
X171099626Y-124835775D01*
X171493452Y-125098920D01*
X171958000Y-125191325D01*
X172422549Y-125098920D01*
X172816375Y-124835775D01*
X173079520Y-124441948D01*
X173148600Y-124094661D01*
X173148600Y-123555339D01*
X173307400Y-123555339D01*
X173307400Y-124094662D01*
X173376480Y-124441949D01*
X173639626Y-124835775D01*
X174033452Y-125098920D01*
X174498000Y-125191325D01*
X174962549Y-125098920D01*
X175356375Y-124835775D01*
X175619520Y-124441948D01*
X175688600Y-124094661D01*
X175688600Y-123555338D01*
X175619520Y-123208051D01*
X175356375Y-122814225D01*
X174962548Y-122551080D01*
X174498000Y-122458675D01*
X174033451Y-122551080D01*
X173639625Y-122814225D01*
X173376480Y-123208052D01*
X173307400Y-123555339D01*
X173148600Y-123555339D01*
X173148600Y-123555338D01*
X173079520Y-123208051D01*
X172816375Y-122814225D01*
X172422548Y-122551080D01*
X171958000Y-122458675D01*
X171493451Y-122551080D01*
X171099625Y-122814225D01*
X170836480Y-123208052D01*
X170767400Y-123555339D01*
X170608600Y-123555339D01*
X170608600Y-123555338D01*
X170539520Y-123208051D01*
X170276375Y-122814225D01*
X169882548Y-122551080D01*
X169418000Y-122458675D01*
X168953451Y-122551080D01*
X168559625Y-122814225D01*
X168296480Y-123208052D01*
X168227400Y-123555339D01*
X168068600Y-123555339D01*
X168068600Y-123555338D01*
X167999520Y-123208051D01*
X167736375Y-122814225D01*
X167342548Y-122551080D01*
X166878000Y-122458675D01*
X166413451Y-122551080D01*
X166019625Y-122814225D01*
X165756480Y-123208052D01*
X165687400Y-123555339D01*
X165528600Y-123555339D01*
X165528600Y-123555338D01*
X165459520Y-123208051D01*
X165196375Y-122814225D01*
X164802548Y-122551080D01*
X164338000Y-122458675D01*
X163873451Y-122551080D01*
X163479625Y-122814225D01*
X163216480Y-123208052D01*
X163147400Y-123555339D01*
X162988600Y-123555339D01*
X162988600Y-123555338D01*
X162919520Y-123208051D01*
X162656375Y-122814225D01*
X162262548Y-122551080D01*
X161798000Y-122458675D01*
X161333451Y-122551080D01*
X160939625Y-122814225D01*
X160676480Y-123208052D01*
X160607400Y-123555339D01*
X157908600Y-123555339D01*
X157908600Y-123555338D01*
X157839520Y-123208051D01*
X157576375Y-122814225D01*
X157182548Y-122551080D01*
X156718000Y-122458675D01*
X156253451Y-122551080D01*
X155859625Y-122814225D01*
X155596480Y-123208052D01*
X155588321Y-123249068D01*
X155469954Y-122910680D01*
X155080036Y-122474268D01*
X154552791Y-122220291D01*
X154537026Y-122217642D01*
X154305000Y-122338783D01*
X154051000Y-122338783D01*
X153818974Y-122217642D01*
X153803209Y-122220291D01*
X153275964Y-122474268D01*
X152908000Y-122886108D01*
X152540036Y-122474268D01*
X152012791Y-122220291D01*
X151997026Y-122217642D01*
X151765000Y-122338783D01*
X151511000Y-122338783D01*
X151278974Y-122217642D01*
X151263209Y-122220291D01*
X150735964Y-122474268D01*
X150346046Y-122910680D01*
X150227679Y-123249068D01*
X150219520Y-123208051D01*
X149956375Y-122814225D01*
X149562548Y-122551080D01*
X149098000Y-122458675D01*
X148633451Y-122551080D01*
X148239625Y-122814225D01*
X147976480Y-123208052D01*
X147907400Y-123555339D01*
X147748600Y-123555339D01*
X147748600Y-123555338D01*
X147679520Y-123208051D01*
X147416375Y-122814225D01*
X147022548Y-122551080D01*
X146558000Y-122458675D01*
X146093451Y-122551080D01*
X145699625Y-122814225D01*
X145436480Y-123208052D01*
X145367400Y-123555339D01*
X145208600Y-123555339D01*
X145208600Y-123555338D01*
X145139520Y-123208051D01*
X144876375Y-122814225D01*
X144482548Y-122551080D01*
X144018000Y-122458675D01*
X143553451Y-122551080D01*
X143159625Y-122814225D01*
X142896480Y-123208052D01*
X142827400Y-123555339D01*
X142668600Y-123555339D01*
X142668600Y-123555338D01*
X142599520Y-123208051D01*
X142336375Y-122814225D01*
X141942548Y-122551080D01*
X141478000Y-122458675D01*
X141013451Y-122551080D01*
X140619625Y-122814225D01*
X140356480Y-123208052D01*
X140287400Y-123555339D01*
X140128600Y-123555339D01*
X140128600Y-123555338D01*
X140059520Y-123208051D01*
X139796375Y-122814225D01*
X139402548Y-122551080D01*
X138938000Y-122458675D01*
X138473451Y-122551080D01*
X138079625Y-122814225D01*
X137816480Y-123208052D01*
X137747400Y-123555339D01*
X127327000Y-123555339D01*
X127327000Y-123355766D01*
X126967864Y-122488734D01*
X126304266Y-121825136D01*
X125437234Y-121466000D01*
X124498766Y-121466000D01*
X123631734Y-121825136D01*
X122968136Y-122488734D01*
X122609000Y-123355766D01*
X122609000Y-124294234D01*
X122968136Y-125161266D01*
X123631734Y-125824864D01*
X124141462Y-126036000D01*
X111327000Y-126036000D01*
X111327000Y-118776750D01*
X129949000Y-118776750D01*
X129949000Y-120367309D01*
X130045673Y-120600698D01*
X130224301Y-120779327D01*
X130457690Y-120876000D01*
X132048250Y-120876000D01*
X132207000Y-120717250D01*
X132207000Y-118618000D01*
X132461000Y-118618000D01*
X132461000Y-120717250D01*
X132619750Y-120876000D01*
X134210310Y-120876000D01*
X134443699Y-120779327D01*
X134622327Y-120600698D01*
X134719000Y-120367309D01*
X134719000Y-118776750D01*
X134560250Y-118618000D01*
X132461000Y-118618000D01*
X132207000Y-118618000D01*
X130107750Y-118618000D01*
X129949000Y-118776750D01*
X111327000Y-118776750D01*
X111327000Y-116614691D01*
X129949000Y-116614691D01*
X129949000Y-118205250D01*
X130107750Y-118364000D01*
X132207000Y-118364000D01*
X132207000Y-116264750D01*
X132461000Y-116264750D01*
X132461000Y-118364000D01*
X134560250Y-118364000D01*
X134719000Y-118205250D01*
X134719000Y-118099000D01*
X143292594Y-118099000D01*
X143292594Y-119899000D01*
X143317973Y-120026589D01*
X143390246Y-120134754D01*
X143498411Y-120207027D01*
X143626000Y-120232406D01*
X145426000Y-120232406D01*
X145553589Y-120207027D01*
X145661754Y-120134754D01*
X145734027Y-120026589D01*
X145759406Y-119899000D01*
X145759406Y-119801578D01*
X146158424Y-120236966D01*
X146701258Y-120490046D01*
X146939000Y-120369997D01*
X146939000Y-119126000D01*
X146919000Y-119126000D01*
X146919000Y-118872000D01*
X146939000Y-118872000D01*
X146939000Y-117628003D01*
X147193000Y-117628003D01*
X147193000Y-118872000D01*
X147213000Y-118872000D01*
X147213000Y-119126000D01*
X147193000Y-119126000D01*
X147193000Y-120369997D01*
X147430742Y-120490046D01*
X147973576Y-120236966D01*
X148378240Y-119795417D01*
X148486998Y-119532836D01*
X148721383Y-119883617D01*
X149127248Y-120154808D01*
X149485153Y-120226000D01*
X149726847Y-120226000D01*
X150084752Y-120154808D01*
X150490617Y-119883617D01*
X150761808Y-119477752D01*
X150857038Y-118999000D01*
X150761808Y-118520248D01*
X150490617Y-118114383D01*
X150084752Y-117843192D01*
X149726847Y-117772000D01*
X149485153Y-117772000D01*
X149127248Y-117843192D01*
X148721383Y-118114383D01*
X148486998Y-118465164D01*
X148378240Y-118202583D01*
X147973576Y-117761034D01*
X147430742Y-117507954D01*
X147193000Y-117628003D01*
X146939000Y-117628003D01*
X146701258Y-117507954D01*
X146158424Y-117761034D01*
X145759406Y-118196422D01*
X145759406Y-118099000D01*
X145734027Y-117971411D01*
X145661754Y-117863246D01*
X145553589Y-117790973D01*
X145426000Y-117765594D01*
X143626000Y-117765594D01*
X143498411Y-117790973D01*
X143390246Y-117863246D01*
X143317973Y-117971411D01*
X143292594Y-118099000D01*
X134719000Y-118099000D01*
X134719000Y-116614691D01*
X134622327Y-116381302D01*
X134443699Y-116202673D01*
X134210310Y-116106000D01*
X132619750Y-116106000D01*
X132461000Y-116264750D01*
X132207000Y-116264750D01*
X132048250Y-116106000D01*
X130457690Y-116106000D01*
X130224301Y-116202673D01*
X130045673Y-116381302D01*
X129949000Y-116614691D01*
X111327000Y-116614691D01*
X111327000Y-105314750D01*
X124857510Y-105314750D01*
X124857510Y-106154799D01*
X124954183Y-106388188D01*
X125132811Y-106566817D01*
X125366200Y-106663490D01*
X126206250Y-106663490D01*
X126365000Y-106504740D01*
X126365000Y-105156000D01*
X126619000Y-105156000D01*
X126619000Y-106504740D01*
X126777750Y-106663490D01*
X127617800Y-106663490D01*
X127851189Y-106566817D01*
X128029817Y-106388188D01*
X128126490Y-106154799D01*
X128126490Y-105314750D01*
X127967740Y-105156000D01*
X126619000Y-105156000D01*
X126365000Y-105156000D01*
X125016260Y-105156000D01*
X124857510Y-105314750D01*
X111327000Y-105314750D01*
X111327000Y-103903201D01*
X124857510Y-103903201D01*
X124857510Y-104743250D01*
X125016260Y-104902000D01*
X126365000Y-104902000D01*
X126365000Y-104882000D01*
X126619000Y-104882000D01*
X126619000Y-104902000D01*
X127967740Y-104902000D01*
X128126490Y-104743250D01*
X128126490Y-103903201D01*
X128029817Y-103669812D01*
X127851189Y-103491183D01*
X127617800Y-103394510D01*
X127482314Y-103394510D01*
X127741526Y-103006571D01*
X127844477Y-102489000D01*
X127741526Y-101971429D01*
X127448346Y-101532654D01*
X127009571Y-101239474D01*
X126906641Y-101219000D01*
X127009571Y-101198526D01*
X127448346Y-100905346D01*
X127741526Y-100466571D01*
X127844477Y-99949000D01*
X127741526Y-99431429D01*
X127448346Y-98992654D01*
X127009571Y-98699474D01*
X126906641Y-98679000D01*
X127009571Y-98658526D01*
X127448346Y-98365346D01*
X127741526Y-97926571D01*
X127844477Y-97409000D01*
X127741526Y-96891429D01*
X127448346Y-96452654D01*
X127009571Y-96159474D01*
X126622646Y-96082510D01*
X126361354Y-96082510D01*
X125974429Y-96159474D01*
X125535654Y-96452654D01*
X125242474Y-96891429D01*
X125139523Y-97409000D01*
X125242474Y-97926571D01*
X125535654Y-98365346D01*
X125974429Y-98658526D01*
X126077359Y-98679000D01*
X125974429Y-98699474D01*
X125535654Y-98992654D01*
X125242474Y-99431429D01*
X125139523Y-99949000D01*
X125242474Y-100466571D01*
X125535654Y-100905346D01*
X125974429Y-101198526D01*
X126077359Y-101219000D01*
X125974429Y-101239474D01*
X125535654Y-101532654D01*
X125242474Y-101971429D01*
X125139523Y-102489000D01*
X125242474Y-103006571D01*
X125501686Y-103394510D01*
X125366200Y-103394510D01*
X125132811Y-103491183D01*
X124954183Y-103669812D01*
X124857510Y-103903201D01*
X111327000Y-103903201D01*
X111327000Y-89312750D01*
X124857510Y-89312750D01*
X124857510Y-90152799D01*
X124954183Y-90386188D01*
X125132811Y-90564817D01*
X125366200Y-90661490D01*
X126206250Y-90661490D01*
X126365000Y-90502740D01*
X126365000Y-89154000D01*
X126619000Y-89154000D01*
X126619000Y-90502740D01*
X126777750Y-90661490D01*
X127617800Y-90661490D01*
X127851189Y-90564817D01*
X128029817Y-90386188D01*
X128126490Y-90152799D01*
X128126490Y-89312750D01*
X127967740Y-89154000D01*
X126619000Y-89154000D01*
X126365000Y-89154000D01*
X125016260Y-89154000D01*
X124857510Y-89312750D01*
X111327000Y-89312750D01*
X111327000Y-87901201D01*
X124857510Y-87901201D01*
X124857510Y-88741250D01*
X125016260Y-88900000D01*
X126365000Y-88900000D01*
X126365000Y-88880000D01*
X126619000Y-88880000D01*
X126619000Y-88900000D01*
X127967740Y-88900000D01*
X128126490Y-88741250D01*
X128126490Y-87901201D01*
X128029817Y-87667812D01*
X127851189Y-87489183D01*
X127617800Y-87392510D01*
X127482314Y-87392510D01*
X127741526Y-87004571D01*
X127844477Y-86487000D01*
X127741526Y-85969429D01*
X127448346Y-85530654D01*
X127009571Y-85237474D01*
X126906641Y-85217000D01*
X127009571Y-85196526D01*
X127448346Y-84903346D01*
X127741526Y-84464571D01*
X127844477Y-83947000D01*
X127741526Y-83429429D01*
X127448346Y-82990654D01*
X127009571Y-82697474D01*
X126906641Y-82677000D01*
X127009571Y-82656526D01*
X127448346Y-82363346D01*
X127741526Y-81924571D01*
X127844477Y-81407000D01*
X127741526Y-80889429D01*
X127664588Y-80774282D01*
X129929000Y-80774282D01*
X129929000Y-81023718D01*
X130024455Y-81254167D01*
X130104000Y-81333712D01*
X130104001Y-96466287D01*
X130024455Y-96545833D01*
X129929000Y-96776282D01*
X129929000Y-97025718D01*
X130024455Y-97256167D01*
X130104000Y-97335712D01*
X130104001Y-110668477D01*
X130095145Y-110713000D01*
X130130225Y-110889361D01*
X130130226Y-110889362D01*
X130230127Y-111038874D01*
X130250594Y-111052550D01*
X130250594Y-114241000D01*
X130275973Y-114368589D01*
X130348246Y-114476754D01*
X130456411Y-114549027D01*
X130584000Y-114574406D01*
X134084000Y-114574406D01*
X134211589Y-114549027D01*
X134319754Y-114476754D01*
X134392027Y-114368589D01*
X134417406Y-114241000D01*
X134417406Y-113741000D01*
X134950594Y-113741000D01*
X134950594Y-117241000D01*
X134975973Y-117368589D01*
X135048246Y-117476754D01*
X135156411Y-117549027D01*
X135284000Y-117574406D01*
X138784000Y-117574406D01*
X138911589Y-117549027D01*
X139019754Y-117476754D01*
X139092027Y-117368589D01*
X139117406Y-117241000D01*
X139117406Y-113741000D01*
X139110047Y-113704000D01*
X144866594Y-113704000D01*
X144866594Y-115404000D01*
X144891973Y-115531589D01*
X144964246Y-115639754D01*
X145072411Y-115712027D01*
X145200000Y-115737406D01*
X146900000Y-115737406D01*
X147027589Y-115712027D01*
X147135754Y-115639754D01*
X147208027Y-115531589D01*
X147233406Y-115404000D01*
X147233406Y-114554000D01*
X147389942Y-114554000D01*
X147481291Y-115013242D01*
X147741431Y-115402569D01*
X148130758Y-115662709D01*
X148474080Y-115731000D01*
X148705920Y-115731000D01*
X149049242Y-115662709D01*
X149438569Y-115402569D01*
X149698709Y-115013242D01*
X149790058Y-114554000D01*
X149698709Y-114094758D01*
X149438569Y-113705431D01*
X149049242Y-113445291D01*
X148705920Y-113377000D01*
X148474080Y-113377000D01*
X148130758Y-113445291D01*
X147741431Y-113705431D01*
X147481291Y-114094758D01*
X147389942Y-114554000D01*
X147233406Y-114554000D01*
X147233406Y-113704000D01*
X147208027Y-113576411D01*
X147135754Y-113468246D01*
X147027589Y-113395973D01*
X146900000Y-113370594D01*
X145200000Y-113370594D01*
X145072411Y-113395973D01*
X144964246Y-113468246D01*
X144891973Y-113576411D01*
X144866594Y-113704000D01*
X139110047Y-113704000D01*
X139092027Y-113613411D01*
X139019754Y-113505246D01*
X138911589Y-113432973D01*
X138784000Y-113407594D01*
X135284000Y-113407594D01*
X135156411Y-113432973D01*
X135048246Y-113505246D01*
X134975973Y-113613411D01*
X134950594Y-113741000D01*
X134417406Y-113741000D01*
X134417406Y-110741000D01*
X134392027Y-110613411D01*
X134319754Y-110505246D01*
X134211589Y-110432973D01*
X134084000Y-110407594D01*
X131008000Y-110407594D01*
X131008000Y-108271379D01*
X133551320Y-108271379D01*
X133551320Y-108898621D01*
X133791355Y-109478117D01*
X134234883Y-109921645D01*
X134814379Y-110161680D01*
X135441621Y-110161680D01*
X136021117Y-109921645D01*
X136464645Y-109478117D01*
X136704680Y-108898621D01*
X136704680Y-108271379D01*
X137996320Y-108271379D01*
X137996320Y-108898621D01*
X138236355Y-109478117D01*
X138679883Y-109921645D01*
X139259379Y-110161680D01*
X139886621Y-110161680D01*
X140466117Y-109921645D01*
X140909645Y-109478117D01*
X141149680Y-108898621D01*
X141149680Y-108271379D01*
X140909645Y-107691883D01*
X140466117Y-107248355D01*
X139886621Y-107008320D01*
X139259379Y-107008320D01*
X138679883Y-107248355D01*
X138236355Y-107691883D01*
X137996320Y-108271379D01*
X136704680Y-108271379D01*
X136464645Y-107691883D01*
X136021117Y-107248355D01*
X135580000Y-107065638D01*
X135580000Y-106613224D01*
X135775225Y-106418000D01*
X135887718Y-106418000D01*
X136118167Y-106322545D01*
X136191950Y-106248762D01*
X136207500Y-106251855D01*
X136252018Y-106243000D01*
X136383862Y-106216775D01*
X136533374Y-106116874D01*
X136558593Y-106079131D01*
X138241442Y-104396282D01*
X140216004Y-104396282D01*
X140216004Y-104645718D01*
X140311459Y-104876167D01*
X140487837Y-105052545D01*
X140718286Y-105148000D01*
X140830779Y-105148000D01*
X140854869Y-105172090D01*
X140854872Y-105172092D01*
X147730912Y-112048133D01*
X147756130Y-112085874D01*
X147905642Y-112185775D01*
X148037486Y-112212000D01*
X148037487Y-112212000D01*
X148082003Y-112220855D01*
X148126520Y-112212000D01*
X159550354Y-112212000D01*
X159615455Y-112369167D01*
X159791833Y-112545545D01*
X160022282Y-112641000D01*
X160271718Y-112641000D01*
X160502167Y-112545545D01*
X160678545Y-112369167D01*
X160774000Y-112138718D01*
X160774000Y-111889282D01*
X160678545Y-111658833D01*
X160502167Y-111482455D01*
X160271718Y-111387000D01*
X160148345Y-111387000D01*
X160069362Y-111334225D01*
X159937518Y-111308000D01*
X159893000Y-111299145D01*
X159848482Y-111308000D01*
X148269229Y-111308000D01*
X141494096Y-104532868D01*
X141494094Y-104532865D01*
X141470004Y-104508775D01*
X141470004Y-104396282D01*
X141374549Y-104165833D01*
X141198171Y-103989455D01*
X140967722Y-103894000D01*
X140718286Y-103894000D01*
X140487837Y-103989455D01*
X140311459Y-104165833D01*
X140216004Y-104396282D01*
X138241442Y-104396282D01*
X138832985Y-103804739D01*
X141447000Y-103804739D01*
X141447000Y-104221261D01*
X141606396Y-104606078D01*
X141900922Y-104900604D01*
X142285739Y-105060000D01*
X142702261Y-105060000D01*
X143087078Y-104900604D01*
X143381604Y-104606078D01*
X143541000Y-104221261D01*
X143541000Y-103804739D01*
X143381604Y-103419922D01*
X143315182Y-103353500D01*
X151026094Y-103353500D01*
X151026094Y-105053500D01*
X151051473Y-105181089D01*
X151123746Y-105289254D01*
X151231911Y-105361527D01*
X151359500Y-105386906D01*
X153059500Y-105386906D01*
X153187089Y-105361527D01*
X153295254Y-105289254D01*
X153367527Y-105181089D01*
X153392906Y-105053500D01*
X153392906Y-104203500D01*
X153549442Y-104203500D01*
X153640791Y-104662742D01*
X153900931Y-105052069D01*
X154290258Y-105312209D01*
X154633580Y-105380500D01*
X154865420Y-105380500D01*
X155208742Y-105312209D01*
X155598069Y-105052069D01*
X155858209Y-104662742D01*
X155949558Y-104203500D01*
X155858209Y-103744258D01*
X155598069Y-103354931D01*
X155208742Y-103094791D01*
X154865420Y-103026500D01*
X154633580Y-103026500D01*
X154290258Y-103094791D01*
X153900931Y-103354931D01*
X153640791Y-103744258D01*
X153549442Y-104203500D01*
X153392906Y-104203500D01*
X153392906Y-103353500D01*
X153367527Y-103225911D01*
X153295254Y-103117746D01*
X153187089Y-103045473D01*
X153059500Y-103020094D01*
X151359500Y-103020094D01*
X151231911Y-103045473D01*
X151123746Y-103117746D01*
X151051473Y-103225911D01*
X151026094Y-103353500D01*
X143315182Y-103353500D01*
X143087078Y-103125396D01*
X142702261Y-102966000D01*
X142285739Y-102966000D01*
X141900922Y-103125396D01*
X141606396Y-103419922D01*
X141447000Y-103804739D01*
X138832985Y-103804739D01*
X139823725Y-102814000D01*
X144100482Y-102814000D01*
X144145000Y-102822855D01*
X144189518Y-102814000D01*
X144321362Y-102787775D01*
X144470874Y-102687874D01*
X144496093Y-102650131D01*
X144684661Y-102461564D01*
X144825739Y-102520000D01*
X145242261Y-102520000D01*
X145627078Y-102360604D01*
X145921604Y-102066078D01*
X146081000Y-101681261D01*
X146081000Y-101264739D01*
X145921604Y-100879922D01*
X145627078Y-100585396D01*
X145242261Y-100426000D01*
X144825739Y-100426000D01*
X144440922Y-100585396D01*
X144146396Y-100879922D01*
X143987000Y-101264739D01*
X143987000Y-101681261D01*
X144045436Y-101822339D01*
X143957776Y-101910000D01*
X139681016Y-101910000D01*
X139636499Y-101901145D01*
X139591983Y-101910000D01*
X139591982Y-101910000D01*
X139460138Y-101936225D01*
X139310626Y-102036126D01*
X139285409Y-102073866D01*
X136105194Y-105254082D01*
X135887718Y-105164000D01*
X135638282Y-105164000D01*
X135407833Y-105259455D01*
X135231455Y-105435833D01*
X135136000Y-105666282D01*
X135136000Y-105778775D01*
X134839867Y-106074909D01*
X134802127Y-106100126D01*
X134776910Y-106137866D01*
X134776909Y-106137867D01*
X134702225Y-106249639D01*
X134667145Y-106426000D01*
X134676001Y-106470522D01*
X134676001Y-107065638D01*
X134234883Y-107248355D01*
X133791355Y-107691883D01*
X133551320Y-108271379D01*
X131008000Y-108271379D01*
X131008000Y-100548626D01*
X134564500Y-100548626D01*
X134564500Y-100798062D01*
X134659955Y-101028511D01*
X134836333Y-101204889D01*
X135066782Y-101300344D01*
X135316218Y-101300344D01*
X135546667Y-101204889D01*
X135652056Y-101099500D01*
X143147982Y-101099500D01*
X143192500Y-101108355D01*
X143237018Y-101099500D01*
X143368862Y-101073275D01*
X143518374Y-100973374D01*
X143543593Y-100935631D01*
X144268725Y-100210500D01*
X148910776Y-100210500D01*
X149381908Y-100681633D01*
X149407126Y-100719374D01*
X149444866Y-100744591D01*
X149556638Y-100819275D01*
X149733000Y-100854355D01*
X149777518Y-100845500D01*
X151019235Y-100845500D01*
X151019235Y-102513500D01*
X151044614Y-102641089D01*
X151116887Y-102749254D01*
X151225052Y-102821527D01*
X151352641Y-102846906D01*
X153052641Y-102846906D01*
X153180230Y-102821527D01*
X153288395Y-102749254D01*
X153360668Y-102641089D01*
X153386047Y-102513500D01*
X153386047Y-100845500D01*
X153873646Y-100845500D01*
X153633932Y-101204258D01*
X153542583Y-101663500D01*
X153633932Y-102122742D01*
X153894072Y-102512069D01*
X154283399Y-102772209D01*
X154626721Y-102840500D01*
X154858561Y-102840500D01*
X155201883Y-102772209D01*
X155591210Y-102512069D01*
X155851350Y-102122742D01*
X155942699Y-101663500D01*
X155851350Y-101204258D01*
X155591210Y-100814931D01*
X155201883Y-100554791D01*
X155201500Y-100554715D01*
X155201500Y-100374518D01*
X155210355Y-100330000D01*
X155201500Y-100285482D01*
X155201500Y-100233650D01*
X155208742Y-100232209D01*
X155598069Y-99972069D01*
X155858209Y-99582742D01*
X155949558Y-99123500D01*
X155858209Y-98664258D01*
X155598069Y-98274931D01*
X155208742Y-98014791D01*
X154865420Y-97946500D01*
X154633580Y-97946500D01*
X154290258Y-98014791D01*
X153900931Y-98274931D01*
X153640791Y-98664258D01*
X153549442Y-99123500D01*
X153640791Y-99582742D01*
X153880505Y-99941500D01*
X153392906Y-99941500D01*
X153392906Y-98273500D01*
X153367527Y-98145911D01*
X153295254Y-98037746D01*
X153187089Y-97965473D01*
X153059500Y-97940094D01*
X151359500Y-97940094D01*
X151231911Y-97965473D01*
X151123746Y-98037746D01*
X151051473Y-98145911D01*
X151026094Y-98273500D01*
X151026094Y-99941500D01*
X149920225Y-99941500D01*
X149449093Y-99470369D01*
X149423874Y-99432626D01*
X149274362Y-99332725D01*
X149142518Y-99306500D01*
X149098000Y-99297645D01*
X149053482Y-99306500D01*
X144126018Y-99306500D01*
X144081500Y-99297645D01*
X144036982Y-99306500D01*
X143905138Y-99332725D01*
X143755626Y-99432626D01*
X143730408Y-99470367D01*
X143005276Y-100195500D01*
X135600368Y-100195500D01*
X135546667Y-100141799D01*
X135316218Y-100046344D01*
X135066782Y-100046344D01*
X134836333Y-100141799D01*
X134659955Y-100318177D01*
X134564500Y-100548626D01*
X131008000Y-100548626D01*
X131008000Y-98724739D01*
X141447000Y-98724739D01*
X141447000Y-99141261D01*
X141606396Y-99526078D01*
X141900922Y-99820604D01*
X142285739Y-99980000D01*
X142702261Y-99980000D01*
X143087078Y-99820604D01*
X143381604Y-99526078D01*
X143541000Y-99141261D01*
X143541000Y-98724739D01*
X143381604Y-98339922D01*
X143087078Y-98045396D01*
X142702261Y-97886000D01*
X142285739Y-97886000D01*
X141900922Y-98045396D01*
X141606396Y-98339922D01*
X141447000Y-98724739D01*
X131008000Y-98724739D01*
X131008000Y-97335712D01*
X131087545Y-97256167D01*
X131183000Y-97025718D01*
X131183000Y-96776282D01*
X131087545Y-96545833D01*
X131008000Y-96466288D01*
X131008000Y-95736568D01*
X151019235Y-95736568D01*
X151019235Y-97436568D01*
X151044614Y-97564157D01*
X151116887Y-97672322D01*
X151225052Y-97744595D01*
X151352641Y-97769974D01*
X153052641Y-97769974D01*
X153180230Y-97744595D01*
X153288395Y-97672322D01*
X153360668Y-97564157D01*
X153386047Y-97436568D01*
X153386047Y-96586568D01*
X153542583Y-96586568D01*
X153633932Y-97045810D01*
X153894072Y-97435137D01*
X154283399Y-97695277D01*
X154626721Y-97763568D01*
X154858561Y-97763568D01*
X155201883Y-97695277D01*
X155591210Y-97435137D01*
X155851350Y-97045810D01*
X155942699Y-96586568D01*
X155851350Y-96127326D01*
X155591210Y-95737999D01*
X155201883Y-95477859D01*
X154858561Y-95409568D01*
X154626721Y-95409568D01*
X154283399Y-95477859D01*
X153894072Y-95737999D01*
X153633932Y-96127326D01*
X153542583Y-96586568D01*
X153386047Y-96586568D01*
X153386047Y-95736568D01*
X153360668Y-95608979D01*
X153288395Y-95500814D01*
X153180230Y-95428541D01*
X153052641Y-95403162D01*
X151352641Y-95403162D01*
X151225052Y-95428541D01*
X151116887Y-95500814D01*
X151044614Y-95608979D01*
X151019235Y-95736568D01*
X131008000Y-95736568D01*
X131008000Y-92142379D01*
X133424320Y-92142379D01*
X133424320Y-92769621D01*
X133664355Y-93349117D01*
X134107883Y-93792645D01*
X134687379Y-94032680D01*
X135314621Y-94032680D01*
X135894117Y-93792645D01*
X136337645Y-93349117D01*
X136577680Y-92769621D01*
X136577680Y-92142379D01*
X137869320Y-92142379D01*
X137869320Y-92769621D01*
X138109355Y-93349117D01*
X138552883Y-93792645D01*
X139132379Y-94032680D01*
X139759621Y-94032680D01*
X140339117Y-93792645D01*
X140782645Y-93349117D01*
X141022680Y-92769621D01*
X141022680Y-92142379D01*
X140782645Y-91562883D01*
X140339117Y-91119355D01*
X139759621Y-90879320D01*
X139132379Y-90879320D01*
X138552883Y-91119355D01*
X138109355Y-91562883D01*
X137869320Y-92142379D01*
X136577680Y-92142379D01*
X136337645Y-91562883D01*
X135894117Y-91119355D01*
X135453000Y-90936638D01*
X135453000Y-90114000D01*
X135718482Y-90114000D01*
X135763000Y-90122855D01*
X135807518Y-90114000D01*
X135939362Y-90087775D01*
X136088874Y-89987874D01*
X136114093Y-89950131D01*
X137796922Y-88267302D01*
X140089000Y-88267302D01*
X140089000Y-88516738D01*
X140184455Y-88747187D01*
X140360833Y-88923565D01*
X140591282Y-89019020D01*
X140703775Y-89019020D01*
X140727865Y-89043110D01*
X140727868Y-89043112D01*
X145317888Y-93633133D01*
X145343106Y-93670874D01*
X145380846Y-93696091D01*
X145492618Y-93770775D01*
X145668980Y-93805855D01*
X145713498Y-93797000D01*
X161610776Y-93797000D01*
X163711000Y-95897224D01*
X163711000Y-96009718D01*
X163806455Y-96240167D01*
X163982833Y-96416545D01*
X164213282Y-96512000D01*
X164462718Y-96512000D01*
X164693167Y-96416545D01*
X164869545Y-96240167D01*
X164965000Y-96009718D01*
X164965000Y-95760282D01*
X164869545Y-95529833D01*
X164693167Y-95353455D01*
X164462718Y-95258000D01*
X164350224Y-95258000D01*
X162149093Y-93056869D01*
X162123874Y-93019126D01*
X161974362Y-92919225D01*
X161842518Y-92893000D01*
X161798000Y-92884145D01*
X161753482Y-92893000D01*
X145856205Y-92893000D01*
X141367092Y-88403888D01*
X141367090Y-88403885D01*
X141343000Y-88379795D01*
X141343000Y-88267302D01*
X141247545Y-88036853D01*
X141071167Y-87860475D01*
X140931780Y-87802739D01*
X141701000Y-87802739D01*
X141701000Y-88219261D01*
X141860396Y-88604078D01*
X142154922Y-88898604D01*
X142539739Y-89058000D01*
X142956261Y-89058000D01*
X143341078Y-88898604D01*
X143635604Y-88604078D01*
X143795000Y-88219261D01*
X143795000Y-87802739D01*
X143660697Y-87478500D01*
X151026094Y-87478500D01*
X151026094Y-89178500D01*
X151051473Y-89306089D01*
X151123746Y-89414254D01*
X151231911Y-89486527D01*
X151359500Y-89511906D01*
X153059500Y-89511906D01*
X153187089Y-89486527D01*
X153295254Y-89414254D01*
X153367527Y-89306089D01*
X153392906Y-89178500D01*
X153392906Y-88328500D01*
X153549442Y-88328500D01*
X153640791Y-88787742D01*
X153900931Y-89177069D01*
X154290258Y-89437209D01*
X154633580Y-89505500D01*
X154865420Y-89505500D01*
X155208742Y-89437209D01*
X155598069Y-89177069D01*
X155858209Y-88787742D01*
X155949558Y-88328500D01*
X155858209Y-87869258D01*
X155598069Y-87479931D01*
X155208742Y-87219791D01*
X154865420Y-87151500D01*
X154633580Y-87151500D01*
X154290258Y-87219791D01*
X153900931Y-87479931D01*
X153640791Y-87869258D01*
X153549442Y-88328500D01*
X153392906Y-88328500D01*
X153392906Y-87478500D01*
X153367527Y-87350911D01*
X153295254Y-87242746D01*
X153187089Y-87170473D01*
X153059500Y-87145094D01*
X151359500Y-87145094D01*
X151231911Y-87170473D01*
X151123746Y-87242746D01*
X151051473Y-87350911D01*
X151026094Y-87478500D01*
X143660697Y-87478500D01*
X143635604Y-87417922D01*
X143341078Y-87123396D01*
X142956261Y-86964000D01*
X142539739Y-86964000D01*
X142154922Y-87123396D01*
X141860396Y-87417922D01*
X141701000Y-87802739D01*
X140931780Y-87802739D01*
X140840718Y-87765020D01*
X140591282Y-87765020D01*
X140360833Y-87860475D01*
X140184455Y-88036853D01*
X140089000Y-88267302D01*
X137796922Y-88267302D01*
X139252225Y-86812000D01*
X144354482Y-86812000D01*
X144399000Y-86820855D01*
X144443518Y-86812000D01*
X144575362Y-86785775D01*
X144724874Y-86685874D01*
X144750093Y-86648131D01*
X144938661Y-86459564D01*
X145079739Y-86518000D01*
X145496261Y-86518000D01*
X145881078Y-86358604D01*
X146175604Y-86064078D01*
X146335000Y-85679261D01*
X146335000Y-85262739D01*
X146175604Y-84877922D01*
X145881078Y-84583396D01*
X145496261Y-84424000D01*
X145079739Y-84424000D01*
X144694922Y-84583396D01*
X144400396Y-84877922D01*
X144241000Y-85262739D01*
X144241000Y-85679261D01*
X144299436Y-85820339D01*
X144211776Y-85908000D01*
X139109517Y-85908000D01*
X139064999Y-85899145D01*
X138888638Y-85934225D01*
X138739126Y-86034126D01*
X138713909Y-86071866D01*
X135575776Y-89210000D01*
X135308712Y-89210000D01*
X135229167Y-89130455D01*
X134998718Y-89035000D01*
X134749282Y-89035000D01*
X134518833Y-89130455D01*
X134342455Y-89306833D01*
X134247000Y-89537282D01*
X134247000Y-89786718D01*
X134342455Y-90017167D01*
X134518833Y-90193545D01*
X134549001Y-90206041D01*
X134549001Y-90936638D01*
X134107883Y-91119355D01*
X133664355Y-91562883D01*
X133424320Y-92142379D01*
X131008000Y-92142379D01*
X131008000Y-84457282D01*
X134384000Y-84457282D01*
X134384000Y-84706718D01*
X134479455Y-84937167D01*
X134655833Y-85113545D01*
X134886282Y-85209000D01*
X135135718Y-85209000D01*
X135366167Y-85113545D01*
X135445712Y-85034000D01*
X143401982Y-85034000D01*
X143446500Y-85042855D01*
X143491018Y-85034000D01*
X143622862Y-85007775D01*
X143772374Y-84907874D01*
X143797593Y-84870131D01*
X144395725Y-84272000D01*
X148974276Y-84272000D01*
X149508908Y-84806633D01*
X149534126Y-84844374D01*
X149571866Y-84869591D01*
X149683638Y-84944275D01*
X149859999Y-84979355D01*
X149904517Y-84970500D01*
X151026094Y-84970500D01*
X151026094Y-86638500D01*
X151051473Y-86766089D01*
X151123746Y-86874254D01*
X151231911Y-86946527D01*
X151359500Y-86971906D01*
X153059500Y-86971906D01*
X153187089Y-86946527D01*
X153295254Y-86874254D01*
X153367527Y-86766089D01*
X153392906Y-86638500D01*
X153392906Y-84970500D01*
X153880505Y-84970500D01*
X153640791Y-85329258D01*
X153549442Y-85788500D01*
X153640791Y-86247742D01*
X153900931Y-86637069D01*
X154290258Y-86897209D01*
X154633580Y-86965500D01*
X154865420Y-86965500D01*
X155208742Y-86897209D01*
X155598069Y-86637069D01*
X155858209Y-86247742D01*
X155949558Y-85788500D01*
X155858209Y-85329258D01*
X155598069Y-84939931D01*
X155208742Y-84679791D01*
X155201500Y-84678350D01*
X155201500Y-84563018D01*
X155210355Y-84518500D01*
X155201500Y-84473982D01*
X155201500Y-84358650D01*
X155208742Y-84357209D01*
X155598069Y-84097069D01*
X155858209Y-83707742D01*
X155949558Y-83248500D01*
X155858209Y-82789258D01*
X155598069Y-82399931D01*
X155208742Y-82139791D01*
X154865420Y-82071500D01*
X154633580Y-82071500D01*
X154290258Y-82139791D01*
X153900931Y-82399931D01*
X153640791Y-82789258D01*
X153549442Y-83248500D01*
X153640791Y-83707742D01*
X153880505Y-84066500D01*
X153392906Y-84066500D01*
X153392906Y-82398500D01*
X153367527Y-82270911D01*
X153295254Y-82162746D01*
X153187089Y-82090473D01*
X153059500Y-82065094D01*
X151359500Y-82065094D01*
X151231911Y-82090473D01*
X151123746Y-82162746D01*
X151051473Y-82270911D01*
X151026094Y-82398500D01*
X151026094Y-84066500D01*
X150047225Y-84066500D01*
X149512593Y-83531869D01*
X149487374Y-83494126D01*
X149337862Y-83394225D01*
X149206018Y-83368000D01*
X149161500Y-83359145D01*
X149116982Y-83368000D01*
X144253018Y-83368000D01*
X144208500Y-83359145D01*
X144163982Y-83368000D01*
X144032138Y-83394225D01*
X143882626Y-83494126D01*
X143857408Y-83531867D01*
X143259276Y-84130000D01*
X135445712Y-84130000D01*
X135366167Y-84050455D01*
X135135718Y-83955000D01*
X134886282Y-83955000D01*
X134655833Y-84050455D01*
X134479455Y-84226833D01*
X134384000Y-84457282D01*
X131008000Y-84457282D01*
X131008000Y-82722739D01*
X141701000Y-82722739D01*
X141701000Y-83139261D01*
X141860396Y-83524078D01*
X142154922Y-83818604D01*
X142539739Y-83978000D01*
X142956261Y-83978000D01*
X143341078Y-83818604D01*
X143635604Y-83524078D01*
X143795000Y-83139261D01*
X143795000Y-82722739D01*
X143635604Y-82337922D01*
X143341078Y-82043396D01*
X142956261Y-81884000D01*
X142539739Y-81884000D01*
X142154922Y-82043396D01*
X141860396Y-82337922D01*
X141701000Y-82722739D01*
X131008000Y-82722739D01*
X131008000Y-81333712D01*
X131087545Y-81254167D01*
X131183000Y-81023718D01*
X131183000Y-80774282D01*
X131087545Y-80543833D01*
X130911167Y-80367455D01*
X130680718Y-80272000D01*
X130431282Y-80272000D01*
X130200833Y-80367455D01*
X130024455Y-80543833D01*
X129929000Y-80774282D01*
X127664588Y-80774282D01*
X127448346Y-80450654D01*
X127009571Y-80157474D01*
X126622646Y-80080510D01*
X126361354Y-80080510D01*
X125974429Y-80157474D01*
X125535654Y-80450654D01*
X125242474Y-80889429D01*
X125139523Y-81407000D01*
X125242474Y-81924571D01*
X125535654Y-82363346D01*
X125974429Y-82656526D01*
X126077359Y-82677000D01*
X125974429Y-82697474D01*
X125535654Y-82990654D01*
X125242474Y-83429429D01*
X125139523Y-83947000D01*
X125242474Y-84464571D01*
X125535654Y-84903346D01*
X125974429Y-85196526D01*
X126077359Y-85217000D01*
X125974429Y-85237474D01*
X125535654Y-85530654D01*
X125242474Y-85969429D01*
X125139523Y-86487000D01*
X125242474Y-87004571D01*
X125501686Y-87392510D01*
X125366200Y-87392510D01*
X125132811Y-87489183D01*
X124954183Y-87667812D01*
X124857510Y-87901201D01*
X111327000Y-87901201D01*
X111327000Y-79858500D01*
X151026094Y-79858500D01*
X151026094Y-81558500D01*
X151051473Y-81686089D01*
X151123746Y-81794254D01*
X151231911Y-81866527D01*
X151359500Y-81891906D01*
X153059500Y-81891906D01*
X153187089Y-81866527D01*
X153295254Y-81794254D01*
X153367527Y-81686089D01*
X153392906Y-81558500D01*
X153392906Y-80708500D01*
X153549442Y-80708500D01*
X153640791Y-81167742D01*
X153900931Y-81557069D01*
X154290258Y-81817209D01*
X154633580Y-81885500D01*
X154865420Y-81885500D01*
X155208742Y-81817209D01*
X155598069Y-81557069D01*
X155858209Y-81167742D01*
X155949558Y-80708500D01*
X155858209Y-80249258D01*
X155598069Y-79859931D01*
X155208742Y-79599791D01*
X154865420Y-79531500D01*
X154633580Y-79531500D01*
X154290258Y-79599791D01*
X153900931Y-79859931D01*
X153640791Y-80249258D01*
X153549442Y-80708500D01*
X153392906Y-80708500D01*
X153392906Y-79858500D01*
X153367527Y-79730911D01*
X153295254Y-79622746D01*
X153187089Y-79550473D01*
X153059500Y-79525094D01*
X151359500Y-79525094D01*
X151231911Y-79550473D01*
X151123746Y-79622746D01*
X151051473Y-79730911D01*
X151026094Y-79858500D01*
X111327000Y-79858500D01*
X111327000Y-73354000D01*
X125411462Y-73354000D01*
X124901734Y-73565136D01*
G04 #@! TD*
M02*
