G04 #@! TF.GenerationSoftware,KiCad,Pcbnew,(5.0.0-rc3-dev-14-g1a2291879)*
G04 #@! TF.CreationDate,2019-01-08T02:03:16-05:00*
G04 #@! TF.ProjectId,LoadCellShield,4C6F616443656C6C536869656C642E6B,rev?*
G04 #@! TF.SameCoordinates,Original*
G04 #@! TF.FileFunction,Copper,L1,Top,Signal*
G04 #@! TF.FilePolarity,Positive*
%FSLAX46Y46*%
G04 Gerber Fmt 4.6, Leading zero omitted, Abs format (unit mm)*
G04 Created by KiCad (PCBNEW (5.0.0-rc3-dev-14-g1a2291879)) date 01/08/19 02:03:16*
%MOMM*%
%LPD*%
G01*
G04 APERTURE LIST*
G04 #@! TA.AperFunction,SMDPad,CuDef*
%ADD10R,1.500000X0.600000*%
G04 #@! TD*
G04 #@! TA.AperFunction,ComponentPad*
%ADD11C,2.499360*%
G04 #@! TD*
G04 #@! TA.AperFunction,ComponentPad*
%ADD12R,3.500000X3.500000*%
G04 #@! TD*
G04 #@! TA.AperFunction,ComponentPad*
%ADD13O,1.998980X1.998980*%
G04 #@! TD*
G04 #@! TA.AperFunction,ComponentPad*
%ADD14R,1.998980X1.998980*%
G04 #@! TD*
G04 #@! TA.AperFunction,ComponentPad*
%ADD15O,1.727200X2.032000*%
G04 #@! TD*
G04 #@! TA.AperFunction,ComponentPad*
%ADD16C,4.064000*%
G04 #@! TD*
G04 #@! TA.AperFunction,SMDPad,CuDef*
%ADD17R,1.250000X1.000000*%
G04 #@! TD*
G04 #@! TA.AperFunction,ComponentPad*
%ADD18C,1.440000*%
G04 #@! TD*
G04 #@! TA.AperFunction,ComponentPad*
%ADD19O,1.700000X1.700000*%
G04 #@! TD*
G04 #@! TA.AperFunction,ComponentPad*
%ADD20R,1.700000X1.700000*%
G04 #@! TD*
G04 #@! TA.AperFunction,ComponentPad*
%ADD21O,1.800000X1.800000*%
G04 #@! TD*
G04 #@! TA.AperFunction,ComponentPad*
%ADD22R,1.800000X1.800000*%
G04 #@! TD*
G04 #@! TA.AperFunction,ViaPad*
%ADD23C,0.600000*%
G04 #@! TD*
G04 #@! TA.AperFunction,Conductor*
%ADD24C,0.250000*%
G04 #@! TD*
G04 #@! TA.AperFunction,Conductor*
%ADD25C,0.500000*%
G04 #@! TD*
G04 #@! TA.AperFunction,Conductor*
%ADD26C,0.254000*%
G04 #@! TD*
G04 APERTURE END LIST*
D10*
G04 #@! TO.P,IC2,16*
G04 #@! TO.N,Net-(IC2-Pad16)*
X139387504Y-80803508D03*
G04 #@! TO.P,IC2,15*
G04 #@! TO.N,Net-(IC2-Pad15)*
X139387504Y-82073508D03*
G04 #@! TO.P,IC2,14*
G04 #@! TO.N,Net-(IC2-Pad14)*
X139387504Y-83343508D03*
G04 #@! TO.P,IC2,13*
G04 #@! TO.N,Net-(IC2-Pad13)*
X139387504Y-84613508D03*
G04 #@! TO.P,IC2,12*
G04 #@! TO.N,GND*
X139387504Y-85883508D03*
G04 #@! TO.P,IC2,11*
G04 #@! TO.N,Channel1*
X139387504Y-87153508D03*
G04 #@! TO.P,IC2,10*
X139387504Y-88423508D03*
G04 #@! TO.P,IC2,9*
G04 #@! TO.N,Net-(IC2-Pad9)*
X139387504Y-89693508D03*
G04 #@! TO.P,IC2,8*
G04 #@! TO.N,Net-(IC2-Pad8)*
X133987504Y-89693508D03*
G04 #@! TO.P,IC2,7*
G04 #@! TO.N,Net-(IC2-Pad7)*
X133987504Y-88423508D03*
G04 #@! TO.P,IC2,6*
G04 #@! TO.N,Net-(IC2-Pad6)*
X133987504Y-87153508D03*
G04 #@! TO.P,IC2,5*
G04 #@! TO.N,GND*
X133987504Y-85883508D03*
G04 #@! TO.P,IC2,4*
G04 #@! TO.N,V_Bridge1*
X133987504Y-84613508D03*
G04 #@! TO.P,IC2,3*
G04 #@! TO.N,GND*
X133987504Y-83343508D03*
G04 #@! TO.P,IC2,2*
G04 #@! TO.N,Sleep1*
X133987504Y-82073508D03*
G04 #@! TO.P,IC2,1*
G04 #@! TO.N,Analog_Vin*
X133987504Y-80803508D03*
G04 #@! TD*
D11*
G04 #@! TO.P,TP11,1*
G04 #@! TO.N,Net-(IC2-Pad8)*
X135001000Y-92456000D03*
G04 #@! TD*
G04 #@! TO.P,TP12,1*
G04 #@! TO.N,Net-(IC2-Pad9)*
X139446000Y-92456000D03*
G04 #@! TD*
G04 #@! TO.P,TP10,1*
G04 #@! TO.N,Net-(IC1-Pad9)*
X139573000Y-108585000D03*
G04 #@! TD*
G04 #@! TO.P,TP9,1*
G04 #@! TO.N,Net-(IC1-Pad8)*
X135128000Y-108585000D03*
G04 #@! TD*
D12*
G04 #@! TO.P,J7,1*
G04 #@! TO.N,Analog_Vin*
X132334000Y-112491000D03*
G04 #@! TO.P,J7,2*
G04 #@! TO.N,GND*
X132334000Y-118491000D03*
G04 #@! TO.P,J7,3*
G04 #@! TO.N,Net-(J7-Pad3)*
X137034000Y-115491000D03*
G04 #@! TD*
D13*
G04 #@! TO.P,J2,3*
G04 #@! TO.N,Net-(IC2-Pad6)*
X126492000Y-83947000D03*
G04 #@! TO.P,J2,2*
G04 #@! TO.N,Net-(IC2-Pad7)*
X126492000Y-86487000D03*
D14*
G04 #@! TO.P,J2,1*
G04 #@! TO.N,GND*
X126492000Y-89027000D03*
D13*
G04 #@! TO.P,J2,4*
G04 #@! TO.N,V_Bridge1*
X126492000Y-81407000D03*
G04 #@! TD*
D15*
G04 #@! TO.P,P1,1*
G04 #@! TO.N,Net-(P1-Pad1)*
X138938000Y-123825000D03*
G04 #@! TO.P,P1,2*
G04 #@! TO.N,/IOREF*
X141478000Y-123825000D03*
G04 #@! TO.P,P1,3*
G04 #@! TO.N,/Reset*
X144018000Y-123825000D03*
G04 #@! TO.P,P1,4*
G04 #@! TO.N,+3V3*
X146558000Y-123825000D03*
G04 #@! TO.P,P1,5*
G04 #@! TO.N,+5V*
X149098000Y-123825000D03*
G04 #@! TO.P,P1,6*
G04 #@! TO.N,GND*
X151638000Y-123825000D03*
G04 #@! TO.P,P1,7*
X154178000Y-123825000D03*
G04 #@! TO.P,P1,8*
G04 #@! TO.N,Vin*
X156718000Y-123825000D03*
G04 #@! TD*
G04 #@! TO.P,P2,1*
G04 #@! TO.N,Channel0*
X161798000Y-123825000D03*
G04 #@! TO.P,P2,2*
G04 #@! TO.N,Channel1*
X164338000Y-123825000D03*
G04 #@! TO.P,P2,3*
G04 #@! TO.N,/A2*
X166878000Y-123825000D03*
G04 #@! TO.P,P2,4*
G04 #@! TO.N,/A3*
X169418000Y-123825000D03*
G04 #@! TO.P,P2,5*
G04 #@! TO.N,/A4(SDA)*
X171958000Y-123825000D03*
G04 #@! TO.P,P2,6*
G04 #@! TO.N,/A5(SCL)*
X174498000Y-123825000D03*
G04 #@! TD*
G04 #@! TO.P,P3,1*
G04 #@! TO.N,/A5(SCL)*
X129794000Y-75565000D03*
G04 #@! TO.P,P3,2*
G04 #@! TO.N,/A4(SDA)*
X132334000Y-75565000D03*
G04 #@! TO.P,P3,3*
G04 #@! TO.N,/AREF*
X134874000Y-75565000D03*
G04 #@! TO.P,P3,4*
G04 #@! TO.N,GND*
X137414000Y-75565000D03*
G04 #@! TO.P,P3,5*
G04 #@! TO.N,/13(SCK)*
X139954000Y-75565000D03*
G04 #@! TO.P,P3,6*
G04 #@! TO.N,/12(MISO)*
X142494000Y-75565000D03*
G04 #@! TO.P,P3,7*
G04 #@! TO.N,/11(\002A\002A/MOSI)*
X145034000Y-75565000D03*
G04 #@! TO.P,P3,8*
G04 #@! TO.N,/10(\002A\002A/SS)*
X147574000Y-75565000D03*
G04 #@! TO.P,P3,9*
G04 #@! TO.N,/9(\002A\002A)*
X150114000Y-75565000D03*
G04 #@! TO.P,P3,10*
G04 #@! TO.N,/8*
X152654000Y-75565000D03*
G04 #@! TD*
G04 #@! TO.P,P4,1*
G04 #@! TO.N,/7*
X156718000Y-75565000D03*
G04 #@! TO.P,P4,2*
G04 #@! TO.N,/6(\002A\002A)*
X159258000Y-75565000D03*
G04 #@! TO.P,P4,3*
G04 #@! TO.N,/5(\002A\002A)*
X161798000Y-75565000D03*
G04 #@! TO.P,P4,4*
G04 #@! TO.N,Sleep1*
X164338000Y-75565000D03*
G04 #@! TO.P,P4,5*
G04 #@! TO.N,/3(\002A\002A)*
X166878000Y-75565000D03*
G04 #@! TO.P,P4,6*
G04 #@! TO.N,Sleep0*
X169418000Y-75565000D03*
G04 #@! TO.P,P4,7*
G04 #@! TO.N,/1(Tx)*
X171958000Y-75565000D03*
G04 #@! TO.P,P4,8*
G04 #@! TO.N,/0(Rx)*
X174498000Y-75565000D03*
G04 #@! TD*
D16*
G04 #@! TO.P,P5,1*
G04 #@! TO.N,Net-(P5-Pad1)*
X124968000Y-123825000D03*
G04 #@! TD*
G04 #@! TO.P,P6,1*
G04 #@! TO.N,Net-(P6-Pad1)*
X177038000Y-118745000D03*
G04 #@! TD*
G04 #@! TO.P,P7,1*
G04 #@! TO.N,Net-(P7-Pad1)*
X126238000Y-75565000D03*
G04 #@! TD*
G04 #@! TO.P,P8,1*
G04 #@! TO.N,Net-(P8-Pad1)*
X177038000Y-90805000D03*
G04 #@! TD*
D17*
G04 #@! TO.P,C1,1*
G04 #@! TO.N,Analog_Vin*
X132087640Y-96849260D03*
G04 #@! TO.P,C1,2*
G04 #@! TO.N,GND*
X132087640Y-98849260D03*
G04 #@! TD*
G04 #@! TO.P,C2,2*
G04 #@! TO.N,GND*
X131900685Y-82829096D03*
G04 #@! TO.P,C2,1*
G04 #@! TO.N,Analog_Vin*
X131900685Y-80829096D03*
G04 #@! TD*
D10*
G04 #@! TO.P,IC1,1*
G04 #@! TO.N,Analog_Vin*
X134187640Y-96863344D03*
G04 #@! TO.P,IC1,2*
G04 #@! TO.N,Sleep0*
X134187640Y-98133344D03*
G04 #@! TO.P,IC1,3*
G04 #@! TO.N,GND*
X134187640Y-99403344D03*
G04 #@! TO.P,IC1,4*
G04 #@! TO.N,V_Bridge0*
X134187640Y-100673344D03*
G04 #@! TO.P,IC1,5*
G04 #@! TO.N,GND*
X134187640Y-101943344D03*
G04 #@! TO.P,IC1,6*
G04 #@! TO.N,Net-(IC1-Pad6)*
X134187640Y-103213344D03*
G04 #@! TO.P,IC1,7*
G04 #@! TO.N,Net-(IC1-Pad7)*
X134187640Y-104483344D03*
G04 #@! TO.P,IC1,8*
G04 #@! TO.N,Net-(IC1-Pad8)*
X134187640Y-105753344D03*
G04 #@! TO.P,IC1,9*
G04 #@! TO.N,Net-(IC1-Pad9)*
X139587640Y-105753344D03*
G04 #@! TO.P,IC1,10*
G04 #@! TO.N,Channel0*
X139587640Y-104483344D03*
G04 #@! TO.P,IC1,11*
X139587640Y-103213344D03*
G04 #@! TO.P,IC1,12*
G04 #@! TO.N,GND*
X139587640Y-101943344D03*
G04 #@! TO.P,IC1,13*
G04 #@! TO.N,Net-(IC1-Pad13)*
X139587640Y-100673344D03*
G04 #@! TO.P,IC1,14*
G04 #@! TO.N,Net-(IC1-Pad14)*
X139587640Y-99403344D03*
G04 #@! TO.P,IC1,15*
G04 #@! TO.N,Net-(IC1-Pad15)*
X139587640Y-98133344D03*
G04 #@! TO.P,IC1,16*
G04 #@! TO.N,Net-(IC1-Pad16)*
X139587640Y-96863344D03*
G04 #@! TD*
D13*
G04 #@! TO.P,J1,4*
G04 #@! TO.N,V_Bridge0*
X126492000Y-97409000D03*
D14*
G04 #@! TO.P,J1,1*
G04 #@! TO.N,GND*
X126492000Y-105029000D03*
D13*
G04 #@! TO.P,J1,2*
G04 #@! TO.N,Net-(IC1-Pad7)*
X126492000Y-102489000D03*
G04 #@! TO.P,J1,3*
G04 #@! TO.N,Net-(IC1-Pad6)*
X126492000Y-99949000D03*
G04 #@! TD*
D18*
G04 #@! TO.P,RV1,3*
G04 #@! TO.N,Net-(IC1-Pad9)*
X142494000Y-104013000D03*
G04 #@! TO.P,RV1,2*
G04 #@! TO.N,Net-(IC1-Pad8)*
X145034000Y-101473000D03*
G04 #@! TO.P,RV1,1*
G04 #@! TO.N,Net-(RV1-Pad1)*
X142494000Y-98933000D03*
G04 #@! TD*
G04 #@! TO.P,RV2,1*
G04 #@! TO.N,Net-(RV2-Pad1)*
X142748000Y-82931000D03*
G04 #@! TO.P,RV2,2*
G04 #@! TO.N,Net-(IC2-Pad8)*
X145288000Y-85471000D03*
G04 #@! TO.P,RV2,3*
G04 #@! TO.N,Net-(IC2-Pad9)*
X142748000Y-88011000D03*
G04 #@! TD*
D19*
G04 #@! TO.P,TP1,2*
G04 #@! TO.N,V_Bridge1*
X154775232Y-91527945D03*
D20*
G04 #@! TO.P,TP1,1*
G04 #@! TO.N,Net-(IC2-Pad13)*
X152235232Y-91527945D03*
G04 #@! TD*
G04 #@! TO.P,TP2,1*
G04 #@! TO.N,Net-(IC2-Pad14)*
X152235232Y-87927945D03*
D19*
G04 #@! TO.P,TP2,2*
G04 #@! TO.N,V_Bridge1*
X154775232Y-87927945D03*
G04 #@! TD*
G04 #@! TO.P,TP3,2*
G04 #@! TO.N,V_Bridge1*
X154775232Y-84327945D03*
D20*
G04 #@! TO.P,TP3,1*
G04 #@! TO.N,Net-(IC2-Pad15)*
X152235232Y-84327945D03*
G04 #@! TD*
G04 #@! TO.P,TP4,1*
G04 #@! TO.N,Net-(IC2-Pad16)*
X152235232Y-80727945D03*
D19*
G04 #@! TO.P,TP4,2*
G04 #@! TO.N,V_Bridge1*
X154775232Y-80727945D03*
G04 #@! TD*
G04 #@! TO.P,TP5,2*
G04 #@! TO.N,V_Bridge0*
X154742641Y-107386568D03*
D20*
G04 #@! TO.P,TP5,1*
G04 #@! TO.N,Net-(IC1-Pad13)*
X152202641Y-107386568D03*
G04 #@! TD*
G04 #@! TO.P,TP6,1*
G04 #@! TO.N,Net-(IC1-Pad14)*
X152202641Y-103786568D03*
D19*
G04 #@! TO.P,TP6,2*
G04 #@! TO.N,V_Bridge0*
X154742641Y-103786568D03*
G04 #@! TD*
G04 #@! TO.P,TP7,2*
G04 #@! TO.N,V_Bridge0*
X154742641Y-100186568D03*
D20*
G04 #@! TO.P,TP7,1*
G04 #@! TO.N,Net-(IC1-Pad15)*
X152202641Y-100186568D03*
G04 #@! TD*
G04 #@! TO.P,TP8,1*
G04 #@! TO.N,Net-(IC1-Pad16)*
X152202641Y-96586568D03*
D19*
G04 #@! TO.P,TP8,2*
G04 #@! TO.N,V_Bridge0*
X154742641Y-96586568D03*
G04 #@! TD*
D17*
G04 #@! TO.P,C3,2*
G04 #@! TO.N,GND*
X156718000Y-119015000D03*
G04 #@! TO.P,C3,1*
G04 #@! TO.N,Vin*
X156718000Y-121015000D03*
G04 #@! TD*
D21*
G04 #@! TO.P,U1,3*
G04 #@! TO.N,Vin*
X149606000Y-118999000D03*
G04 #@! TO.P,U1,2*
G04 #@! TO.N,GND*
X147066000Y-118999000D03*
D22*
G04 #@! TO.P,U1,1*
G04 #@! TO.N,Analog_Vin*
X144526000Y-118999000D03*
G04 #@! TD*
D20*
G04 #@! TO.P,REF\002A\002A,1*
G04 #@! TO.N,Analog_Vin*
X146050000Y-114554000D03*
D19*
G04 #@! TO.P,REF\002A\002A,2*
G04 #@! TO.N,Vin*
X148590000Y-114554000D03*
G04 #@! TD*
D23*
G04 #@! TO.N,GND*
X131191000Y-99949260D03*
X131191000Y-83693000D03*
X132887640Y-101949260D03*
X138287640Y-102149260D03*
X138100685Y-86029096D03*
X128016000Y-102743000D03*
X128016000Y-100203000D03*
X128016000Y-86741000D03*
X128016000Y-84201000D03*
X150622000Y-87630000D03*
X146939000Y-85852000D03*
X146939000Y-85090000D03*
X144145000Y-83439000D03*
X144145000Y-82423000D03*
X140970000Y-82550000D03*
X138049000Y-81915000D03*
X129921000Y-89535000D03*
X131191000Y-89535000D03*
X129921000Y-94615000D03*
X131191000Y-94615000D03*
X129921000Y-106045000D03*
X131191000Y-106045000D03*
X129921000Y-109855000D03*
X131191000Y-109855000D03*
X129921000Y-83693000D03*
X129921000Y-99949000D03*
X156718000Y-117475000D03*
X160528000Y-121285000D03*
X163068000Y-121285000D03*
X165608000Y-121285000D03*
X160528000Y-116205000D03*
X163068000Y-116205000D03*
X165608000Y-116205000D03*
X163068000Y-111125000D03*
X165608000Y-111125000D03*
X165608000Y-106045000D03*
X163068000Y-106045000D03*
X165608000Y-100965000D03*
X163068000Y-100965000D03*
X154686000Y-75565000D03*
X154686000Y-78740000D03*
X147828000Y-98425000D03*
X147828000Y-101981000D03*
X147828000Y-105410000D03*
X147828000Y-109220000D03*
X145288000Y-112395000D03*
X148463000Y-92075000D03*
X148463000Y-88265000D03*
X148463000Y-83058000D03*
X140970000Y-81280000D03*
X147066000Y-81280000D03*
X150622000Y-82423000D03*
X135255000Y-85979000D03*
X132715000Y-85979000D03*
X135509000Y-99441000D03*
X135382000Y-101981000D03*
X135255000Y-83439000D03*
X136661990Y-81915000D03*
X168148000Y-76708000D03*
X165608000Y-76708000D03*
X165608000Y-78994000D03*
X168148000Y-78994000D03*
X157988000Y-112395000D03*
X157988000Y-111125000D03*
X154178000Y-112395000D03*
X154178000Y-111125000D03*
X150368000Y-112395000D03*
X150368000Y-111125000D03*
G04 #@! TO.N,Net-(IC1-Pad8)*
X135763000Y-105791000D03*
G04 #@! TO.N,Channel0*
X160147000Y-112014000D03*
X140843004Y-104521000D03*
G04 #@! TO.N,Channel1*
X164338000Y-95885000D03*
X140716000Y-88392020D03*
G04 #@! TO.N,Net-(IC2-Pad8)*
X134874000Y-89662000D03*
G04 #@! TO.N,V_Bridge0*
X135987640Y-100649260D03*
G04 #@! TO.N,V_Bridge1*
X135011000Y-84582000D03*
G04 #@! TO.N,Analog_Vin*
X130556000Y-80899000D03*
X130556000Y-96901000D03*
G04 #@! TD*
D24*
G04 #@! TO.N,Vin*
X156718000Y-123825000D02*
X156718000Y-123672600D01*
X149352000Y-119253000D02*
X149606000Y-118999000D01*
X150876000Y-120269000D02*
X149606000Y-118999000D01*
X151622000Y-121015000D02*
X150876000Y-120269000D01*
X156718000Y-121015000D02*
X155448000Y-121015000D01*
X155448000Y-121015000D02*
X151622000Y-121015000D01*
X156718000Y-122559000D02*
X156718000Y-121015000D01*
X156718000Y-123825000D02*
X156718000Y-122559000D01*
X149606000Y-115570000D02*
X148590000Y-114554000D01*
X149606000Y-118999000D02*
X149606000Y-115570000D01*
G04 #@! TO.N,Net-(IC1-Pad6)*
X134187640Y-103213344D02*
X134637640Y-103213344D01*
X129756344Y-103213344D02*
X126492000Y-99949000D01*
X134187640Y-103213344D02*
X129756344Y-103213344D01*
G04 #@! TO.N,Net-(IC1-Pad7)*
X134187640Y-104483344D02*
X134637640Y-104483344D01*
X128486344Y-104483344D02*
X126492000Y-102489000D01*
X134187640Y-104483344D02*
X128486344Y-104483344D01*
G04 #@! TO.N,Net-(IC1-Pad8)*
X134225296Y-105791000D02*
X134187640Y-105753344D01*
X135763000Y-105791000D02*
X134225296Y-105791000D01*
G04 #@! TO.N,Net-(IC1-Pad9)*
X139573000Y-105767984D02*
X139587640Y-105753344D01*
X139573000Y-108585000D02*
X139573000Y-105767984D01*
X141896656Y-105753344D02*
X139587640Y-105753344D01*
X142494000Y-104013000D02*
X142494000Y-105156000D01*
X142494000Y-105156000D02*
X141896656Y-105753344D01*
G04 #@! TO.N,Channel0*
X139587640Y-104483344D02*
X139587640Y-103213344D01*
X139553556Y-104449260D02*
X139587640Y-104483344D01*
X161798000Y-123825000D02*
X161798000Y-122559000D01*
X161798000Y-122559000D02*
X161798000Y-113665000D01*
X161798000Y-113665000D02*
X160147000Y-112014000D01*
X139587640Y-104483344D02*
X140805348Y-104483344D01*
X140805348Y-104483344D02*
X140843004Y-104521000D01*
G04 #@! TO.N,Net-(IC1-Pad13)*
X139587640Y-100673344D02*
X140037640Y-100673344D01*
X140587640Y-100673344D02*
X139587640Y-100673344D01*
X140700946Y-100673344D02*
X140587640Y-100673344D01*
X147414170Y-107386568D02*
X140700946Y-100673344D01*
X152202641Y-107386568D02*
X147414170Y-107386568D01*
G04 #@! TO.N,Net-(IC1-Pad14)*
X140037640Y-99403344D02*
X139587640Y-99403344D01*
X140587640Y-99403344D02*
X139587640Y-99403344D01*
X141417742Y-99403344D02*
X140587640Y-99403344D01*
X145800966Y-103786568D02*
X141417742Y-99403344D01*
X152202641Y-103786568D02*
X145800966Y-103786568D01*
G04 #@! TO.N,Net-(IC1-Pad15)*
X139587640Y-98133344D02*
X140037640Y-98133344D01*
X140587640Y-98133344D02*
X139587640Y-98133344D01*
X140832985Y-97887999D02*
X140587640Y-98133344D01*
X142995601Y-97887999D02*
X140832985Y-97887999D01*
X145294170Y-100186568D02*
X142995601Y-97887999D01*
X152202641Y-100186568D02*
X145294170Y-100186568D01*
G04 #@! TO.N,Net-(IC1-Pad16)*
X152042087Y-96426014D02*
X152202641Y-96586568D01*
X139587640Y-96863344D02*
X140037640Y-96863344D01*
X139864416Y-96586568D02*
X139587640Y-96863344D01*
X152202641Y-96586568D02*
X139864416Y-96586568D01*
G04 #@! TO.N,Net-(IC2-Pad16)*
X139387504Y-80803508D02*
X139837504Y-80803508D01*
X152159669Y-80803508D02*
X152235232Y-80727945D01*
X139387504Y-80803508D02*
X152159669Y-80803508D01*
G04 #@! TO.N,Net-(IC2-Pad15)*
X151135232Y-84327945D02*
X152235232Y-84327945D01*
X148595287Y-81788000D02*
X151135232Y-84327945D01*
X140123012Y-81788000D02*
X148595287Y-81788000D01*
X139387504Y-82073508D02*
X139837504Y-82073508D01*
X139837504Y-82073508D02*
X140123012Y-81788000D01*
G04 #@! TO.N,Net-(IC2-Pad14)*
X139387504Y-83343508D02*
X139837504Y-83343508D01*
X152189945Y-87927945D02*
X152235232Y-87927945D01*
X148336000Y-84074000D02*
X152189945Y-87927945D01*
X142113000Y-84074000D02*
X148336000Y-84074000D01*
X139387504Y-83343508D02*
X141382508Y-83343508D01*
X141382508Y-83343508D02*
X142113000Y-84074000D01*
G04 #@! TO.N,Net-(IC2-Pad13)*
X139387504Y-84613508D02*
X139837504Y-84613508D01*
X152235232Y-90427945D02*
X152235232Y-91527945D01*
X148421287Y-86614000D02*
X152235232Y-90427945D01*
X142897602Y-86614000D02*
X148421287Y-86614000D01*
X139387504Y-84613508D02*
X140897110Y-84613508D01*
X140897110Y-84613508D02*
X142897602Y-86614000D01*
G04 #@! TO.N,Channel1*
X164338000Y-123825000D02*
X164338000Y-95885000D01*
X139387504Y-88423508D02*
X139387504Y-87884000D01*
X139387504Y-87884000D02*
X139387504Y-87153508D01*
X140291736Y-88392020D02*
X140716000Y-88392020D01*
X139387504Y-87884000D02*
X139387504Y-88392020D01*
X139387504Y-88392020D02*
X140291736Y-88392020D01*
G04 #@! TO.N,Net-(IC2-Pad9)*
X141065492Y-89693508D02*
X139387504Y-89693508D01*
X142748000Y-88011000D02*
X141065492Y-89693508D01*
X139446000Y-89752004D02*
X139387504Y-89693508D01*
X139446000Y-92456000D02*
X139446000Y-89752004D01*
G04 #@! TO.N,Net-(IC2-Pad8)*
X134019012Y-89662000D02*
X133987504Y-89693508D01*
X134874000Y-89662000D02*
X134019012Y-89662000D01*
G04 #@! TO.N,Net-(IC2-Pad7)*
X133987504Y-88423508D02*
X134437504Y-88423508D01*
X128428508Y-88423508D02*
X126492000Y-86487000D01*
X133987504Y-88423508D02*
X128428508Y-88423508D01*
G04 #@! TO.N,Net-(IC2-Pad6)*
X133987504Y-87153508D02*
X134437504Y-87153508D01*
X129698508Y-87153508D02*
X126492000Y-83947000D01*
X133987504Y-87153508D02*
X129698508Y-87153508D01*
G04 #@! TO.N,V_Bridge0*
X154742641Y-106184487D02*
X154742641Y-103786568D01*
X154742641Y-107386568D02*
X154742641Y-106184487D01*
X154742641Y-98984487D02*
X154742641Y-96586568D01*
X154742641Y-100186568D02*
X154742641Y-98984487D01*
X134187640Y-100673344D02*
X135963556Y-100673344D01*
X135963556Y-100673344D02*
X135987640Y-100649260D01*
X129756344Y-100673344D02*
X126492000Y-97409000D01*
X134187640Y-100673344D02*
X129756344Y-100673344D01*
G04 #@! TO.N,V_Bridge1*
X154775232Y-90325864D02*
X154775232Y-87927945D01*
X154775232Y-91527945D02*
X154775232Y-90325864D01*
X154775232Y-81930026D02*
X154775232Y-84327945D01*
X154775232Y-80727945D02*
X154775232Y-81930026D01*
X127491489Y-82406489D02*
X126492000Y-81407000D01*
X129794000Y-84709000D02*
X127491489Y-82406489D01*
X133987504Y-84613508D02*
X133892012Y-84709000D01*
X133892012Y-84709000D02*
X129794000Y-84709000D01*
X134019012Y-84582000D02*
X133987504Y-84613508D01*
X135011000Y-84582000D02*
X134019012Y-84582000D01*
G04 #@! TO.N,Analog_Vin*
X134249979Y-96849260D02*
X134264063Y-96863344D01*
X133961916Y-80829096D02*
X133987504Y-80803508D01*
X134173556Y-96849260D02*
X134187640Y-96863344D01*
D25*
X132087640Y-96849260D02*
X134173556Y-96849260D01*
D24*
X131962640Y-96849260D02*
X132087640Y-96849260D01*
X131800685Y-80929096D02*
X131900685Y-80829096D01*
X131926273Y-80803508D02*
X131900685Y-80829096D01*
X133987504Y-80803508D02*
X131926273Y-80803508D01*
X134334000Y-112491000D02*
X132334000Y-112491000D01*
X139168000Y-112491000D02*
X134334000Y-112491000D01*
X144526000Y-118999000D02*
X144526000Y-117849000D01*
X131900685Y-80829096D02*
X130625904Y-80829096D01*
X130625904Y-80829096D02*
X130556000Y-80899000D01*
X130607740Y-96849260D02*
X130556000Y-96901000D01*
X132087640Y-96849260D02*
X130607740Y-96849260D01*
X144526000Y-116375000D02*
X144526000Y-117849000D01*
X143052000Y-116375000D02*
X139168000Y-112491000D01*
X144526000Y-116375000D02*
X143052000Y-116375000D01*
X146050000Y-114851000D02*
X144526000Y-116375000D01*
X146050000Y-114554000D02*
X146050000Y-114851000D01*
G04 #@! TO.N,Sleep0*
X169418000Y-76831000D02*
X169418000Y-75565000D01*
X168398000Y-77851000D02*
X169418000Y-76831000D01*
X139954000Y-77851000D02*
X168398000Y-77851000D01*
X137287000Y-80518000D02*
X139954000Y-77851000D01*
X134637640Y-98133344D02*
X135636000Y-97134984D01*
X134187640Y-98133344D02*
X134637640Y-98133344D01*
X135636000Y-97134984D02*
X135636000Y-97028000D01*
X135636000Y-97028000D02*
X137287000Y-95377000D01*
X137287000Y-95377000D02*
X137287000Y-80518000D01*
G04 #@! TO.N,Sleep1*
X134987504Y-82073508D02*
X135636000Y-81425012D01*
X164338000Y-75717400D02*
X164338000Y-75565000D01*
X133987504Y-82073508D02*
X134987504Y-82073508D01*
X135636000Y-81425012D02*
X135636000Y-81407000D01*
X135636000Y-81407000D02*
X139700000Y-77343000D01*
X139700000Y-77343000D02*
X162712400Y-77343000D01*
X162712400Y-77343000D02*
X164338000Y-75717400D01*
G04 #@! TD*
D26*
G04 #@! TO.N,GND*
G36*
X124901734Y-73565136D02*
X124238136Y-74228734D01*
X123879000Y-75095766D01*
X123879000Y-76034234D01*
X124238136Y-76901266D01*
X124901734Y-77564864D01*
X125768766Y-77924000D01*
X126707234Y-77924000D01*
X127574266Y-77564864D01*
X128237864Y-76901266D01*
X128597000Y-76034234D01*
X128597000Y-75295339D01*
X128603400Y-75295339D01*
X128603400Y-75834662D01*
X128672480Y-76181949D01*
X128935626Y-76575775D01*
X129329452Y-76838920D01*
X129794000Y-76931325D01*
X130258549Y-76838920D01*
X130652375Y-76575775D01*
X130915520Y-76181948D01*
X130984600Y-75834661D01*
X130984600Y-75295339D01*
X131143400Y-75295339D01*
X131143400Y-75834662D01*
X131212480Y-76181949D01*
X131475626Y-76575775D01*
X131869452Y-76838920D01*
X132334000Y-76931325D01*
X132798549Y-76838920D01*
X133192375Y-76575775D01*
X133455520Y-76181948D01*
X133524600Y-75834661D01*
X133524600Y-75295339D01*
X133683400Y-75295339D01*
X133683400Y-75834662D01*
X133752480Y-76181949D01*
X134015626Y-76575775D01*
X134409452Y-76838920D01*
X134874000Y-76931325D01*
X135338549Y-76838920D01*
X135732375Y-76575775D01*
X135995520Y-76181948D01*
X136054146Y-75887213D01*
X136179473Y-75887213D01*
X136338430Y-76346720D01*
X136661133Y-76710419D01*
X137094882Y-76920393D01*
X137287000Y-76859712D01*
X137287000Y-75692000D01*
X137541000Y-75692000D01*
X137541000Y-76859712D01*
X137733118Y-76920393D01*
X138166867Y-76710419D01*
X138489570Y-76346720D01*
X138648527Y-75887213D01*
X138564643Y-75692000D01*
X137541000Y-75692000D01*
X137287000Y-75692000D01*
X136263357Y-75692000D01*
X136179473Y-75887213D01*
X136054146Y-75887213D01*
X136064600Y-75834661D01*
X136064600Y-75295338D01*
X136054147Y-75242787D01*
X136179473Y-75242787D01*
X136263357Y-75438000D01*
X137287000Y-75438000D01*
X137287000Y-74270288D01*
X137541000Y-74270288D01*
X137541000Y-75438000D01*
X138564643Y-75438000D01*
X138648527Y-75242787D01*
X138489570Y-74783280D01*
X138166867Y-74419581D01*
X137733118Y-74209607D01*
X137541000Y-74270288D01*
X137287000Y-74270288D01*
X137094882Y-74209607D01*
X136661133Y-74419581D01*
X136338430Y-74783280D01*
X136179473Y-75242787D01*
X136054147Y-75242787D01*
X135995520Y-74948051D01*
X135732375Y-74554225D01*
X135338548Y-74291080D01*
X134874000Y-74198675D01*
X134409451Y-74291080D01*
X134015625Y-74554225D01*
X133752480Y-74948052D01*
X133683400Y-75295339D01*
X133524600Y-75295339D01*
X133524600Y-75295338D01*
X133455520Y-74948051D01*
X133192375Y-74554225D01*
X132798548Y-74291080D01*
X132334000Y-74198675D01*
X131869451Y-74291080D01*
X131475625Y-74554225D01*
X131212480Y-74948052D01*
X131143400Y-75295339D01*
X130984600Y-75295339D01*
X130984600Y-75295338D01*
X130915520Y-74948051D01*
X130652375Y-74554225D01*
X130258548Y-74291080D01*
X129794000Y-74198675D01*
X129329451Y-74291080D01*
X128935625Y-74554225D01*
X128672480Y-74948052D01*
X128603400Y-75295339D01*
X128597000Y-75295339D01*
X128597000Y-75095766D01*
X128237864Y-74228734D01*
X127574266Y-73565136D01*
X127064538Y-73354000D01*
X175377724Y-73354000D01*
X176709001Y-74685277D01*
X176709000Y-85946604D01*
X176702556Y-85979000D01*
X176709000Y-86011396D01*
X176709000Y-86011400D01*
X176728089Y-86107368D01*
X176728090Y-86107369D01*
X176764010Y-86161127D01*
X176800805Y-86216195D01*
X176828272Y-86234548D01*
X179249001Y-88655277D01*
X179249001Y-89978464D01*
X179037864Y-89468734D01*
X178374266Y-88805136D01*
X177507234Y-88446000D01*
X176568766Y-88446000D01*
X175701734Y-88805136D01*
X175038136Y-89468734D01*
X174679000Y-90335766D01*
X174679000Y-91274234D01*
X175038136Y-92141266D01*
X175701734Y-92804864D01*
X176568766Y-93164000D01*
X177507234Y-93164000D01*
X178374266Y-92804864D01*
X179037864Y-92141266D01*
X179249001Y-91631536D01*
X179249000Y-117918462D01*
X179037864Y-117408734D01*
X178374266Y-116745136D01*
X177507234Y-116386000D01*
X176568766Y-116386000D01*
X175701734Y-116745136D01*
X175038136Y-117408734D01*
X174679000Y-118275766D01*
X174679000Y-119214234D01*
X175038136Y-120081266D01*
X175701734Y-120744864D01*
X176568766Y-121104000D01*
X177507234Y-121104000D01*
X178374266Y-120744864D01*
X179037864Y-120081266D01*
X179249000Y-119571538D01*
X179249000Y-121148724D01*
X176828270Y-123569454D01*
X176800806Y-123587805D01*
X176782455Y-123615269D01*
X176782451Y-123615273D01*
X176728090Y-123696631D01*
X176702556Y-123825000D01*
X176709001Y-123857401D01*
X176709000Y-126036000D01*
X125794538Y-126036000D01*
X126304266Y-125824864D01*
X126967864Y-125161266D01*
X127327000Y-124294234D01*
X127327000Y-123555339D01*
X137747400Y-123555339D01*
X137747400Y-124094662D01*
X137816480Y-124441949D01*
X138079626Y-124835775D01*
X138473452Y-125098920D01*
X138938000Y-125191325D01*
X139402549Y-125098920D01*
X139796375Y-124835775D01*
X140059520Y-124441948D01*
X140128600Y-124094661D01*
X140128600Y-123555339D01*
X140287400Y-123555339D01*
X140287400Y-124094662D01*
X140356480Y-124441949D01*
X140619626Y-124835775D01*
X141013452Y-125098920D01*
X141478000Y-125191325D01*
X141942549Y-125098920D01*
X142336375Y-124835775D01*
X142599520Y-124441948D01*
X142668600Y-124094661D01*
X142668600Y-123555339D01*
X142827400Y-123555339D01*
X142827400Y-124094662D01*
X142896480Y-124441949D01*
X143159626Y-124835775D01*
X143553452Y-125098920D01*
X144018000Y-125191325D01*
X144482549Y-125098920D01*
X144876375Y-124835775D01*
X145139520Y-124441948D01*
X145208600Y-124094661D01*
X145208600Y-123555339D01*
X145367400Y-123555339D01*
X145367400Y-124094662D01*
X145436480Y-124441949D01*
X145699626Y-124835775D01*
X146093452Y-125098920D01*
X146558000Y-125191325D01*
X147022549Y-125098920D01*
X147416375Y-124835775D01*
X147679520Y-124441948D01*
X147748600Y-124094661D01*
X147748600Y-123555339D01*
X147907400Y-123555339D01*
X147907400Y-124094662D01*
X147976480Y-124441949D01*
X148239626Y-124835775D01*
X148633452Y-125098920D01*
X149098000Y-125191325D01*
X149562549Y-125098920D01*
X149956375Y-124835775D01*
X150219520Y-124441948D01*
X150278146Y-124147213D01*
X150403473Y-124147213D01*
X150562430Y-124606720D01*
X150885133Y-124970419D01*
X151318882Y-125180393D01*
X151511000Y-125119712D01*
X151511000Y-123952000D01*
X151765000Y-123952000D01*
X151765000Y-125119712D01*
X151957118Y-125180393D01*
X152390867Y-124970419D01*
X152713570Y-124606720D01*
X152872527Y-124147213D01*
X152943473Y-124147213D01*
X153102430Y-124606720D01*
X153425133Y-124970419D01*
X153858882Y-125180393D01*
X154051000Y-125119712D01*
X154051000Y-123952000D01*
X154305000Y-123952000D01*
X154305000Y-125119712D01*
X154497118Y-125180393D01*
X154930867Y-124970419D01*
X155253570Y-124606720D01*
X155412527Y-124147213D01*
X155328643Y-123952000D01*
X154305000Y-123952000D01*
X154051000Y-123952000D01*
X153027357Y-123952000D01*
X152943473Y-124147213D01*
X152872527Y-124147213D01*
X152788643Y-123952000D01*
X151765000Y-123952000D01*
X151511000Y-123952000D01*
X150487357Y-123952000D01*
X150403473Y-124147213D01*
X150278146Y-124147213D01*
X150288600Y-124094661D01*
X150288600Y-123555338D01*
X150278147Y-123502787D01*
X150403473Y-123502787D01*
X150487357Y-123698000D01*
X151511000Y-123698000D01*
X151511000Y-122530288D01*
X151765000Y-122530288D01*
X151765000Y-123698000D01*
X152788643Y-123698000D01*
X152872527Y-123502787D01*
X152943473Y-123502787D01*
X153027357Y-123698000D01*
X154051000Y-123698000D01*
X154051000Y-122530288D01*
X154305000Y-122530288D01*
X154305000Y-123698000D01*
X155328643Y-123698000D01*
X155412527Y-123502787D01*
X155253570Y-123043280D01*
X154930867Y-122679581D01*
X154497118Y-122469607D01*
X154305000Y-122530288D01*
X154051000Y-122530288D01*
X153858882Y-122469607D01*
X153425133Y-122679581D01*
X153102430Y-123043280D01*
X152943473Y-123502787D01*
X152872527Y-123502787D01*
X152713570Y-123043280D01*
X152390867Y-122679581D01*
X151957118Y-122469607D01*
X151765000Y-122530288D01*
X151511000Y-122530288D01*
X151318882Y-122469607D01*
X150885133Y-122679581D01*
X150562430Y-123043280D01*
X150403473Y-123502787D01*
X150278147Y-123502787D01*
X150219520Y-123208051D01*
X149956375Y-122814225D01*
X149562548Y-122551080D01*
X149098000Y-122458675D01*
X148633451Y-122551080D01*
X148239625Y-122814225D01*
X147976480Y-123208052D01*
X147907400Y-123555339D01*
X147748600Y-123555339D01*
X147748600Y-123555338D01*
X147679520Y-123208051D01*
X147416375Y-122814225D01*
X147022548Y-122551080D01*
X146558000Y-122458675D01*
X146093451Y-122551080D01*
X145699625Y-122814225D01*
X145436480Y-123208052D01*
X145367400Y-123555339D01*
X145208600Y-123555339D01*
X145208600Y-123555338D01*
X145139520Y-123208051D01*
X144876375Y-122814225D01*
X144482548Y-122551080D01*
X144018000Y-122458675D01*
X143553451Y-122551080D01*
X143159625Y-122814225D01*
X142896480Y-123208052D01*
X142827400Y-123555339D01*
X142668600Y-123555339D01*
X142668600Y-123555338D01*
X142599520Y-123208051D01*
X142336375Y-122814225D01*
X141942548Y-122551080D01*
X141478000Y-122458675D01*
X141013451Y-122551080D01*
X140619625Y-122814225D01*
X140356480Y-123208052D01*
X140287400Y-123555339D01*
X140128600Y-123555339D01*
X140128600Y-123555338D01*
X140059520Y-123208051D01*
X139796375Y-122814225D01*
X139402548Y-122551080D01*
X138938000Y-122458675D01*
X138473451Y-122551080D01*
X138079625Y-122814225D01*
X137816480Y-123208052D01*
X137747400Y-123555339D01*
X127327000Y-123555339D01*
X127327000Y-123355766D01*
X126967864Y-122488734D01*
X126304266Y-121825136D01*
X125437234Y-121466000D01*
X124498766Y-121466000D01*
X123631734Y-121825136D01*
X122968136Y-122488734D01*
X122609000Y-123355766D01*
X122609000Y-124294234D01*
X122968136Y-125161266D01*
X123631734Y-125824864D01*
X124141462Y-126036000D01*
X111327000Y-126036000D01*
X111327000Y-118713250D01*
X130203000Y-118713250D01*
X130203000Y-120316786D01*
X130261004Y-120456820D01*
X130368181Y-120563996D01*
X130508215Y-120622000D01*
X132111750Y-120622000D01*
X132207000Y-120526750D01*
X132207000Y-118618000D01*
X132461000Y-118618000D01*
X132461000Y-120526750D01*
X132556250Y-120622000D01*
X134159785Y-120622000D01*
X134299819Y-120563996D01*
X134406996Y-120456820D01*
X134465000Y-120316786D01*
X134465000Y-118713250D01*
X134369750Y-118618000D01*
X132461000Y-118618000D01*
X132207000Y-118618000D01*
X130298250Y-118618000D01*
X130203000Y-118713250D01*
X111327000Y-118713250D01*
X111327000Y-116665214D01*
X130203000Y-116665214D01*
X130203000Y-118268750D01*
X130298250Y-118364000D01*
X132207000Y-118364000D01*
X132207000Y-116455250D01*
X132461000Y-116455250D01*
X132461000Y-118364000D01*
X134369750Y-118364000D01*
X134465000Y-118268750D01*
X134465000Y-116665214D01*
X134406996Y-116525180D01*
X134299819Y-116418004D01*
X134159785Y-116360000D01*
X132556250Y-116360000D01*
X132461000Y-116455250D01*
X132207000Y-116455250D01*
X132111750Y-116360000D01*
X130508215Y-116360000D01*
X130368181Y-116418004D01*
X130261004Y-116525180D01*
X130203000Y-116665214D01*
X111327000Y-116665214D01*
X111327000Y-110741000D01*
X130250594Y-110741000D01*
X130250594Y-114241000D01*
X130275973Y-114368589D01*
X130348246Y-114476754D01*
X130456411Y-114549027D01*
X130584000Y-114574406D01*
X134084000Y-114574406D01*
X134211589Y-114549027D01*
X134319754Y-114476754D01*
X134392027Y-114368589D01*
X134417406Y-114241000D01*
X134417406Y-113741000D01*
X134950594Y-113741000D01*
X134950594Y-117241000D01*
X134975973Y-117368589D01*
X135048246Y-117476754D01*
X135156411Y-117549027D01*
X135284000Y-117574406D01*
X138784000Y-117574406D01*
X138911589Y-117549027D01*
X139019754Y-117476754D01*
X139092027Y-117368589D01*
X139117406Y-117241000D01*
X139117406Y-113741000D01*
X139092027Y-113613411D01*
X139019754Y-113505246D01*
X138911589Y-113432973D01*
X138784000Y-113407594D01*
X135284000Y-113407594D01*
X135156411Y-113432973D01*
X135048246Y-113505246D01*
X134975973Y-113613411D01*
X134950594Y-113741000D01*
X134417406Y-113741000D01*
X134417406Y-112943000D01*
X138980776Y-112943000D01*
X142700907Y-116663131D01*
X142726126Y-116700874D01*
X142875638Y-116800775D01*
X143007482Y-116827000D01*
X143007483Y-116827000D01*
X143051999Y-116835855D01*
X143096516Y-116827000D01*
X144074000Y-116827000D01*
X144074001Y-117765594D01*
X143626000Y-117765594D01*
X143498411Y-117790973D01*
X143390246Y-117863246D01*
X143317973Y-117971411D01*
X143292594Y-118099000D01*
X143292594Y-119899000D01*
X143317973Y-120026589D01*
X143390246Y-120134754D01*
X143498411Y-120207027D01*
X143626000Y-120232406D01*
X145426000Y-120232406D01*
X145553589Y-120207027D01*
X145661754Y-120134754D01*
X145734027Y-120026589D01*
X145759406Y-119899000D01*
X145759406Y-119323842D01*
X145826872Y-119323842D01*
X145960098Y-119645505D01*
X146291686Y-120019503D01*
X146741157Y-120238139D01*
X146939000Y-120178450D01*
X146939000Y-119126000D01*
X147193000Y-119126000D01*
X147193000Y-120178450D01*
X147390843Y-120238139D01*
X147840314Y-120019503D01*
X148171902Y-119645505D01*
X148305128Y-119323842D01*
X148244929Y-119126000D01*
X147193000Y-119126000D01*
X146939000Y-119126000D01*
X145887071Y-119126000D01*
X145826872Y-119323842D01*
X145759406Y-119323842D01*
X145759406Y-118674158D01*
X145826872Y-118674158D01*
X145887071Y-118872000D01*
X146939000Y-118872000D01*
X146939000Y-117819550D01*
X147193000Y-117819550D01*
X147193000Y-118872000D01*
X148244929Y-118872000D01*
X148305128Y-118674158D01*
X148171902Y-118352495D01*
X147840314Y-117978497D01*
X147390843Y-117759861D01*
X147193000Y-117819550D01*
X146939000Y-117819550D01*
X146741157Y-117759861D01*
X146291686Y-117978497D01*
X145960098Y-118352495D01*
X145826872Y-118674158D01*
X145759406Y-118674158D01*
X145759406Y-118099000D01*
X145734027Y-117971411D01*
X145661754Y-117863246D01*
X145553589Y-117790973D01*
X145426000Y-117765594D01*
X144978000Y-117765594D01*
X144978000Y-116562224D01*
X145802818Y-115737406D01*
X146900000Y-115737406D01*
X147027589Y-115712027D01*
X147135754Y-115639754D01*
X147208027Y-115531589D01*
X147233406Y-115404000D01*
X147233406Y-114554000D01*
X147389942Y-114554000D01*
X147481291Y-115013242D01*
X147741431Y-115402569D01*
X148130758Y-115662709D01*
X148474080Y-115731000D01*
X148705920Y-115731000D01*
X149049242Y-115662709D01*
X149055382Y-115658607D01*
X149154001Y-115757226D01*
X149154000Y-117837871D01*
X149127248Y-117843192D01*
X148721383Y-118114383D01*
X148450192Y-118520248D01*
X148354962Y-118999000D01*
X148450192Y-119477752D01*
X148721383Y-119883617D01*
X149127248Y-120154808D01*
X149485153Y-120226000D01*
X149726847Y-120226000D01*
X150084752Y-120154808D01*
X150107430Y-120139655D01*
X150587866Y-120620091D01*
X150587869Y-120620093D01*
X151270908Y-121303133D01*
X151296126Y-121340874D01*
X151445638Y-121440775D01*
X151577482Y-121467000D01*
X151577483Y-121467000D01*
X151621999Y-121475855D01*
X151666516Y-121467000D01*
X155759594Y-121467000D01*
X155759594Y-121515000D01*
X155784973Y-121642589D01*
X155857246Y-121750754D01*
X155965411Y-121823027D01*
X156093000Y-121848406D01*
X156266000Y-121848406D01*
X156266000Y-122548584D01*
X156253451Y-122551080D01*
X155859625Y-122814225D01*
X155596480Y-123208052D01*
X155527400Y-123555339D01*
X155527400Y-124094662D01*
X155596480Y-124441949D01*
X155859626Y-124835775D01*
X156253452Y-125098920D01*
X156718000Y-125191325D01*
X157182549Y-125098920D01*
X157576375Y-124835775D01*
X157839520Y-124441948D01*
X157908600Y-124094661D01*
X157908600Y-123555338D01*
X157839520Y-123208051D01*
X157576375Y-122814225D01*
X157182548Y-122551080D01*
X157170000Y-122548584D01*
X157170000Y-121848406D01*
X157343000Y-121848406D01*
X157470589Y-121823027D01*
X157578754Y-121750754D01*
X157651027Y-121642589D01*
X157676406Y-121515000D01*
X157676406Y-120515000D01*
X157651027Y-120387411D01*
X157578754Y-120279246D01*
X157470589Y-120206973D01*
X157343000Y-120181594D01*
X156093000Y-120181594D01*
X155965411Y-120206973D01*
X155857246Y-120279246D01*
X155784973Y-120387411D01*
X155759594Y-120515000D01*
X155759594Y-120563000D01*
X151809225Y-120563000D01*
X151227093Y-119980869D01*
X151227091Y-119980866D01*
X150746655Y-119500430D01*
X150761808Y-119477752D01*
X150809646Y-119237250D01*
X155712000Y-119237250D01*
X155712000Y-119590786D01*
X155770004Y-119730820D01*
X155877181Y-119837996D01*
X156017215Y-119896000D01*
X156495750Y-119896000D01*
X156591000Y-119800750D01*
X156591000Y-119142000D01*
X156845000Y-119142000D01*
X156845000Y-119800750D01*
X156940250Y-119896000D01*
X157418785Y-119896000D01*
X157558819Y-119837996D01*
X157665996Y-119730820D01*
X157724000Y-119590786D01*
X157724000Y-119237250D01*
X157628750Y-119142000D01*
X156845000Y-119142000D01*
X156591000Y-119142000D01*
X155807250Y-119142000D01*
X155712000Y-119237250D01*
X150809646Y-119237250D01*
X150857038Y-118999000D01*
X150761808Y-118520248D01*
X150707663Y-118439214D01*
X155712000Y-118439214D01*
X155712000Y-118792750D01*
X155807250Y-118888000D01*
X156591000Y-118888000D01*
X156591000Y-118229250D01*
X156845000Y-118229250D01*
X156845000Y-118888000D01*
X157628750Y-118888000D01*
X157724000Y-118792750D01*
X157724000Y-118439214D01*
X157665996Y-118299180D01*
X157558819Y-118192004D01*
X157418785Y-118134000D01*
X156940250Y-118134000D01*
X156845000Y-118229250D01*
X156591000Y-118229250D01*
X156495750Y-118134000D01*
X156017215Y-118134000D01*
X155877181Y-118192004D01*
X155770004Y-118299180D01*
X155712000Y-118439214D01*
X150707663Y-118439214D01*
X150490617Y-118114383D01*
X150084752Y-117843192D01*
X150058000Y-117837871D01*
X150058000Y-115614518D01*
X150066855Y-115570000D01*
X150031775Y-115393638D01*
X149957091Y-115281866D01*
X149931874Y-115244126D01*
X149894133Y-115218908D01*
X149694607Y-115019382D01*
X149698709Y-115013242D01*
X149790058Y-114554000D01*
X149698709Y-114094758D01*
X149438569Y-113705431D01*
X149049242Y-113445291D01*
X148705920Y-113377000D01*
X148474080Y-113377000D01*
X148130758Y-113445291D01*
X147741431Y-113705431D01*
X147481291Y-114094758D01*
X147389942Y-114554000D01*
X147233406Y-114554000D01*
X147233406Y-113704000D01*
X147208027Y-113576411D01*
X147135754Y-113468246D01*
X147027589Y-113395973D01*
X146900000Y-113370594D01*
X145200000Y-113370594D01*
X145072411Y-113395973D01*
X144964246Y-113468246D01*
X144891973Y-113576411D01*
X144866594Y-113704000D01*
X144866594Y-115395182D01*
X144338776Y-115923000D01*
X143239224Y-115923000D01*
X139519093Y-112202869D01*
X139493874Y-112165126D01*
X139344362Y-112065225D01*
X139212518Y-112039000D01*
X139168000Y-112030145D01*
X139123482Y-112039000D01*
X134417406Y-112039000D01*
X134417406Y-111889282D01*
X159520000Y-111889282D01*
X159520000Y-112138718D01*
X159615455Y-112369167D01*
X159791833Y-112545545D01*
X160022282Y-112641000D01*
X160134776Y-112641000D01*
X161346001Y-113852225D01*
X161346000Y-122548584D01*
X161333451Y-122551080D01*
X160939625Y-122814225D01*
X160676480Y-123208052D01*
X160607400Y-123555339D01*
X160607400Y-124094662D01*
X160676480Y-124441949D01*
X160939626Y-124835775D01*
X161333452Y-125098920D01*
X161798000Y-125191325D01*
X162262549Y-125098920D01*
X162656375Y-124835775D01*
X162919520Y-124441948D01*
X162988600Y-124094661D01*
X162988600Y-123555339D01*
X163147400Y-123555339D01*
X163147400Y-124094662D01*
X163216480Y-124441949D01*
X163479626Y-124835775D01*
X163873452Y-125098920D01*
X164338000Y-125191325D01*
X164802549Y-125098920D01*
X165196375Y-124835775D01*
X165459520Y-124441948D01*
X165528600Y-124094661D01*
X165528600Y-123555339D01*
X165687400Y-123555339D01*
X165687400Y-124094662D01*
X165756480Y-124441949D01*
X166019626Y-124835775D01*
X166413452Y-125098920D01*
X166878000Y-125191325D01*
X167342549Y-125098920D01*
X167736375Y-124835775D01*
X167999520Y-124441948D01*
X168068600Y-124094661D01*
X168068600Y-123555339D01*
X168227400Y-123555339D01*
X168227400Y-124094662D01*
X168296480Y-124441949D01*
X168559626Y-124835775D01*
X168953452Y-125098920D01*
X169418000Y-125191325D01*
X169882549Y-125098920D01*
X170276375Y-124835775D01*
X170539520Y-124441948D01*
X170608600Y-124094661D01*
X170608600Y-123555339D01*
X170767400Y-123555339D01*
X170767400Y-124094662D01*
X170836480Y-124441949D01*
X171099626Y-124835775D01*
X171493452Y-125098920D01*
X171958000Y-125191325D01*
X172422549Y-125098920D01*
X172816375Y-124835775D01*
X173079520Y-124441948D01*
X173148600Y-124094661D01*
X173148600Y-123555339D01*
X173307400Y-123555339D01*
X173307400Y-124094662D01*
X173376480Y-124441949D01*
X173639626Y-124835775D01*
X174033452Y-125098920D01*
X174498000Y-125191325D01*
X174962549Y-125098920D01*
X175356375Y-124835775D01*
X175619520Y-124441948D01*
X175688600Y-124094661D01*
X175688600Y-123555338D01*
X175619520Y-123208051D01*
X175356375Y-122814225D01*
X174962548Y-122551080D01*
X174498000Y-122458675D01*
X174033451Y-122551080D01*
X173639625Y-122814225D01*
X173376480Y-123208052D01*
X173307400Y-123555339D01*
X173148600Y-123555339D01*
X173148600Y-123555338D01*
X173079520Y-123208051D01*
X172816375Y-122814225D01*
X172422548Y-122551080D01*
X171958000Y-122458675D01*
X171493451Y-122551080D01*
X171099625Y-122814225D01*
X170836480Y-123208052D01*
X170767400Y-123555339D01*
X170608600Y-123555339D01*
X170608600Y-123555338D01*
X170539520Y-123208051D01*
X170276375Y-122814225D01*
X169882548Y-122551080D01*
X169418000Y-122458675D01*
X168953451Y-122551080D01*
X168559625Y-122814225D01*
X168296480Y-123208052D01*
X168227400Y-123555339D01*
X168068600Y-123555339D01*
X168068600Y-123555338D01*
X167999520Y-123208051D01*
X167736375Y-122814225D01*
X167342548Y-122551080D01*
X166878000Y-122458675D01*
X166413451Y-122551080D01*
X166019625Y-122814225D01*
X165756480Y-123208052D01*
X165687400Y-123555339D01*
X165528600Y-123555339D01*
X165528600Y-123555338D01*
X165459520Y-123208051D01*
X165196375Y-122814225D01*
X164802548Y-122551080D01*
X164790000Y-122548584D01*
X164790000Y-96319712D01*
X164869545Y-96240167D01*
X164965000Y-96009718D01*
X164965000Y-95760282D01*
X164869545Y-95529833D01*
X164693167Y-95353455D01*
X164462718Y-95258000D01*
X164213282Y-95258000D01*
X163982833Y-95353455D01*
X163806455Y-95529833D01*
X163711000Y-95760282D01*
X163711000Y-96009718D01*
X163806455Y-96240167D01*
X163886001Y-96319713D01*
X163886000Y-122548584D01*
X163873451Y-122551080D01*
X163479625Y-122814225D01*
X163216480Y-123208052D01*
X163147400Y-123555339D01*
X162988600Y-123555339D01*
X162988600Y-123555338D01*
X162919520Y-123208051D01*
X162656375Y-122814225D01*
X162262548Y-122551080D01*
X162250000Y-122548584D01*
X162250000Y-113709518D01*
X162258855Y-113665000D01*
X162248594Y-113613411D01*
X162223775Y-113488638D01*
X162123874Y-113339126D01*
X162086131Y-113313907D01*
X160774000Y-112001776D01*
X160774000Y-111889282D01*
X160678545Y-111658833D01*
X160502167Y-111482455D01*
X160271718Y-111387000D01*
X160022282Y-111387000D01*
X159791833Y-111482455D01*
X159615455Y-111658833D01*
X159520000Y-111889282D01*
X134417406Y-111889282D01*
X134417406Y-110741000D01*
X134392027Y-110613411D01*
X134319754Y-110505246D01*
X134211589Y-110432973D01*
X134084000Y-110407594D01*
X130584000Y-110407594D01*
X130456411Y-110432973D01*
X130348246Y-110505246D01*
X130275973Y-110613411D01*
X130250594Y-110741000D01*
X111327000Y-110741000D01*
X111327000Y-108271379D01*
X133551320Y-108271379D01*
X133551320Y-108898621D01*
X133791355Y-109478117D01*
X134234883Y-109921645D01*
X134814379Y-110161680D01*
X135441621Y-110161680D01*
X136021117Y-109921645D01*
X136464645Y-109478117D01*
X136704680Y-108898621D01*
X136704680Y-108271379D01*
X137996320Y-108271379D01*
X137996320Y-108898621D01*
X138236355Y-109478117D01*
X138679883Y-109921645D01*
X139259379Y-110161680D01*
X139886621Y-110161680D01*
X140466117Y-109921645D01*
X140909645Y-109478117D01*
X141149680Y-108898621D01*
X141149680Y-108271379D01*
X140909645Y-107691883D01*
X140466117Y-107248355D01*
X140025000Y-107065638D01*
X140025000Y-106386750D01*
X140337640Y-106386750D01*
X140465229Y-106361371D01*
X140573394Y-106289098D01*
X140629356Y-106205344D01*
X141852138Y-106205344D01*
X141896656Y-106214199D01*
X141941174Y-106205344D01*
X142073018Y-106179119D01*
X142222530Y-106079218D01*
X142247749Y-106041475D01*
X142782133Y-105507092D01*
X142819874Y-105481874D01*
X142919775Y-105332362D01*
X142946000Y-105200518D01*
X142954855Y-105156000D01*
X142946000Y-105111482D01*
X142946000Y-104959040D01*
X143087078Y-104900604D01*
X143381604Y-104606078D01*
X143541000Y-104221261D01*
X143541000Y-104152622D01*
X147063077Y-107674699D01*
X147088296Y-107712442D01*
X147237808Y-107812343D01*
X147369652Y-107838568D01*
X147369653Y-107838568D01*
X147414169Y-107847423D01*
X147458686Y-107838568D01*
X151019235Y-107838568D01*
X151019235Y-108236568D01*
X151044614Y-108364157D01*
X151116887Y-108472322D01*
X151225052Y-108544595D01*
X151352641Y-108569974D01*
X153052641Y-108569974D01*
X153180230Y-108544595D01*
X153288395Y-108472322D01*
X153360668Y-108364157D01*
X153386047Y-108236568D01*
X153386047Y-106536568D01*
X153360668Y-106408979D01*
X153288395Y-106300814D01*
X153180230Y-106228541D01*
X153052641Y-106203162D01*
X151352641Y-106203162D01*
X151225052Y-106228541D01*
X151116887Y-106300814D01*
X151044614Y-106408979D01*
X151019235Y-106536568D01*
X151019235Y-106934568D01*
X147601394Y-106934568D01*
X141052039Y-100385213D01*
X141026820Y-100347470D01*
X140877308Y-100247569D01*
X140745464Y-100221344D01*
X140700946Y-100212489D01*
X140656428Y-100221344D01*
X140629356Y-100221344D01*
X140573394Y-100137590D01*
X140465229Y-100065317D01*
X140337640Y-100039938D01*
X138837640Y-100039938D01*
X138710051Y-100065317D01*
X138601886Y-100137590D01*
X138529613Y-100245755D01*
X138504234Y-100373344D01*
X138504234Y-100973344D01*
X138529613Y-101100933D01*
X138601886Y-101209098D01*
X138710051Y-101281371D01*
X138714015Y-101282160D01*
X138621820Y-101320348D01*
X138514644Y-101427525D01*
X138456640Y-101567559D01*
X138456640Y-101721094D01*
X138551890Y-101816344D01*
X139460640Y-101816344D01*
X139460640Y-101796344D01*
X139714640Y-101796344D01*
X139714640Y-101816344D01*
X140623390Y-101816344D01*
X140718640Y-101721094D01*
X140718640Y-101567559D01*
X140660636Y-101427525D01*
X140553460Y-101320348D01*
X140461265Y-101282160D01*
X140465229Y-101281371D01*
X140573394Y-101209098D01*
X140583040Y-101194662D01*
X142354378Y-102966000D01*
X142285739Y-102966000D01*
X141900922Y-103125396D01*
X141606396Y-103419922D01*
X141447000Y-103804739D01*
X141447000Y-104221261D01*
X141606396Y-104606078D01*
X141900922Y-104900604D01*
X142042001Y-104959041D01*
X142042001Y-104968774D01*
X141709432Y-105301344D01*
X140629356Y-105301344D01*
X140573394Y-105217590D01*
X140465229Y-105145317D01*
X140337640Y-105119938D01*
X138837640Y-105119938D01*
X138710051Y-105145317D01*
X138601886Y-105217590D01*
X138529613Y-105325755D01*
X138504234Y-105453344D01*
X138504234Y-106053344D01*
X138529613Y-106180933D01*
X138601886Y-106289098D01*
X138710051Y-106361371D01*
X138837640Y-106386750D01*
X139121001Y-106386750D01*
X139121001Y-107065638D01*
X138679883Y-107248355D01*
X138236355Y-107691883D01*
X137996320Y-108271379D01*
X136704680Y-108271379D01*
X136464645Y-107691883D01*
X136021117Y-107248355D01*
X135441621Y-107008320D01*
X134814379Y-107008320D01*
X134234883Y-107248355D01*
X133791355Y-107691883D01*
X133551320Y-108271379D01*
X111327000Y-108271379D01*
X111327000Y-105251250D01*
X125111510Y-105251250D01*
X125111510Y-106104276D01*
X125169514Y-106244310D01*
X125276691Y-106351486D01*
X125416725Y-106409490D01*
X126269750Y-106409490D01*
X126365000Y-106314240D01*
X126365000Y-105156000D01*
X126619000Y-105156000D01*
X126619000Y-106314240D01*
X126714250Y-106409490D01*
X127567275Y-106409490D01*
X127707309Y-106351486D01*
X127814486Y-106244310D01*
X127872490Y-106104276D01*
X127872490Y-105453344D01*
X133104234Y-105453344D01*
X133104234Y-106053344D01*
X133129613Y-106180933D01*
X133201886Y-106289098D01*
X133310051Y-106361371D01*
X133437640Y-106386750D01*
X134937640Y-106386750D01*
X135065229Y-106361371D01*
X135173394Y-106289098D01*
X135204195Y-106243000D01*
X135328288Y-106243000D01*
X135407833Y-106322545D01*
X135638282Y-106418000D01*
X135887718Y-106418000D01*
X136118167Y-106322545D01*
X136294545Y-106146167D01*
X136390000Y-105915718D01*
X136390000Y-105666282D01*
X136294545Y-105435833D01*
X136118167Y-105259455D01*
X135887718Y-105164000D01*
X135638282Y-105164000D01*
X135407833Y-105259455D01*
X135328288Y-105339000D01*
X135248302Y-105339000D01*
X135245667Y-105325755D01*
X135173394Y-105217590D01*
X135065229Y-105145317D01*
X134937640Y-105119938D01*
X133437640Y-105119938D01*
X133310051Y-105145317D01*
X133201886Y-105217590D01*
X133129613Y-105325755D01*
X133104234Y-105453344D01*
X127872490Y-105453344D01*
X127872490Y-105251250D01*
X127777240Y-105156000D01*
X126619000Y-105156000D01*
X126365000Y-105156000D01*
X125206760Y-105156000D01*
X125111510Y-105251250D01*
X111327000Y-105251250D01*
X111327000Y-92142379D01*
X133424320Y-92142379D01*
X133424320Y-92769621D01*
X133664355Y-93349117D01*
X134107883Y-93792645D01*
X134687379Y-94032680D01*
X135314621Y-94032680D01*
X135894117Y-93792645D01*
X136337645Y-93349117D01*
X136577680Y-92769621D01*
X136577680Y-92142379D01*
X136337645Y-91562883D01*
X135894117Y-91119355D01*
X135314621Y-90879320D01*
X134687379Y-90879320D01*
X134107883Y-91119355D01*
X133664355Y-91562883D01*
X133424320Y-92142379D01*
X111327000Y-92142379D01*
X111327000Y-89249250D01*
X125111510Y-89249250D01*
X125111510Y-90102276D01*
X125169514Y-90242310D01*
X125276691Y-90349486D01*
X125416725Y-90407490D01*
X126269750Y-90407490D01*
X126365000Y-90312240D01*
X126365000Y-89154000D01*
X126619000Y-89154000D01*
X126619000Y-90312240D01*
X126714250Y-90407490D01*
X127567275Y-90407490D01*
X127707309Y-90349486D01*
X127814486Y-90242310D01*
X127872490Y-90102276D01*
X127872490Y-89249250D01*
X127777240Y-89154000D01*
X126619000Y-89154000D01*
X126365000Y-89154000D01*
X125206760Y-89154000D01*
X125111510Y-89249250D01*
X111327000Y-89249250D01*
X111327000Y-87951724D01*
X125111510Y-87951724D01*
X125111510Y-88804750D01*
X125206760Y-88900000D01*
X126365000Y-88900000D01*
X126365000Y-88880000D01*
X126619000Y-88880000D01*
X126619000Y-88900000D01*
X127777240Y-88900000D01*
X127872490Y-88804750D01*
X127872490Y-88506715D01*
X128077417Y-88711642D01*
X128102634Y-88749382D01*
X128252146Y-88849283D01*
X128278093Y-88854444D01*
X128428508Y-88884363D01*
X128473026Y-88875508D01*
X132945788Y-88875508D01*
X133001750Y-88959262D01*
X133109915Y-89031535D01*
X133237504Y-89056914D01*
X134696377Y-89056914D01*
X134688680Y-89060102D01*
X133237504Y-89060102D01*
X133109915Y-89085481D01*
X133001750Y-89157754D01*
X132929477Y-89265919D01*
X132904098Y-89393508D01*
X132904098Y-89993508D01*
X132929477Y-90121097D01*
X133001750Y-90229262D01*
X133109915Y-90301535D01*
X133237504Y-90326914D01*
X134737504Y-90326914D01*
X134865093Y-90301535D01*
X134883853Y-90289000D01*
X134998718Y-90289000D01*
X135229167Y-90193545D01*
X135405545Y-90017167D01*
X135501000Y-89786718D01*
X135501000Y-89537282D01*
X135405545Y-89306833D01*
X135229167Y-89130455D01*
X134998718Y-89035000D01*
X134847673Y-89035000D01*
X134865093Y-89031535D01*
X134973258Y-88959262D01*
X135045531Y-88851097D01*
X135070910Y-88723508D01*
X135070910Y-88123508D01*
X135045531Y-87995919D01*
X134973258Y-87887754D01*
X134865093Y-87815481D01*
X134737504Y-87790102D01*
X133237504Y-87790102D01*
X133109915Y-87815481D01*
X133001750Y-87887754D01*
X132945788Y-87971508D01*
X128615733Y-87971508D01*
X127704383Y-87060159D01*
X127741526Y-87004571D01*
X127844477Y-86487000D01*
X127741526Y-85969429D01*
X127472342Y-85566566D01*
X129347417Y-87441642D01*
X129372634Y-87479382D01*
X129410374Y-87504599D01*
X129522146Y-87579283D01*
X129698507Y-87614363D01*
X129743025Y-87605508D01*
X132945788Y-87605508D01*
X133001750Y-87689262D01*
X133109915Y-87761535D01*
X133237504Y-87786914D01*
X134737504Y-87786914D01*
X134865093Y-87761535D01*
X134973258Y-87689262D01*
X135045531Y-87581097D01*
X135070910Y-87453508D01*
X135070910Y-86853508D01*
X135045531Y-86725919D01*
X134973258Y-86617754D01*
X134865093Y-86545481D01*
X134861129Y-86544692D01*
X134953324Y-86506504D01*
X135060500Y-86399327D01*
X135118504Y-86259293D01*
X135118504Y-86105758D01*
X135023254Y-86010508D01*
X134114504Y-86010508D01*
X134114504Y-86030508D01*
X133860504Y-86030508D01*
X133860504Y-86010508D01*
X132951754Y-86010508D01*
X132856504Y-86105758D01*
X132856504Y-86259293D01*
X132914508Y-86399327D01*
X133021684Y-86506504D01*
X133113879Y-86544692D01*
X133109915Y-86545481D01*
X133001750Y-86617754D01*
X132945788Y-86701508D01*
X129885733Y-86701508D01*
X127704383Y-84520159D01*
X127741526Y-84464571D01*
X127844477Y-83947000D01*
X127741526Y-83429429D01*
X127472341Y-83026565D01*
X129442909Y-84997134D01*
X129468126Y-85034874D01*
X129617638Y-85134775D01*
X129749482Y-85161000D01*
X129749483Y-85161000D01*
X129793999Y-85169855D01*
X129838516Y-85161000D01*
X133019317Y-85161000D01*
X133109915Y-85221535D01*
X133113879Y-85222324D01*
X133021684Y-85260512D01*
X132914508Y-85367689D01*
X132856504Y-85507723D01*
X132856504Y-85661258D01*
X132951754Y-85756508D01*
X133860504Y-85756508D01*
X133860504Y-85736508D01*
X134114504Y-85736508D01*
X134114504Y-85756508D01*
X135023254Y-85756508D01*
X135118504Y-85661258D01*
X135118504Y-85507723D01*
X135060500Y-85367689D01*
X134953324Y-85260512D01*
X134861129Y-85222324D01*
X134865093Y-85221535D01*
X134884783Y-85208379D01*
X134886282Y-85209000D01*
X135135718Y-85209000D01*
X135366167Y-85113545D01*
X135542545Y-84937167D01*
X135638000Y-84706718D01*
X135638000Y-84457282D01*
X135542545Y-84226833D01*
X135366167Y-84050455D01*
X135135718Y-83955000D01*
X134964828Y-83955000D01*
X135060500Y-83859327D01*
X135118504Y-83719293D01*
X135118504Y-83565758D01*
X135023254Y-83470508D01*
X134114504Y-83470508D01*
X134114504Y-83490508D01*
X133860504Y-83490508D01*
X133860504Y-83470508D01*
X133840504Y-83470508D01*
X133840504Y-83216508D01*
X133860504Y-83216508D01*
X133860504Y-83196508D01*
X134114504Y-83196508D01*
X134114504Y-83216508D01*
X135023254Y-83216508D01*
X135118504Y-83121258D01*
X135118504Y-82967723D01*
X135060500Y-82827689D01*
X134953324Y-82720512D01*
X134861129Y-82682324D01*
X134865093Y-82681535D01*
X134973258Y-82609262D01*
X135028791Y-82526151D01*
X135032022Y-82525508D01*
X135163866Y-82499283D01*
X135313378Y-82399382D01*
X135338597Y-82361639D01*
X135924134Y-81776103D01*
X135961874Y-81750886D01*
X136023364Y-81658860D01*
X136835001Y-80847223D01*
X136835000Y-95189776D01*
X135347869Y-96676907D01*
X135310126Y-96702126D01*
X135271046Y-96760613D01*
X135271046Y-96563344D01*
X135245667Y-96435755D01*
X135173394Y-96327590D01*
X135065229Y-96255317D01*
X134937640Y-96229938D01*
X133437640Y-96229938D01*
X133310051Y-96255317D01*
X133284694Y-96272260D01*
X133030730Y-96272260D01*
X133020667Y-96221671D01*
X132948394Y-96113506D01*
X132840229Y-96041233D01*
X132712640Y-96015854D01*
X131462640Y-96015854D01*
X131335051Y-96041233D01*
X131226886Y-96113506D01*
X131154613Y-96221671D01*
X131129234Y-96349260D01*
X131129234Y-96397260D01*
X130938972Y-96397260D01*
X130911167Y-96369455D01*
X130680718Y-96274000D01*
X130431282Y-96274000D01*
X130200833Y-96369455D01*
X130024455Y-96545833D01*
X129929000Y-96776282D01*
X129929000Y-97025718D01*
X130024455Y-97256167D01*
X130200833Y-97432545D01*
X130431282Y-97528000D01*
X130680718Y-97528000D01*
X130911167Y-97432545D01*
X131042452Y-97301260D01*
X131129234Y-97301260D01*
X131129234Y-97349260D01*
X131154613Y-97476849D01*
X131226886Y-97585014D01*
X131335051Y-97657287D01*
X131462640Y-97682666D01*
X132712640Y-97682666D01*
X132840229Y-97657287D01*
X132948394Y-97585014D01*
X133020667Y-97476849D01*
X133030730Y-97426260D01*
X133242537Y-97426260D01*
X133310051Y-97471371D01*
X133437640Y-97496750D01*
X134635010Y-97496750D01*
X134631822Y-97499938D01*
X133437640Y-97499938D01*
X133310051Y-97525317D01*
X133201886Y-97597590D01*
X133129613Y-97705755D01*
X133104234Y-97833344D01*
X133104234Y-98433344D01*
X133129613Y-98560933D01*
X133201886Y-98669098D01*
X133310051Y-98741371D01*
X133314015Y-98742160D01*
X133221820Y-98780348D01*
X133114644Y-98887525D01*
X133056640Y-99027559D01*
X133056640Y-99034510D01*
X132998390Y-98976260D01*
X132214640Y-98976260D01*
X132214640Y-99635010D01*
X132309890Y-99730260D01*
X132788425Y-99730260D01*
X132928459Y-99672256D01*
X133035636Y-99565080D01*
X133056640Y-99514372D01*
X133056640Y-99530346D01*
X133151888Y-99530346D01*
X133056640Y-99625594D01*
X133056640Y-99779129D01*
X133114644Y-99919163D01*
X133221820Y-100026340D01*
X133314015Y-100064528D01*
X133310051Y-100065317D01*
X133201886Y-100137590D01*
X133145924Y-100221344D01*
X129943568Y-100221344D01*
X128793734Y-99071510D01*
X131081640Y-99071510D01*
X131081640Y-99425046D01*
X131139644Y-99565080D01*
X131246821Y-99672256D01*
X131386855Y-99730260D01*
X131865390Y-99730260D01*
X131960640Y-99635010D01*
X131960640Y-98976260D01*
X131176890Y-98976260D01*
X131081640Y-99071510D01*
X128793734Y-99071510D01*
X127995698Y-98273474D01*
X131081640Y-98273474D01*
X131081640Y-98627010D01*
X131176890Y-98722260D01*
X131960640Y-98722260D01*
X131960640Y-98063510D01*
X132214640Y-98063510D01*
X132214640Y-98722260D01*
X132998390Y-98722260D01*
X133093640Y-98627010D01*
X133093640Y-98273474D01*
X133035636Y-98133440D01*
X132928459Y-98026264D01*
X132788425Y-97968260D01*
X132309890Y-97968260D01*
X132214640Y-98063510D01*
X131960640Y-98063510D01*
X131865390Y-97968260D01*
X131386855Y-97968260D01*
X131246821Y-98026264D01*
X131139644Y-98133440D01*
X131081640Y-98273474D01*
X127995698Y-98273474D01*
X127704383Y-97982159D01*
X127741526Y-97926571D01*
X127844477Y-97409000D01*
X127741526Y-96891429D01*
X127448346Y-96452654D01*
X127009571Y-96159474D01*
X126622646Y-96082510D01*
X126361354Y-96082510D01*
X125974429Y-96159474D01*
X125535654Y-96452654D01*
X125242474Y-96891429D01*
X125139523Y-97409000D01*
X125242474Y-97926571D01*
X125535654Y-98365346D01*
X125974429Y-98658526D01*
X126077359Y-98679000D01*
X125974429Y-98699474D01*
X125535654Y-98992654D01*
X125242474Y-99431429D01*
X125139523Y-99949000D01*
X125242474Y-100466571D01*
X125535654Y-100905346D01*
X125974429Y-101198526D01*
X126077359Y-101219000D01*
X125974429Y-101239474D01*
X125535654Y-101532654D01*
X125242474Y-101971429D01*
X125139523Y-102489000D01*
X125242474Y-103006571D01*
X125535654Y-103445346D01*
X125839710Y-103648510D01*
X125416725Y-103648510D01*
X125276691Y-103706514D01*
X125169514Y-103813690D01*
X125111510Y-103953724D01*
X125111510Y-104806750D01*
X125206760Y-104902000D01*
X126365000Y-104902000D01*
X126365000Y-104882000D01*
X126619000Y-104882000D01*
X126619000Y-104902000D01*
X127777240Y-104902000D01*
X127872490Y-104806750D01*
X127872490Y-104508715D01*
X128135252Y-104771477D01*
X128160470Y-104809218D01*
X128309982Y-104909119D01*
X128441826Y-104935344D01*
X128441827Y-104935344D01*
X128486343Y-104944199D01*
X128530860Y-104935344D01*
X133145924Y-104935344D01*
X133201886Y-105019098D01*
X133310051Y-105091371D01*
X133437640Y-105116750D01*
X134937640Y-105116750D01*
X135065229Y-105091371D01*
X135173394Y-105019098D01*
X135245667Y-104910933D01*
X135271046Y-104783344D01*
X135271046Y-104183344D01*
X135245667Y-104055755D01*
X135173394Y-103947590D01*
X135065229Y-103875317D01*
X134937640Y-103849938D01*
X133437640Y-103849938D01*
X133310051Y-103875317D01*
X133201886Y-103947590D01*
X133145924Y-104031344D01*
X128673569Y-104031344D01*
X127704383Y-103062159D01*
X127741526Y-103006571D01*
X127844477Y-102489000D01*
X127741526Y-101971429D01*
X127472341Y-101568565D01*
X129405251Y-103501475D01*
X129430470Y-103539218D01*
X129579982Y-103639119D01*
X129627195Y-103648510D01*
X129756344Y-103674199D01*
X129800862Y-103665344D01*
X133145924Y-103665344D01*
X133201886Y-103749098D01*
X133310051Y-103821371D01*
X133437640Y-103846750D01*
X134937640Y-103846750D01*
X135065229Y-103821371D01*
X135173394Y-103749098D01*
X135245667Y-103640933D01*
X135271046Y-103513344D01*
X135271046Y-102913344D01*
X135245667Y-102785755D01*
X135173394Y-102677590D01*
X135065229Y-102605317D01*
X135061265Y-102604528D01*
X135153460Y-102566340D01*
X135260636Y-102459163D01*
X135318640Y-102319129D01*
X135318640Y-102165594D01*
X138456640Y-102165594D01*
X138456640Y-102319129D01*
X138514644Y-102459163D01*
X138621820Y-102566340D01*
X138714015Y-102604528D01*
X138710051Y-102605317D01*
X138601886Y-102677590D01*
X138529613Y-102785755D01*
X138504234Y-102913344D01*
X138504234Y-103513344D01*
X138529613Y-103640933D01*
X138601886Y-103749098D01*
X138710051Y-103821371D01*
X138837640Y-103846750D01*
X139135641Y-103846750D01*
X139135640Y-103849938D01*
X138837640Y-103849938D01*
X138710051Y-103875317D01*
X138601886Y-103947590D01*
X138529613Y-104055755D01*
X138504234Y-104183344D01*
X138504234Y-104783344D01*
X138529613Y-104910933D01*
X138601886Y-105019098D01*
X138710051Y-105091371D01*
X138837640Y-105116750D01*
X140337640Y-105116750D01*
X140465229Y-105091371D01*
X140509751Y-105061622D01*
X140718286Y-105148000D01*
X140967722Y-105148000D01*
X141198171Y-105052545D01*
X141374549Y-104876167D01*
X141470004Y-104645718D01*
X141470004Y-104396282D01*
X141374549Y-104165833D01*
X141198171Y-103989455D01*
X140967722Y-103894000D01*
X140718286Y-103894000D01*
X140576757Y-103952623D01*
X140573394Y-103947590D01*
X140465229Y-103875317D01*
X140337640Y-103849938D01*
X140039640Y-103849938D01*
X140039640Y-103846750D01*
X140337640Y-103846750D01*
X140465229Y-103821371D01*
X140573394Y-103749098D01*
X140645667Y-103640933D01*
X140671046Y-103513344D01*
X140671046Y-102913344D01*
X140645667Y-102785755D01*
X140573394Y-102677590D01*
X140465229Y-102605317D01*
X140461265Y-102604528D01*
X140553460Y-102566340D01*
X140660636Y-102459163D01*
X140718640Y-102319129D01*
X140718640Y-102165594D01*
X140623390Y-102070344D01*
X139714640Y-102070344D01*
X139714640Y-102090344D01*
X139460640Y-102090344D01*
X139460640Y-102070344D01*
X138551890Y-102070344D01*
X138456640Y-102165594D01*
X135318640Y-102165594D01*
X135223390Y-102070344D01*
X134314640Y-102070344D01*
X134314640Y-102090344D01*
X134060640Y-102090344D01*
X134060640Y-102070344D01*
X133151890Y-102070344D01*
X133056640Y-102165594D01*
X133056640Y-102319129D01*
X133114644Y-102459163D01*
X133221820Y-102566340D01*
X133314015Y-102604528D01*
X133310051Y-102605317D01*
X133201886Y-102677590D01*
X133145924Y-102761344D01*
X129943568Y-102761344D01*
X127704383Y-100522159D01*
X127741526Y-100466571D01*
X127844477Y-99949000D01*
X127741526Y-99431429D01*
X127472341Y-99028565D01*
X129405251Y-100961475D01*
X129430470Y-100999218D01*
X129579982Y-101099119D01*
X129756344Y-101134199D01*
X129800862Y-101125344D01*
X133145924Y-101125344D01*
X133201886Y-101209098D01*
X133310051Y-101281371D01*
X133314015Y-101282160D01*
X133221820Y-101320348D01*
X133114644Y-101427525D01*
X133056640Y-101567559D01*
X133056640Y-101721094D01*
X133151890Y-101816344D01*
X134060640Y-101816344D01*
X134060640Y-101796344D01*
X134314640Y-101796344D01*
X134314640Y-101816344D01*
X135223390Y-101816344D01*
X135318640Y-101721094D01*
X135318640Y-101567559D01*
X135260636Y-101427525D01*
X135153460Y-101320348D01*
X135061265Y-101282160D01*
X135065229Y-101281371D01*
X135173394Y-101209098D01*
X135229356Y-101125344D01*
X135577012Y-101125344D01*
X135632473Y-101180805D01*
X135862922Y-101276260D01*
X136112358Y-101276260D01*
X136342807Y-101180805D01*
X136519185Y-101004427D01*
X136614640Y-100773978D01*
X136614640Y-100524542D01*
X136519185Y-100294093D01*
X136342807Y-100117715D01*
X136112358Y-100022260D01*
X135862922Y-100022260D01*
X135632473Y-100117715D01*
X135528844Y-100221344D01*
X135229356Y-100221344D01*
X135173394Y-100137590D01*
X135065229Y-100065317D01*
X135061265Y-100064528D01*
X135153460Y-100026340D01*
X135260636Y-99919163D01*
X135318640Y-99779129D01*
X135318640Y-99625594D01*
X135223390Y-99530344D01*
X134314640Y-99530344D01*
X134314640Y-99550344D01*
X134060640Y-99550344D01*
X134060640Y-99530344D01*
X134040640Y-99530344D01*
X134040640Y-99276344D01*
X134060640Y-99276344D01*
X134060640Y-99256344D01*
X134314640Y-99256344D01*
X134314640Y-99276344D01*
X135223390Y-99276344D01*
X135318640Y-99181094D01*
X135318640Y-99027559D01*
X135260636Y-98887525D01*
X135153460Y-98780348D01*
X135061265Y-98742160D01*
X135065229Y-98741371D01*
X135173394Y-98669098D01*
X135245667Y-98560933D01*
X135271046Y-98433344D01*
X135271046Y-98139162D01*
X135576864Y-97833344D01*
X138504234Y-97833344D01*
X138504234Y-98433344D01*
X138529613Y-98560933D01*
X138601886Y-98669098D01*
X138710051Y-98741371D01*
X138837640Y-98766750D01*
X140337640Y-98766750D01*
X140465229Y-98741371D01*
X140573394Y-98669098D01*
X140628927Y-98585987D01*
X140632158Y-98585344D01*
X140764002Y-98559119D01*
X140913514Y-98459218D01*
X140938733Y-98421475D01*
X141020209Y-98339999D01*
X141606364Y-98339999D01*
X141447000Y-98724739D01*
X141447000Y-98948309D01*
X141417742Y-98942489D01*
X141373224Y-98951344D01*
X140629356Y-98951344D01*
X140573394Y-98867590D01*
X140465229Y-98795317D01*
X140337640Y-98769938D01*
X138837640Y-98769938D01*
X138710051Y-98795317D01*
X138601886Y-98867590D01*
X138529613Y-98975755D01*
X138504234Y-99103344D01*
X138504234Y-99703344D01*
X138529613Y-99830933D01*
X138601886Y-99939098D01*
X138710051Y-100011371D01*
X138837640Y-100036750D01*
X140337640Y-100036750D01*
X140465229Y-100011371D01*
X140573394Y-99939098D01*
X140629356Y-99855344D01*
X141230518Y-99855344D01*
X145449875Y-104074702D01*
X145475092Y-104112442D01*
X145554997Y-104165833D01*
X145624604Y-104212343D01*
X145800966Y-104247423D01*
X145845484Y-104238568D01*
X151019235Y-104238568D01*
X151019235Y-104636568D01*
X151044614Y-104764157D01*
X151116887Y-104872322D01*
X151225052Y-104944595D01*
X151352641Y-104969974D01*
X153052641Y-104969974D01*
X153180230Y-104944595D01*
X153288395Y-104872322D01*
X153360668Y-104764157D01*
X153386047Y-104636568D01*
X153386047Y-103786568D01*
X153542583Y-103786568D01*
X153633932Y-104245810D01*
X153894072Y-104635137D01*
X154283399Y-104895277D01*
X154290642Y-104896718D01*
X154290641Y-106229004D01*
X154290642Y-106229009D01*
X154290642Y-106276418D01*
X154283399Y-106277859D01*
X153894072Y-106537999D01*
X153633932Y-106927326D01*
X153542583Y-107386568D01*
X153633932Y-107845810D01*
X153894072Y-108235137D01*
X154283399Y-108495277D01*
X154626721Y-108563568D01*
X154858561Y-108563568D01*
X155201883Y-108495277D01*
X155591210Y-108235137D01*
X155851350Y-107845810D01*
X155942699Y-107386568D01*
X155851350Y-106927326D01*
X155591210Y-106537999D01*
X155201883Y-106277859D01*
X155194641Y-106276418D01*
X155194641Y-104896718D01*
X155201883Y-104895277D01*
X155591210Y-104635137D01*
X155851350Y-104245810D01*
X155942699Y-103786568D01*
X155851350Y-103327326D01*
X155591210Y-102937999D01*
X155201883Y-102677859D01*
X154858561Y-102609568D01*
X154626721Y-102609568D01*
X154283399Y-102677859D01*
X153894072Y-102937999D01*
X153633932Y-103327326D01*
X153542583Y-103786568D01*
X153386047Y-103786568D01*
X153386047Y-102936568D01*
X153360668Y-102808979D01*
X153288395Y-102700814D01*
X153180230Y-102628541D01*
X153052641Y-102603162D01*
X151352641Y-102603162D01*
X151225052Y-102628541D01*
X151116887Y-102700814D01*
X151044614Y-102808979D01*
X151019235Y-102936568D01*
X151019235Y-103334568D01*
X145988191Y-103334568D01*
X145173623Y-102520000D01*
X145242261Y-102520000D01*
X145627078Y-102360604D01*
X145921604Y-102066078D01*
X146081000Y-101681261D01*
X146081000Y-101264739D01*
X145921604Y-100879922D01*
X145680250Y-100638568D01*
X151019235Y-100638568D01*
X151019235Y-101036568D01*
X151044614Y-101164157D01*
X151116887Y-101272322D01*
X151225052Y-101344595D01*
X151352641Y-101369974D01*
X153052641Y-101369974D01*
X153180230Y-101344595D01*
X153288395Y-101272322D01*
X153360668Y-101164157D01*
X153386047Y-101036568D01*
X153386047Y-99336568D01*
X153360668Y-99208979D01*
X153288395Y-99100814D01*
X153180230Y-99028541D01*
X153052641Y-99003162D01*
X151352641Y-99003162D01*
X151225052Y-99028541D01*
X151116887Y-99100814D01*
X151044614Y-99208979D01*
X151019235Y-99336568D01*
X151019235Y-99734568D01*
X145481394Y-99734568D01*
X143346694Y-97599868D01*
X143321475Y-97562125D01*
X143171963Y-97462224D01*
X143040119Y-97435999D01*
X142995601Y-97427144D01*
X142951083Y-97435999D01*
X140877501Y-97435999D01*
X140832984Y-97427144D01*
X140788468Y-97435999D01*
X140788467Y-97435999D01*
X140656623Y-97462224D01*
X140513714Y-97557713D01*
X140465229Y-97525317D01*
X140337640Y-97499938D01*
X138837640Y-97499938D01*
X138710051Y-97525317D01*
X138601886Y-97597590D01*
X138529613Y-97705755D01*
X138504234Y-97833344D01*
X135576864Y-97833344D01*
X135924134Y-97486075D01*
X135961874Y-97460858D01*
X136061775Y-97311346D01*
X136079130Y-97224094D01*
X136739880Y-96563344D01*
X138504234Y-96563344D01*
X138504234Y-97163344D01*
X138529613Y-97290933D01*
X138601886Y-97399098D01*
X138710051Y-97471371D01*
X138837640Y-97496750D01*
X140337640Y-97496750D01*
X140465229Y-97471371D01*
X140573394Y-97399098D01*
X140645667Y-97290933D01*
X140671046Y-97163344D01*
X140671046Y-97038568D01*
X151019235Y-97038568D01*
X151019235Y-97436568D01*
X151044614Y-97564157D01*
X151116887Y-97672322D01*
X151225052Y-97744595D01*
X151352641Y-97769974D01*
X153052641Y-97769974D01*
X153180230Y-97744595D01*
X153288395Y-97672322D01*
X153360668Y-97564157D01*
X153386047Y-97436568D01*
X153386047Y-96586568D01*
X153542583Y-96586568D01*
X153633932Y-97045810D01*
X153894072Y-97435137D01*
X154283399Y-97695277D01*
X154290642Y-97696718D01*
X154290641Y-99029004D01*
X154290642Y-99029009D01*
X154290642Y-99076418D01*
X154283399Y-99077859D01*
X153894072Y-99337999D01*
X153633932Y-99727326D01*
X153542583Y-100186568D01*
X153633932Y-100645810D01*
X153894072Y-101035137D01*
X154283399Y-101295277D01*
X154626721Y-101363568D01*
X154858561Y-101363568D01*
X155201883Y-101295277D01*
X155591210Y-101035137D01*
X155851350Y-100645810D01*
X155942699Y-100186568D01*
X155851350Y-99727326D01*
X155591210Y-99337999D01*
X155201883Y-99077859D01*
X155194641Y-99076418D01*
X155194641Y-97696718D01*
X155201883Y-97695277D01*
X155591210Y-97435137D01*
X155851350Y-97045810D01*
X155942699Y-96586568D01*
X155851350Y-96127326D01*
X155591210Y-95737999D01*
X155201883Y-95477859D01*
X154858561Y-95409568D01*
X154626721Y-95409568D01*
X154283399Y-95477859D01*
X153894072Y-95737999D01*
X153633932Y-96127326D01*
X153542583Y-96586568D01*
X153386047Y-96586568D01*
X153386047Y-95736568D01*
X153360668Y-95608979D01*
X153288395Y-95500814D01*
X153180230Y-95428541D01*
X153052641Y-95403162D01*
X151352641Y-95403162D01*
X151225052Y-95428541D01*
X151116887Y-95500814D01*
X151044614Y-95608979D01*
X151019235Y-95736568D01*
X151019235Y-96134568D01*
X139908932Y-96134568D01*
X139864415Y-96125713D01*
X139819899Y-96134568D01*
X139819898Y-96134568D01*
X139688054Y-96160793D01*
X139584571Y-96229938D01*
X138837640Y-96229938D01*
X138710051Y-96255317D01*
X138601886Y-96327590D01*
X138529613Y-96435755D01*
X138504234Y-96563344D01*
X136739880Y-96563344D01*
X137575131Y-95728093D01*
X137612874Y-95702874D01*
X137712775Y-95553362D01*
X137739000Y-95421518D01*
X137739000Y-95421517D01*
X137747855Y-95377000D01*
X137739000Y-95332482D01*
X137739000Y-92142379D01*
X137869320Y-92142379D01*
X137869320Y-92769621D01*
X138109355Y-93349117D01*
X138552883Y-93792645D01*
X139132379Y-94032680D01*
X139759621Y-94032680D01*
X140339117Y-93792645D01*
X140782645Y-93349117D01*
X141022680Y-92769621D01*
X141022680Y-92142379D01*
X140782645Y-91562883D01*
X140339117Y-91119355D01*
X139898000Y-90936638D01*
X139898000Y-90326914D01*
X140137504Y-90326914D01*
X140265093Y-90301535D01*
X140373258Y-90229262D01*
X140429220Y-90145508D01*
X141020974Y-90145508D01*
X141065492Y-90154363D01*
X141110010Y-90145508D01*
X141241854Y-90119283D01*
X141391366Y-90019382D01*
X141416585Y-89981639D01*
X142398661Y-88999564D01*
X142539739Y-89058000D01*
X142956261Y-89058000D01*
X143341078Y-88898604D01*
X143635604Y-88604078D01*
X143795000Y-88219261D01*
X143795000Y-87802739D01*
X143635604Y-87417922D01*
X143341078Y-87123396D01*
X143202511Y-87066000D01*
X148234063Y-87066000D01*
X151512601Y-90344539D01*
X151385232Y-90344539D01*
X151257643Y-90369918D01*
X151149478Y-90442191D01*
X151077205Y-90550356D01*
X151051826Y-90677945D01*
X151051826Y-92377945D01*
X151077205Y-92505534D01*
X151149478Y-92613699D01*
X151257643Y-92685972D01*
X151385232Y-92711351D01*
X153085232Y-92711351D01*
X153212821Y-92685972D01*
X153320986Y-92613699D01*
X153393259Y-92505534D01*
X153418638Y-92377945D01*
X153418638Y-90677945D01*
X153393259Y-90550356D01*
X153320986Y-90442191D01*
X153212821Y-90369918D01*
X153085232Y-90344539D01*
X152679497Y-90344539D01*
X152661007Y-90251583D01*
X152586323Y-90139811D01*
X152561106Y-90102071D01*
X152523366Y-90076854D01*
X151557863Y-89111351D01*
X153085232Y-89111351D01*
X153212821Y-89085972D01*
X153320986Y-89013699D01*
X153393259Y-88905534D01*
X153418638Y-88777945D01*
X153418638Y-87927945D01*
X153575174Y-87927945D01*
X153666523Y-88387187D01*
X153926663Y-88776514D01*
X154315990Y-89036654D01*
X154323233Y-89038095D01*
X154323232Y-90370381D01*
X154323233Y-90370386D01*
X154323233Y-90417795D01*
X154315990Y-90419236D01*
X153926663Y-90679376D01*
X153666523Y-91068703D01*
X153575174Y-91527945D01*
X153666523Y-91987187D01*
X153926663Y-92376514D01*
X154315990Y-92636654D01*
X154659312Y-92704945D01*
X154891152Y-92704945D01*
X155234474Y-92636654D01*
X155623801Y-92376514D01*
X155883941Y-91987187D01*
X155975290Y-91527945D01*
X155883941Y-91068703D01*
X155623801Y-90679376D01*
X155234474Y-90419236D01*
X155227232Y-90417795D01*
X155227232Y-89038095D01*
X155234474Y-89036654D01*
X155623801Y-88776514D01*
X155883941Y-88387187D01*
X155975290Y-87927945D01*
X155883941Y-87468703D01*
X155623801Y-87079376D01*
X155234474Y-86819236D01*
X154891152Y-86750945D01*
X154659312Y-86750945D01*
X154315990Y-86819236D01*
X153926663Y-87079376D01*
X153666523Y-87468703D01*
X153575174Y-87927945D01*
X153418638Y-87927945D01*
X153418638Y-87077945D01*
X153393259Y-86950356D01*
X153320986Y-86842191D01*
X153212821Y-86769918D01*
X153085232Y-86744539D01*
X151645764Y-86744539D01*
X148687093Y-83785869D01*
X148661874Y-83748126D01*
X148512362Y-83648225D01*
X148380518Y-83622000D01*
X148336000Y-83613145D01*
X148291482Y-83622000D01*
X143537682Y-83622000D01*
X143635604Y-83524078D01*
X143795000Y-83139261D01*
X143795000Y-82722739D01*
X143635604Y-82337922D01*
X143537682Y-82240000D01*
X148408063Y-82240000D01*
X150784141Y-84616079D01*
X150809358Y-84653819D01*
X150891942Y-84709000D01*
X150958870Y-84753720D01*
X151051826Y-84772210D01*
X151051826Y-85177945D01*
X151077205Y-85305534D01*
X151149478Y-85413699D01*
X151257643Y-85485972D01*
X151385232Y-85511351D01*
X153085232Y-85511351D01*
X153212821Y-85485972D01*
X153320986Y-85413699D01*
X153393259Y-85305534D01*
X153418638Y-85177945D01*
X153418638Y-83477945D01*
X153393259Y-83350356D01*
X153320986Y-83242191D01*
X153212821Y-83169918D01*
X153085232Y-83144539D01*
X151385232Y-83144539D01*
X151257643Y-83169918D01*
X151149478Y-83242191D01*
X151077205Y-83350356D01*
X151051826Y-83477945D01*
X151051826Y-83605314D01*
X148946380Y-81499869D01*
X148921161Y-81462126D01*
X148771649Y-81362225D01*
X148639805Y-81336000D01*
X148595287Y-81327145D01*
X148550769Y-81336000D01*
X140375438Y-81336000D01*
X140429220Y-81255508D01*
X151051826Y-81255508D01*
X151051826Y-81577945D01*
X151077205Y-81705534D01*
X151149478Y-81813699D01*
X151257643Y-81885972D01*
X151385232Y-81911351D01*
X153085232Y-81911351D01*
X153212821Y-81885972D01*
X153320986Y-81813699D01*
X153393259Y-81705534D01*
X153418638Y-81577945D01*
X153418638Y-80727945D01*
X153575174Y-80727945D01*
X153666523Y-81187187D01*
X153926663Y-81576514D01*
X154315990Y-81836654D01*
X154323233Y-81838095D01*
X154323233Y-81885504D01*
X154323232Y-81885509D01*
X154323233Y-83217795D01*
X154315990Y-83219236D01*
X153926663Y-83479376D01*
X153666523Y-83868703D01*
X153575174Y-84327945D01*
X153666523Y-84787187D01*
X153926663Y-85176514D01*
X154315990Y-85436654D01*
X154659312Y-85504945D01*
X154891152Y-85504945D01*
X155234474Y-85436654D01*
X155623801Y-85176514D01*
X155883941Y-84787187D01*
X155975290Y-84327945D01*
X155883941Y-83868703D01*
X155623801Y-83479376D01*
X155234474Y-83219236D01*
X155227232Y-83217795D01*
X155227232Y-81838095D01*
X155234474Y-81836654D01*
X155623801Y-81576514D01*
X155883941Y-81187187D01*
X155975290Y-80727945D01*
X155883941Y-80268703D01*
X155623801Y-79879376D01*
X155234474Y-79619236D01*
X154891152Y-79550945D01*
X154659312Y-79550945D01*
X154315990Y-79619236D01*
X153926663Y-79879376D01*
X153666523Y-80268703D01*
X153575174Y-80727945D01*
X153418638Y-80727945D01*
X153418638Y-79877945D01*
X153393259Y-79750356D01*
X153320986Y-79642191D01*
X153212821Y-79569918D01*
X153085232Y-79544539D01*
X151385232Y-79544539D01*
X151257643Y-79569918D01*
X151149478Y-79642191D01*
X151077205Y-79750356D01*
X151051826Y-79877945D01*
X151051826Y-80351508D01*
X140429220Y-80351508D01*
X140373258Y-80267754D01*
X140265093Y-80195481D01*
X140137504Y-80170102D01*
X138637504Y-80170102D01*
X138509915Y-80195481D01*
X138401750Y-80267754D01*
X138329477Y-80375919D01*
X138304098Y-80503508D01*
X138304098Y-81103508D01*
X138329477Y-81231097D01*
X138401750Y-81339262D01*
X138509915Y-81411535D01*
X138637504Y-81436914D01*
X139834870Y-81436914D01*
X139830099Y-81440102D01*
X138637504Y-81440102D01*
X138509915Y-81465481D01*
X138401750Y-81537754D01*
X138329477Y-81645919D01*
X138304098Y-81773508D01*
X138304098Y-82373508D01*
X138329477Y-82501097D01*
X138401750Y-82609262D01*
X138509915Y-82681535D01*
X138637504Y-82706914D01*
X140137504Y-82706914D01*
X140265093Y-82681535D01*
X140373258Y-82609262D01*
X140445531Y-82501097D01*
X140470910Y-82373508D01*
X140470910Y-82240000D01*
X141958318Y-82240000D01*
X141860396Y-82337922D01*
X141701000Y-82722739D01*
X141701000Y-83012701D01*
X141558870Y-82917733D01*
X141427026Y-82891508D01*
X141382508Y-82882653D01*
X141337990Y-82891508D01*
X140429220Y-82891508D01*
X140373258Y-82807754D01*
X140265093Y-82735481D01*
X140137504Y-82710102D01*
X138637504Y-82710102D01*
X138509915Y-82735481D01*
X138401750Y-82807754D01*
X138329477Y-82915919D01*
X138304098Y-83043508D01*
X138304098Y-83643508D01*
X138329477Y-83771097D01*
X138401750Y-83879262D01*
X138509915Y-83951535D01*
X138637504Y-83976914D01*
X140137504Y-83976914D01*
X140265093Y-83951535D01*
X140373258Y-83879262D01*
X140429220Y-83795508D01*
X141195284Y-83795508D01*
X141761908Y-84362133D01*
X141787126Y-84399874D01*
X141842909Y-84437147D01*
X141936638Y-84499775D01*
X142113000Y-84534855D01*
X142157518Y-84526000D01*
X144833489Y-84526000D01*
X144694922Y-84583396D01*
X144400396Y-84877922D01*
X144241000Y-85262739D01*
X144241000Y-85679261D01*
X144400396Y-86064078D01*
X144498318Y-86162000D01*
X143084827Y-86162000D01*
X141248203Y-84325377D01*
X141222984Y-84287634D01*
X141073472Y-84187733D01*
X140941628Y-84161508D01*
X140897110Y-84152653D01*
X140852592Y-84161508D01*
X140429220Y-84161508D01*
X140373258Y-84077754D01*
X140265093Y-84005481D01*
X140137504Y-83980102D01*
X138637504Y-83980102D01*
X138509915Y-84005481D01*
X138401750Y-84077754D01*
X138329477Y-84185919D01*
X138304098Y-84313508D01*
X138304098Y-84913508D01*
X138329477Y-85041097D01*
X138401750Y-85149262D01*
X138509915Y-85221535D01*
X138513879Y-85222324D01*
X138421684Y-85260512D01*
X138314508Y-85367689D01*
X138256504Y-85507723D01*
X138256504Y-85661258D01*
X138351754Y-85756508D01*
X139260504Y-85756508D01*
X139260504Y-85736508D01*
X139514504Y-85736508D01*
X139514504Y-85756508D01*
X140423254Y-85756508D01*
X140518504Y-85661258D01*
X140518504Y-85507723D01*
X140460500Y-85367689D01*
X140353324Y-85260512D01*
X140261129Y-85222324D01*
X140265093Y-85221535D01*
X140373258Y-85149262D01*
X140429220Y-85065508D01*
X140709886Y-85065508D01*
X142546510Y-86902133D01*
X142571728Y-86939874D01*
X142607835Y-86964000D01*
X142539739Y-86964000D01*
X142154922Y-87123396D01*
X141860396Y-87417922D01*
X141701000Y-87802739D01*
X141701000Y-88219261D01*
X141759436Y-88360339D01*
X140878268Y-89241508D01*
X140429220Y-89241508D01*
X140373258Y-89157754D01*
X140265093Y-89085481D01*
X140137504Y-89060102D01*
X138637504Y-89060102D01*
X138509915Y-89085481D01*
X138401750Y-89157754D01*
X138329477Y-89265919D01*
X138304098Y-89393508D01*
X138304098Y-89993508D01*
X138329477Y-90121097D01*
X138401750Y-90229262D01*
X138509915Y-90301535D01*
X138637504Y-90326914D01*
X138994001Y-90326914D01*
X138994001Y-90936638D01*
X138552883Y-91119355D01*
X138109355Y-91562883D01*
X137869320Y-92142379D01*
X137739000Y-92142379D01*
X137739000Y-86105758D01*
X138256504Y-86105758D01*
X138256504Y-86259293D01*
X138314508Y-86399327D01*
X138421684Y-86506504D01*
X138513879Y-86544692D01*
X138509915Y-86545481D01*
X138401750Y-86617754D01*
X138329477Y-86725919D01*
X138304098Y-86853508D01*
X138304098Y-87453508D01*
X138329477Y-87581097D01*
X138401750Y-87689262D01*
X138509915Y-87761535D01*
X138637504Y-87786914D01*
X138935504Y-87786914D01*
X138935504Y-87790102D01*
X138637504Y-87790102D01*
X138509915Y-87815481D01*
X138401750Y-87887754D01*
X138329477Y-87995919D01*
X138304098Y-88123508D01*
X138304098Y-88723508D01*
X138329477Y-88851097D01*
X138401750Y-88959262D01*
X138509915Y-89031535D01*
X138637504Y-89056914D01*
X140137504Y-89056914D01*
X140265093Y-89031535D01*
X140373258Y-88959262D01*
X140389246Y-88935334D01*
X140591282Y-89019020D01*
X140840718Y-89019020D01*
X141071167Y-88923565D01*
X141247545Y-88747187D01*
X141343000Y-88516738D01*
X141343000Y-88267302D01*
X141247545Y-88036853D01*
X141071167Y-87860475D01*
X140840718Y-87765020D01*
X140591282Y-87765020D01*
X140360833Y-87860475D01*
X140349457Y-87871851D01*
X140265093Y-87815481D01*
X140137504Y-87790102D01*
X139839504Y-87790102D01*
X139839504Y-87786914D01*
X140137504Y-87786914D01*
X140265093Y-87761535D01*
X140373258Y-87689262D01*
X140445531Y-87581097D01*
X140470910Y-87453508D01*
X140470910Y-86853508D01*
X140445531Y-86725919D01*
X140373258Y-86617754D01*
X140265093Y-86545481D01*
X140261129Y-86544692D01*
X140353324Y-86506504D01*
X140460500Y-86399327D01*
X140518504Y-86259293D01*
X140518504Y-86105758D01*
X140423254Y-86010508D01*
X139514504Y-86010508D01*
X139514504Y-86030508D01*
X139260504Y-86030508D01*
X139260504Y-86010508D01*
X138351754Y-86010508D01*
X138256504Y-86105758D01*
X137739000Y-86105758D01*
X137739000Y-80705224D01*
X140141224Y-78303000D01*
X168353482Y-78303000D01*
X168398000Y-78311855D01*
X168442518Y-78303000D01*
X168574362Y-78276775D01*
X168723874Y-78176874D01*
X168749093Y-78139131D01*
X169706134Y-77182091D01*
X169743874Y-77156874D01*
X169843775Y-77007362D01*
X169870000Y-76875518D01*
X169870000Y-76875517D01*
X169877063Y-76840011D01*
X169882549Y-76838920D01*
X170276375Y-76575775D01*
X170539520Y-76181948D01*
X170608600Y-75834661D01*
X170608600Y-75295339D01*
X170767400Y-75295339D01*
X170767400Y-75834662D01*
X170836480Y-76181949D01*
X171099626Y-76575775D01*
X171493452Y-76838920D01*
X171958000Y-76931325D01*
X172422549Y-76838920D01*
X172816375Y-76575775D01*
X173079520Y-76181948D01*
X173148600Y-75834661D01*
X173148600Y-75295339D01*
X173307400Y-75295339D01*
X173307400Y-75834662D01*
X173376480Y-76181949D01*
X173639626Y-76575775D01*
X174033452Y-76838920D01*
X174498000Y-76931325D01*
X174962549Y-76838920D01*
X175356375Y-76575775D01*
X175619520Y-76181948D01*
X175688600Y-75834661D01*
X175688600Y-75295338D01*
X175619520Y-74948051D01*
X175356375Y-74554225D01*
X174962548Y-74291080D01*
X174498000Y-74198675D01*
X174033451Y-74291080D01*
X173639625Y-74554225D01*
X173376480Y-74948052D01*
X173307400Y-75295339D01*
X173148600Y-75295339D01*
X173148600Y-75295338D01*
X173079520Y-74948051D01*
X172816375Y-74554225D01*
X172422548Y-74291080D01*
X171958000Y-74198675D01*
X171493451Y-74291080D01*
X171099625Y-74554225D01*
X170836480Y-74948052D01*
X170767400Y-75295339D01*
X170608600Y-75295339D01*
X170608600Y-75295338D01*
X170539520Y-74948051D01*
X170276375Y-74554225D01*
X169882548Y-74291080D01*
X169418000Y-74198675D01*
X168953451Y-74291080D01*
X168559625Y-74554225D01*
X168296480Y-74948052D01*
X168227400Y-75295339D01*
X168227400Y-75834662D01*
X168296480Y-76181949D01*
X168559626Y-76575775D01*
X168843993Y-76765782D01*
X168210776Y-77399000D01*
X163295624Y-77399000D01*
X163862813Y-76831811D01*
X163873452Y-76838920D01*
X164338000Y-76931325D01*
X164802549Y-76838920D01*
X165196375Y-76575775D01*
X165459520Y-76181948D01*
X165528600Y-75834661D01*
X165528600Y-75295339D01*
X165687400Y-75295339D01*
X165687400Y-75834662D01*
X165756480Y-76181949D01*
X166019626Y-76575775D01*
X166413452Y-76838920D01*
X166878000Y-76931325D01*
X167342549Y-76838920D01*
X167736375Y-76575775D01*
X167999520Y-76181948D01*
X168068600Y-75834661D01*
X168068600Y-75295338D01*
X167999520Y-74948051D01*
X167736375Y-74554225D01*
X167342548Y-74291080D01*
X166878000Y-74198675D01*
X166413451Y-74291080D01*
X166019625Y-74554225D01*
X165756480Y-74948052D01*
X165687400Y-75295339D01*
X165528600Y-75295339D01*
X165528600Y-75295338D01*
X165459520Y-74948051D01*
X165196375Y-74554225D01*
X164802548Y-74291080D01*
X164338000Y-74198675D01*
X163873451Y-74291080D01*
X163479625Y-74554225D01*
X163216480Y-74948052D01*
X163147400Y-75295339D01*
X163147400Y-75834662D01*
X163216480Y-76181949D01*
X163223588Y-76192588D01*
X162525176Y-76891000D01*
X162000726Y-76891000D01*
X162262549Y-76838920D01*
X162656375Y-76575775D01*
X162919520Y-76181948D01*
X162988600Y-75834661D01*
X162988600Y-75295338D01*
X162919520Y-74948051D01*
X162656375Y-74554225D01*
X162262548Y-74291080D01*
X161798000Y-74198675D01*
X161333451Y-74291080D01*
X160939625Y-74554225D01*
X160676480Y-74948052D01*
X160607400Y-75295339D01*
X160607400Y-75834662D01*
X160676480Y-76181949D01*
X160939626Y-76575775D01*
X161333452Y-76838920D01*
X161595274Y-76891000D01*
X159460726Y-76891000D01*
X159722549Y-76838920D01*
X160116375Y-76575775D01*
X160379520Y-76181948D01*
X160448600Y-75834661D01*
X160448600Y-75295338D01*
X160379520Y-74948051D01*
X160116375Y-74554225D01*
X159722548Y-74291080D01*
X159258000Y-74198675D01*
X158793451Y-74291080D01*
X158399625Y-74554225D01*
X158136480Y-74948052D01*
X158067400Y-75295339D01*
X158067400Y-75834662D01*
X158136480Y-76181949D01*
X158399626Y-76575775D01*
X158793452Y-76838920D01*
X159055274Y-76891000D01*
X156920726Y-76891000D01*
X157182549Y-76838920D01*
X157576375Y-76575775D01*
X157839520Y-76181948D01*
X157908600Y-75834661D01*
X157908600Y-75295338D01*
X157839520Y-74948051D01*
X157576375Y-74554225D01*
X157182548Y-74291080D01*
X156718000Y-74198675D01*
X156253451Y-74291080D01*
X155859625Y-74554225D01*
X155596480Y-74948052D01*
X155527400Y-75295339D01*
X155527400Y-75834662D01*
X155596480Y-76181949D01*
X155859626Y-76575775D01*
X156253452Y-76838920D01*
X156515274Y-76891000D01*
X152856726Y-76891000D01*
X153118549Y-76838920D01*
X153512375Y-76575775D01*
X153775520Y-76181948D01*
X153844600Y-75834661D01*
X153844600Y-75295338D01*
X153775520Y-74948051D01*
X153512375Y-74554225D01*
X153118548Y-74291080D01*
X152654000Y-74198675D01*
X152189451Y-74291080D01*
X151795625Y-74554225D01*
X151532480Y-74948052D01*
X151463400Y-75295339D01*
X151463400Y-75834662D01*
X151532480Y-76181949D01*
X151795626Y-76575775D01*
X152189452Y-76838920D01*
X152451274Y-76891000D01*
X150316726Y-76891000D01*
X150578549Y-76838920D01*
X150972375Y-76575775D01*
X151235520Y-76181948D01*
X151304600Y-75834661D01*
X151304600Y-75295338D01*
X151235520Y-74948051D01*
X150972375Y-74554225D01*
X150578548Y-74291080D01*
X150114000Y-74198675D01*
X149649451Y-74291080D01*
X149255625Y-74554225D01*
X148992480Y-74948052D01*
X148923400Y-75295339D01*
X148923400Y-75834662D01*
X148992480Y-76181949D01*
X149255626Y-76575775D01*
X149649452Y-76838920D01*
X149911274Y-76891000D01*
X147776726Y-76891000D01*
X148038549Y-76838920D01*
X148432375Y-76575775D01*
X148695520Y-76181948D01*
X148764600Y-75834661D01*
X148764600Y-75295338D01*
X148695520Y-74948051D01*
X148432375Y-74554225D01*
X148038548Y-74291080D01*
X147574000Y-74198675D01*
X147109451Y-74291080D01*
X146715625Y-74554225D01*
X146452480Y-74948052D01*
X146383400Y-75295339D01*
X146383400Y-75834662D01*
X146452480Y-76181949D01*
X146715626Y-76575775D01*
X147109452Y-76838920D01*
X147371274Y-76891000D01*
X145236726Y-76891000D01*
X145498549Y-76838920D01*
X145892375Y-76575775D01*
X146155520Y-76181948D01*
X146224600Y-75834661D01*
X146224600Y-75295338D01*
X146155520Y-74948051D01*
X145892375Y-74554225D01*
X145498548Y-74291080D01*
X145034000Y-74198675D01*
X144569451Y-74291080D01*
X144175625Y-74554225D01*
X143912480Y-74948052D01*
X143843400Y-75295339D01*
X143843400Y-75834662D01*
X143912480Y-76181949D01*
X144175626Y-76575775D01*
X144569452Y-76838920D01*
X144831274Y-76891000D01*
X142696726Y-76891000D01*
X142958549Y-76838920D01*
X143352375Y-76575775D01*
X143615520Y-76181948D01*
X143684600Y-75834661D01*
X143684600Y-75295338D01*
X143615520Y-74948051D01*
X143352375Y-74554225D01*
X142958548Y-74291080D01*
X142494000Y-74198675D01*
X142029451Y-74291080D01*
X141635625Y-74554225D01*
X141372480Y-74948052D01*
X141303400Y-75295339D01*
X141303400Y-75834662D01*
X141372480Y-76181949D01*
X141635626Y-76575775D01*
X142029452Y-76838920D01*
X142291274Y-76891000D01*
X140156726Y-76891000D01*
X140418549Y-76838920D01*
X140812375Y-76575775D01*
X141075520Y-76181948D01*
X141144600Y-75834661D01*
X141144600Y-75295338D01*
X141075520Y-74948051D01*
X140812375Y-74554225D01*
X140418548Y-74291080D01*
X139954000Y-74198675D01*
X139489451Y-74291080D01*
X139095625Y-74554225D01*
X138832480Y-74948052D01*
X138763400Y-75295339D01*
X138763400Y-75834662D01*
X138832480Y-76181949D01*
X139095626Y-76575775D01*
X139489452Y-76838920D01*
X139751274Y-76891000D01*
X139744518Y-76891000D01*
X139700000Y-76882145D01*
X139655482Y-76891000D01*
X139523638Y-76917225D01*
X139374126Y-77017126D01*
X139348909Y-77054866D01*
X135347869Y-81055907D01*
X135310126Y-81081126D01*
X135248638Y-81173149D01*
X134919772Y-81502016D01*
X134865093Y-81465481D01*
X134737504Y-81440102D01*
X133237504Y-81440102D01*
X133109915Y-81465481D01*
X133001750Y-81537754D01*
X132929477Y-81645919D01*
X132904098Y-81773508D01*
X132904098Y-82247064D01*
X132848681Y-82113276D01*
X132741504Y-82006100D01*
X132601470Y-81948096D01*
X132122935Y-81948096D01*
X132027685Y-82043346D01*
X132027685Y-82702096D01*
X132811435Y-82702096D01*
X132906685Y-82606846D01*
X132906685Y-82386514D01*
X132929477Y-82501097D01*
X133001750Y-82609262D01*
X133109915Y-82681535D01*
X133113879Y-82682324D01*
X133021684Y-82720512D01*
X132914508Y-82827689D01*
X132856504Y-82967723D01*
X132856504Y-83001165D01*
X132811435Y-82956096D01*
X132027685Y-82956096D01*
X132027685Y-83614846D01*
X132122935Y-83710096D01*
X132601470Y-83710096D01*
X132741504Y-83652092D01*
X132848681Y-83544916D01*
X132879501Y-83470510D01*
X132951752Y-83470510D01*
X132856504Y-83565758D01*
X132856504Y-83719293D01*
X132914508Y-83859327D01*
X133021684Y-83966504D01*
X133113879Y-84004692D01*
X133109915Y-84005481D01*
X133001750Y-84077754D01*
X132929477Y-84185919D01*
X132915338Y-84257000D01*
X129981225Y-84257000D01*
X128775571Y-83051346D01*
X130894685Y-83051346D01*
X130894685Y-83404882D01*
X130952689Y-83544916D01*
X131059866Y-83652092D01*
X131199900Y-83710096D01*
X131678435Y-83710096D01*
X131773685Y-83614846D01*
X131773685Y-82956096D01*
X130989935Y-82956096D01*
X130894685Y-83051346D01*
X128775571Y-83051346D01*
X127977535Y-82253310D01*
X130894685Y-82253310D01*
X130894685Y-82606846D01*
X130989935Y-82702096D01*
X131773685Y-82702096D01*
X131773685Y-82043346D01*
X131678435Y-81948096D01*
X131199900Y-81948096D01*
X131059866Y-82006100D01*
X130952689Y-82113276D01*
X130894685Y-82253310D01*
X127977535Y-82253310D01*
X127842582Y-82118358D01*
X127842580Y-82118355D01*
X127704384Y-81980159D01*
X127741526Y-81924571D01*
X127844477Y-81407000D01*
X127741526Y-80889429D01*
X127664588Y-80774282D01*
X129929000Y-80774282D01*
X129929000Y-81023718D01*
X130024455Y-81254167D01*
X130200833Y-81430545D01*
X130431282Y-81526000D01*
X130680718Y-81526000D01*
X130911167Y-81430545D01*
X130953949Y-81387763D01*
X130967658Y-81456685D01*
X131039931Y-81564850D01*
X131148096Y-81637123D01*
X131275685Y-81662502D01*
X132525685Y-81662502D01*
X132653274Y-81637123D01*
X132761439Y-81564850D01*
X132833712Y-81456685D01*
X132859091Y-81329096D01*
X132859091Y-81255508D01*
X132945788Y-81255508D01*
X133001750Y-81339262D01*
X133109915Y-81411535D01*
X133237504Y-81436914D01*
X134737504Y-81436914D01*
X134865093Y-81411535D01*
X134973258Y-81339262D01*
X135045531Y-81231097D01*
X135070910Y-81103508D01*
X135070910Y-80503508D01*
X135045531Y-80375919D01*
X134973258Y-80267754D01*
X134865093Y-80195481D01*
X134737504Y-80170102D01*
X133237504Y-80170102D01*
X133109915Y-80195481D01*
X133001750Y-80267754D01*
X132945788Y-80351508D01*
X132859091Y-80351508D01*
X132859091Y-80329096D01*
X132833712Y-80201507D01*
X132761439Y-80093342D01*
X132653274Y-80021069D01*
X132525685Y-79995690D01*
X131275685Y-79995690D01*
X131148096Y-80021069D01*
X131039931Y-80093342D01*
X130967658Y-80201507D01*
X130942279Y-80329096D01*
X130942279Y-80377096D01*
X130920808Y-80377096D01*
X130911167Y-80367455D01*
X130680718Y-80272000D01*
X130431282Y-80272000D01*
X130200833Y-80367455D01*
X130024455Y-80543833D01*
X129929000Y-80774282D01*
X127664588Y-80774282D01*
X127448346Y-80450654D01*
X127009571Y-80157474D01*
X126622646Y-80080510D01*
X126361354Y-80080510D01*
X125974429Y-80157474D01*
X125535654Y-80450654D01*
X125242474Y-80889429D01*
X125139523Y-81407000D01*
X125242474Y-81924571D01*
X125535654Y-82363346D01*
X125974429Y-82656526D01*
X126077359Y-82677000D01*
X125974429Y-82697474D01*
X125535654Y-82990654D01*
X125242474Y-83429429D01*
X125139523Y-83947000D01*
X125242474Y-84464571D01*
X125535654Y-84903346D01*
X125974429Y-85196526D01*
X126077359Y-85217000D01*
X125974429Y-85237474D01*
X125535654Y-85530654D01*
X125242474Y-85969429D01*
X125139523Y-86487000D01*
X125242474Y-87004571D01*
X125535654Y-87443346D01*
X125839710Y-87646510D01*
X125416725Y-87646510D01*
X125276691Y-87704514D01*
X125169514Y-87811690D01*
X125111510Y-87951724D01*
X111327000Y-87951724D01*
X111327000Y-73354000D01*
X125411462Y-73354000D01*
X124901734Y-73565136D01*
X124901734Y-73565136D01*
G37*
X124901734Y-73565136D02*
X124238136Y-74228734D01*
X123879000Y-75095766D01*
X123879000Y-76034234D01*
X124238136Y-76901266D01*
X124901734Y-77564864D01*
X125768766Y-77924000D01*
X126707234Y-77924000D01*
X127574266Y-77564864D01*
X128237864Y-76901266D01*
X128597000Y-76034234D01*
X128597000Y-75295339D01*
X128603400Y-75295339D01*
X128603400Y-75834662D01*
X128672480Y-76181949D01*
X128935626Y-76575775D01*
X129329452Y-76838920D01*
X129794000Y-76931325D01*
X130258549Y-76838920D01*
X130652375Y-76575775D01*
X130915520Y-76181948D01*
X130984600Y-75834661D01*
X130984600Y-75295339D01*
X131143400Y-75295339D01*
X131143400Y-75834662D01*
X131212480Y-76181949D01*
X131475626Y-76575775D01*
X131869452Y-76838920D01*
X132334000Y-76931325D01*
X132798549Y-76838920D01*
X133192375Y-76575775D01*
X133455520Y-76181948D01*
X133524600Y-75834661D01*
X133524600Y-75295339D01*
X133683400Y-75295339D01*
X133683400Y-75834662D01*
X133752480Y-76181949D01*
X134015626Y-76575775D01*
X134409452Y-76838920D01*
X134874000Y-76931325D01*
X135338549Y-76838920D01*
X135732375Y-76575775D01*
X135995520Y-76181948D01*
X136054146Y-75887213D01*
X136179473Y-75887213D01*
X136338430Y-76346720D01*
X136661133Y-76710419D01*
X137094882Y-76920393D01*
X137287000Y-76859712D01*
X137287000Y-75692000D01*
X137541000Y-75692000D01*
X137541000Y-76859712D01*
X137733118Y-76920393D01*
X138166867Y-76710419D01*
X138489570Y-76346720D01*
X138648527Y-75887213D01*
X138564643Y-75692000D01*
X137541000Y-75692000D01*
X137287000Y-75692000D01*
X136263357Y-75692000D01*
X136179473Y-75887213D01*
X136054146Y-75887213D01*
X136064600Y-75834661D01*
X136064600Y-75295338D01*
X136054147Y-75242787D01*
X136179473Y-75242787D01*
X136263357Y-75438000D01*
X137287000Y-75438000D01*
X137287000Y-74270288D01*
X137541000Y-74270288D01*
X137541000Y-75438000D01*
X138564643Y-75438000D01*
X138648527Y-75242787D01*
X138489570Y-74783280D01*
X138166867Y-74419581D01*
X137733118Y-74209607D01*
X137541000Y-74270288D01*
X137287000Y-74270288D01*
X137094882Y-74209607D01*
X136661133Y-74419581D01*
X136338430Y-74783280D01*
X136179473Y-75242787D01*
X136054147Y-75242787D01*
X135995520Y-74948051D01*
X135732375Y-74554225D01*
X135338548Y-74291080D01*
X134874000Y-74198675D01*
X134409451Y-74291080D01*
X134015625Y-74554225D01*
X133752480Y-74948052D01*
X133683400Y-75295339D01*
X133524600Y-75295339D01*
X133524600Y-75295338D01*
X133455520Y-74948051D01*
X133192375Y-74554225D01*
X132798548Y-74291080D01*
X132334000Y-74198675D01*
X131869451Y-74291080D01*
X131475625Y-74554225D01*
X131212480Y-74948052D01*
X131143400Y-75295339D01*
X130984600Y-75295339D01*
X130984600Y-75295338D01*
X130915520Y-74948051D01*
X130652375Y-74554225D01*
X130258548Y-74291080D01*
X129794000Y-74198675D01*
X129329451Y-74291080D01*
X128935625Y-74554225D01*
X128672480Y-74948052D01*
X128603400Y-75295339D01*
X128597000Y-75295339D01*
X128597000Y-75095766D01*
X128237864Y-74228734D01*
X127574266Y-73565136D01*
X127064538Y-73354000D01*
X175377724Y-73354000D01*
X176709001Y-74685277D01*
X176709000Y-85946604D01*
X176702556Y-85979000D01*
X176709000Y-86011396D01*
X176709000Y-86011400D01*
X176728089Y-86107368D01*
X176728090Y-86107369D01*
X176764010Y-86161127D01*
X176800805Y-86216195D01*
X176828272Y-86234548D01*
X179249001Y-88655277D01*
X179249001Y-89978464D01*
X179037864Y-89468734D01*
X178374266Y-88805136D01*
X177507234Y-88446000D01*
X176568766Y-88446000D01*
X175701734Y-88805136D01*
X175038136Y-89468734D01*
X174679000Y-90335766D01*
X174679000Y-91274234D01*
X175038136Y-92141266D01*
X175701734Y-92804864D01*
X176568766Y-93164000D01*
X177507234Y-93164000D01*
X178374266Y-92804864D01*
X179037864Y-92141266D01*
X179249001Y-91631536D01*
X179249000Y-117918462D01*
X179037864Y-117408734D01*
X178374266Y-116745136D01*
X177507234Y-116386000D01*
X176568766Y-116386000D01*
X175701734Y-116745136D01*
X175038136Y-117408734D01*
X174679000Y-118275766D01*
X174679000Y-119214234D01*
X175038136Y-120081266D01*
X175701734Y-120744864D01*
X176568766Y-121104000D01*
X177507234Y-121104000D01*
X178374266Y-120744864D01*
X179037864Y-120081266D01*
X179249000Y-119571538D01*
X179249000Y-121148724D01*
X176828270Y-123569454D01*
X176800806Y-123587805D01*
X176782455Y-123615269D01*
X176782451Y-123615273D01*
X176728090Y-123696631D01*
X176702556Y-123825000D01*
X176709001Y-123857401D01*
X176709000Y-126036000D01*
X125794538Y-126036000D01*
X126304266Y-125824864D01*
X126967864Y-125161266D01*
X127327000Y-124294234D01*
X127327000Y-123555339D01*
X137747400Y-123555339D01*
X137747400Y-124094662D01*
X137816480Y-124441949D01*
X138079626Y-124835775D01*
X138473452Y-125098920D01*
X138938000Y-125191325D01*
X139402549Y-125098920D01*
X139796375Y-124835775D01*
X140059520Y-124441948D01*
X140128600Y-124094661D01*
X140128600Y-123555339D01*
X140287400Y-123555339D01*
X140287400Y-124094662D01*
X140356480Y-124441949D01*
X140619626Y-124835775D01*
X141013452Y-125098920D01*
X141478000Y-125191325D01*
X141942549Y-125098920D01*
X142336375Y-124835775D01*
X142599520Y-124441948D01*
X142668600Y-124094661D01*
X142668600Y-123555339D01*
X142827400Y-123555339D01*
X142827400Y-124094662D01*
X142896480Y-124441949D01*
X143159626Y-124835775D01*
X143553452Y-125098920D01*
X144018000Y-125191325D01*
X144482549Y-125098920D01*
X144876375Y-124835775D01*
X145139520Y-124441948D01*
X145208600Y-124094661D01*
X145208600Y-123555339D01*
X145367400Y-123555339D01*
X145367400Y-124094662D01*
X145436480Y-124441949D01*
X145699626Y-124835775D01*
X146093452Y-125098920D01*
X146558000Y-125191325D01*
X147022549Y-125098920D01*
X147416375Y-124835775D01*
X147679520Y-124441948D01*
X147748600Y-124094661D01*
X147748600Y-123555339D01*
X147907400Y-123555339D01*
X147907400Y-124094662D01*
X147976480Y-124441949D01*
X148239626Y-124835775D01*
X148633452Y-125098920D01*
X149098000Y-125191325D01*
X149562549Y-125098920D01*
X149956375Y-124835775D01*
X150219520Y-124441948D01*
X150278146Y-124147213D01*
X150403473Y-124147213D01*
X150562430Y-124606720D01*
X150885133Y-124970419D01*
X151318882Y-125180393D01*
X151511000Y-125119712D01*
X151511000Y-123952000D01*
X151765000Y-123952000D01*
X151765000Y-125119712D01*
X151957118Y-125180393D01*
X152390867Y-124970419D01*
X152713570Y-124606720D01*
X152872527Y-124147213D01*
X152943473Y-124147213D01*
X153102430Y-124606720D01*
X153425133Y-124970419D01*
X153858882Y-125180393D01*
X154051000Y-125119712D01*
X154051000Y-123952000D01*
X154305000Y-123952000D01*
X154305000Y-125119712D01*
X154497118Y-125180393D01*
X154930867Y-124970419D01*
X155253570Y-124606720D01*
X155412527Y-124147213D01*
X155328643Y-123952000D01*
X154305000Y-123952000D01*
X154051000Y-123952000D01*
X153027357Y-123952000D01*
X152943473Y-124147213D01*
X152872527Y-124147213D01*
X152788643Y-123952000D01*
X151765000Y-123952000D01*
X151511000Y-123952000D01*
X150487357Y-123952000D01*
X150403473Y-124147213D01*
X150278146Y-124147213D01*
X150288600Y-124094661D01*
X150288600Y-123555338D01*
X150278147Y-123502787D01*
X150403473Y-123502787D01*
X150487357Y-123698000D01*
X151511000Y-123698000D01*
X151511000Y-122530288D01*
X151765000Y-122530288D01*
X151765000Y-123698000D01*
X152788643Y-123698000D01*
X152872527Y-123502787D01*
X152943473Y-123502787D01*
X153027357Y-123698000D01*
X154051000Y-123698000D01*
X154051000Y-122530288D01*
X154305000Y-122530288D01*
X154305000Y-123698000D01*
X155328643Y-123698000D01*
X155412527Y-123502787D01*
X155253570Y-123043280D01*
X154930867Y-122679581D01*
X154497118Y-122469607D01*
X154305000Y-122530288D01*
X154051000Y-122530288D01*
X153858882Y-122469607D01*
X153425133Y-122679581D01*
X153102430Y-123043280D01*
X152943473Y-123502787D01*
X152872527Y-123502787D01*
X152713570Y-123043280D01*
X152390867Y-122679581D01*
X151957118Y-122469607D01*
X151765000Y-122530288D01*
X151511000Y-122530288D01*
X151318882Y-122469607D01*
X150885133Y-122679581D01*
X150562430Y-123043280D01*
X150403473Y-123502787D01*
X150278147Y-123502787D01*
X150219520Y-123208051D01*
X149956375Y-122814225D01*
X149562548Y-122551080D01*
X149098000Y-122458675D01*
X148633451Y-122551080D01*
X148239625Y-122814225D01*
X147976480Y-123208052D01*
X147907400Y-123555339D01*
X147748600Y-123555339D01*
X147748600Y-123555338D01*
X147679520Y-123208051D01*
X147416375Y-122814225D01*
X147022548Y-122551080D01*
X146558000Y-122458675D01*
X146093451Y-122551080D01*
X145699625Y-122814225D01*
X145436480Y-123208052D01*
X145367400Y-123555339D01*
X145208600Y-123555339D01*
X145208600Y-123555338D01*
X145139520Y-123208051D01*
X144876375Y-122814225D01*
X144482548Y-122551080D01*
X144018000Y-122458675D01*
X143553451Y-122551080D01*
X143159625Y-122814225D01*
X142896480Y-123208052D01*
X142827400Y-123555339D01*
X142668600Y-123555339D01*
X142668600Y-123555338D01*
X142599520Y-123208051D01*
X142336375Y-122814225D01*
X141942548Y-122551080D01*
X141478000Y-122458675D01*
X141013451Y-122551080D01*
X140619625Y-122814225D01*
X140356480Y-123208052D01*
X140287400Y-123555339D01*
X140128600Y-123555339D01*
X140128600Y-123555338D01*
X140059520Y-123208051D01*
X139796375Y-122814225D01*
X139402548Y-122551080D01*
X138938000Y-122458675D01*
X138473451Y-122551080D01*
X138079625Y-122814225D01*
X137816480Y-123208052D01*
X137747400Y-123555339D01*
X127327000Y-123555339D01*
X127327000Y-123355766D01*
X126967864Y-122488734D01*
X126304266Y-121825136D01*
X125437234Y-121466000D01*
X124498766Y-121466000D01*
X123631734Y-121825136D01*
X122968136Y-122488734D01*
X122609000Y-123355766D01*
X122609000Y-124294234D01*
X122968136Y-125161266D01*
X123631734Y-125824864D01*
X124141462Y-126036000D01*
X111327000Y-126036000D01*
X111327000Y-118713250D01*
X130203000Y-118713250D01*
X130203000Y-120316786D01*
X130261004Y-120456820D01*
X130368181Y-120563996D01*
X130508215Y-120622000D01*
X132111750Y-120622000D01*
X132207000Y-120526750D01*
X132207000Y-118618000D01*
X132461000Y-118618000D01*
X132461000Y-120526750D01*
X132556250Y-120622000D01*
X134159785Y-120622000D01*
X134299819Y-120563996D01*
X134406996Y-120456820D01*
X134465000Y-120316786D01*
X134465000Y-118713250D01*
X134369750Y-118618000D01*
X132461000Y-118618000D01*
X132207000Y-118618000D01*
X130298250Y-118618000D01*
X130203000Y-118713250D01*
X111327000Y-118713250D01*
X111327000Y-116665214D01*
X130203000Y-116665214D01*
X130203000Y-118268750D01*
X130298250Y-118364000D01*
X132207000Y-118364000D01*
X132207000Y-116455250D01*
X132461000Y-116455250D01*
X132461000Y-118364000D01*
X134369750Y-118364000D01*
X134465000Y-118268750D01*
X134465000Y-116665214D01*
X134406996Y-116525180D01*
X134299819Y-116418004D01*
X134159785Y-116360000D01*
X132556250Y-116360000D01*
X132461000Y-116455250D01*
X132207000Y-116455250D01*
X132111750Y-116360000D01*
X130508215Y-116360000D01*
X130368181Y-116418004D01*
X130261004Y-116525180D01*
X130203000Y-116665214D01*
X111327000Y-116665214D01*
X111327000Y-110741000D01*
X130250594Y-110741000D01*
X130250594Y-114241000D01*
X130275973Y-114368589D01*
X130348246Y-114476754D01*
X130456411Y-114549027D01*
X130584000Y-114574406D01*
X134084000Y-114574406D01*
X134211589Y-114549027D01*
X134319754Y-114476754D01*
X134392027Y-114368589D01*
X134417406Y-114241000D01*
X134417406Y-113741000D01*
X134950594Y-113741000D01*
X134950594Y-117241000D01*
X134975973Y-117368589D01*
X135048246Y-117476754D01*
X135156411Y-117549027D01*
X135284000Y-117574406D01*
X138784000Y-117574406D01*
X138911589Y-117549027D01*
X139019754Y-117476754D01*
X139092027Y-117368589D01*
X139117406Y-117241000D01*
X139117406Y-113741000D01*
X139092027Y-113613411D01*
X139019754Y-113505246D01*
X138911589Y-113432973D01*
X138784000Y-113407594D01*
X135284000Y-113407594D01*
X135156411Y-113432973D01*
X135048246Y-113505246D01*
X134975973Y-113613411D01*
X134950594Y-113741000D01*
X134417406Y-113741000D01*
X134417406Y-112943000D01*
X138980776Y-112943000D01*
X142700907Y-116663131D01*
X142726126Y-116700874D01*
X142875638Y-116800775D01*
X143007482Y-116827000D01*
X143007483Y-116827000D01*
X143051999Y-116835855D01*
X143096516Y-116827000D01*
X144074000Y-116827000D01*
X144074001Y-117765594D01*
X143626000Y-117765594D01*
X143498411Y-117790973D01*
X143390246Y-117863246D01*
X143317973Y-117971411D01*
X143292594Y-118099000D01*
X143292594Y-119899000D01*
X143317973Y-120026589D01*
X143390246Y-120134754D01*
X143498411Y-120207027D01*
X143626000Y-120232406D01*
X145426000Y-120232406D01*
X145553589Y-120207027D01*
X145661754Y-120134754D01*
X145734027Y-120026589D01*
X145759406Y-119899000D01*
X145759406Y-119323842D01*
X145826872Y-119323842D01*
X145960098Y-119645505D01*
X146291686Y-120019503D01*
X146741157Y-120238139D01*
X146939000Y-120178450D01*
X146939000Y-119126000D01*
X147193000Y-119126000D01*
X147193000Y-120178450D01*
X147390843Y-120238139D01*
X147840314Y-120019503D01*
X148171902Y-119645505D01*
X148305128Y-119323842D01*
X148244929Y-119126000D01*
X147193000Y-119126000D01*
X146939000Y-119126000D01*
X145887071Y-119126000D01*
X145826872Y-119323842D01*
X145759406Y-119323842D01*
X145759406Y-118674158D01*
X145826872Y-118674158D01*
X145887071Y-118872000D01*
X146939000Y-118872000D01*
X146939000Y-117819550D01*
X147193000Y-117819550D01*
X147193000Y-118872000D01*
X148244929Y-118872000D01*
X148305128Y-118674158D01*
X148171902Y-118352495D01*
X147840314Y-117978497D01*
X147390843Y-117759861D01*
X147193000Y-117819550D01*
X146939000Y-117819550D01*
X146741157Y-117759861D01*
X146291686Y-117978497D01*
X145960098Y-118352495D01*
X145826872Y-118674158D01*
X145759406Y-118674158D01*
X145759406Y-118099000D01*
X145734027Y-117971411D01*
X145661754Y-117863246D01*
X145553589Y-117790973D01*
X145426000Y-117765594D01*
X144978000Y-117765594D01*
X144978000Y-116562224D01*
X145802818Y-115737406D01*
X146900000Y-115737406D01*
X147027589Y-115712027D01*
X147135754Y-115639754D01*
X147208027Y-115531589D01*
X147233406Y-115404000D01*
X147233406Y-114554000D01*
X147389942Y-114554000D01*
X147481291Y-115013242D01*
X147741431Y-115402569D01*
X148130758Y-115662709D01*
X148474080Y-115731000D01*
X148705920Y-115731000D01*
X149049242Y-115662709D01*
X149055382Y-115658607D01*
X149154001Y-115757226D01*
X149154000Y-117837871D01*
X149127248Y-117843192D01*
X148721383Y-118114383D01*
X148450192Y-118520248D01*
X148354962Y-118999000D01*
X148450192Y-119477752D01*
X148721383Y-119883617D01*
X149127248Y-120154808D01*
X149485153Y-120226000D01*
X149726847Y-120226000D01*
X150084752Y-120154808D01*
X150107430Y-120139655D01*
X150587866Y-120620091D01*
X150587869Y-120620093D01*
X151270908Y-121303133D01*
X151296126Y-121340874D01*
X151445638Y-121440775D01*
X151577482Y-121467000D01*
X151577483Y-121467000D01*
X151621999Y-121475855D01*
X151666516Y-121467000D01*
X155759594Y-121467000D01*
X155759594Y-121515000D01*
X155784973Y-121642589D01*
X155857246Y-121750754D01*
X155965411Y-121823027D01*
X156093000Y-121848406D01*
X156266000Y-121848406D01*
X156266000Y-122548584D01*
X156253451Y-122551080D01*
X155859625Y-122814225D01*
X155596480Y-123208052D01*
X155527400Y-123555339D01*
X155527400Y-124094662D01*
X155596480Y-124441949D01*
X155859626Y-124835775D01*
X156253452Y-125098920D01*
X156718000Y-125191325D01*
X157182549Y-125098920D01*
X157576375Y-124835775D01*
X157839520Y-124441948D01*
X157908600Y-124094661D01*
X157908600Y-123555338D01*
X157839520Y-123208051D01*
X157576375Y-122814225D01*
X157182548Y-122551080D01*
X157170000Y-122548584D01*
X157170000Y-121848406D01*
X157343000Y-121848406D01*
X157470589Y-121823027D01*
X157578754Y-121750754D01*
X157651027Y-121642589D01*
X157676406Y-121515000D01*
X157676406Y-120515000D01*
X157651027Y-120387411D01*
X157578754Y-120279246D01*
X157470589Y-120206973D01*
X157343000Y-120181594D01*
X156093000Y-120181594D01*
X155965411Y-120206973D01*
X155857246Y-120279246D01*
X155784973Y-120387411D01*
X155759594Y-120515000D01*
X155759594Y-120563000D01*
X151809225Y-120563000D01*
X151227093Y-119980869D01*
X151227091Y-119980866D01*
X150746655Y-119500430D01*
X150761808Y-119477752D01*
X150809646Y-119237250D01*
X155712000Y-119237250D01*
X155712000Y-119590786D01*
X155770004Y-119730820D01*
X155877181Y-119837996D01*
X156017215Y-119896000D01*
X156495750Y-119896000D01*
X156591000Y-119800750D01*
X156591000Y-119142000D01*
X156845000Y-119142000D01*
X156845000Y-119800750D01*
X156940250Y-119896000D01*
X157418785Y-119896000D01*
X157558819Y-119837996D01*
X157665996Y-119730820D01*
X157724000Y-119590786D01*
X157724000Y-119237250D01*
X157628750Y-119142000D01*
X156845000Y-119142000D01*
X156591000Y-119142000D01*
X155807250Y-119142000D01*
X155712000Y-119237250D01*
X150809646Y-119237250D01*
X150857038Y-118999000D01*
X150761808Y-118520248D01*
X150707663Y-118439214D01*
X155712000Y-118439214D01*
X155712000Y-118792750D01*
X155807250Y-118888000D01*
X156591000Y-118888000D01*
X156591000Y-118229250D01*
X156845000Y-118229250D01*
X156845000Y-118888000D01*
X157628750Y-118888000D01*
X157724000Y-118792750D01*
X157724000Y-118439214D01*
X157665996Y-118299180D01*
X157558819Y-118192004D01*
X157418785Y-118134000D01*
X156940250Y-118134000D01*
X156845000Y-118229250D01*
X156591000Y-118229250D01*
X156495750Y-118134000D01*
X156017215Y-118134000D01*
X155877181Y-118192004D01*
X155770004Y-118299180D01*
X155712000Y-118439214D01*
X150707663Y-118439214D01*
X150490617Y-118114383D01*
X150084752Y-117843192D01*
X150058000Y-117837871D01*
X150058000Y-115614518D01*
X150066855Y-115570000D01*
X150031775Y-115393638D01*
X149957091Y-115281866D01*
X149931874Y-115244126D01*
X149894133Y-115218908D01*
X149694607Y-115019382D01*
X149698709Y-115013242D01*
X149790058Y-114554000D01*
X149698709Y-114094758D01*
X149438569Y-113705431D01*
X149049242Y-113445291D01*
X148705920Y-113377000D01*
X148474080Y-113377000D01*
X148130758Y-113445291D01*
X147741431Y-113705431D01*
X147481291Y-114094758D01*
X147389942Y-114554000D01*
X147233406Y-114554000D01*
X147233406Y-113704000D01*
X147208027Y-113576411D01*
X147135754Y-113468246D01*
X147027589Y-113395973D01*
X146900000Y-113370594D01*
X145200000Y-113370594D01*
X145072411Y-113395973D01*
X144964246Y-113468246D01*
X144891973Y-113576411D01*
X144866594Y-113704000D01*
X144866594Y-115395182D01*
X144338776Y-115923000D01*
X143239224Y-115923000D01*
X139519093Y-112202869D01*
X139493874Y-112165126D01*
X139344362Y-112065225D01*
X139212518Y-112039000D01*
X139168000Y-112030145D01*
X139123482Y-112039000D01*
X134417406Y-112039000D01*
X134417406Y-111889282D01*
X159520000Y-111889282D01*
X159520000Y-112138718D01*
X159615455Y-112369167D01*
X159791833Y-112545545D01*
X160022282Y-112641000D01*
X160134776Y-112641000D01*
X161346001Y-113852225D01*
X161346000Y-122548584D01*
X161333451Y-122551080D01*
X160939625Y-122814225D01*
X160676480Y-123208052D01*
X160607400Y-123555339D01*
X160607400Y-124094662D01*
X160676480Y-124441949D01*
X160939626Y-124835775D01*
X161333452Y-125098920D01*
X161798000Y-125191325D01*
X162262549Y-125098920D01*
X162656375Y-124835775D01*
X162919520Y-124441948D01*
X162988600Y-124094661D01*
X162988600Y-123555339D01*
X163147400Y-123555339D01*
X163147400Y-124094662D01*
X163216480Y-124441949D01*
X163479626Y-124835775D01*
X163873452Y-125098920D01*
X164338000Y-125191325D01*
X164802549Y-125098920D01*
X165196375Y-124835775D01*
X165459520Y-124441948D01*
X165528600Y-124094661D01*
X165528600Y-123555339D01*
X165687400Y-123555339D01*
X165687400Y-124094662D01*
X165756480Y-124441949D01*
X166019626Y-124835775D01*
X166413452Y-125098920D01*
X166878000Y-125191325D01*
X167342549Y-125098920D01*
X167736375Y-124835775D01*
X167999520Y-124441948D01*
X168068600Y-124094661D01*
X168068600Y-123555339D01*
X168227400Y-123555339D01*
X168227400Y-124094662D01*
X168296480Y-124441949D01*
X168559626Y-124835775D01*
X168953452Y-125098920D01*
X169418000Y-125191325D01*
X169882549Y-125098920D01*
X170276375Y-124835775D01*
X170539520Y-124441948D01*
X170608600Y-124094661D01*
X170608600Y-123555339D01*
X170767400Y-123555339D01*
X170767400Y-124094662D01*
X170836480Y-124441949D01*
X171099626Y-124835775D01*
X171493452Y-125098920D01*
X171958000Y-125191325D01*
X172422549Y-125098920D01*
X172816375Y-124835775D01*
X173079520Y-124441948D01*
X173148600Y-124094661D01*
X173148600Y-123555339D01*
X173307400Y-123555339D01*
X173307400Y-124094662D01*
X173376480Y-124441949D01*
X173639626Y-124835775D01*
X174033452Y-125098920D01*
X174498000Y-125191325D01*
X174962549Y-125098920D01*
X175356375Y-124835775D01*
X175619520Y-124441948D01*
X175688600Y-124094661D01*
X175688600Y-123555338D01*
X175619520Y-123208051D01*
X175356375Y-122814225D01*
X174962548Y-122551080D01*
X174498000Y-122458675D01*
X174033451Y-122551080D01*
X173639625Y-122814225D01*
X173376480Y-123208052D01*
X173307400Y-123555339D01*
X173148600Y-123555339D01*
X173148600Y-123555338D01*
X173079520Y-123208051D01*
X172816375Y-122814225D01*
X172422548Y-122551080D01*
X171958000Y-122458675D01*
X171493451Y-122551080D01*
X171099625Y-122814225D01*
X170836480Y-123208052D01*
X170767400Y-123555339D01*
X170608600Y-123555339D01*
X170608600Y-123555338D01*
X170539520Y-123208051D01*
X170276375Y-122814225D01*
X169882548Y-122551080D01*
X169418000Y-122458675D01*
X168953451Y-122551080D01*
X168559625Y-122814225D01*
X168296480Y-123208052D01*
X168227400Y-123555339D01*
X168068600Y-123555339D01*
X168068600Y-123555338D01*
X167999520Y-123208051D01*
X167736375Y-122814225D01*
X167342548Y-122551080D01*
X166878000Y-122458675D01*
X166413451Y-122551080D01*
X166019625Y-122814225D01*
X165756480Y-123208052D01*
X165687400Y-123555339D01*
X165528600Y-123555339D01*
X165528600Y-123555338D01*
X165459520Y-123208051D01*
X165196375Y-122814225D01*
X164802548Y-122551080D01*
X164790000Y-122548584D01*
X164790000Y-96319712D01*
X164869545Y-96240167D01*
X164965000Y-96009718D01*
X164965000Y-95760282D01*
X164869545Y-95529833D01*
X164693167Y-95353455D01*
X164462718Y-95258000D01*
X164213282Y-95258000D01*
X163982833Y-95353455D01*
X163806455Y-95529833D01*
X163711000Y-95760282D01*
X163711000Y-96009718D01*
X163806455Y-96240167D01*
X163886001Y-96319713D01*
X163886000Y-122548584D01*
X163873451Y-122551080D01*
X163479625Y-122814225D01*
X163216480Y-123208052D01*
X163147400Y-123555339D01*
X162988600Y-123555339D01*
X162988600Y-123555338D01*
X162919520Y-123208051D01*
X162656375Y-122814225D01*
X162262548Y-122551080D01*
X162250000Y-122548584D01*
X162250000Y-113709518D01*
X162258855Y-113665000D01*
X162248594Y-113613411D01*
X162223775Y-113488638D01*
X162123874Y-113339126D01*
X162086131Y-113313907D01*
X160774000Y-112001776D01*
X160774000Y-111889282D01*
X160678545Y-111658833D01*
X160502167Y-111482455D01*
X160271718Y-111387000D01*
X160022282Y-111387000D01*
X159791833Y-111482455D01*
X159615455Y-111658833D01*
X159520000Y-111889282D01*
X134417406Y-111889282D01*
X134417406Y-110741000D01*
X134392027Y-110613411D01*
X134319754Y-110505246D01*
X134211589Y-110432973D01*
X134084000Y-110407594D01*
X130584000Y-110407594D01*
X130456411Y-110432973D01*
X130348246Y-110505246D01*
X130275973Y-110613411D01*
X130250594Y-110741000D01*
X111327000Y-110741000D01*
X111327000Y-108271379D01*
X133551320Y-108271379D01*
X133551320Y-108898621D01*
X133791355Y-109478117D01*
X134234883Y-109921645D01*
X134814379Y-110161680D01*
X135441621Y-110161680D01*
X136021117Y-109921645D01*
X136464645Y-109478117D01*
X136704680Y-108898621D01*
X136704680Y-108271379D01*
X137996320Y-108271379D01*
X137996320Y-108898621D01*
X138236355Y-109478117D01*
X138679883Y-109921645D01*
X139259379Y-110161680D01*
X139886621Y-110161680D01*
X140466117Y-109921645D01*
X140909645Y-109478117D01*
X141149680Y-108898621D01*
X141149680Y-108271379D01*
X140909645Y-107691883D01*
X140466117Y-107248355D01*
X140025000Y-107065638D01*
X140025000Y-106386750D01*
X140337640Y-106386750D01*
X140465229Y-106361371D01*
X140573394Y-106289098D01*
X140629356Y-106205344D01*
X141852138Y-106205344D01*
X141896656Y-106214199D01*
X141941174Y-106205344D01*
X142073018Y-106179119D01*
X142222530Y-106079218D01*
X142247749Y-106041475D01*
X142782133Y-105507092D01*
X142819874Y-105481874D01*
X142919775Y-105332362D01*
X142946000Y-105200518D01*
X142954855Y-105156000D01*
X142946000Y-105111482D01*
X142946000Y-104959040D01*
X143087078Y-104900604D01*
X143381604Y-104606078D01*
X143541000Y-104221261D01*
X143541000Y-104152622D01*
X147063077Y-107674699D01*
X147088296Y-107712442D01*
X147237808Y-107812343D01*
X147369652Y-107838568D01*
X147369653Y-107838568D01*
X147414169Y-107847423D01*
X147458686Y-107838568D01*
X151019235Y-107838568D01*
X151019235Y-108236568D01*
X151044614Y-108364157D01*
X151116887Y-108472322D01*
X151225052Y-108544595D01*
X151352641Y-108569974D01*
X153052641Y-108569974D01*
X153180230Y-108544595D01*
X153288395Y-108472322D01*
X153360668Y-108364157D01*
X153386047Y-108236568D01*
X153386047Y-106536568D01*
X153360668Y-106408979D01*
X153288395Y-106300814D01*
X153180230Y-106228541D01*
X153052641Y-106203162D01*
X151352641Y-106203162D01*
X151225052Y-106228541D01*
X151116887Y-106300814D01*
X151044614Y-106408979D01*
X151019235Y-106536568D01*
X151019235Y-106934568D01*
X147601394Y-106934568D01*
X141052039Y-100385213D01*
X141026820Y-100347470D01*
X140877308Y-100247569D01*
X140745464Y-100221344D01*
X140700946Y-100212489D01*
X140656428Y-100221344D01*
X140629356Y-100221344D01*
X140573394Y-100137590D01*
X140465229Y-100065317D01*
X140337640Y-100039938D01*
X138837640Y-100039938D01*
X138710051Y-100065317D01*
X138601886Y-100137590D01*
X138529613Y-100245755D01*
X138504234Y-100373344D01*
X138504234Y-100973344D01*
X138529613Y-101100933D01*
X138601886Y-101209098D01*
X138710051Y-101281371D01*
X138714015Y-101282160D01*
X138621820Y-101320348D01*
X138514644Y-101427525D01*
X138456640Y-101567559D01*
X138456640Y-101721094D01*
X138551890Y-101816344D01*
X139460640Y-101816344D01*
X139460640Y-101796344D01*
X139714640Y-101796344D01*
X139714640Y-101816344D01*
X140623390Y-101816344D01*
X140718640Y-101721094D01*
X140718640Y-101567559D01*
X140660636Y-101427525D01*
X140553460Y-101320348D01*
X140461265Y-101282160D01*
X140465229Y-101281371D01*
X140573394Y-101209098D01*
X140583040Y-101194662D01*
X142354378Y-102966000D01*
X142285739Y-102966000D01*
X141900922Y-103125396D01*
X141606396Y-103419922D01*
X141447000Y-103804739D01*
X141447000Y-104221261D01*
X141606396Y-104606078D01*
X141900922Y-104900604D01*
X142042001Y-104959041D01*
X142042001Y-104968774D01*
X141709432Y-105301344D01*
X140629356Y-105301344D01*
X140573394Y-105217590D01*
X140465229Y-105145317D01*
X140337640Y-105119938D01*
X138837640Y-105119938D01*
X138710051Y-105145317D01*
X138601886Y-105217590D01*
X138529613Y-105325755D01*
X138504234Y-105453344D01*
X138504234Y-106053344D01*
X138529613Y-106180933D01*
X138601886Y-106289098D01*
X138710051Y-106361371D01*
X138837640Y-106386750D01*
X139121001Y-106386750D01*
X139121001Y-107065638D01*
X138679883Y-107248355D01*
X138236355Y-107691883D01*
X137996320Y-108271379D01*
X136704680Y-108271379D01*
X136464645Y-107691883D01*
X136021117Y-107248355D01*
X135441621Y-107008320D01*
X134814379Y-107008320D01*
X134234883Y-107248355D01*
X133791355Y-107691883D01*
X133551320Y-108271379D01*
X111327000Y-108271379D01*
X111327000Y-105251250D01*
X125111510Y-105251250D01*
X125111510Y-106104276D01*
X125169514Y-106244310D01*
X125276691Y-106351486D01*
X125416725Y-106409490D01*
X126269750Y-106409490D01*
X126365000Y-106314240D01*
X126365000Y-105156000D01*
X126619000Y-105156000D01*
X126619000Y-106314240D01*
X126714250Y-106409490D01*
X127567275Y-106409490D01*
X127707309Y-106351486D01*
X127814486Y-106244310D01*
X127872490Y-106104276D01*
X127872490Y-105453344D01*
X133104234Y-105453344D01*
X133104234Y-106053344D01*
X133129613Y-106180933D01*
X133201886Y-106289098D01*
X133310051Y-106361371D01*
X133437640Y-106386750D01*
X134937640Y-106386750D01*
X135065229Y-106361371D01*
X135173394Y-106289098D01*
X135204195Y-106243000D01*
X135328288Y-106243000D01*
X135407833Y-106322545D01*
X135638282Y-106418000D01*
X135887718Y-106418000D01*
X136118167Y-106322545D01*
X136294545Y-106146167D01*
X136390000Y-105915718D01*
X136390000Y-105666282D01*
X136294545Y-105435833D01*
X136118167Y-105259455D01*
X135887718Y-105164000D01*
X135638282Y-105164000D01*
X135407833Y-105259455D01*
X135328288Y-105339000D01*
X135248302Y-105339000D01*
X135245667Y-105325755D01*
X135173394Y-105217590D01*
X135065229Y-105145317D01*
X134937640Y-105119938D01*
X133437640Y-105119938D01*
X133310051Y-105145317D01*
X133201886Y-105217590D01*
X133129613Y-105325755D01*
X133104234Y-105453344D01*
X127872490Y-105453344D01*
X127872490Y-105251250D01*
X127777240Y-105156000D01*
X126619000Y-105156000D01*
X126365000Y-105156000D01*
X125206760Y-105156000D01*
X125111510Y-105251250D01*
X111327000Y-105251250D01*
X111327000Y-92142379D01*
X133424320Y-92142379D01*
X133424320Y-92769621D01*
X133664355Y-93349117D01*
X134107883Y-93792645D01*
X134687379Y-94032680D01*
X135314621Y-94032680D01*
X135894117Y-93792645D01*
X136337645Y-93349117D01*
X136577680Y-92769621D01*
X136577680Y-92142379D01*
X136337645Y-91562883D01*
X135894117Y-91119355D01*
X135314621Y-90879320D01*
X134687379Y-90879320D01*
X134107883Y-91119355D01*
X133664355Y-91562883D01*
X133424320Y-92142379D01*
X111327000Y-92142379D01*
X111327000Y-89249250D01*
X125111510Y-89249250D01*
X125111510Y-90102276D01*
X125169514Y-90242310D01*
X125276691Y-90349486D01*
X125416725Y-90407490D01*
X126269750Y-90407490D01*
X126365000Y-90312240D01*
X126365000Y-89154000D01*
X126619000Y-89154000D01*
X126619000Y-90312240D01*
X126714250Y-90407490D01*
X127567275Y-90407490D01*
X127707309Y-90349486D01*
X127814486Y-90242310D01*
X127872490Y-90102276D01*
X127872490Y-89249250D01*
X127777240Y-89154000D01*
X126619000Y-89154000D01*
X126365000Y-89154000D01*
X125206760Y-89154000D01*
X125111510Y-89249250D01*
X111327000Y-89249250D01*
X111327000Y-87951724D01*
X125111510Y-87951724D01*
X125111510Y-88804750D01*
X125206760Y-88900000D01*
X126365000Y-88900000D01*
X126365000Y-88880000D01*
X126619000Y-88880000D01*
X126619000Y-88900000D01*
X127777240Y-88900000D01*
X127872490Y-88804750D01*
X127872490Y-88506715D01*
X128077417Y-88711642D01*
X128102634Y-88749382D01*
X128252146Y-88849283D01*
X128278093Y-88854444D01*
X128428508Y-88884363D01*
X128473026Y-88875508D01*
X132945788Y-88875508D01*
X133001750Y-88959262D01*
X133109915Y-89031535D01*
X133237504Y-89056914D01*
X134696377Y-89056914D01*
X134688680Y-89060102D01*
X133237504Y-89060102D01*
X133109915Y-89085481D01*
X133001750Y-89157754D01*
X132929477Y-89265919D01*
X132904098Y-89393508D01*
X132904098Y-89993508D01*
X132929477Y-90121097D01*
X133001750Y-90229262D01*
X133109915Y-90301535D01*
X133237504Y-90326914D01*
X134737504Y-90326914D01*
X134865093Y-90301535D01*
X134883853Y-90289000D01*
X134998718Y-90289000D01*
X135229167Y-90193545D01*
X135405545Y-90017167D01*
X135501000Y-89786718D01*
X135501000Y-89537282D01*
X135405545Y-89306833D01*
X135229167Y-89130455D01*
X134998718Y-89035000D01*
X134847673Y-89035000D01*
X134865093Y-89031535D01*
X134973258Y-88959262D01*
X135045531Y-88851097D01*
X135070910Y-88723508D01*
X135070910Y-88123508D01*
X135045531Y-87995919D01*
X134973258Y-87887754D01*
X134865093Y-87815481D01*
X134737504Y-87790102D01*
X133237504Y-87790102D01*
X133109915Y-87815481D01*
X133001750Y-87887754D01*
X132945788Y-87971508D01*
X128615733Y-87971508D01*
X127704383Y-87060159D01*
X127741526Y-87004571D01*
X127844477Y-86487000D01*
X127741526Y-85969429D01*
X127472342Y-85566566D01*
X129347417Y-87441642D01*
X129372634Y-87479382D01*
X129410374Y-87504599D01*
X129522146Y-87579283D01*
X129698507Y-87614363D01*
X129743025Y-87605508D01*
X132945788Y-87605508D01*
X133001750Y-87689262D01*
X133109915Y-87761535D01*
X133237504Y-87786914D01*
X134737504Y-87786914D01*
X134865093Y-87761535D01*
X134973258Y-87689262D01*
X135045531Y-87581097D01*
X135070910Y-87453508D01*
X135070910Y-86853508D01*
X135045531Y-86725919D01*
X134973258Y-86617754D01*
X134865093Y-86545481D01*
X134861129Y-86544692D01*
X134953324Y-86506504D01*
X135060500Y-86399327D01*
X135118504Y-86259293D01*
X135118504Y-86105758D01*
X135023254Y-86010508D01*
X134114504Y-86010508D01*
X134114504Y-86030508D01*
X133860504Y-86030508D01*
X133860504Y-86010508D01*
X132951754Y-86010508D01*
X132856504Y-86105758D01*
X132856504Y-86259293D01*
X132914508Y-86399327D01*
X133021684Y-86506504D01*
X133113879Y-86544692D01*
X133109915Y-86545481D01*
X133001750Y-86617754D01*
X132945788Y-86701508D01*
X129885733Y-86701508D01*
X127704383Y-84520159D01*
X127741526Y-84464571D01*
X127844477Y-83947000D01*
X127741526Y-83429429D01*
X127472341Y-83026565D01*
X129442909Y-84997134D01*
X129468126Y-85034874D01*
X129617638Y-85134775D01*
X129749482Y-85161000D01*
X129749483Y-85161000D01*
X129793999Y-85169855D01*
X129838516Y-85161000D01*
X133019317Y-85161000D01*
X133109915Y-85221535D01*
X133113879Y-85222324D01*
X133021684Y-85260512D01*
X132914508Y-85367689D01*
X132856504Y-85507723D01*
X132856504Y-85661258D01*
X132951754Y-85756508D01*
X133860504Y-85756508D01*
X133860504Y-85736508D01*
X134114504Y-85736508D01*
X134114504Y-85756508D01*
X135023254Y-85756508D01*
X135118504Y-85661258D01*
X135118504Y-85507723D01*
X135060500Y-85367689D01*
X134953324Y-85260512D01*
X134861129Y-85222324D01*
X134865093Y-85221535D01*
X134884783Y-85208379D01*
X134886282Y-85209000D01*
X135135718Y-85209000D01*
X135366167Y-85113545D01*
X135542545Y-84937167D01*
X135638000Y-84706718D01*
X135638000Y-84457282D01*
X135542545Y-84226833D01*
X135366167Y-84050455D01*
X135135718Y-83955000D01*
X134964828Y-83955000D01*
X135060500Y-83859327D01*
X135118504Y-83719293D01*
X135118504Y-83565758D01*
X135023254Y-83470508D01*
X134114504Y-83470508D01*
X134114504Y-83490508D01*
X133860504Y-83490508D01*
X133860504Y-83470508D01*
X133840504Y-83470508D01*
X133840504Y-83216508D01*
X133860504Y-83216508D01*
X133860504Y-83196508D01*
X134114504Y-83196508D01*
X134114504Y-83216508D01*
X135023254Y-83216508D01*
X135118504Y-83121258D01*
X135118504Y-82967723D01*
X135060500Y-82827689D01*
X134953324Y-82720512D01*
X134861129Y-82682324D01*
X134865093Y-82681535D01*
X134973258Y-82609262D01*
X135028791Y-82526151D01*
X135032022Y-82525508D01*
X135163866Y-82499283D01*
X135313378Y-82399382D01*
X135338597Y-82361639D01*
X135924134Y-81776103D01*
X135961874Y-81750886D01*
X136023364Y-81658860D01*
X136835001Y-80847223D01*
X136835000Y-95189776D01*
X135347869Y-96676907D01*
X135310126Y-96702126D01*
X135271046Y-96760613D01*
X135271046Y-96563344D01*
X135245667Y-96435755D01*
X135173394Y-96327590D01*
X135065229Y-96255317D01*
X134937640Y-96229938D01*
X133437640Y-96229938D01*
X133310051Y-96255317D01*
X133284694Y-96272260D01*
X133030730Y-96272260D01*
X133020667Y-96221671D01*
X132948394Y-96113506D01*
X132840229Y-96041233D01*
X132712640Y-96015854D01*
X131462640Y-96015854D01*
X131335051Y-96041233D01*
X131226886Y-96113506D01*
X131154613Y-96221671D01*
X131129234Y-96349260D01*
X131129234Y-96397260D01*
X130938972Y-96397260D01*
X130911167Y-96369455D01*
X130680718Y-96274000D01*
X130431282Y-96274000D01*
X130200833Y-96369455D01*
X130024455Y-96545833D01*
X129929000Y-96776282D01*
X129929000Y-97025718D01*
X130024455Y-97256167D01*
X130200833Y-97432545D01*
X130431282Y-97528000D01*
X130680718Y-97528000D01*
X130911167Y-97432545D01*
X131042452Y-97301260D01*
X131129234Y-97301260D01*
X131129234Y-97349260D01*
X131154613Y-97476849D01*
X131226886Y-97585014D01*
X131335051Y-97657287D01*
X131462640Y-97682666D01*
X132712640Y-97682666D01*
X132840229Y-97657287D01*
X132948394Y-97585014D01*
X133020667Y-97476849D01*
X133030730Y-97426260D01*
X133242537Y-97426260D01*
X133310051Y-97471371D01*
X133437640Y-97496750D01*
X134635010Y-97496750D01*
X134631822Y-97499938D01*
X133437640Y-97499938D01*
X133310051Y-97525317D01*
X133201886Y-97597590D01*
X133129613Y-97705755D01*
X133104234Y-97833344D01*
X133104234Y-98433344D01*
X133129613Y-98560933D01*
X133201886Y-98669098D01*
X133310051Y-98741371D01*
X133314015Y-98742160D01*
X133221820Y-98780348D01*
X133114644Y-98887525D01*
X133056640Y-99027559D01*
X133056640Y-99034510D01*
X132998390Y-98976260D01*
X132214640Y-98976260D01*
X132214640Y-99635010D01*
X132309890Y-99730260D01*
X132788425Y-99730260D01*
X132928459Y-99672256D01*
X133035636Y-99565080D01*
X133056640Y-99514372D01*
X133056640Y-99530346D01*
X133151888Y-99530346D01*
X133056640Y-99625594D01*
X133056640Y-99779129D01*
X133114644Y-99919163D01*
X133221820Y-100026340D01*
X133314015Y-100064528D01*
X133310051Y-100065317D01*
X133201886Y-100137590D01*
X133145924Y-100221344D01*
X129943568Y-100221344D01*
X128793734Y-99071510D01*
X131081640Y-99071510D01*
X131081640Y-99425046D01*
X131139644Y-99565080D01*
X131246821Y-99672256D01*
X131386855Y-99730260D01*
X131865390Y-99730260D01*
X131960640Y-99635010D01*
X131960640Y-98976260D01*
X131176890Y-98976260D01*
X131081640Y-99071510D01*
X128793734Y-99071510D01*
X127995698Y-98273474D01*
X131081640Y-98273474D01*
X131081640Y-98627010D01*
X131176890Y-98722260D01*
X131960640Y-98722260D01*
X131960640Y-98063510D01*
X132214640Y-98063510D01*
X132214640Y-98722260D01*
X132998390Y-98722260D01*
X133093640Y-98627010D01*
X133093640Y-98273474D01*
X133035636Y-98133440D01*
X132928459Y-98026264D01*
X132788425Y-97968260D01*
X132309890Y-97968260D01*
X132214640Y-98063510D01*
X131960640Y-98063510D01*
X131865390Y-97968260D01*
X131386855Y-97968260D01*
X131246821Y-98026264D01*
X131139644Y-98133440D01*
X131081640Y-98273474D01*
X127995698Y-98273474D01*
X127704383Y-97982159D01*
X127741526Y-97926571D01*
X127844477Y-97409000D01*
X127741526Y-96891429D01*
X127448346Y-96452654D01*
X127009571Y-96159474D01*
X126622646Y-96082510D01*
X126361354Y-96082510D01*
X125974429Y-96159474D01*
X125535654Y-96452654D01*
X125242474Y-96891429D01*
X125139523Y-97409000D01*
X125242474Y-97926571D01*
X125535654Y-98365346D01*
X125974429Y-98658526D01*
X126077359Y-98679000D01*
X125974429Y-98699474D01*
X125535654Y-98992654D01*
X125242474Y-99431429D01*
X125139523Y-99949000D01*
X125242474Y-100466571D01*
X125535654Y-100905346D01*
X125974429Y-101198526D01*
X126077359Y-101219000D01*
X125974429Y-101239474D01*
X125535654Y-101532654D01*
X125242474Y-101971429D01*
X125139523Y-102489000D01*
X125242474Y-103006571D01*
X125535654Y-103445346D01*
X125839710Y-103648510D01*
X125416725Y-103648510D01*
X125276691Y-103706514D01*
X125169514Y-103813690D01*
X125111510Y-103953724D01*
X125111510Y-104806750D01*
X125206760Y-104902000D01*
X126365000Y-104902000D01*
X126365000Y-104882000D01*
X126619000Y-104882000D01*
X126619000Y-104902000D01*
X127777240Y-104902000D01*
X127872490Y-104806750D01*
X127872490Y-104508715D01*
X128135252Y-104771477D01*
X128160470Y-104809218D01*
X128309982Y-104909119D01*
X128441826Y-104935344D01*
X128441827Y-104935344D01*
X128486343Y-104944199D01*
X128530860Y-104935344D01*
X133145924Y-104935344D01*
X133201886Y-105019098D01*
X133310051Y-105091371D01*
X133437640Y-105116750D01*
X134937640Y-105116750D01*
X135065229Y-105091371D01*
X135173394Y-105019098D01*
X135245667Y-104910933D01*
X135271046Y-104783344D01*
X135271046Y-104183344D01*
X135245667Y-104055755D01*
X135173394Y-103947590D01*
X135065229Y-103875317D01*
X134937640Y-103849938D01*
X133437640Y-103849938D01*
X133310051Y-103875317D01*
X133201886Y-103947590D01*
X133145924Y-104031344D01*
X128673569Y-104031344D01*
X127704383Y-103062159D01*
X127741526Y-103006571D01*
X127844477Y-102489000D01*
X127741526Y-101971429D01*
X127472341Y-101568565D01*
X129405251Y-103501475D01*
X129430470Y-103539218D01*
X129579982Y-103639119D01*
X129627195Y-103648510D01*
X129756344Y-103674199D01*
X129800862Y-103665344D01*
X133145924Y-103665344D01*
X133201886Y-103749098D01*
X133310051Y-103821371D01*
X133437640Y-103846750D01*
X134937640Y-103846750D01*
X135065229Y-103821371D01*
X135173394Y-103749098D01*
X135245667Y-103640933D01*
X135271046Y-103513344D01*
X135271046Y-102913344D01*
X135245667Y-102785755D01*
X135173394Y-102677590D01*
X135065229Y-102605317D01*
X135061265Y-102604528D01*
X135153460Y-102566340D01*
X135260636Y-102459163D01*
X135318640Y-102319129D01*
X135318640Y-102165594D01*
X138456640Y-102165594D01*
X138456640Y-102319129D01*
X138514644Y-102459163D01*
X138621820Y-102566340D01*
X138714015Y-102604528D01*
X138710051Y-102605317D01*
X138601886Y-102677590D01*
X138529613Y-102785755D01*
X138504234Y-102913344D01*
X138504234Y-103513344D01*
X138529613Y-103640933D01*
X138601886Y-103749098D01*
X138710051Y-103821371D01*
X138837640Y-103846750D01*
X139135641Y-103846750D01*
X139135640Y-103849938D01*
X138837640Y-103849938D01*
X138710051Y-103875317D01*
X138601886Y-103947590D01*
X138529613Y-104055755D01*
X138504234Y-104183344D01*
X138504234Y-104783344D01*
X138529613Y-104910933D01*
X138601886Y-105019098D01*
X138710051Y-105091371D01*
X138837640Y-105116750D01*
X140337640Y-105116750D01*
X140465229Y-105091371D01*
X140509751Y-105061622D01*
X140718286Y-105148000D01*
X140967722Y-105148000D01*
X141198171Y-105052545D01*
X141374549Y-104876167D01*
X141470004Y-104645718D01*
X141470004Y-104396282D01*
X141374549Y-104165833D01*
X141198171Y-103989455D01*
X140967722Y-103894000D01*
X140718286Y-103894000D01*
X140576757Y-103952623D01*
X140573394Y-103947590D01*
X140465229Y-103875317D01*
X140337640Y-103849938D01*
X140039640Y-103849938D01*
X140039640Y-103846750D01*
X140337640Y-103846750D01*
X140465229Y-103821371D01*
X140573394Y-103749098D01*
X140645667Y-103640933D01*
X140671046Y-103513344D01*
X140671046Y-102913344D01*
X140645667Y-102785755D01*
X140573394Y-102677590D01*
X140465229Y-102605317D01*
X140461265Y-102604528D01*
X140553460Y-102566340D01*
X140660636Y-102459163D01*
X140718640Y-102319129D01*
X140718640Y-102165594D01*
X140623390Y-102070344D01*
X139714640Y-102070344D01*
X139714640Y-102090344D01*
X139460640Y-102090344D01*
X139460640Y-102070344D01*
X138551890Y-102070344D01*
X138456640Y-102165594D01*
X135318640Y-102165594D01*
X135223390Y-102070344D01*
X134314640Y-102070344D01*
X134314640Y-102090344D01*
X134060640Y-102090344D01*
X134060640Y-102070344D01*
X133151890Y-102070344D01*
X133056640Y-102165594D01*
X133056640Y-102319129D01*
X133114644Y-102459163D01*
X133221820Y-102566340D01*
X133314015Y-102604528D01*
X133310051Y-102605317D01*
X133201886Y-102677590D01*
X133145924Y-102761344D01*
X129943568Y-102761344D01*
X127704383Y-100522159D01*
X127741526Y-100466571D01*
X127844477Y-99949000D01*
X127741526Y-99431429D01*
X127472341Y-99028565D01*
X129405251Y-100961475D01*
X129430470Y-100999218D01*
X129579982Y-101099119D01*
X129756344Y-101134199D01*
X129800862Y-101125344D01*
X133145924Y-101125344D01*
X133201886Y-101209098D01*
X133310051Y-101281371D01*
X133314015Y-101282160D01*
X133221820Y-101320348D01*
X133114644Y-101427525D01*
X133056640Y-101567559D01*
X133056640Y-101721094D01*
X133151890Y-101816344D01*
X134060640Y-101816344D01*
X134060640Y-101796344D01*
X134314640Y-101796344D01*
X134314640Y-101816344D01*
X135223390Y-101816344D01*
X135318640Y-101721094D01*
X135318640Y-101567559D01*
X135260636Y-101427525D01*
X135153460Y-101320348D01*
X135061265Y-101282160D01*
X135065229Y-101281371D01*
X135173394Y-101209098D01*
X135229356Y-101125344D01*
X135577012Y-101125344D01*
X135632473Y-101180805D01*
X135862922Y-101276260D01*
X136112358Y-101276260D01*
X136342807Y-101180805D01*
X136519185Y-101004427D01*
X136614640Y-100773978D01*
X136614640Y-100524542D01*
X136519185Y-100294093D01*
X136342807Y-100117715D01*
X136112358Y-100022260D01*
X135862922Y-100022260D01*
X135632473Y-100117715D01*
X135528844Y-100221344D01*
X135229356Y-100221344D01*
X135173394Y-100137590D01*
X135065229Y-100065317D01*
X135061265Y-100064528D01*
X135153460Y-100026340D01*
X135260636Y-99919163D01*
X135318640Y-99779129D01*
X135318640Y-99625594D01*
X135223390Y-99530344D01*
X134314640Y-99530344D01*
X134314640Y-99550344D01*
X134060640Y-99550344D01*
X134060640Y-99530344D01*
X134040640Y-99530344D01*
X134040640Y-99276344D01*
X134060640Y-99276344D01*
X134060640Y-99256344D01*
X134314640Y-99256344D01*
X134314640Y-99276344D01*
X135223390Y-99276344D01*
X135318640Y-99181094D01*
X135318640Y-99027559D01*
X135260636Y-98887525D01*
X135153460Y-98780348D01*
X135061265Y-98742160D01*
X135065229Y-98741371D01*
X135173394Y-98669098D01*
X135245667Y-98560933D01*
X135271046Y-98433344D01*
X135271046Y-98139162D01*
X135576864Y-97833344D01*
X138504234Y-97833344D01*
X138504234Y-98433344D01*
X138529613Y-98560933D01*
X138601886Y-98669098D01*
X138710051Y-98741371D01*
X138837640Y-98766750D01*
X140337640Y-98766750D01*
X140465229Y-98741371D01*
X140573394Y-98669098D01*
X140628927Y-98585987D01*
X140632158Y-98585344D01*
X140764002Y-98559119D01*
X140913514Y-98459218D01*
X140938733Y-98421475D01*
X141020209Y-98339999D01*
X141606364Y-98339999D01*
X141447000Y-98724739D01*
X141447000Y-98948309D01*
X141417742Y-98942489D01*
X141373224Y-98951344D01*
X140629356Y-98951344D01*
X140573394Y-98867590D01*
X140465229Y-98795317D01*
X140337640Y-98769938D01*
X138837640Y-98769938D01*
X138710051Y-98795317D01*
X138601886Y-98867590D01*
X138529613Y-98975755D01*
X138504234Y-99103344D01*
X138504234Y-99703344D01*
X138529613Y-99830933D01*
X138601886Y-99939098D01*
X138710051Y-100011371D01*
X138837640Y-100036750D01*
X140337640Y-100036750D01*
X140465229Y-100011371D01*
X140573394Y-99939098D01*
X140629356Y-99855344D01*
X141230518Y-99855344D01*
X145449875Y-104074702D01*
X145475092Y-104112442D01*
X145554997Y-104165833D01*
X145624604Y-104212343D01*
X145800966Y-104247423D01*
X145845484Y-104238568D01*
X151019235Y-104238568D01*
X151019235Y-104636568D01*
X151044614Y-104764157D01*
X151116887Y-104872322D01*
X151225052Y-104944595D01*
X151352641Y-104969974D01*
X153052641Y-104969974D01*
X153180230Y-104944595D01*
X153288395Y-104872322D01*
X153360668Y-104764157D01*
X153386047Y-104636568D01*
X153386047Y-103786568D01*
X153542583Y-103786568D01*
X153633932Y-104245810D01*
X153894072Y-104635137D01*
X154283399Y-104895277D01*
X154290642Y-104896718D01*
X154290641Y-106229004D01*
X154290642Y-106229009D01*
X154290642Y-106276418D01*
X154283399Y-106277859D01*
X153894072Y-106537999D01*
X153633932Y-106927326D01*
X153542583Y-107386568D01*
X153633932Y-107845810D01*
X153894072Y-108235137D01*
X154283399Y-108495277D01*
X154626721Y-108563568D01*
X154858561Y-108563568D01*
X155201883Y-108495277D01*
X155591210Y-108235137D01*
X155851350Y-107845810D01*
X155942699Y-107386568D01*
X155851350Y-106927326D01*
X155591210Y-106537999D01*
X155201883Y-106277859D01*
X155194641Y-106276418D01*
X155194641Y-104896718D01*
X155201883Y-104895277D01*
X155591210Y-104635137D01*
X155851350Y-104245810D01*
X155942699Y-103786568D01*
X155851350Y-103327326D01*
X155591210Y-102937999D01*
X155201883Y-102677859D01*
X154858561Y-102609568D01*
X154626721Y-102609568D01*
X154283399Y-102677859D01*
X153894072Y-102937999D01*
X153633932Y-103327326D01*
X153542583Y-103786568D01*
X153386047Y-103786568D01*
X153386047Y-102936568D01*
X153360668Y-102808979D01*
X153288395Y-102700814D01*
X153180230Y-102628541D01*
X153052641Y-102603162D01*
X151352641Y-102603162D01*
X151225052Y-102628541D01*
X151116887Y-102700814D01*
X151044614Y-102808979D01*
X151019235Y-102936568D01*
X151019235Y-103334568D01*
X145988191Y-103334568D01*
X145173623Y-102520000D01*
X145242261Y-102520000D01*
X145627078Y-102360604D01*
X145921604Y-102066078D01*
X146081000Y-101681261D01*
X146081000Y-101264739D01*
X145921604Y-100879922D01*
X145680250Y-100638568D01*
X151019235Y-100638568D01*
X151019235Y-101036568D01*
X151044614Y-101164157D01*
X151116887Y-101272322D01*
X151225052Y-101344595D01*
X151352641Y-101369974D01*
X153052641Y-101369974D01*
X153180230Y-101344595D01*
X153288395Y-101272322D01*
X153360668Y-101164157D01*
X153386047Y-101036568D01*
X153386047Y-99336568D01*
X153360668Y-99208979D01*
X153288395Y-99100814D01*
X153180230Y-99028541D01*
X153052641Y-99003162D01*
X151352641Y-99003162D01*
X151225052Y-99028541D01*
X151116887Y-99100814D01*
X151044614Y-99208979D01*
X151019235Y-99336568D01*
X151019235Y-99734568D01*
X145481394Y-99734568D01*
X143346694Y-97599868D01*
X143321475Y-97562125D01*
X143171963Y-97462224D01*
X143040119Y-97435999D01*
X142995601Y-97427144D01*
X142951083Y-97435999D01*
X140877501Y-97435999D01*
X140832984Y-97427144D01*
X140788468Y-97435999D01*
X140788467Y-97435999D01*
X140656623Y-97462224D01*
X140513714Y-97557713D01*
X140465229Y-97525317D01*
X140337640Y-97499938D01*
X138837640Y-97499938D01*
X138710051Y-97525317D01*
X138601886Y-97597590D01*
X138529613Y-97705755D01*
X138504234Y-97833344D01*
X135576864Y-97833344D01*
X135924134Y-97486075D01*
X135961874Y-97460858D01*
X136061775Y-97311346D01*
X136079130Y-97224094D01*
X136739880Y-96563344D01*
X138504234Y-96563344D01*
X138504234Y-97163344D01*
X138529613Y-97290933D01*
X138601886Y-97399098D01*
X138710051Y-97471371D01*
X138837640Y-97496750D01*
X140337640Y-97496750D01*
X140465229Y-97471371D01*
X140573394Y-97399098D01*
X140645667Y-97290933D01*
X140671046Y-97163344D01*
X140671046Y-97038568D01*
X151019235Y-97038568D01*
X151019235Y-97436568D01*
X151044614Y-97564157D01*
X151116887Y-97672322D01*
X151225052Y-97744595D01*
X151352641Y-97769974D01*
X153052641Y-97769974D01*
X153180230Y-97744595D01*
X153288395Y-97672322D01*
X153360668Y-97564157D01*
X153386047Y-97436568D01*
X153386047Y-96586568D01*
X153542583Y-96586568D01*
X153633932Y-97045810D01*
X153894072Y-97435137D01*
X154283399Y-97695277D01*
X154290642Y-97696718D01*
X154290641Y-99029004D01*
X154290642Y-99029009D01*
X154290642Y-99076418D01*
X154283399Y-99077859D01*
X153894072Y-99337999D01*
X153633932Y-99727326D01*
X153542583Y-100186568D01*
X153633932Y-100645810D01*
X153894072Y-101035137D01*
X154283399Y-101295277D01*
X154626721Y-101363568D01*
X154858561Y-101363568D01*
X155201883Y-101295277D01*
X155591210Y-101035137D01*
X155851350Y-100645810D01*
X155942699Y-100186568D01*
X155851350Y-99727326D01*
X155591210Y-99337999D01*
X155201883Y-99077859D01*
X155194641Y-99076418D01*
X155194641Y-97696718D01*
X155201883Y-97695277D01*
X155591210Y-97435137D01*
X155851350Y-97045810D01*
X155942699Y-96586568D01*
X155851350Y-96127326D01*
X155591210Y-95737999D01*
X155201883Y-95477859D01*
X154858561Y-95409568D01*
X154626721Y-95409568D01*
X154283399Y-95477859D01*
X153894072Y-95737999D01*
X153633932Y-96127326D01*
X153542583Y-96586568D01*
X153386047Y-96586568D01*
X153386047Y-95736568D01*
X153360668Y-95608979D01*
X153288395Y-95500814D01*
X153180230Y-95428541D01*
X153052641Y-95403162D01*
X151352641Y-95403162D01*
X151225052Y-95428541D01*
X151116887Y-95500814D01*
X151044614Y-95608979D01*
X151019235Y-95736568D01*
X151019235Y-96134568D01*
X139908932Y-96134568D01*
X139864415Y-96125713D01*
X139819899Y-96134568D01*
X139819898Y-96134568D01*
X139688054Y-96160793D01*
X139584571Y-96229938D01*
X138837640Y-96229938D01*
X138710051Y-96255317D01*
X138601886Y-96327590D01*
X138529613Y-96435755D01*
X138504234Y-96563344D01*
X136739880Y-96563344D01*
X137575131Y-95728093D01*
X137612874Y-95702874D01*
X137712775Y-95553362D01*
X137739000Y-95421518D01*
X137739000Y-95421517D01*
X137747855Y-95377000D01*
X137739000Y-95332482D01*
X137739000Y-92142379D01*
X137869320Y-92142379D01*
X137869320Y-92769621D01*
X138109355Y-93349117D01*
X138552883Y-93792645D01*
X139132379Y-94032680D01*
X139759621Y-94032680D01*
X140339117Y-93792645D01*
X140782645Y-93349117D01*
X141022680Y-92769621D01*
X141022680Y-92142379D01*
X140782645Y-91562883D01*
X140339117Y-91119355D01*
X139898000Y-90936638D01*
X139898000Y-90326914D01*
X140137504Y-90326914D01*
X140265093Y-90301535D01*
X140373258Y-90229262D01*
X140429220Y-90145508D01*
X141020974Y-90145508D01*
X141065492Y-90154363D01*
X141110010Y-90145508D01*
X141241854Y-90119283D01*
X141391366Y-90019382D01*
X141416585Y-89981639D01*
X142398661Y-88999564D01*
X142539739Y-89058000D01*
X142956261Y-89058000D01*
X143341078Y-88898604D01*
X143635604Y-88604078D01*
X143795000Y-88219261D01*
X143795000Y-87802739D01*
X143635604Y-87417922D01*
X143341078Y-87123396D01*
X143202511Y-87066000D01*
X148234063Y-87066000D01*
X151512601Y-90344539D01*
X151385232Y-90344539D01*
X151257643Y-90369918D01*
X151149478Y-90442191D01*
X151077205Y-90550356D01*
X151051826Y-90677945D01*
X151051826Y-92377945D01*
X151077205Y-92505534D01*
X151149478Y-92613699D01*
X151257643Y-92685972D01*
X151385232Y-92711351D01*
X153085232Y-92711351D01*
X153212821Y-92685972D01*
X153320986Y-92613699D01*
X153393259Y-92505534D01*
X153418638Y-92377945D01*
X153418638Y-90677945D01*
X153393259Y-90550356D01*
X153320986Y-90442191D01*
X153212821Y-90369918D01*
X153085232Y-90344539D01*
X152679497Y-90344539D01*
X152661007Y-90251583D01*
X152586323Y-90139811D01*
X152561106Y-90102071D01*
X152523366Y-90076854D01*
X151557863Y-89111351D01*
X153085232Y-89111351D01*
X153212821Y-89085972D01*
X153320986Y-89013699D01*
X153393259Y-88905534D01*
X153418638Y-88777945D01*
X153418638Y-87927945D01*
X153575174Y-87927945D01*
X153666523Y-88387187D01*
X153926663Y-88776514D01*
X154315990Y-89036654D01*
X154323233Y-89038095D01*
X154323232Y-90370381D01*
X154323233Y-90370386D01*
X154323233Y-90417795D01*
X154315990Y-90419236D01*
X153926663Y-90679376D01*
X153666523Y-91068703D01*
X153575174Y-91527945D01*
X153666523Y-91987187D01*
X153926663Y-92376514D01*
X154315990Y-92636654D01*
X154659312Y-92704945D01*
X154891152Y-92704945D01*
X155234474Y-92636654D01*
X155623801Y-92376514D01*
X155883941Y-91987187D01*
X155975290Y-91527945D01*
X155883941Y-91068703D01*
X155623801Y-90679376D01*
X155234474Y-90419236D01*
X155227232Y-90417795D01*
X155227232Y-89038095D01*
X155234474Y-89036654D01*
X155623801Y-88776514D01*
X155883941Y-88387187D01*
X155975290Y-87927945D01*
X155883941Y-87468703D01*
X155623801Y-87079376D01*
X155234474Y-86819236D01*
X154891152Y-86750945D01*
X154659312Y-86750945D01*
X154315990Y-86819236D01*
X153926663Y-87079376D01*
X153666523Y-87468703D01*
X153575174Y-87927945D01*
X153418638Y-87927945D01*
X153418638Y-87077945D01*
X153393259Y-86950356D01*
X153320986Y-86842191D01*
X153212821Y-86769918D01*
X153085232Y-86744539D01*
X151645764Y-86744539D01*
X148687093Y-83785869D01*
X148661874Y-83748126D01*
X148512362Y-83648225D01*
X148380518Y-83622000D01*
X148336000Y-83613145D01*
X148291482Y-83622000D01*
X143537682Y-83622000D01*
X143635604Y-83524078D01*
X143795000Y-83139261D01*
X143795000Y-82722739D01*
X143635604Y-82337922D01*
X143537682Y-82240000D01*
X148408063Y-82240000D01*
X150784141Y-84616079D01*
X150809358Y-84653819D01*
X150891942Y-84709000D01*
X150958870Y-84753720D01*
X151051826Y-84772210D01*
X151051826Y-85177945D01*
X151077205Y-85305534D01*
X151149478Y-85413699D01*
X151257643Y-85485972D01*
X151385232Y-85511351D01*
X153085232Y-85511351D01*
X153212821Y-85485972D01*
X153320986Y-85413699D01*
X153393259Y-85305534D01*
X153418638Y-85177945D01*
X153418638Y-83477945D01*
X153393259Y-83350356D01*
X153320986Y-83242191D01*
X153212821Y-83169918D01*
X153085232Y-83144539D01*
X151385232Y-83144539D01*
X151257643Y-83169918D01*
X151149478Y-83242191D01*
X151077205Y-83350356D01*
X151051826Y-83477945D01*
X151051826Y-83605314D01*
X148946380Y-81499869D01*
X148921161Y-81462126D01*
X148771649Y-81362225D01*
X148639805Y-81336000D01*
X148595287Y-81327145D01*
X148550769Y-81336000D01*
X140375438Y-81336000D01*
X140429220Y-81255508D01*
X151051826Y-81255508D01*
X151051826Y-81577945D01*
X151077205Y-81705534D01*
X151149478Y-81813699D01*
X151257643Y-81885972D01*
X151385232Y-81911351D01*
X153085232Y-81911351D01*
X153212821Y-81885972D01*
X153320986Y-81813699D01*
X153393259Y-81705534D01*
X153418638Y-81577945D01*
X153418638Y-80727945D01*
X153575174Y-80727945D01*
X153666523Y-81187187D01*
X153926663Y-81576514D01*
X154315990Y-81836654D01*
X154323233Y-81838095D01*
X154323233Y-81885504D01*
X154323232Y-81885509D01*
X154323233Y-83217795D01*
X154315990Y-83219236D01*
X153926663Y-83479376D01*
X153666523Y-83868703D01*
X153575174Y-84327945D01*
X153666523Y-84787187D01*
X153926663Y-85176514D01*
X154315990Y-85436654D01*
X154659312Y-85504945D01*
X154891152Y-85504945D01*
X155234474Y-85436654D01*
X155623801Y-85176514D01*
X155883941Y-84787187D01*
X155975290Y-84327945D01*
X155883941Y-83868703D01*
X155623801Y-83479376D01*
X155234474Y-83219236D01*
X155227232Y-83217795D01*
X155227232Y-81838095D01*
X155234474Y-81836654D01*
X155623801Y-81576514D01*
X155883941Y-81187187D01*
X155975290Y-80727945D01*
X155883941Y-80268703D01*
X155623801Y-79879376D01*
X155234474Y-79619236D01*
X154891152Y-79550945D01*
X154659312Y-79550945D01*
X154315990Y-79619236D01*
X153926663Y-79879376D01*
X153666523Y-80268703D01*
X153575174Y-80727945D01*
X153418638Y-80727945D01*
X153418638Y-79877945D01*
X153393259Y-79750356D01*
X153320986Y-79642191D01*
X153212821Y-79569918D01*
X153085232Y-79544539D01*
X151385232Y-79544539D01*
X151257643Y-79569918D01*
X151149478Y-79642191D01*
X151077205Y-79750356D01*
X151051826Y-79877945D01*
X151051826Y-80351508D01*
X140429220Y-80351508D01*
X140373258Y-80267754D01*
X140265093Y-80195481D01*
X140137504Y-80170102D01*
X138637504Y-80170102D01*
X138509915Y-80195481D01*
X138401750Y-80267754D01*
X138329477Y-80375919D01*
X138304098Y-80503508D01*
X138304098Y-81103508D01*
X138329477Y-81231097D01*
X138401750Y-81339262D01*
X138509915Y-81411535D01*
X138637504Y-81436914D01*
X139834870Y-81436914D01*
X139830099Y-81440102D01*
X138637504Y-81440102D01*
X138509915Y-81465481D01*
X138401750Y-81537754D01*
X138329477Y-81645919D01*
X138304098Y-81773508D01*
X138304098Y-82373508D01*
X138329477Y-82501097D01*
X138401750Y-82609262D01*
X138509915Y-82681535D01*
X138637504Y-82706914D01*
X140137504Y-82706914D01*
X140265093Y-82681535D01*
X140373258Y-82609262D01*
X140445531Y-82501097D01*
X140470910Y-82373508D01*
X140470910Y-82240000D01*
X141958318Y-82240000D01*
X141860396Y-82337922D01*
X141701000Y-82722739D01*
X141701000Y-83012701D01*
X141558870Y-82917733D01*
X141427026Y-82891508D01*
X141382508Y-82882653D01*
X141337990Y-82891508D01*
X140429220Y-82891508D01*
X140373258Y-82807754D01*
X140265093Y-82735481D01*
X140137504Y-82710102D01*
X138637504Y-82710102D01*
X138509915Y-82735481D01*
X138401750Y-82807754D01*
X138329477Y-82915919D01*
X138304098Y-83043508D01*
X138304098Y-83643508D01*
X138329477Y-83771097D01*
X138401750Y-83879262D01*
X138509915Y-83951535D01*
X138637504Y-83976914D01*
X140137504Y-83976914D01*
X140265093Y-83951535D01*
X140373258Y-83879262D01*
X140429220Y-83795508D01*
X141195284Y-83795508D01*
X141761908Y-84362133D01*
X141787126Y-84399874D01*
X141842909Y-84437147D01*
X141936638Y-84499775D01*
X142113000Y-84534855D01*
X142157518Y-84526000D01*
X144833489Y-84526000D01*
X144694922Y-84583396D01*
X144400396Y-84877922D01*
X144241000Y-85262739D01*
X144241000Y-85679261D01*
X144400396Y-86064078D01*
X144498318Y-86162000D01*
X143084827Y-86162000D01*
X141248203Y-84325377D01*
X141222984Y-84287634D01*
X141073472Y-84187733D01*
X140941628Y-84161508D01*
X140897110Y-84152653D01*
X140852592Y-84161508D01*
X140429220Y-84161508D01*
X140373258Y-84077754D01*
X140265093Y-84005481D01*
X140137504Y-83980102D01*
X138637504Y-83980102D01*
X138509915Y-84005481D01*
X138401750Y-84077754D01*
X138329477Y-84185919D01*
X138304098Y-84313508D01*
X138304098Y-84913508D01*
X138329477Y-85041097D01*
X138401750Y-85149262D01*
X138509915Y-85221535D01*
X138513879Y-85222324D01*
X138421684Y-85260512D01*
X138314508Y-85367689D01*
X138256504Y-85507723D01*
X138256504Y-85661258D01*
X138351754Y-85756508D01*
X139260504Y-85756508D01*
X139260504Y-85736508D01*
X139514504Y-85736508D01*
X139514504Y-85756508D01*
X140423254Y-85756508D01*
X140518504Y-85661258D01*
X140518504Y-85507723D01*
X140460500Y-85367689D01*
X140353324Y-85260512D01*
X140261129Y-85222324D01*
X140265093Y-85221535D01*
X140373258Y-85149262D01*
X140429220Y-85065508D01*
X140709886Y-85065508D01*
X142546510Y-86902133D01*
X142571728Y-86939874D01*
X142607835Y-86964000D01*
X142539739Y-86964000D01*
X142154922Y-87123396D01*
X141860396Y-87417922D01*
X141701000Y-87802739D01*
X141701000Y-88219261D01*
X141759436Y-88360339D01*
X140878268Y-89241508D01*
X140429220Y-89241508D01*
X140373258Y-89157754D01*
X140265093Y-89085481D01*
X140137504Y-89060102D01*
X138637504Y-89060102D01*
X138509915Y-89085481D01*
X138401750Y-89157754D01*
X138329477Y-89265919D01*
X138304098Y-89393508D01*
X138304098Y-89993508D01*
X138329477Y-90121097D01*
X138401750Y-90229262D01*
X138509915Y-90301535D01*
X138637504Y-90326914D01*
X138994001Y-90326914D01*
X138994001Y-90936638D01*
X138552883Y-91119355D01*
X138109355Y-91562883D01*
X137869320Y-92142379D01*
X137739000Y-92142379D01*
X137739000Y-86105758D01*
X138256504Y-86105758D01*
X138256504Y-86259293D01*
X138314508Y-86399327D01*
X138421684Y-86506504D01*
X138513879Y-86544692D01*
X138509915Y-86545481D01*
X138401750Y-86617754D01*
X138329477Y-86725919D01*
X138304098Y-86853508D01*
X138304098Y-87453508D01*
X138329477Y-87581097D01*
X138401750Y-87689262D01*
X138509915Y-87761535D01*
X138637504Y-87786914D01*
X138935504Y-87786914D01*
X138935504Y-87790102D01*
X138637504Y-87790102D01*
X138509915Y-87815481D01*
X138401750Y-87887754D01*
X138329477Y-87995919D01*
X138304098Y-88123508D01*
X138304098Y-88723508D01*
X138329477Y-88851097D01*
X138401750Y-88959262D01*
X138509915Y-89031535D01*
X138637504Y-89056914D01*
X140137504Y-89056914D01*
X140265093Y-89031535D01*
X140373258Y-88959262D01*
X140389246Y-88935334D01*
X140591282Y-89019020D01*
X140840718Y-89019020D01*
X141071167Y-88923565D01*
X141247545Y-88747187D01*
X141343000Y-88516738D01*
X141343000Y-88267302D01*
X141247545Y-88036853D01*
X141071167Y-87860475D01*
X140840718Y-87765020D01*
X140591282Y-87765020D01*
X140360833Y-87860475D01*
X140349457Y-87871851D01*
X140265093Y-87815481D01*
X140137504Y-87790102D01*
X139839504Y-87790102D01*
X139839504Y-87786914D01*
X140137504Y-87786914D01*
X140265093Y-87761535D01*
X140373258Y-87689262D01*
X140445531Y-87581097D01*
X140470910Y-87453508D01*
X140470910Y-86853508D01*
X140445531Y-86725919D01*
X140373258Y-86617754D01*
X140265093Y-86545481D01*
X140261129Y-86544692D01*
X140353324Y-86506504D01*
X140460500Y-86399327D01*
X140518504Y-86259293D01*
X140518504Y-86105758D01*
X140423254Y-86010508D01*
X139514504Y-86010508D01*
X139514504Y-86030508D01*
X139260504Y-86030508D01*
X139260504Y-86010508D01*
X138351754Y-86010508D01*
X138256504Y-86105758D01*
X137739000Y-86105758D01*
X137739000Y-80705224D01*
X140141224Y-78303000D01*
X168353482Y-78303000D01*
X168398000Y-78311855D01*
X168442518Y-78303000D01*
X168574362Y-78276775D01*
X168723874Y-78176874D01*
X168749093Y-78139131D01*
X169706134Y-77182091D01*
X169743874Y-77156874D01*
X169843775Y-77007362D01*
X169870000Y-76875518D01*
X169870000Y-76875517D01*
X169877063Y-76840011D01*
X169882549Y-76838920D01*
X170276375Y-76575775D01*
X170539520Y-76181948D01*
X170608600Y-75834661D01*
X170608600Y-75295339D01*
X170767400Y-75295339D01*
X170767400Y-75834662D01*
X170836480Y-76181949D01*
X171099626Y-76575775D01*
X171493452Y-76838920D01*
X171958000Y-76931325D01*
X172422549Y-76838920D01*
X172816375Y-76575775D01*
X173079520Y-76181948D01*
X173148600Y-75834661D01*
X173148600Y-75295339D01*
X173307400Y-75295339D01*
X173307400Y-75834662D01*
X173376480Y-76181949D01*
X173639626Y-76575775D01*
X174033452Y-76838920D01*
X174498000Y-76931325D01*
X174962549Y-76838920D01*
X175356375Y-76575775D01*
X175619520Y-76181948D01*
X175688600Y-75834661D01*
X175688600Y-75295338D01*
X175619520Y-74948051D01*
X175356375Y-74554225D01*
X174962548Y-74291080D01*
X174498000Y-74198675D01*
X174033451Y-74291080D01*
X173639625Y-74554225D01*
X173376480Y-74948052D01*
X173307400Y-75295339D01*
X173148600Y-75295339D01*
X173148600Y-75295338D01*
X173079520Y-74948051D01*
X172816375Y-74554225D01*
X172422548Y-74291080D01*
X171958000Y-74198675D01*
X171493451Y-74291080D01*
X171099625Y-74554225D01*
X170836480Y-74948052D01*
X170767400Y-75295339D01*
X170608600Y-75295339D01*
X170608600Y-75295338D01*
X170539520Y-74948051D01*
X170276375Y-74554225D01*
X169882548Y-74291080D01*
X169418000Y-74198675D01*
X168953451Y-74291080D01*
X168559625Y-74554225D01*
X168296480Y-74948052D01*
X168227400Y-75295339D01*
X168227400Y-75834662D01*
X168296480Y-76181949D01*
X168559626Y-76575775D01*
X168843993Y-76765782D01*
X168210776Y-77399000D01*
X163295624Y-77399000D01*
X163862813Y-76831811D01*
X163873452Y-76838920D01*
X164338000Y-76931325D01*
X164802549Y-76838920D01*
X165196375Y-76575775D01*
X165459520Y-76181948D01*
X165528600Y-75834661D01*
X165528600Y-75295339D01*
X165687400Y-75295339D01*
X165687400Y-75834662D01*
X165756480Y-76181949D01*
X166019626Y-76575775D01*
X166413452Y-76838920D01*
X166878000Y-76931325D01*
X167342549Y-76838920D01*
X167736375Y-76575775D01*
X167999520Y-76181948D01*
X168068600Y-75834661D01*
X168068600Y-75295338D01*
X167999520Y-74948051D01*
X167736375Y-74554225D01*
X167342548Y-74291080D01*
X166878000Y-74198675D01*
X166413451Y-74291080D01*
X166019625Y-74554225D01*
X165756480Y-74948052D01*
X165687400Y-75295339D01*
X165528600Y-75295339D01*
X165528600Y-75295338D01*
X165459520Y-74948051D01*
X165196375Y-74554225D01*
X164802548Y-74291080D01*
X164338000Y-74198675D01*
X163873451Y-74291080D01*
X163479625Y-74554225D01*
X163216480Y-74948052D01*
X163147400Y-75295339D01*
X163147400Y-75834662D01*
X163216480Y-76181949D01*
X163223588Y-76192588D01*
X162525176Y-76891000D01*
X162000726Y-76891000D01*
X162262549Y-76838920D01*
X162656375Y-76575775D01*
X162919520Y-76181948D01*
X162988600Y-75834661D01*
X162988600Y-75295338D01*
X162919520Y-74948051D01*
X162656375Y-74554225D01*
X162262548Y-74291080D01*
X161798000Y-74198675D01*
X161333451Y-74291080D01*
X160939625Y-74554225D01*
X160676480Y-74948052D01*
X160607400Y-75295339D01*
X160607400Y-75834662D01*
X160676480Y-76181949D01*
X160939626Y-76575775D01*
X161333452Y-76838920D01*
X161595274Y-76891000D01*
X159460726Y-76891000D01*
X159722549Y-76838920D01*
X160116375Y-76575775D01*
X160379520Y-76181948D01*
X160448600Y-75834661D01*
X160448600Y-75295338D01*
X160379520Y-74948051D01*
X160116375Y-74554225D01*
X159722548Y-74291080D01*
X159258000Y-74198675D01*
X158793451Y-74291080D01*
X158399625Y-74554225D01*
X158136480Y-74948052D01*
X158067400Y-75295339D01*
X158067400Y-75834662D01*
X158136480Y-76181949D01*
X158399626Y-76575775D01*
X158793452Y-76838920D01*
X159055274Y-76891000D01*
X156920726Y-76891000D01*
X157182549Y-76838920D01*
X157576375Y-76575775D01*
X157839520Y-76181948D01*
X157908600Y-75834661D01*
X157908600Y-75295338D01*
X157839520Y-74948051D01*
X157576375Y-74554225D01*
X157182548Y-74291080D01*
X156718000Y-74198675D01*
X156253451Y-74291080D01*
X155859625Y-74554225D01*
X155596480Y-74948052D01*
X155527400Y-75295339D01*
X155527400Y-75834662D01*
X155596480Y-76181949D01*
X155859626Y-76575775D01*
X156253452Y-76838920D01*
X156515274Y-76891000D01*
X152856726Y-76891000D01*
X153118549Y-76838920D01*
X153512375Y-76575775D01*
X153775520Y-76181948D01*
X153844600Y-75834661D01*
X153844600Y-75295338D01*
X153775520Y-74948051D01*
X153512375Y-74554225D01*
X153118548Y-74291080D01*
X152654000Y-74198675D01*
X152189451Y-74291080D01*
X151795625Y-74554225D01*
X151532480Y-74948052D01*
X151463400Y-75295339D01*
X151463400Y-75834662D01*
X151532480Y-76181949D01*
X151795626Y-76575775D01*
X152189452Y-76838920D01*
X152451274Y-76891000D01*
X150316726Y-76891000D01*
X150578549Y-76838920D01*
X150972375Y-76575775D01*
X151235520Y-76181948D01*
X151304600Y-75834661D01*
X151304600Y-75295338D01*
X151235520Y-74948051D01*
X150972375Y-74554225D01*
X150578548Y-74291080D01*
X150114000Y-74198675D01*
X149649451Y-74291080D01*
X149255625Y-74554225D01*
X148992480Y-74948052D01*
X148923400Y-75295339D01*
X148923400Y-75834662D01*
X148992480Y-76181949D01*
X149255626Y-76575775D01*
X149649452Y-76838920D01*
X149911274Y-76891000D01*
X147776726Y-76891000D01*
X148038549Y-76838920D01*
X148432375Y-76575775D01*
X148695520Y-76181948D01*
X148764600Y-75834661D01*
X148764600Y-75295338D01*
X148695520Y-74948051D01*
X148432375Y-74554225D01*
X148038548Y-74291080D01*
X147574000Y-74198675D01*
X147109451Y-74291080D01*
X146715625Y-74554225D01*
X146452480Y-74948052D01*
X146383400Y-75295339D01*
X146383400Y-75834662D01*
X146452480Y-76181949D01*
X146715626Y-76575775D01*
X147109452Y-76838920D01*
X147371274Y-76891000D01*
X145236726Y-76891000D01*
X145498549Y-76838920D01*
X145892375Y-76575775D01*
X146155520Y-76181948D01*
X146224600Y-75834661D01*
X146224600Y-75295338D01*
X146155520Y-74948051D01*
X145892375Y-74554225D01*
X145498548Y-74291080D01*
X145034000Y-74198675D01*
X144569451Y-74291080D01*
X144175625Y-74554225D01*
X143912480Y-74948052D01*
X143843400Y-75295339D01*
X143843400Y-75834662D01*
X143912480Y-76181949D01*
X144175626Y-76575775D01*
X144569452Y-76838920D01*
X144831274Y-76891000D01*
X142696726Y-76891000D01*
X142958549Y-76838920D01*
X143352375Y-76575775D01*
X143615520Y-76181948D01*
X143684600Y-75834661D01*
X143684600Y-75295338D01*
X143615520Y-74948051D01*
X143352375Y-74554225D01*
X142958548Y-74291080D01*
X142494000Y-74198675D01*
X142029451Y-74291080D01*
X141635625Y-74554225D01*
X141372480Y-74948052D01*
X141303400Y-75295339D01*
X141303400Y-75834662D01*
X141372480Y-76181949D01*
X141635626Y-76575775D01*
X142029452Y-76838920D01*
X142291274Y-76891000D01*
X140156726Y-76891000D01*
X140418549Y-76838920D01*
X140812375Y-76575775D01*
X141075520Y-76181948D01*
X141144600Y-75834661D01*
X141144600Y-75295338D01*
X141075520Y-74948051D01*
X140812375Y-74554225D01*
X140418548Y-74291080D01*
X139954000Y-74198675D01*
X139489451Y-74291080D01*
X139095625Y-74554225D01*
X138832480Y-74948052D01*
X138763400Y-75295339D01*
X138763400Y-75834662D01*
X138832480Y-76181949D01*
X139095626Y-76575775D01*
X139489452Y-76838920D01*
X139751274Y-76891000D01*
X139744518Y-76891000D01*
X139700000Y-76882145D01*
X139655482Y-76891000D01*
X139523638Y-76917225D01*
X139374126Y-77017126D01*
X139348909Y-77054866D01*
X135347869Y-81055907D01*
X135310126Y-81081126D01*
X135248638Y-81173149D01*
X134919772Y-81502016D01*
X134865093Y-81465481D01*
X134737504Y-81440102D01*
X133237504Y-81440102D01*
X133109915Y-81465481D01*
X133001750Y-81537754D01*
X132929477Y-81645919D01*
X132904098Y-81773508D01*
X132904098Y-82247064D01*
X132848681Y-82113276D01*
X132741504Y-82006100D01*
X132601470Y-81948096D01*
X132122935Y-81948096D01*
X132027685Y-82043346D01*
X132027685Y-82702096D01*
X132811435Y-82702096D01*
X132906685Y-82606846D01*
X132906685Y-82386514D01*
X132929477Y-82501097D01*
X133001750Y-82609262D01*
X133109915Y-82681535D01*
X133113879Y-82682324D01*
X133021684Y-82720512D01*
X132914508Y-82827689D01*
X132856504Y-82967723D01*
X132856504Y-83001165D01*
X132811435Y-82956096D01*
X132027685Y-82956096D01*
X132027685Y-83614846D01*
X132122935Y-83710096D01*
X132601470Y-83710096D01*
X132741504Y-83652092D01*
X132848681Y-83544916D01*
X132879501Y-83470510D01*
X132951752Y-83470510D01*
X132856504Y-83565758D01*
X132856504Y-83719293D01*
X132914508Y-83859327D01*
X133021684Y-83966504D01*
X133113879Y-84004692D01*
X133109915Y-84005481D01*
X133001750Y-84077754D01*
X132929477Y-84185919D01*
X132915338Y-84257000D01*
X129981225Y-84257000D01*
X128775571Y-83051346D01*
X130894685Y-83051346D01*
X130894685Y-83404882D01*
X130952689Y-83544916D01*
X131059866Y-83652092D01*
X131199900Y-83710096D01*
X131678435Y-83710096D01*
X131773685Y-83614846D01*
X131773685Y-82956096D01*
X130989935Y-82956096D01*
X130894685Y-83051346D01*
X128775571Y-83051346D01*
X127977535Y-82253310D01*
X130894685Y-82253310D01*
X130894685Y-82606846D01*
X130989935Y-82702096D01*
X131773685Y-82702096D01*
X131773685Y-82043346D01*
X131678435Y-81948096D01*
X131199900Y-81948096D01*
X131059866Y-82006100D01*
X130952689Y-82113276D01*
X130894685Y-82253310D01*
X127977535Y-82253310D01*
X127842582Y-82118358D01*
X127842580Y-82118355D01*
X127704384Y-81980159D01*
X127741526Y-81924571D01*
X127844477Y-81407000D01*
X127741526Y-80889429D01*
X127664588Y-80774282D01*
X129929000Y-80774282D01*
X129929000Y-81023718D01*
X130024455Y-81254167D01*
X130200833Y-81430545D01*
X130431282Y-81526000D01*
X130680718Y-81526000D01*
X130911167Y-81430545D01*
X130953949Y-81387763D01*
X130967658Y-81456685D01*
X131039931Y-81564850D01*
X131148096Y-81637123D01*
X131275685Y-81662502D01*
X132525685Y-81662502D01*
X132653274Y-81637123D01*
X132761439Y-81564850D01*
X132833712Y-81456685D01*
X132859091Y-81329096D01*
X132859091Y-81255508D01*
X132945788Y-81255508D01*
X133001750Y-81339262D01*
X133109915Y-81411535D01*
X133237504Y-81436914D01*
X134737504Y-81436914D01*
X134865093Y-81411535D01*
X134973258Y-81339262D01*
X135045531Y-81231097D01*
X135070910Y-81103508D01*
X135070910Y-80503508D01*
X135045531Y-80375919D01*
X134973258Y-80267754D01*
X134865093Y-80195481D01*
X134737504Y-80170102D01*
X133237504Y-80170102D01*
X133109915Y-80195481D01*
X133001750Y-80267754D01*
X132945788Y-80351508D01*
X132859091Y-80351508D01*
X132859091Y-80329096D01*
X132833712Y-80201507D01*
X132761439Y-80093342D01*
X132653274Y-80021069D01*
X132525685Y-79995690D01*
X131275685Y-79995690D01*
X131148096Y-80021069D01*
X131039931Y-80093342D01*
X130967658Y-80201507D01*
X130942279Y-80329096D01*
X130942279Y-80377096D01*
X130920808Y-80377096D01*
X130911167Y-80367455D01*
X130680718Y-80272000D01*
X130431282Y-80272000D01*
X130200833Y-80367455D01*
X130024455Y-80543833D01*
X129929000Y-80774282D01*
X127664588Y-80774282D01*
X127448346Y-80450654D01*
X127009571Y-80157474D01*
X126622646Y-80080510D01*
X126361354Y-80080510D01*
X125974429Y-80157474D01*
X125535654Y-80450654D01*
X125242474Y-80889429D01*
X125139523Y-81407000D01*
X125242474Y-81924571D01*
X125535654Y-82363346D01*
X125974429Y-82656526D01*
X126077359Y-82677000D01*
X125974429Y-82697474D01*
X125535654Y-82990654D01*
X125242474Y-83429429D01*
X125139523Y-83947000D01*
X125242474Y-84464571D01*
X125535654Y-84903346D01*
X125974429Y-85196526D01*
X126077359Y-85217000D01*
X125974429Y-85237474D01*
X125535654Y-85530654D01*
X125242474Y-85969429D01*
X125139523Y-86487000D01*
X125242474Y-87004571D01*
X125535654Y-87443346D01*
X125839710Y-87646510D01*
X125416725Y-87646510D01*
X125276691Y-87704514D01*
X125169514Y-87811690D01*
X125111510Y-87951724D01*
X111327000Y-87951724D01*
X111327000Y-73354000D01*
X125411462Y-73354000D01*
X124901734Y-73565136D01*
G36*
X151051826Y-87429051D02*
X151051826Y-88605314D01*
X148772380Y-86325869D01*
X148747161Y-86288126D01*
X148597649Y-86188225D01*
X148465805Y-86162000D01*
X148421287Y-86153145D01*
X148376769Y-86162000D01*
X146077682Y-86162000D01*
X146175604Y-86064078D01*
X146335000Y-85679261D01*
X146335000Y-85262739D01*
X146175604Y-84877922D01*
X145881078Y-84583396D01*
X145742511Y-84526000D01*
X148148776Y-84526000D01*
X151051826Y-87429051D01*
X151051826Y-87429051D01*
G37*
X151051826Y-87429051D02*
X151051826Y-88605314D01*
X148772380Y-86325869D01*
X148747161Y-86288126D01*
X148597649Y-86188225D01*
X148465805Y-86162000D01*
X148421287Y-86153145D01*
X148376769Y-86162000D01*
X146077682Y-86162000D01*
X146175604Y-86064078D01*
X146335000Y-85679261D01*
X146335000Y-85262739D01*
X146175604Y-84877922D01*
X145881078Y-84583396D01*
X145742511Y-84526000D01*
X148148776Y-84526000D01*
X151051826Y-87429051D01*
G04 #@! TD*
M02*
