G04 #@! TF.GenerationSoftware,KiCad,Pcbnew,(5.0.0-rc3-dev-14-g1a2291879)*
G04 #@! TF.CreationDate,2019-01-08T02:03:16-05:00*
G04 #@! TF.ProjectId,LoadCellShield,4C6F616443656C6C536869656C642E6B,rev?*
G04 #@! TF.SameCoordinates,Original*
G04 #@! TF.FileFunction,Soldermask,Top*
G04 #@! TF.FilePolarity,Negative*
%FSLAX46Y46*%
G04 Gerber Fmt 4.6, Leading zero omitted, Abs format (unit mm)*
G04 Created by KiCad (PCBNEW (5.0.0-rc3-dev-14-g1a2291879)) date 01/08/19 02:03:16*
%MOMM*%
%LPD*%
G01*
G04 APERTURE LIST*
%ADD10R,1.500000X0.600000*%
%ADD11C,2.499360*%
%ADD12R,3.500000X3.500000*%
%ADD13O,1.998980X1.998980*%
%ADD14R,1.998980X1.998980*%
%ADD15O,1.727200X2.032000*%
%ADD16C,4.064000*%
%ADD17R,1.250000X1.000000*%
%ADD18C,1.440000*%
%ADD19O,1.700000X1.700000*%
%ADD20R,1.700000X1.700000*%
%ADD21O,1.800000X1.800000*%
%ADD22R,1.800000X1.800000*%
G04 APERTURE END LIST*
D10*
G04 #@! TO.C,IC2*
X139387504Y-80803508D03*
X139387504Y-82073508D03*
X139387504Y-83343508D03*
X139387504Y-84613508D03*
X139387504Y-85883508D03*
X139387504Y-87153508D03*
X139387504Y-88423508D03*
X139387504Y-89693508D03*
X133987504Y-89693508D03*
X133987504Y-88423508D03*
X133987504Y-87153508D03*
X133987504Y-85883508D03*
X133987504Y-84613508D03*
X133987504Y-83343508D03*
X133987504Y-82073508D03*
X133987504Y-80803508D03*
G04 #@! TD*
D11*
G04 #@! TO.C,TP11*
X135001000Y-92456000D03*
G04 #@! TD*
G04 #@! TO.C,TP12*
X139446000Y-92456000D03*
G04 #@! TD*
G04 #@! TO.C,TP10*
X139573000Y-108585000D03*
G04 #@! TD*
G04 #@! TO.C,TP9*
X135128000Y-108585000D03*
G04 #@! TD*
D12*
G04 #@! TO.C,J7*
X132334000Y-112491000D03*
X132334000Y-118491000D03*
X137034000Y-115491000D03*
G04 #@! TD*
D13*
G04 #@! TO.C,J2*
X126492000Y-83947000D03*
X126492000Y-86487000D03*
D14*
X126492000Y-89027000D03*
D13*
X126492000Y-81407000D03*
G04 #@! TD*
D15*
G04 #@! TO.C,P1*
X138938000Y-123825000D03*
X141478000Y-123825000D03*
X144018000Y-123825000D03*
X146558000Y-123825000D03*
X149098000Y-123825000D03*
X151638000Y-123825000D03*
X154178000Y-123825000D03*
X156718000Y-123825000D03*
G04 #@! TD*
G04 #@! TO.C,P2*
X161798000Y-123825000D03*
X164338000Y-123825000D03*
X166878000Y-123825000D03*
X169418000Y-123825000D03*
X171958000Y-123825000D03*
X174498000Y-123825000D03*
G04 #@! TD*
G04 #@! TO.C,P3*
X129794000Y-75565000D03*
X132334000Y-75565000D03*
X134874000Y-75565000D03*
X137414000Y-75565000D03*
X139954000Y-75565000D03*
X142494000Y-75565000D03*
X145034000Y-75565000D03*
X147574000Y-75565000D03*
X150114000Y-75565000D03*
X152654000Y-75565000D03*
G04 #@! TD*
G04 #@! TO.C,P4*
X156718000Y-75565000D03*
X159258000Y-75565000D03*
X161798000Y-75565000D03*
X164338000Y-75565000D03*
X166878000Y-75565000D03*
X169418000Y-75565000D03*
X171958000Y-75565000D03*
X174498000Y-75565000D03*
G04 #@! TD*
D16*
G04 #@! TO.C,P5*
X124968000Y-123825000D03*
G04 #@! TD*
G04 #@! TO.C,P6*
X177038000Y-118745000D03*
G04 #@! TD*
G04 #@! TO.C,P7*
X126238000Y-75565000D03*
G04 #@! TD*
G04 #@! TO.C,P8*
X177038000Y-90805000D03*
G04 #@! TD*
D17*
G04 #@! TO.C,C1*
X132087640Y-96849260D03*
X132087640Y-98849260D03*
G04 #@! TD*
G04 #@! TO.C,C2*
X131900685Y-82829096D03*
X131900685Y-80829096D03*
G04 #@! TD*
D10*
G04 #@! TO.C,IC1*
X134187640Y-96863344D03*
X134187640Y-98133344D03*
X134187640Y-99403344D03*
X134187640Y-100673344D03*
X134187640Y-101943344D03*
X134187640Y-103213344D03*
X134187640Y-104483344D03*
X134187640Y-105753344D03*
X139587640Y-105753344D03*
X139587640Y-104483344D03*
X139587640Y-103213344D03*
X139587640Y-101943344D03*
X139587640Y-100673344D03*
X139587640Y-99403344D03*
X139587640Y-98133344D03*
X139587640Y-96863344D03*
G04 #@! TD*
D13*
G04 #@! TO.C,J1*
X126492000Y-97409000D03*
D14*
X126492000Y-105029000D03*
D13*
X126492000Y-102489000D03*
X126492000Y-99949000D03*
G04 #@! TD*
D18*
G04 #@! TO.C,RV1*
X142494000Y-104013000D03*
X145034000Y-101473000D03*
X142494000Y-98933000D03*
G04 #@! TD*
G04 #@! TO.C,RV2*
X142748000Y-82931000D03*
X145288000Y-85471000D03*
X142748000Y-88011000D03*
G04 #@! TD*
D19*
G04 #@! TO.C,TP1*
X154775232Y-91527945D03*
D20*
X152235232Y-91527945D03*
G04 #@! TD*
G04 #@! TO.C,TP2*
X152235232Y-87927945D03*
D19*
X154775232Y-87927945D03*
G04 #@! TD*
G04 #@! TO.C,TP3*
X154775232Y-84327945D03*
D20*
X152235232Y-84327945D03*
G04 #@! TD*
G04 #@! TO.C,TP4*
X152235232Y-80727945D03*
D19*
X154775232Y-80727945D03*
G04 #@! TD*
G04 #@! TO.C,TP5*
X154742641Y-107386568D03*
D20*
X152202641Y-107386568D03*
G04 #@! TD*
G04 #@! TO.C,TP6*
X152202641Y-103786568D03*
D19*
X154742641Y-103786568D03*
G04 #@! TD*
G04 #@! TO.C,TP7*
X154742641Y-100186568D03*
D20*
X152202641Y-100186568D03*
G04 #@! TD*
G04 #@! TO.C,TP8*
X152202641Y-96586568D03*
D19*
X154742641Y-96586568D03*
G04 #@! TD*
D17*
G04 #@! TO.C,C3*
X156718000Y-119015000D03*
X156718000Y-121015000D03*
G04 #@! TD*
D21*
G04 #@! TO.C,U1*
X149606000Y-118999000D03*
X147066000Y-118999000D03*
D22*
X144526000Y-118999000D03*
G04 #@! TD*
D20*
G04 #@! TO.C,REF\002A\002A*
X146050000Y-114554000D03*
D19*
X148590000Y-114554000D03*
G04 #@! TD*
M02*
