M48
;DRILL file {KiCad (5.0.2)-1} date 1/29/2019 12:00:25 AM
;FORMAT={-:-/ absolute / inch / decimal}
FMAT,2
INCH,TZ
T1C0.0157
T2C0.0315
T3C0.0394
T4C0.0394
T5C0.0400
T6C0.0432
T7C0.1181
T8C0.1200
%
G90
G05
T1
X5.045Y-3.175
X5.045Y-3.28
X5.045Y-3.38
X5.045Y-3.8
X5.045Y-3.905
X5.045Y-4.005
X5.115Y-3.55
X5.115Y-3.725
X5.115Y-4.175
X5.115Y-4.325
X5.14Y-3.185
X5.14Y-3.815
X5.165Y-3.55
X5.165Y-3.725
X5.165Y-4.175
X5.165Y-4.325
X5.195Y-3.3075
X5.195Y-3.3825
X5.2Y-3.9375
X5.2Y-4.015
X5.31Y-3.53
X5.315Y-3.28
X5.315Y-3.38
X5.3154Y-3.33
X5.3225Y-3.9125
X5.3225Y-3.9635
X5.3225Y-4.0125
X5.345Y-4.165
X5.3804Y-3.225
X5.435Y-3.225
X5.4475Y-3.38
X5.455Y-4.0125
X5.52Y-3.125
X5.54Y-3.48
X5.545Y-4.115
X5.745Y-3.625
X5.745Y-3.725
X5.745Y-4.25
X5.745Y-4.375
X5.845Y-3.2125
X5.845Y-3.3375
X5.845Y-3.425
X5.845Y-3.525
X5.845Y-3.845
X5.845Y-3.965
X5.845Y-4.05
X5.845Y-4.15
X5.92Y-4.35
X5.92Y-4.45
X5.995Y-3.625
X5.995Y-3.725
X6.0425Y-3.8525
X6.0425Y-4.0525
X6.045Y-3.2275
X6.045Y-3.4275
X6.095Y-3.0175
X6.095Y-3.115
X6.17Y-4.35
X6.17Y-4.45
X6.17Y-4.625
X6.245Y-3.625
X6.245Y-3.725
X6.305Y-4.41
X6.32Y-4.575
X6.32Y-4.775
X6.37Y-3.75
X6.42Y-3.975
X6.42Y-4.175
X6.42Y-4.375
X6.42Y-4.575
X6.42Y-4.775
X6.445Y-3.055
X6.445Y-3.1125
X6.445Y-3.675
X6.47Y-3.775
X6.52Y-3.975
X6.52Y-4.175
X6.52Y-4.375
X6.52Y-4.575
X6.52Y-4.775
X6.595Y-3.0575
X6.595Y-3.1125
T2
X5.62Y-3.265
X5.62Y-3.465
X5.72Y-3.365
X5.61Y-3.895
X5.61Y-4.095
X5.71Y-3.995
T3
X5.9922Y-4.0025
X6.0922Y-4.0025
X5.9925Y-3.4775
X6.0925Y-3.4775
X5.69Y-4.685
X5.79Y-4.685
X5.89Y-4.685
X5.9925Y-4.1025
X6.0925Y-4.1025
X5.75Y-4.51
X5.85Y-4.51
X5.9925Y-3.3775
X6.0925Y-3.3775
X5.9922Y-3.8026
X6.0922Y-3.8026
X5.9925Y-3.9025
X6.0925Y-3.9025
X5.9925Y-3.1775
X6.0925Y-3.1775
X5.9925Y-3.2775
X6.0925Y-3.2775
T4
X5.495Y-4.275
X5.49Y-3.64
X5.315Y-3.64
X5.32Y-4.275
T5
X6.17Y-2.975
X6.27Y-2.975
X6.37Y-2.975
X6.47Y-2.975
X6.57Y-2.975
X6.67Y-2.975
X6.77Y-2.975
X6.87Y-2.975
X5.11Y-2.975
X5.21Y-2.975
X5.31Y-2.975
X5.41Y-2.975
X5.51Y-2.975
X5.61Y-2.975
X5.71Y-2.975
X5.81Y-2.975
X5.91Y-2.975
X6.01Y-2.975
X5.47Y-4.875
X5.57Y-4.875
X5.67Y-4.875
X5.77Y-4.875
X5.87Y-4.875
X5.97Y-4.875
X6.07Y-4.875
X6.17Y-4.875
X6.37Y-4.875
X6.47Y-4.875
X6.57Y-4.875
X6.67Y-4.875
X6.77Y-4.875
X6.87Y-4.875
T6
X4.98Y-3.835
X4.98Y-3.935
X4.98Y-4.035
X4.98Y-4.135
X4.98Y-3.205
X4.98Y-3.305
X4.98Y-3.405
X4.98Y-3.505
T7
X5.21Y-4.4288
X5.21Y-4.665
X5.395Y-4.5469
T8
X4.92Y-4.875
X4.97Y-2.975
X6.97Y-3.575
X6.97Y-4.675
T0
M30
