M48
;DRILL file {KiCad (5.0.0-rc3-dev-14-g1a2291879)} date 01/08/19 02:03:25
;FORMAT={-:-/ absolute / inch / decimal}
FMAT,2
INCH,TZ
T1C0.0157
T2C0.0315
T3C0.0394
T4C0.0394
T5C0.0400
T6C0.0432
T7C0.1181
T8C0.1200
%
G90
G05
M72
T1
X5.04Y-3.315
X5.04Y-3.415
X5.04Y-3.945
X5.04Y-4.045
X5.115Y-3.295
X5.115Y-3.525
X5.115Y-3.725
X5.115Y-3.935
X5.115Y-4.175
X5.115Y-4.325
X5.14Y-3.185
X5.14Y-3.815
X5.165Y-3.295
X5.165Y-3.525
X5.165Y-3.725
X5.165Y-3.935
X5.165Y-4.175
X5.165Y-4.325
X5.225Y-3.385
X5.2318Y-4.0138
X5.31Y-3.53
X5.3154Y-3.33
X5.325Y-3.285
X5.325Y-3.385
X5.33Y-4.015
X5.335Y-3.915
X5.345Y-4.165
X5.3538Y-3.9626
X5.3804Y-3.225
X5.435Y-3.225
X5.437Y-3.387
X5.4444Y-4.0216
X5.54Y-3.48
X5.545Y-4.115
X5.55Y-3.2
X5.55Y-3.25
X5.675Y-3.245
X5.675Y-3.285
X5.72Y-4.425
X5.785Y-3.35
X5.785Y-3.38
X5.79Y-3.2
X5.82Y-3.875
X5.82Y-4.015
X5.82Y-4.15
X5.82Y-4.3
X5.845Y-3.27
X5.845Y-3.475
X5.845Y-3.625
X5.92Y-4.375
X5.92Y-4.425
X5.93Y-3.245
X5.93Y-3.45
X6.07Y-4.375
X6.07Y-4.425
X6.09Y-2.975
X6.09Y-3.1
X6.17Y-4.625
X6.22Y-4.375
X6.22Y-4.425
X6.305Y-4.41
X6.32Y-4.575
X6.32Y-4.775
X6.42Y-3.975
X6.42Y-4.175
X6.42Y-4.375
X6.42Y-4.575
X6.42Y-4.775
X6.47Y-3.775
X6.52Y-3.02
X6.52Y-3.11
X6.52Y-3.975
X6.52Y-4.175
X6.52Y-4.375
X6.52Y-4.575
X6.52Y-4.775
X6.62Y-3.02
X6.62Y-3.11
T2
X5.61Y-3.895
X5.61Y-4.095
X5.71Y-3.995
X5.62Y-3.265
X5.62Y-3.465
X5.72Y-3.365
T3
X5.9922Y-3.8026
X6.0922Y-3.8026
X5.9922Y-4.2278
X6.0922Y-4.2278
X5.9935Y-3.1783
X6.0935Y-3.1783
X5.75Y-4.51
X5.85Y-4.51
X5.69Y-4.685
X5.79Y-4.685
X5.89Y-4.685
X5.9922Y-4.0861
X6.0922Y-4.0861
X5.9935Y-3.4617
X6.0935Y-3.4617
X5.9935Y-3.6035
X6.0935Y-3.6035
X5.9935Y-3.32
X6.0935Y-3.32
X5.9922Y-3.9444
X6.0922Y-3.9444
T4
X5.32Y-4.275
X5.495Y-4.275
X5.315Y-3.64
X5.49Y-3.64
T5
X5.47Y-4.875
X5.57Y-4.875
X5.67Y-4.875
X5.77Y-4.875
X5.87Y-4.875
X5.97Y-4.875
X6.07Y-4.875
X6.17Y-4.875
X6.37Y-4.875
X6.47Y-4.875
X6.57Y-4.875
X6.67Y-4.875
X6.77Y-4.875
X6.87Y-4.875
X5.11Y-2.975
X5.21Y-2.975
X5.31Y-2.975
X5.41Y-2.975
X5.51Y-2.975
X5.61Y-2.975
X5.71Y-2.975
X5.81Y-2.975
X5.91Y-2.975
X6.01Y-2.975
X6.17Y-2.975
X6.27Y-2.975
X6.37Y-2.975
X6.47Y-2.975
X6.57Y-2.975
X6.67Y-2.975
X6.77Y-2.975
X6.87Y-2.975
T6
X4.98Y-3.835
X4.98Y-3.935
X4.98Y-4.035
X4.98Y-4.135
X4.98Y-3.205
X4.98Y-3.305
X4.98Y-3.405
X4.98Y-3.505
T7
X5.21Y-4.4288
X5.21Y-4.665
X5.395Y-4.5469
T8
X6.97Y-3.575
X4.97Y-2.975
X6.97Y-4.675
X4.92Y-4.875
T0
M30
